M48
;DRILL file {KiCad 4.0.7-e2-6376~60~ubuntu17.10.1} date Fri Nov 10 10:24:07 2017
;FORMAT={2:4/ absolute / inch / suppress leading zeros}
FMAT,2
INCH,TZ
T1C0.016
T2C0.024
T3C0.028
T4C0.030
T5C0.030
T6C0.031
T7C0.039
T8C0.047
T9C0.118
T10C0.197
%
G90
G05
M72
T1
X41693Y-13287
X45945Y-48878
X45948Y-47930
X48622Y-47224
X49173Y-45650
X51299Y-50531
X51299Y-51004
X53002Y-16998
X53031Y-26909
X53031Y-35020
X53081Y-40384
X53189Y-32795
X53238Y-25187
X53425Y-47146
X53543Y-38996
X53602Y-19173
X53670Y-31527
X53770Y-41437
X53789Y-23612
X53848Y-15502
X54045Y-31191
X54085Y-23012
X54114Y-38766
X54163Y-39360
X54262Y-11565
X54262Y-15049
X54656Y-24636
X54734Y-40384
X54892Y-23533
X54892Y-39360
X54931Y-32480
X55049Y-15581
X55315Y-36201
X55394Y-35492
X55833Y-31167
X55837Y-12746
X55915Y-20305
X56014Y-28317
X56024Y-26752
X56073Y-32283
X56073Y-32982
X56781Y-16841
X57126Y-50925
X57254Y-20778
X57254Y-24242
X57254Y-28573
X57254Y-31880
X57254Y-32825
X57254Y-35423
X57254Y-36526
X57313Y-25187
X57333Y-16211
X57333Y-17313
X57333Y-19675
X57854Y-43514
X57854Y-44734
X58186Y-32470
X58278Y-16841
X58278Y-24636
X58278Y-40463
X58307Y-22421
X58671Y-12746
X58671Y-42372
X58681Y-41309
X58750Y-37785
X58750Y-38652
X59065Y-20226
X59610Y-27224
X59695Y-19203
X59774Y-35974
X59852Y-34872
X59931Y-11407
X60118Y-21634
X60246Y-13612
X60325Y-29360
X60325Y-37234
X60472Y-45177
X60748Y-48406
X60906Y-19429
X61614Y-46043
X62008Y-46043
X63110Y-51161
X63317Y-20699
X63317Y-32116
X63396Y-12982
X63396Y-24242
X63396Y-28494
X63474Y-39990
X63711Y-36368
X66811Y-48169
X69016Y-50689
X71378Y-47382
X71930Y-29714
X71930Y-35147
X72323Y-48720
X73426Y-32943
X73505Y-38218
X74606Y-44469
X74921Y-50689
T2
X41063Y-11319
X49508Y-60610
X49567Y-57618
X49882Y-47776
X50669Y-47854
X51300Y-47877
X51535Y-59508
X51772Y-58248
X51850Y-47854
X53435Y-25886
X53583Y-59508
X54449Y-25915
X55650Y-25915
X57313Y-41860
X57785Y-25807
X57805Y-33415
X57904Y-18022
X58307Y-44390
X59862Y-18209
X60059Y-34094
X60157Y-26112
X61398Y-18209
X61772Y-26122
X62008Y-34075
X63396Y-16368
X64636Y-49183
X65157Y-46014
X66181Y-49193
T3
X51791Y-22106
T4
X45788Y-12736
X46576Y-12736
X69057Y-12744
X69844Y-12744
T5
X28618Y-25815
X28618Y-26815
X28618Y-27815
X28618Y-28815
X28618Y-29815
X28618Y-30815
X28618Y-31815
X28618Y-32815
X28618Y-33815
X28618Y-34815
X28618Y-35815
X29618Y-25815
X29618Y-26815
X29618Y-27815
X29618Y-28815
X29618Y-29815
X29618Y-30815
X29618Y-31815
X29618Y-32815
X29618Y-33815
X29618Y-34815
X29618Y-35815
X30618Y-25815
X30618Y-26815
X30618Y-27815
X30618Y-28815
X30618Y-29815
X30618Y-30815
X30618Y-31815
X30618Y-32815
X30618Y-33815
X30618Y-34815
X30618Y-35815
X31618Y-25815
X31618Y-26815
X31618Y-27815
X31618Y-28815
X31618Y-29815
X31618Y-30815
X31618Y-31815
X31618Y-32815
X31618Y-33815
X31618Y-34815
X31618Y-35815
X31717Y-45421
X31717Y-46421
X31717Y-47421
X31717Y-48421
X31717Y-49421
X31717Y-50421
X31717Y-51421
X31717Y-52421
X31717Y-53421
X31717Y-54421
X31717Y-55421
X31717Y-56421
X31717Y-57421
X31717Y-58421
X31717Y-59421
X32618Y-25815
X32618Y-26815
X32618Y-27815
X32618Y-28815
X32618Y-29815
X32618Y-30815
X32618Y-31815
X32618Y-32815
X32618Y-33815
X32618Y-34815
X32618Y-35815
X32717Y-45421
X32717Y-46421
X32717Y-47421
X32717Y-48421
X32717Y-49421
X32717Y-50421
X32717Y-51421
X32717Y-52421
X32717Y-53421
X32717Y-54421
X32717Y-55421
X32717Y-56421
X32717Y-57421
X32717Y-58421
X32717Y-59421
X33618Y-25815
X33618Y-26815
X33618Y-27815
X33618Y-28815
X33618Y-29815
X33618Y-30815
X33618Y-31815
X33618Y-32815
X33618Y-33815
X33618Y-34815
X33618Y-35815
X33717Y-45421
X33717Y-46421
X33717Y-47421
X33717Y-48421
X33717Y-49421
X33717Y-50421
X33717Y-51421
X33717Y-52421
X33717Y-53421
X33717Y-54421
X33717Y-55421
X33717Y-56421
X33717Y-57421
X33717Y-58421
X33717Y-59421
X34618Y-25815
X34618Y-26815
X34618Y-27815
X34618Y-28815
X34618Y-29815
X34618Y-30815
X34618Y-31815
X34618Y-32815
X34618Y-33815
X34618Y-34815
X34618Y-35815
X34717Y-45421
X34717Y-46421
X34717Y-47421
X34717Y-48421
X34717Y-49421
X34717Y-50421
X34717Y-51421
X34717Y-52421
X34717Y-53421
X34717Y-54421
X34717Y-55421
X34717Y-56421
X34717Y-57421
X34717Y-58421
X34717Y-59421
X35618Y-25815
X35618Y-26815
X35618Y-27815
X35618Y-28815
X35618Y-29815
X35618Y-30815
X35618Y-31815
X35618Y-32815
X35618Y-33815
X35618Y-34815
X35618Y-35815
X35717Y-45421
X35717Y-46421
X35717Y-47421
X35717Y-48421
X35717Y-49421
X35717Y-50421
X35717Y-51421
X35717Y-52421
X35717Y-53421
X35717Y-54421
X35717Y-55421
X35717Y-56421
X35717Y-57421
X35717Y-58421
X35717Y-59421
X36618Y-25815
X36618Y-26815
X36618Y-27815
X36618Y-28815
X36618Y-29815
X36618Y-30815
X36618Y-31815
X36618Y-32815
X36618Y-33815
X36618Y-34815
X36618Y-35815
X36717Y-45421
X36717Y-46421
X36717Y-47421
X36717Y-48421
X36717Y-49421
X36717Y-50421
X36717Y-51421
X36717Y-52421
X36717Y-53421
X36717Y-54421
X36717Y-55421
X36717Y-56421
X36717Y-57421
X36717Y-58421
X36717Y-59421
X37618Y-25815
X37618Y-26815
X37618Y-27815
X37618Y-28815
X37618Y-29815
X37618Y-30815
X37618Y-31815
X37618Y-32815
X37618Y-33815
X37618Y-34815
X37618Y-35815
X37717Y-45421
X37717Y-46421
X37717Y-47421
X37717Y-48421
X37717Y-49421
X37717Y-50421
X37717Y-51421
X37717Y-52421
X37717Y-53421
X37717Y-54421
X37717Y-55421
X37717Y-56421
X37717Y-57421
X37717Y-58421
X37717Y-59421
X38618Y-25815
X38618Y-26815
X38618Y-27815
X38618Y-28815
X38618Y-29815
X38618Y-30815
X38618Y-31815
X38618Y-32815
X38618Y-33815
X38618Y-34815
X38618Y-35815
X38717Y-45421
X38717Y-46421
X38717Y-47421
X38717Y-48421
X38717Y-49421
X38717Y-50421
X38717Y-51421
X38717Y-52421
X38717Y-53421
X38717Y-54421
X38717Y-55421
X38717Y-56421
X38717Y-57421
X38717Y-58421
X38717Y-59421
X39618Y-25815
X39618Y-26815
X39618Y-27815
X39618Y-28815
X39618Y-29815
X39618Y-30815
X39618Y-31815
X39618Y-32815
X39618Y-33815
X39618Y-34815
X39618Y-35815
X39717Y-45421
X39717Y-46421
X39717Y-47421
X39717Y-48421
X39717Y-49421
X39717Y-50421
X39717Y-51421
X39717Y-52421
X39717Y-53421
X39717Y-54421
X39717Y-55421
X39717Y-56421
X39717Y-57421
X39717Y-58421
X39717Y-59421
X40618Y-25815
X40618Y-26815
X40618Y-27815
X40618Y-28815
X40618Y-29815
X40618Y-30815
X40618Y-31815
X40618Y-32815
X40618Y-33815
X40618Y-34815
X40618Y-35815
X40717Y-45421
X40717Y-46421
X40717Y-47421
X40717Y-48421
X40717Y-49421
X40717Y-50421
X40717Y-51421
X40717Y-52421
X40717Y-53421
X40717Y-54421
X40717Y-55421
X40717Y-56421
X40717Y-57421
X40717Y-58421
X40717Y-59421
X41618Y-25815
X41618Y-26815
X41618Y-27815
X41618Y-28815
X41618Y-29815
X41618Y-30815
X41618Y-31815
X41618Y-32815
X41618Y-33815
X41618Y-34815
X41618Y-35815
X41717Y-45421
X41717Y-46421
X41717Y-47421
X41717Y-48421
X41717Y-49421
X41717Y-50421
X41717Y-51421
X41717Y-52421
X41717Y-53421
X41717Y-54421
X41717Y-55421
X41717Y-56421
X41717Y-57421
X41717Y-58421
X41717Y-59421
X42618Y-25815
X42618Y-26815
X42618Y-27815
X42618Y-28815
X42618Y-29815
X42618Y-30815
X42618Y-31815
X42618Y-32815
X42618Y-33815
X42618Y-34815
X42618Y-35815
X42717Y-45421
X42717Y-46421
X42717Y-47421
X42717Y-48421
X42717Y-49421
X42717Y-50421
X42717Y-51421
X42717Y-52421
X42717Y-53421
X42717Y-54421
X42717Y-55421
X42717Y-56421
X42717Y-57421
X42717Y-58421
X42717Y-59421
X43618Y-25815
X43618Y-26815
X43618Y-27815
X43618Y-28815
X43618Y-29815
X43618Y-30815
X43618Y-31815
X43618Y-32815
X43618Y-33815
X43618Y-34815
X43618Y-35815
X43717Y-45421
X43717Y-46421
X43717Y-47421
X43717Y-48421
X43717Y-49421
X43717Y-50421
X43717Y-51421
X43717Y-52421
X43717Y-53421
X43717Y-54421
X43717Y-55421
X43717Y-56421
X43717Y-57421
X43717Y-58421
X43717Y-59421
X44618Y-25815
X44618Y-26815
X44618Y-27815
X44618Y-28815
X44618Y-29815
X44618Y-30815
X44618Y-31815
X44618Y-32815
X44618Y-33815
X44618Y-34815
X44618Y-35815
X45618Y-25815
X45618Y-26815
X45618Y-27815
X45618Y-28815
X45618Y-29815
X45618Y-30815
X45618Y-31815
X45618Y-32815
X45618Y-33815
X45618Y-34815
X45618Y-35815
X46618Y-25815
X46618Y-26815
X46618Y-27815
X46618Y-28815
X46618Y-29815
X46618Y-30815
X46618Y-31815
X46618Y-32815
X46618Y-33815
X46618Y-34815
X46618Y-35815
X46765Y-47930
X46765Y-48930
X46765Y-49930
X46765Y-50930
X46765Y-51930
X46765Y-52930
X46765Y-53930
X46765Y-54930
X46765Y-55930
X46765Y-56930
X47618Y-25815
X47618Y-26815
X47618Y-27815
X47618Y-28815
X47618Y-29815
X47618Y-30815
X47618Y-31815
X47618Y-32815
X47618Y-33815
X47618Y-34815
X47618Y-35815
X47765Y-47930
X47765Y-48930
X47765Y-49930
X47765Y-50930
X47765Y-51930
X47765Y-52930
X47765Y-53930
X47765Y-54930
X47765Y-55930
X47765Y-56930
X48618Y-25815
X48618Y-26815
X48618Y-27815
X48618Y-28815
X48618Y-29815
X48618Y-30815
X48618Y-31815
X48618Y-32815
X48618Y-33815
X48618Y-34815
X48618Y-35815
X49035Y-22106
T7
X28965Y-19130
X28965Y-20130
X28965Y-23130
X28965Y-24130
X28965Y-37130
X28965Y-38130
X28965Y-41130
X28965Y-42130
X29965Y-19130
X29965Y-20130
X29965Y-23130
X29965Y-24130
X29965Y-37130
X29965Y-38130
X29965Y-41130
X29965Y-42130
X30965Y-19130
X30965Y-20130
X30965Y-23130
X30965Y-24130
X30965Y-37130
X30965Y-38130
X30965Y-41130
X30965Y-42130
X31965Y-19130
X31965Y-20130
X31965Y-23130
X31965Y-24130
X31965Y-37130
X31965Y-38130
X31965Y-41130
X31965Y-42130
X32965Y-19130
X32965Y-20130
X32965Y-23130
X32965Y-24130
X32965Y-37130
X32965Y-38130
X32965Y-41130
X32965Y-42130
X33371Y-12549
X33965Y-19130
X33965Y-20130
X33965Y-23130
X33965Y-24130
X33965Y-37130
X33965Y-38130
X33965Y-41130
X33965Y-42130
X34965Y-19130
X34965Y-20130
X34965Y-23130
X34965Y-24130
X34965Y-37130
X34965Y-38130
X34965Y-41130
X34965Y-42130
X35371Y-12549
X35965Y-19130
X35965Y-20130
X35965Y-23130
X35965Y-24130
X35965Y-37130
X35965Y-38130
X35965Y-41130
X35965Y-42130
X36965Y-19130
X36965Y-20130
X36965Y-23130
X36965Y-24130
X36965Y-37130
X36965Y-38130
X36965Y-41130
X36965Y-42130
X37965Y-19130
X37965Y-20130
X37965Y-23130
X37965Y-24130
X37965Y-37130
X37965Y-38130
X37965Y-41130
X37965Y-42130
X38965Y-19130
X38965Y-20130
X38965Y-23130
X38965Y-24130
X38965Y-37130
X38965Y-38130
X38965Y-41130
X38965Y-42130
X39965Y-19130
X39965Y-20130
X39965Y-23130
X39965Y-24130
X39965Y-37130
X39965Y-38130
X39965Y-41130
X39965Y-42130
X40965Y-19130
X40965Y-20130
X40965Y-23130
X40965Y-24130
X40965Y-37130
X40965Y-38130
X40965Y-41130
X40965Y-42130
X41965Y-19130
X41965Y-20130
X41965Y-23130
X41965Y-24130
X41965Y-37130
X41965Y-38130
X41965Y-41130
X41965Y-42130
X42965Y-19130
X42965Y-20130
X42965Y-23130
X42965Y-24130
X42965Y-37130
X42965Y-38130
X42965Y-41130
X42965Y-42130
X43965Y-19130
X43965Y-20130
X43965Y-23130
X43965Y-24130
X43965Y-37130
X43965Y-38130
X43965Y-41130
X43965Y-42130
X44965Y-19130
X44965Y-20130
X44965Y-23130
X44965Y-24130
X44965Y-37130
X44965Y-38130
X44965Y-41130
X44965Y-42130
X45965Y-19130
X45965Y-20130
X45965Y-23130
X45965Y-24130
X45965Y-37130
X45965Y-38130
X45965Y-41130
X45965Y-42130
X46965Y-19130
X46965Y-20130
X46965Y-23130
X46965Y-24130
X46965Y-37130
X46965Y-38130
X46965Y-41130
X46965Y-42130
X47965Y-19130
X47965Y-20130
X47965Y-23130
X47965Y-24130
X47965Y-37130
X47965Y-38130
X47965Y-41130
X47965Y-42130
X52923Y-30801
X52923Y-31801
X52923Y-38573
X52923Y-39573
X53002Y-14793
X53002Y-15793
X53002Y-23085
X53002Y-24085
X53002Y-29203
X53002Y-37077
X53081Y-13455
X53081Y-21329
X54291Y-45622
X55291Y-45622
X55418Y-59242
X55867Y-53887
X56291Y-45622
X56867Y-53887
X57291Y-45622
X57418Y-59242
X61225Y-59242
X61792Y-53887
X62792Y-53887
X63225Y-59242
X67170Y-59222
X67619Y-53868
X68364Y-18568
X68364Y-19568
X68364Y-20568
X68464Y-23408
X68464Y-24408
X68464Y-25408
X68619Y-53868
X68961Y-14626
X69170Y-59222
X69364Y-18568
X69364Y-19568
X69364Y-20568
X69424Y-36228
X69424Y-37228
X69424Y-38228
X69449Y-31233
X69449Y-32233
X69449Y-33233
X69464Y-23408
X69464Y-24408
X69464Y-25408
X69961Y-14626
X70424Y-36228
X70424Y-37228
X70424Y-38228
X70449Y-31233
X70449Y-32233
X70449Y-33233
X72890Y-13445
X73017Y-59242
X73465Y-53887
X73890Y-13445
X74465Y-53887
X74890Y-13445
X75017Y-59242
X75890Y-13445
X76890Y-13445
X78624Y-25528
X78624Y-26528
X78624Y-27528
X78674Y-19428
X78674Y-20428
X78674Y-21428
X78724Y-31928
X78724Y-32928
X78724Y-33928
X78824Y-37628
X78824Y-38628
X78824Y-39628
X84724Y-18328
X84724Y-20328
X84724Y-22328
X84724Y-24628
X84724Y-26628
X84724Y-28628
X84724Y-30928
X84724Y-32928
X84724Y-34928
X84724Y-37228
X84724Y-39228
X84724Y-41228
T8
X58091Y-48238
X58091Y-50206
X64091Y-48238
X64091Y-50206
X64104Y-13730
X64104Y-15699
X64104Y-29439
X64104Y-31407
X64104Y-37313
X64104Y-39281
X64189Y-21549
X64189Y-23518
X69791Y-48238
X69791Y-50206
X75691Y-48238
X75691Y-50206
T9
X29941Y-48425
X29941Y-52421
X29941Y-56417
X47579Y-45669
X47579Y-59232
T10
X29488Y-12185
X29488Y-59665
X85000Y-12185
X85000Y-59665
T6
X38032Y-11880G85X38426Y-11880
G05
X38032Y-13021G85X38426Y-13021
G05
X38032Y-14163G85X38426Y-14163
G05
T0
M30
