G04 #@! TF.FileFunction,Soldermask,Top*
%FSLAX46Y46*%
G04 Gerber Fmt 4.6, Leading zero omitted, Abs format (unit mm)*
G04 Created by KiCad (PCBNEW 4.0.7-e2-6376~60~ubuntu17.10.1) date Fri Nov 10 10:24:04 2017*
%MOMM*%
%LPD*%
G01*
G04 APERTURE LIST*
%ADD10C,0.100000*%
%ADD11R,1.700000X1.700000*%
%ADD12O,1.700000X1.700000*%
%ADD13C,1.524000*%
%ADD14R,1.300000X1.500000*%
%ADD15R,1.300000X0.700000*%
%ADD16R,0.700000X1.300000*%
%ADD17R,1.422400X0.279400*%
%ADD18R,1.500000X1.250000*%
%ADD19R,1.625600X0.889000*%
%ADD20R,1.625600X3.175000*%
%ADD21R,1.500000X1.300000*%
%ADD22R,1.350000X1.200000*%
%ADD23R,0.508000X1.320800*%
%ADD24R,1.800000X1.800000*%
%ADD25R,1.250000X1.500000*%
%ADD26R,1.200000X1.350000*%
%ADD27R,1.200000X1.700000*%
%ADD28O,1.200000X1.700000*%
%ADD29R,2.000000X3.800000*%
%ADD30R,2.000000X1.500000*%
%ADD31R,1.400000X1.000000*%
%ADD32C,1.800000*%
%ADD33C,1.750000*%
%ADD34C,2.000000*%
%ADD35O,3.000000X2.000000*%
%ADD36C,5.000000*%
%ADD37C,3.000000*%
%ADD38C,1.500000*%
G04 APERTURE END LIST*
D10*
D11*
X121830000Y-61290000D03*
D12*
X121830000Y-58750000D03*
X119290000Y-61290000D03*
X119290000Y-58750000D03*
X116750000Y-61290000D03*
X116750000Y-58750000D03*
X114210000Y-61290000D03*
X114210000Y-58750000D03*
X111670000Y-61290000D03*
X111670000Y-58750000D03*
X109130000Y-61290000D03*
X109130000Y-58750000D03*
X106590000Y-61290000D03*
X106590000Y-58750000D03*
X104050000Y-61290000D03*
X104050000Y-58750000D03*
X101510000Y-61290000D03*
X101510000Y-58750000D03*
X98970000Y-61290000D03*
X98970000Y-58750000D03*
X96430000Y-61290000D03*
X96430000Y-58750000D03*
X93890000Y-61290000D03*
X93890000Y-58750000D03*
X91350000Y-61290000D03*
X91350000Y-58750000D03*
X88810000Y-61290000D03*
X88810000Y-58750000D03*
X86270000Y-61290000D03*
X86270000Y-58750000D03*
X83730000Y-61290000D03*
X83730000Y-58750000D03*
X81190000Y-61290000D03*
X81190000Y-58750000D03*
X78650000Y-61290000D03*
X78650000Y-58750000D03*
X76110000Y-61290000D03*
X76110000Y-58750000D03*
X73570000Y-61290000D03*
X73570000Y-58750000D03*
D13*
X121322000Y-144602000D03*
X118782000Y-144602000D03*
X121322000Y-142062000D03*
X118782000Y-142062000D03*
X121322000Y-139522000D03*
X118782000Y-139522000D03*
X121322000Y-136982000D03*
X118782000Y-136982000D03*
X121322000Y-134442000D03*
X118782000Y-134442000D03*
X121322000Y-131902000D03*
X118782000Y-131902000D03*
X121322000Y-129362000D03*
X118782000Y-129362000D03*
X121322000Y-126822000D03*
X118782000Y-126822000D03*
X121322000Y-124282000D03*
X118782000Y-124282000D03*
X121322000Y-121742000D03*
X118782000Y-121742000D03*
D11*
X121830000Y-96850000D03*
D12*
X121830000Y-94310000D03*
X119290000Y-96850000D03*
X119290000Y-94310000D03*
X116750000Y-96850000D03*
X116750000Y-94310000D03*
X114210000Y-96850000D03*
X114210000Y-94310000D03*
X111670000Y-96850000D03*
X111670000Y-94310000D03*
X109130000Y-96850000D03*
X109130000Y-94310000D03*
X106590000Y-96850000D03*
X106590000Y-94310000D03*
X104050000Y-96850000D03*
X104050000Y-94310000D03*
X101510000Y-96850000D03*
X101510000Y-94310000D03*
X98970000Y-96850000D03*
X98970000Y-94310000D03*
X96430000Y-96850000D03*
X96430000Y-94310000D03*
X93890000Y-96850000D03*
X93890000Y-94310000D03*
X91350000Y-96850000D03*
X91350000Y-94310000D03*
X88810000Y-96850000D03*
X88810000Y-94310000D03*
X86270000Y-96850000D03*
X86270000Y-94310000D03*
X83730000Y-96850000D03*
X83730000Y-94310000D03*
X81190000Y-96850000D03*
X81190000Y-94310000D03*
X78650000Y-96850000D03*
X78650000Y-94310000D03*
X76110000Y-96850000D03*
X76110000Y-94310000D03*
X73570000Y-96850000D03*
X73570000Y-94310000D03*
D14*
X123550000Y-102100000D03*
X123550000Y-99400000D03*
D15*
X149582000Y-112644000D03*
X149582000Y-114544000D03*
D16*
X133050000Y-71150000D03*
X131150000Y-71150000D03*
X132450000Y-30750000D03*
X130550000Y-30750000D03*
X146850000Y-38950000D03*
X144950000Y-38950000D03*
D17*
X159894400Y-115346600D03*
X159894400Y-114864000D03*
X159894400Y-114356000D03*
X159894400Y-113848000D03*
X159894400Y-113365400D03*
X155525600Y-113365400D03*
X155525600Y-113848000D03*
X155525600Y-114356000D03*
X155525600Y-114864000D03*
X155525600Y-115346600D03*
D18*
X146725000Y-56975000D03*
X144225000Y-56975000D03*
D19*
X150224600Y-39263600D03*
X150224600Y-41575000D03*
X150224600Y-43886400D03*
D20*
X156625400Y-41575000D03*
D21*
X143925000Y-95175000D03*
X146625000Y-95175000D03*
D18*
X146725000Y-97175000D03*
X144225000Y-97175000D03*
D22*
X147225000Y-90375000D03*
X143875000Y-90375000D03*
D11*
X134625000Y-94175000D03*
D21*
X140625000Y-93775000D03*
X137925000Y-93775000D03*
D22*
X138075000Y-103975000D03*
X141425000Y-103975000D03*
D11*
X134425000Y-100515000D03*
D12*
X134425000Y-97975000D03*
D22*
X138075000Y-101575000D03*
X141425000Y-101575000D03*
D23*
X140355400Y-96235000D03*
X139720400Y-96235000D03*
X139060000Y-96235000D03*
X138425000Y-96235000D03*
X138425000Y-98775000D03*
X139060000Y-98775000D03*
X139720400Y-98775000D03*
X140355400Y-98775000D03*
D21*
X144125000Y-101575000D03*
X146825000Y-101575000D03*
X144125000Y-103975000D03*
X146825000Y-103975000D03*
X146825000Y-92575000D03*
X144125000Y-92575000D03*
X144025000Y-33975000D03*
X146725000Y-33975000D03*
D11*
X121830000Y-48590000D03*
D12*
X119290000Y-48590000D03*
X116750000Y-48590000D03*
X114210000Y-48590000D03*
X111670000Y-48590000D03*
X109130000Y-48590000D03*
X106590000Y-48590000D03*
X104050000Y-48590000D03*
X101510000Y-48590000D03*
X98970000Y-48590000D03*
X96430000Y-48590000D03*
X93890000Y-48590000D03*
X91350000Y-48590000D03*
X88810000Y-48590000D03*
X86270000Y-48590000D03*
X83730000Y-48590000D03*
X81190000Y-48590000D03*
X78650000Y-48590000D03*
X76110000Y-48590000D03*
X73570000Y-48590000D03*
D24*
X106002000Y-31274000D03*
X111802000Y-31274000D03*
X170252000Y-142224000D03*
X176052000Y-142224000D03*
D18*
X146725000Y-36375000D03*
X144225000Y-36375000D03*
X146675000Y-77175000D03*
X144175000Y-77175000D03*
D25*
X151868000Y-114844000D03*
X151868000Y-112344000D03*
D14*
X207326000Y-49936000D03*
X207326000Y-47236000D03*
X207326000Y-64922000D03*
X207326000Y-62222000D03*
X207580000Y-81178000D03*
X207580000Y-78478000D03*
X207580000Y-95910000D03*
X207580000Y-93210000D03*
X207326000Y-56540000D03*
X207326000Y-53840000D03*
X207326000Y-72542000D03*
X207326000Y-69842000D03*
X207580000Y-88544000D03*
X207580000Y-85844000D03*
X207580000Y-102768000D03*
X207580000Y-100068000D03*
D22*
X137725000Y-41175000D03*
X141075000Y-41175000D03*
X137475000Y-61375000D03*
X140825000Y-61375000D03*
X137675000Y-81575000D03*
X141025000Y-81575000D03*
D26*
X140692000Y-125864000D03*
X140692000Y-129214000D03*
X156186000Y-126118000D03*
X156186000Y-129468000D03*
X171426000Y-126118000D03*
X171426000Y-129468000D03*
X186158000Y-126372000D03*
X186158000Y-129722000D03*
X103302000Y-36174000D03*
X103302000Y-32824000D03*
D22*
X147025000Y-29375000D03*
X143675000Y-29375000D03*
X147325000Y-50575000D03*
X143975000Y-50575000D03*
X147225000Y-70375000D03*
X143875000Y-70375000D03*
D11*
X199833000Y-49348000D03*
D12*
X199833000Y-51888000D03*
X199833000Y-54428000D03*
D11*
X199706000Y-64842000D03*
D12*
X199706000Y-67382000D03*
X199706000Y-69922000D03*
D11*
X199960000Y-81098000D03*
D12*
X199960000Y-83638000D03*
X199960000Y-86178000D03*
D11*
X200214000Y-95576000D03*
D12*
X200214000Y-98116000D03*
X200214000Y-100656000D03*
D11*
X173645600Y-47163600D03*
D12*
X176185600Y-47163600D03*
X173645600Y-49703600D03*
X176185600Y-49703600D03*
X173645600Y-52243600D03*
X176185600Y-52243600D03*
D11*
X173899600Y-59457200D03*
D12*
X176439600Y-59457200D03*
X173899600Y-61997200D03*
X176439600Y-61997200D03*
X173899600Y-64537200D03*
X176439600Y-64537200D03*
D11*
X176401500Y-79332700D03*
D12*
X178941500Y-79332700D03*
X176401500Y-81872700D03*
X178941500Y-81872700D03*
X176401500Y-84412700D03*
X178941500Y-84412700D03*
D11*
X176338000Y-92020000D03*
D12*
X178878000Y-92020000D03*
X176338000Y-94560000D03*
X178878000Y-94560000D03*
X176338000Y-97100000D03*
X178878000Y-97100000D03*
D11*
X121830000Y-51130000D03*
D12*
X119290000Y-51130000D03*
X116750000Y-51130000D03*
X114210000Y-51130000D03*
X111670000Y-51130000D03*
X109130000Y-51130000D03*
X106590000Y-51130000D03*
X104050000Y-51130000D03*
X101510000Y-51130000D03*
X98970000Y-51130000D03*
X96430000Y-51130000D03*
X93890000Y-51130000D03*
X91350000Y-51130000D03*
X88810000Y-51130000D03*
X86270000Y-51130000D03*
X83730000Y-51130000D03*
X81190000Y-51130000D03*
X78650000Y-51130000D03*
X76110000Y-51130000D03*
X73570000Y-51130000D03*
D11*
X121830000Y-107010000D03*
D12*
X119290000Y-107010000D03*
X116750000Y-107010000D03*
X114210000Y-107010000D03*
X111670000Y-107010000D03*
X109130000Y-107010000D03*
X106590000Y-107010000D03*
X104050000Y-107010000D03*
X101510000Y-107010000D03*
X98970000Y-107010000D03*
X96430000Y-107010000D03*
X93890000Y-107010000D03*
X91350000Y-107010000D03*
X88810000Y-107010000D03*
X86270000Y-107010000D03*
X83730000Y-107010000D03*
X81190000Y-107010000D03*
X78650000Y-107010000D03*
X76110000Y-107010000D03*
X73570000Y-107010000D03*
D11*
X121830000Y-104470000D03*
D12*
X119290000Y-104470000D03*
X116750000Y-104470000D03*
X114210000Y-104470000D03*
X111670000Y-104470000D03*
X109130000Y-104470000D03*
X106590000Y-104470000D03*
X104050000Y-104470000D03*
X101510000Y-104470000D03*
X98970000Y-104470000D03*
X96430000Y-104470000D03*
X93890000Y-104470000D03*
X91350000Y-104470000D03*
X88810000Y-104470000D03*
X86270000Y-104470000D03*
X83730000Y-104470000D03*
X81190000Y-104470000D03*
X78650000Y-104470000D03*
X76110000Y-104470000D03*
X73570000Y-104470000D03*
D27*
X118302000Y-32350000D03*
D28*
X116302000Y-32350000D03*
D11*
X134625000Y-40115000D03*
D12*
X134625000Y-37575000D03*
D11*
X134625000Y-61175000D03*
D12*
X134625000Y-58635000D03*
D11*
X134425000Y-80775000D03*
D12*
X134425000Y-78235000D03*
D11*
X137898000Y-115880000D03*
D12*
X140438000Y-115880000D03*
X142978000Y-115880000D03*
X145518000Y-115880000D03*
D29*
X179792000Y-49602000D03*
D30*
X186092000Y-49602000D03*
X186092000Y-47302000D03*
X186092000Y-51902000D03*
D29*
X180046000Y-62302000D03*
D30*
X186346000Y-62302000D03*
X186346000Y-60002000D03*
X186346000Y-64602000D03*
D31*
X182731000Y-84527000D03*
X184931000Y-83577000D03*
X184931000Y-85477000D03*
X182858000Y-97989000D03*
X185058000Y-97039000D03*
X185058000Y-98939000D03*
D19*
X150624600Y-59263600D03*
X150624600Y-61575000D03*
X150624600Y-63886400D03*
D20*
X157025400Y-61575000D03*
D19*
X150224600Y-30063600D03*
X150224600Y-32375000D03*
X150224600Y-34686400D03*
D20*
X156625400Y-32375000D03*
D19*
X150440600Y-50263600D03*
X150440600Y-52575000D03*
X150440600Y-54886400D03*
D20*
X156841400Y-52575000D03*
D19*
X150624600Y-79263600D03*
X150624600Y-81575000D03*
X150624600Y-83886400D03*
D20*
X157025400Y-81575000D03*
D19*
X150424600Y-99263600D03*
X150424600Y-101575000D03*
X150424600Y-103886400D03*
D20*
X156825400Y-101575000D03*
D19*
X150424600Y-70063600D03*
X150424600Y-72375000D03*
X150424600Y-74686400D03*
D20*
X156825400Y-72375000D03*
D19*
X150424600Y-90063600D03*
X150424600Y-92375000D03*
X150424600Y-94686400D03*
D20*
X156825400Y-92375000D03*
D31*
X138068000Y-120198000D03*
X140268000Y-119248000D03*
X140268000Y-121148000D03*
X153816000Y-120706000D03*
X156016000Y-119756000D03*
X156016000Y-121656000D03*
X169056000Y-120198000D03*
X171256000Y-119248000D03*
X171256000Y-121148000D03*
X183534000Y-120452000D03*
X185734000Y-119502000D03*
X185734000Y-121402000D03*
D14*
X204024000Y-47236000D03*
X204024000Y-49936000D03*
X204024000Y-62222000D03*
X204024000Y-64922000D03*
X204024000Y-78478000D03*
X204024000Y-81178000D03*
X204024000Y-93210000D03*
X204024000Y-95910000D03*
X204024000Y-53840000D03*
X204024000Y-56540000D03*
X204024000Y-69842000D03*
X204024000Y-72542000D03*
X204024000Y-85844000D03*
X204024000Y-88544000D03*
X204024000Y-100068000D03*
X204024000Y-102768000D03*
X189038000Y-52222000D03*
X189038000Y-49522000D03*
X189038000Y-44442000D03*
X189038000Y-47142000D03*
X189292000Y-64922000D03*
X189292000Y-62222000D03*
X189292000Y-57142000D03*
X189292000Y-59842000D03*
D21*
X185308000Y-77161000D03*
X182608000Y-77161000D03*
X182671500Y-81009100D03*
X185371500Y-81009100D03*
X185435000Y-90877000D03*
X182735000Y-90877000D03*
X182735000Y-94814000D03*
X185435000Y-94814000D03*
X144275000Y-41375000D03*
X146975000Y-41375000D03*
X144125000Y-61375000D03*
X146825000Y-61375000D03*
D32*
X162825000Y-39875000D03*
X162825000Y-34875000D03*
X163039000Y-59735000D03*
X163039000Y-54735000D03*
D21*
X140625000Y-33575000D03*
X137925000Y-33575000D03*
X140825000Y-53575000D03*
X138125000Y-53575000D03*
X143925000Y-31575000D03*
X146625000Y-31575000D03*
X144075000Y-52575000D03*
X146775000Y-52575000D03*
X144125000Y-54775000D03*
X146825000Y-54775000D03*
X144125000Y-81375000D03*
X146825000Y-81375000D03*
D32*
X162825000Y-79775000D03*
X162825000Y-74775000D03*
X162825000Y-99775000D03*
X162825000Y-94775000D03*
D21*
X140775000Y-73775000D03*
X138075000Y-73775000D03*
X146825000Y-72575000D03*
X144125000Y-72575000D03*
X144125000Y-75175000D03*
X146825000Y-75175000D03*
D14*
X137898000Y-129168000D03*
X137898000Y-126468000D03*
X153646000Y-129168000D03*
X153646000Y-126468000D03*
X168886000Y-129168000D03*
X168886000Y-126468000D03*
X183364000Y-129422000D03*
X183364000Y-126722000D03*
D32*
X147550000Y-122524000D03*
X147550000Y-127524000D03*
X162790000Y-122524000D03*
X162790000Y-127524000D03*
X177268000Y-122524000D03*
X177268000Y-127524000D03*
X192254000Y-122524000D03*
X192254000Y-127524000D03*
D14*
X163552000Y-113006000D03*
X163552000Y-115706000D03*
X170410000Y-113006000D03*
X170410000Y-115706000D03*
X186666000Y-113006000D03*
X186666000Y-115706000D03*
X176760000Y-113006000D03*
X176760000Y-115706000D03*
X166854000Y-115706000D03*
X166854000Y-113006000D03*
X173712000Y-115706000D03*
X173712000Y-113006000D03*
X183364000Y-115706000D03*
X183364000Y-113006000D03*
X180062000Y-115706000D03*
X180062000Y-113006000D03*
D13*
X209612000Y-52142000D03*
X209612000Y-66874000D03*
X209866000Y-83892000D03*
X209866000Y-97862000D03*
X193102000Y-52142000D03*
X193102000Y-65096000D03*
X193102000Y-48586000D03*
X193102000Y-44776000D03*
X193102000Y-61540000D03*
X192848000Y-57222000D03*
D23*
X140555400Y-35835000D03*
X139920400Y-35835000D03*
X139260000Y-35835000D03*
X138625000Y-35835000D03*
X138625000Y-38375000D03*
X139260000Y-38375000D03*
X139920400Y-38375000D03*
X140555400Y-38375000D03*
X140225000Y-55975000D03*
X139590000Y-55975000D03*
X138929600Y-55975000D03*
X138294600Y-55975000D03*
X138294600Y-58515000D03*
X138929600Y-58515000D03*
X139590000Y-58515000D03*
X140225000Y-58515000D03*
X140390200Y-76305000D03*
X139755200Y-76305000D03*
X139094800Y-76305000D03*
X138459800Y-76305000D03*
X138459800Y-78845000D03*
X139094800Y-78845000D03*
X139755200Y-78845000D03*
X140390200Y-78845000D03*
D22*
X137725000Y-43775000D03*
X141075000Y-43775000D03*
X137475000Y-63975000D03*
X140825000Y-63975000D03*
X137475000Y-83575000D03*
X140825000Y-83575000D03*
D21*
X144275000Y-43975000D03*
X146975000Y-43975000D03*
X144125000Y-63975000D03*
X146825000Y-63975000D03*
X144125000Y-83575000D03*
X146825000Y-83575000D03*
D11*
X141902000Y-136874000D03*
D12*
X144442000Y-136874000D03*
D11*
X156952000Y-136874000D03*
D12*
X159492000Y-136874000D03*
D11*
X171752000Y-136824000D03*
D12*
X174292000Y-136824000D03*
D11*
X186602000Y-136874000D03*
D12*
X189142000Y-136874000D03*
D11*
X134825000Y-34175000D03*
X134825000Y-54175000D03*
X134625000Y-74175000D03*
X177700000Y-37150000D03*
D12*
X175160000Y-37150000D03*
D21*
X110452000Y-35874000D03*
X107752000Y-35874000D03*
D33*
X84762000Y-31874000D03*
X89842000Y-31874000D03*
X140762000Y-150474000D03*
X145842000Y-150474000D03*
X155512000Y-150474000D03*
X160592000Y-150474000D03*
X170612000Y-150424000D03*
X175692000Y-150424000D03*
X185462000Y-150474000D03*
X190542000Y-150474000D03*
D34*
X215200000Y-46554000D03*
X215200000Y-51634000D03*
X215200000Y-56714000D03*
X215200000Y-62556000D03*
X215200000Y-67636000D03*
X215200000Y-72716000D03*
X215200000Y-78558000D03*
X215200000Y-83638000D03*
X215200000Y-88718000D03*
X215200000Y-94560000D03*
X215200000Y-99640000D03*
X215200000Y-104720000D03*
D22*
X129200000Y-147950000D03*
X125850000Y-147950000D03*
X129200000Y-151150000D03*
X125850000Y-151150000D03*
D27*
X177405000Y-32369000D03*
D28*
X175405000Y-32369000D03*
D24*
X185102000Y-142274000D03*
X190902000Y-142274000D03*
X155152000Y-142274000D03*
X160952000Y-142274000D03*
X140402000Y-142274000D03*
X146202000Y-142274000D03*
D35*
X97102000Y-35974000D03*
X97102000Y-33074000D03*
X97102000Y-30174000D03*
D11*
X185140000Y-34150000D03*
D12*
X187680000Y-34150000D03*
X190220000Y-34150000D03*
X192760000Y-34150000D03*
X195300000Y-34150000D03*
D16*
X133050000Y-50950000D03*
X131150000Y-50950000D03*
X146450000Y-79175000D03*
X144550000Y-79175000D03*
X146425000Y-58975000D03*
X144525000Y-58975000D03*
X146650000Y-99550000D03*
X144750000Y-99550000D03*
X135250000Y-91150000D03*
X133350000Y-91150000D03*
D36*
X74900000Y-30950000D03*
X215900000Y-30950000D03*
X215900000Y-151550000D03*
X74900000Y-151550000D03*
D13*
X72690000Y-65570000D03*
X72690000Y-68110000D03*
X72690000Y-70650000D03*
X72690000Y-73190000D03*
X72690000Y-75730000D03*
X72690000Y-78270000D03*
X72690000Y-80810000D03*
X72690000Y-83350000D03*
X72690000Y-85890000D03*
X72690000Y-88430000D03*
X72690000Y-90970000D03*
X75230000Y-90970000D03*
X75230000Y-88430000D03*
X75230000Y-85890000D03*
X75230000Y-83350000D03*
X75230000Y-80810000D03*
X75230000Y-78270000D03*
X75230000Y-75730000D03*
X75230000Y-73190000D03*
X75230000Y-70650000D03*
X75230000Y-68110000D03*
X75230000Y-65570000D03*
X77770000Y-65570000D03*
X77770000Y-68110000D03*
X77770000Y-70650000D03*
X77770000Y-73190000D03*
X77770000Y-75730000D03*
X77770000Y-78270000D03*
X77770000Y-80810000D03*
X77770000Y-83350000D03*
X77770000Y-85890000D03*
X77770000Y-88430000D03*
X77770000Y-90970000D03*
X80310000Y-90970000D03*
X80310000Y-88430000D03*
X80310000Y-85890000D03*
X80310000Y-83350000D03*
X80310000Y-80810000D03*
X80310000Y-78270000D03*
X80310000Y-75730000D03*
X80310000Y-73190000D03*
X80310000Y-70650000D03*
X80310000Y-68110000D03*
X80310000Y-65570000D03*
X82850000Y-65570000D03*
X82850000Y-68110000D03*
X82850000Y-70650000D03*
X82850000Y-73190000D03*
X82850000Y-75730000D03*
X82850000Y-78270000D03*
X82850000Y-80810000D03*
X82850000Y-83350000D03*
X82850000Y-85890000D03*
X82850000Y-88430000D03*
X82850000Y-90970000D03*
X85390000Y-90970000D03*
X85390000Y-88430000D03*
X85390000Y-85890000D03*
X85390000Y-83350000D03*
X85390000Y-80810000D03*
X85390000Y-78270000D03*
X85390000Y-75730000D03*
X85390000Y-73190000D03*
X85390000Y-70650000D03*
X85390000Y-68110000D03*
X85390000Y-65570000D03*
X87930000Y-65570000D03*
X87930000Y-68110000D03*
X87930000Y-70650000D03*
X87930000Y-73190000D03*
X87930000Y-75730000D03*
X87930000Y-78270000D03*
X87930000Y-80810000D03*
X87930000Y-83350000D03*
X87930000Y-85890000D03*
X87930000Y-88430000D03*
X87930000Y-90970000D03*
X90470000Y-90970000D03*
X90470000Y-88430000D03*
X90470000Y-85890000D03*
X90470000Y-83350000D03*
X90470000Y-80810000D03*
X90470000Y-78270000D03*
X90470000Y-75730000D03*
X90470000Y-73190000D03*
X90470000Y-70650000D03*
X90470000Y-68110000D03*
X90470000Y-65570000D03*
X93010000Y-65570000D03*
X93010000Y-68110000D03*
X93010000Y-70650000D03*
X93010000Y-73190000D03*
X93010000Y-75730000D03*
X93010000Y-78270000D03*
X93010000Y-80810000D03*
X93010000Y-83350000D03*
X93010000Y-85890000D03*
X93010000Y-88430000D03*
X93010000Y-90970000D03*
X95550000Y-90970000D03*
X95550000Y-88430000D03*
X95550000Y-85890000D03*
X95550000Y-83350000D03*
X95550000Y-80810000D03*
X95550000Y-78270000D03*
X95550000Y-75730000D03*
X95550000Y-73190000D03*
X95550000Y-70650000D03*
X95550000Y-68110000D03*
X95550000Y-65570000D03*
X98090000Y-65570000D03*
X98090000Y-68110000D03*
X98090000Y-70650000D03*
X98090000Y-73190000D03*
X98090000Y-75730000D03*
X98090000Y-78270000D03*
X98090000Y-80810000D03*
X98090000Y-83350000D03*
X98090000Y-85890000D03*
X98090000Y-88430000D03*
X98090000Y-90970000D03*
X100630000Y-90970000D03*
X100630000Y-88430000D03*
X100630000Y-85890000D03*
X100630000Y-83350000D03*
X100630000Y-80810000D03*
X100630000Y-78270000D03*
X100630000Y-75730000D03*
X100630000Y-73190000D03*
X100630000Y-70650000D03*
X100630000Y-68110000D03*
X100630000Y-65570000D03*
X103170000Y-65570000D03*
X103170000Y-68110000D03*
X103170000Y-70650000D03*
X103170000Y-73190000D03*
X103170000Y-75730000D03*
X103170000Y-78270000D03*
X103170000Y-80810000D03*
X103170000Y-83350000D03*
X103170000Y-85890000D03*
X103170000Y-88430000D03*
X103170000Y-90970000D03*
X105710000Y-90970000D03*
X105710000Y-88430000D03*
X105710000Y-85890000D03*
X105710000Y-83350000D03*
X105710000Y-80810000D03*
X105710000Y-78270000D03*
X105710000Y-75730000D03*
X105710000Y-73190000D03*
X105710000Y-70650000D03*
X105710000Y-68110000D03*
X105710000Y-65570000D03*
X108250000Y-65570000D03*
X108250000Y-68110000D03*
X108250000Y-70650000D03*
X108250000Y-73190000D03*
X108250000Y-75730000D03*
X108250000Y-78270000D03*
X108250000Y-80810000D03*
X108250000Y-83350000D03*
X108250000Y-85890000D03*
X108250000Y-88430000D03*
X108250000Y-90970000D03*
X110790000Y-90970000D03*
X110790000Y-88430000D03*
X110790000Y-85890000D03*
X110790000Y-83350000D03*
X110790000Y-80810000D03*
X110790000Y-78270000D03*
X110790000Y-75730000D03*
X110790000Y-73190000D03*
X110790000Y-70650000D03*
X110790000Y-68110000D03*
X110790000Y-65570000D03*
X113330000Y-65570000D03*
X113330000Y-68110000D03*
X113330000Y-70650000D03*
X113330000Y-73190000D03*
X113330000Y-75730000D03*
X113330000Y-78270000D03*
X113330000Y-80810000D03*
X113330000Y-83350000D03*
X113330000Y-85890000D03*
X113330000Y-88430000D03*
X113330000Y-90970000D03*
X115870000Y-90970000D03*
X115870000Y-88430000D03*
X115870000Y-85890000D03*
X115870000Y-83350000D03*
X115870000Y-80810000D03*
X115870000Y-78270000D03*
X115870000Y-75730000D03*
X115870000Y-73190000D03*
X115870000Y-70650000D03*
X115870000Y-68110000D03*
X115870000Y-65570000D03*
X118410000Y-65570000D03*
X118410000Y-68110000D03*
X118410000Y-70650000D03*
X118410000Y-73190000D03*
X118410000Y-75730000D03*
X118410000Y-78270000D03*
X118410000Y-80810000D03*
X118410000Y-83350000D03*
X118410000Y-85890000D03*
X118410000Y-88430000D03*
X118410000Y-90970000D03*
X120950000Y-90970000D03*
X120950000Y-88430000D03*
X120950000Y-85890000D03*
X120950000Y-83350000D03*
X120950000Y-80810000D03*
X120950000Y-78270000D03*
X120950000Y-75730000D03*
X120950000Y-73190000D03*
X120950000Y-70650000D03*
X120950000Y-68110000D03*
X120950000Y-65570000D03*
X123490000Y-65570000D03*
X123490000Y-68110000D03*
X123490000Y-70650000D03*
X123490000Y-73190000D03*
X123490000Y-75730000D03*
X123490000Y-78270000D03*
X123490000Y-80810000D03*
X123490000Y-83350000D03*
X123490000Y-85890000D03*
X123490000Y-88430000D03*
X123490000Y-90970000D03*
X80560000Y-115370000D03*
X80560000Y-117910000D03*
X80560000Y-120450000D03*
X80560000Y-122990000D03*
X80560000Y-125530000D03*
X80560000Y-128070000D03*
X80560000Y-130610000D03*
X80560000Y-133150000D03*
X80560000Y-135690000D03*
X80560000Y-138230000D03*
X80560000Y-140770000D03*
X83100000Y-130610000D03*
X83100000Y-128070000D03*
X83100000Y-125530000D03*
X83100000Y-122990000D03*
X83100000Y-120450000D03*
X83100000Y-117910000D03*
X83100000Y-115370000D03*
X80560000Y-150930000D03*
X80560000Y-148390000D03*
X80560000Y-145850000D03*
X80560000Y-143310000D03*
X83100000Y-133150000D03*
X83100000Y-135690000D03*
X83100000Y-138230000D03*
X83100000Y-140770000D03*
X83100000Y-143310000D03*
X83100000Y-145850000D03*
X83100000Y-148390000D03*
X83100000Y-150930000D03*
X85640000Y-115370000D03*
X85640000Y-117910000D03*
X85640000Y-120450000D03*
X85640000Y-148390000D03*
X85640000Y-145850000D03*
X85640000Y-143310000D03*
X85640000Y-140770000D03*
X85640000Y-138230000D03*
X85640000Y-135690000D03*
X85640000Y-133150000D03*
X85640000Y-130610000D03*
X85640000Y-128070000D03*
X85640000Y-125530000D03*
X85640000Y-122990000D03*
X85640000Y-150930000D03*
X88180000Y-115370000D03*
X88180000Y-117910000D03*
X88180000Y-120450000D03*
X88180000Y-122990000D03*
X88180000Y-125530000D03*
X88180000Y-128070000D03*
X88180000Y-130610000D03*
X88180000Y-133150000D03*
X88180000Y-135690000D03*
X88180000Y-138230000D03*
X90720000Y-128070000D03*
X90720000Y-125530000D03*
X90720000Y-122990000D03*
X90720000Y-120450000D03*
X90720000Y-117910000D03*
X90720000Y-115370000D03*
X88180000Y-150930000D03*
X88180000Y-148390000D03*
X88180000Y-145850000D03*
X88180000Y-143310000D03*
X88180000Y-140770000D03*
X90720000Y-130610000D03*
X90720000Y-133150000D03*
X90720000Y-135690000D03*
X90720000Y-138230000D03*
X90720000Y-140770000D03*
X90720000Y-143310000D03*
X90720000Y-145850000D03*
X90720000Y-148390000D03*
X90720000Y-150930000D03*
X93260000Y-115370000D03*
X93260000Y-117910000D03*
X93260000Y-145850000D03*
X93260000Y-143310000D03*
X93260000Y-140770000D03*
X93260000Y-138230000D03*
X93260000Y-135690000D03*
X93260000Y-133150000D03*
X93260000Y-130610000D03*
X93260000Y-128070000D03*
X93260000Y-125530000D03*
X93260000Y-122990000D03*
X93260000Y-120450000D03*
X93260000Y-148390000D03*
X93260000Y-150930000D03*
X95800000Y-115370000D03*
X95800000Y-117910000D03*
X95800000Y-120450000D03*
X95800000Y-122990000D03*
X95800000Y-125530000D03*
X95800000Y-128070000D03*
X95800000Y-130610000D03*
X95800000Y-133150000D03*
X95800000Y-135690000D03*
X98340000Y-125530000D03*
X98340000Y-122990000D03*
X98340000Y-120450000D03*
X98340000Y-117910000D03*
X98340000Y-115370000D03*
X95800000Y-150930000D03*
X95800000Y-148390000D03*
X95800000Y-145850000D03*
X95800000Y-143310000D03*
X95800000Y-140770000D03*
X95800000Y-138230000D03*
X98340000Y-128070000D03*
X98340000Y-130610000D03*
X98340000Y-133150000D03*
X98340000Y-135690000D03*
X98340000Y-138230000D03*
X98340000Y-140770000D03*
X98340000Y-143310000D03*
X98340000Y-145850000D03*
X98340000Y-148390000D03*
X98340000Y-150930000D03*
X100880000Y-115370000D03*
X100880000Y-143310000D03*
X100880000Y-140770000D03*
X100880000Y-138230000D03*
X100880000Y-135690000D03*
X100880000Y-133150000D03*
X100880000Y-130610000D03*
X100880000Y-128070000D03*
X100880000Y-125530000D03*
X100880000Y-122990000D03*
X100880000Y-120450000D03*
X100880000Y-117910000D03*
X100880000Y-145850000D03*
X100880000Y-148390000D03*
X100880000Y-150930000D03*
X103420000Y-115370000D03*
X103420000Y-117910000D03*
X103420000Y-120450000D03*
X103420000Y-122990000D03*
X103420000Y-125530000D03*
X103420000Y-128070000D03*
X103420000Y-130610000D03*
X103420000Y-133150000D03*
X105960000Y-122990000D03*
X105960000Y-120450000D03*
X105960000Y-117910000D03*
X105960000Y-115370000D03*
X103420000Y-150930000D03*
X103420000Y-148390000D03*
X103420000Y-145850000D03*
X103420000Y-143310000D03*
X103420000Y-140770000D03*
X103420000Y-138230000D03*
X103420000Y-135690000D03*
X105960000Y-125530000D03*
X105960000Y-128070000D03*
X105960000Y-130610000D03*
X105960000Y-133150000D03*
X105960000Y-135690000D03*
X105960000Y-138230000D03*
X105960000Y-140770000D03*
X105960000Y-143310000D03*
X105960000Y-145850000D03*
X105960000Y-148390000D03*
X105960000Y-150930000D03*
X108500000Y-140770000D03*
X108500000Y-138230000D03*
X108500000Y-135690000D03*
X108500000Y-133150000D03*
X108500000Y-130610000D03*
X108500000Y-128070000D03*
X108500000Y-125530000D03*
X108500000Y-122990000D03*
X108500000Y-120450000D03*
X108500000Y-117910000D03*
X108500000Y-115370000D03*
X108500000Y-143310000D03*
X108500000Y-145850000D03*
X108500000Y-148390000D03*
X108500000Y-150930000D03*
X111040000Y-115370000D03*
X111040000Y-117910000D03*
X111040000Y-120450000D03*
X111040000Y-122990000D03*
X111040000Y-125530000D03*
X111040000Y-128070000D03*
X111040000Y-130610000D03*
X111040000Y-150930000D03*
X111040000Y-148390000D03*
X111040000Y-145850000D03*
X111040000Y-143310000D03*
X111040000Y-140770000D03*
X111040000Y-138230000D03*
X111040000Y-135690000D03*
X111040000Y-133150000D03*
D37*
X76050000Y-123000000D03*
X120850000Y-116000000D03*
X120850000Y-150450000D03*
X76050000Y-133150000D03*
X76050000Y-143300000D03*
D21*
X110450000Y-38450000D03*
X107750000Y-38450000D03*
D38*
X131550000Y-56150000D03*
D13*
X124550000Y-56150000D03*
D21*
X150300000Y-136900000D03*
X147600000Y-136900000D03*
X165350000Y-136900000D03*
X162650000Y-136900000D03*
X180150000Y-136850000D03*
X177450000Y-136850000D03*
X194950000Y-136850000D03*
X192250000Y-136850000D03*
M02*
