G04 #@! TF.FileFunction,Drawing*
%FSLAX46Y46*%
G04 Gerber Fmt 4.6, Leading zero omitted, Abs format (unit mm)*
G04 Created by KiCad (PCBNEW 4.0.7-e2-6376~60~ubuntu17.10.1) date Fri Nov 10 10:24:04 2017*
%MOMM*%
%LPD*%
G01*
G04 APERTURE LIST*
%ADD10C,0.100000*%
%ADD11C,0.300000*%
%ADD12C,0.152400*%
%ADD13C,0.127000*%
%ADD14C,0.070000*%
%ADD15C,0.203200*%
%ADD16C,0.381000*%
%ADD17C,0.050000*%
G04 APERTURE END LIST*
D10*
D11*
X223171429Y-85178573D02*
X223171429Y-84321430D01*
X223171429Y-84750002D02*
X224671429Y-84750002D01*
X224457143Y-84607145D01*
X224314286Y-84464287D01*
X224242857Y-84321430D01*
X224671429Y-85678573D02*
X224671429Y-86607144D01*
X224100000Y-86107144D01*
X224100000Y-86321430D01*
X224028571Y-86464287D01*
X223957143Y-86535716D01*
X223814286Y-86607144D01*
X223457143Y-86607144D01*
X223314286Y-86535716D01*
X223242857Y-86464287D01*
X223171429Y-86321430D01*
X223171429Y-85892858D01*
X223242857Y-85750001D01*
X223314286Y-85678573D01*
X224671429Y-87535715D02*
X224671429Y-87678572D01*
X224600000Y-87821429D01*
X224528571Y-87892858D01*
X224385714Y-87964287D01*
X224100000Y-88035715D01*
X223742857Y-88035715D01*
X223457143Y-87964287D01*
X223314286Y-87892858D01*
X223242857Y-87821429D01*
X223171429Y-87678572D01*
X223171429Y-87535715D01*
X223242857Y-87392858D01*
X223314286Y-87321429D01*
X223457143Y-87250001D01*
X223742857Y-87178572D01*
X224100000Y-87178572D01*
X224385714Y-87250001D01*
X224528571Y-87321429D01*
X224600000Y-87392858D01*
X224671429Y-87535715D01*
X223314286Y-88678572D02*
X223242857Y-88750000D01*
X223171429Y-88678572D01*
X223242857Y-88607143D01*
X223314286Y-88678572D01*
X223171429Y-88678572D01*
X224671429Y-90035715D02*
X224671429Y-89750001D01*
X224600000Y-89607144D01*
X224528571Y-89535715D01*
X224314286Y-89392858D01*
X224028571Y-89321429D01*
X223457143Y-89321429D01*
X223314286Y-89392858D01*
X223242857Y-89464286D01*
X223171429Y-89607144D01*
X223171429Y-89892858D01*
X223242857Y-90035715D01*
X223314286Y-90107144D01*
X223457143Y-90178572D01*
X223814286Y-90178572D01*
X223957143Y-90107144D01*
X224028571Y-90035715D01*
X224100000Y-89892858D01*
X224100000Y-89607144D01*
X224028571Y-89464286D01*
X223957143Y-89392858D01*
X223814286Y-89321429D01*
X224671429Y-91107143D02*
X224671429Y-91250000D01*
X224600000Y-91392857D01*
X224528571Y-91464286D01*
X224385714Y-91535715D01*
X224100000Y-91607143D01*
X223742857Y-91607143D01*
X223457143Y-91535715D01*
X223314286Y-91464286D01*
X223242857Y-91392857D01*
X223171429Y-91250000D01*
X223171429Y-91107143D01*
X223242857Y-90964286D01*
X223314286Y-90892857D01*
X223457143Y-90821429D01*
X223742857Y-90750000D01*
X224100000Y-90750000D01*
X224385714Y-90821429D01*
X224528571Y-90892857D01*
X224600000Y-90964286D01*
X224671429Y-91107143D01*
X224671429Y-92535714D02*
X224671429Y-92678571D01*
X224600000Y-92821428D01*
X224528571Y-92892857D01*
X224385714Y-92964286D01*
X224100000Y-93035714D01*
X223742857Y-93035714D01*
X223457143Y-92964286D01*
X223314286Y-92892857D01*
X223242857Y-92821428D01*
X223171429Y-92678571D01*
X223171429Y-92535714D01*
X223242857Y-92392857D01*
X223314286Y-92321428D01*
X223457143Y-92250000D01*
X223742857Y-92178571D01*
X224100000Y-92178571D01*
X224385714Y-92250000D01*
X224528571Y-92321428D01*
X224600000Y-92392857D01*
X224671429Y-92535714D01*
X223171429Y-94821428D02*
X224171429Y-94821428D01*
X224028571Y-94821428D02*
X224100000Y-94892856D01*
X224171429Y-95035714D01*
X224171429Y-95249999D01*
X224100000Y-95392856D01*
X223957143Y-95464285D01*
X223171429Y-95464285D01*
X223957143Y-95464285D02*
X224100000Y-95535714D01*
X224171429Y-95678571D01*
X224171429Y-95892856D01*
X224100000Y-96035714D01*
X223957143Y-96107142D01*
X223171429Y-96107142D01*
X223171429Y-96821428D02*
X224171429Y-96821428D01*
X224028571Y-96821428D02*
X224100000Y-96892856D01*
X224171429Y-97035714D01*
X224171429Y-97249999D01*
X224100000Y-97392856D01*
X223957143Y-97464285D01*
X223171429Y-97464285D01*
X223957143Y-97464285D02*
X224100000Y-97535714D01*
X224171429Y-97678571D01*
X224171429Y-97892856D01*
X224100000Y-98035714D01*
X223957143Y-98107142D01*
X223171429Y-98107142D01*
X222500000Y-25950000D02*
X222500000Y-156550000D01*
X220900000Y-25950000D02*
X225200000Y-25950000D01*
X220900000Y-156550000D02*
X225200000Y-156550000D01*
X222500000Y-156550000D02*
X221913579Y-155423496D01*
X222500000Y-156550000D02*
X223086421Y-155423496D01*
X222500000Y-25950000D02*
X221913579Y-27076504D01*
X222500000Y-25950000D02*
X223086421Y-27076504D01*
X139328573Y-22478571D02*
X138471430Y-22478571D01*
X138900002Y-22478571D02*
X138900002Y-20978571D01*
X138757145Y-21192857D01*
X138614287Y-21335714D01*
X138471430Y-21407143D01*
X140685716Y-20978571D02*
X139971430Y-20978571D01*
X139900001Y-21692857D01*
X139971430Y-21621429D01*
X140114287Y-21550000D01*
X140471430Y-21550000D01*
X140614287Y-21621429D01*
X140685716Y-21692857D01*
X140757144Y-21835714D01*
X140757144Y-22192857D01*
X140685716Y-22335714D01*
X140614287Y-22407143D01*
X140471430Y-22478571D01*
X140114287Y-22478571D01*
X139971430Y-22407143D01*
X139900001Y-22335714D01*
X142185715Y-22478571D02*
X141328572Y-22478571D01*
X141757144Y-22478571D02*
X141757144Y-20978571D01*
X141614287Y-21192857D01*
X141471429Y-21335714D01*
X141328572Y-21407143D01*
X142828572Y-22335714D02*
X142900000Y-22407143D01*
X142828572Y-22478571D01*
X142757143Y-22407143D01*
X142828572Y-22335714D01*
X142828572Y-22478571D01*
X143828572Y-20978571D02*
X143971429Y-20978571D01*
X144114286Y-21050000D01*
X144185715Y-21121429D01*
X144257144Y-21264286D01*
X144328572Y-21550000D01*
X144328572Y-21907143D01*
X144257144Y-22192857D01*
X144185715Y-22335714D01*
X144114286Y-22407143D01*
X143971429Y-22478571D01*
X143828572Y-22478571D01*
X143685715Y-22407143D01*
X143614286Y-22335714D01*
X143542858Y-22192857D01*
X143471429Y-21907143D01*
X143471429Y-21550000D01*
X143542858Y-21264286D01*
X143614286Y-21121429D01*
X143685715Y-21050000D01*
X143828572Y-20978571D01*
X145257143Y-20978571D02*
X145400000Y-20978571D01*
X145542857Y-21050000D01*
X145614286Y-21121429D01*
X145685715Y-21264286D01*
X145757143Y-21550000D01*
X145757143Y-21907143D01*
X145685715Y-22192857D01*
X145614286Y-22335714D01*
X145542857Y-22407143D01*
X145400000Y-22478571D01*
X145257143Y-22478571D01*
X145114286Y-22407143D01*
X145042857Y-22335714D01*
X144971429Y-22192857D01*
X144900000Y-21907143D01*
X144900000Y-21550000D01*
X144971429Y-21264286D01*
X145042857Y-21121429D01*
X145114286Y-21050000D01*
X145257143Y-20978571D01*
X146685714Y-20978571D02*
X146828571Y-20978571D01*
X146971428Y-21050000D01*
X147042857Y-21121429D01*
X147114286Y-21264286D01*
X147185714Y-21550000D01*
X147185714Y-21907143D01*
X147114286Y-22192857D01*
X147042857Y-22335714D01*
X146971428Y-22407143D01*
X146828571Y-22478571D01*
X146685714Y-22478571D01*
X146542857Y-22407143D01*
X146471428Y-22335714D01*
X146400000Y-22192857D01*
X146328571Y-21907143D01*
X146328571Y-21550000D01*
X146400000Y-21264286D01*
X146471428Y-21121429D01*
X146542857Y-21050000D01*
X146685714Y-20978571D01*
X148971428Y-22478571D02*
X148971428Y-21478571D01*
X148971428Y-21621429D02*
X149042856Y-21550000D01*
X149185714Y-21478571D01*
X149399999Y-21478571D01*
X149542856Y-21550000D01*
X149614285Y-21692857D01*
X149614285Y-22478571D01*
X149614285Y-21692857D02*
X149685714Y-21550000D01*
X149828571Y-21478571D01*
X150042856Y-21478571D01*
X150185714Y-21550000D01*
X150257142Y-21692857D01*
X150257142Y-22478571D01*
X150971428Y-22478571D02*
X150971428Y-21478571D01*
X150971428Y-21621429D02*
X151042856Y-21550000D01*
X151185714Y-21478571D01*
X151399999Y-21478571D01*
X151542856Y-21550000D01*
X151614285Y-21692857D01*
X151614285Y-22478571D01*
X151614285Y-21692857D02*
X151685714Y-21550000D01*
X151828571Y-21478571D01*
X152042856Y-21478571D01*
X152185714Y-21550000D01*
X152257142Y-21692857D01*
X152257142Y-22478571D01*
X69900000Y-23150000D02*
X220900000Y-23150000D01*
X69900000Y-25950000D02*
X69900000Y-20450000D01*
X220900000Y-25950000D02*
X220900000Y-20450000D01*
X220900000Y-23150000D02*
X219773496Y-23736421D01*
X220900000Y-23150000D02*
X219773496Y-22563579D01*
X69900000Y-23150000D02*
X71026504Y-23736421D01*
X69900000Y-23150000D02*
X71026504Y-22563579D01*
D10*
X159259400Y-115219600D02*
X159259400Y-115499000D01*
X159259400Y-115499000D02*
X160224600Y-115499000D01*
X160224600Y-115499000D02*
X160224600Y-115219600D01*
X160224600Y-115219600D02*
X159259400Y-115219600D01*
X159259400Y-114711600D02*
X159259400Y-114991000D01*
X159259400Y-114991000D02*
X160224600Y-114991000D01*
X160224600Y-114991000D02*
X160224600Y-114711600D01*
X160224600Y-114711600D02*
X159259400Y-114711600D01*
X159259400Y-114229000D02*
X159259400Y-114483000D01*
X159259400Y-114483000D02*
X160224600Y-114483000D01*
X160224600Y-114483000D02*
X160224600Y-114229000D01*
X160224600Y-114229000D02*
X159259400Y-114229000D01*
X159259400Y-113721000D02*
X159259400Y-114000400D01*
X159259400Y-114000400D02*
X160224600Y-114000400D01*
X160224600Y-114000400D02*
X160224600Y-113721000D01*
X160224600Y-113721000D02*
X159259400Y-113721000D01*
X159259400Y-113213000D02*
X159259400Y-113492400D01*
X159259400Y-113492400D02*
X160224600Y-113492400D01*
X160224600Y-113492400D02*
X160224600Y-113213000D01*
X160224600Y-113213000D02*
X159259400Y-113213000D01*
X156160600Y-113492400D02*
X156160600Y-113213000D01*
X156160600Y-113213000D02*
X155195400Y-113213000D01*
X155195400Y-113213000D02*
X155195400Y-113492400D01*
X155195400Y-113492400D02*
X156160600Y-113492400D01*
X156160600Y-114000400D02*
X156160600Y-113721000D01*
X156160600Y-113721000D02*
X155195400Y-113721000D01*
X155195400Y-113721000D02*
X155195400Y-114000400D01*
X155195400Y-114000400D02*
X156160600Y-114000400D01*
X156160600Y-114483000D02*
X156160600Y-114229000D01*
X156160600Y-114229000D02*
X155195400Y-114229000D01*
X155195400Y-114229000D02*
X155195400Y-114483000D01*
X155195400Y-114483000D02*
X156160600Y-114483000D01*
X156160600Y-114991000D02*
X156160600Y-114711600D01*
X156160600Y-114711600D02*
X155195400Y-114711600D01*
X155195400Y-114711600D02*
X155195400Y-114991000D01*
X155195400Y-114991000D02*
X156160600Y-114991000D01*
X156160600Y-115499000D02*
X156160600Y-115219600D01*
X156160600Y-115219600D02*
X155195400Y-115219600D01*
X155195400Y-115219600D02*
X155195400Y-115499000D01*
X155195400Y-115499000D02*
X156160600Y-115499000D01*
X159259400Y-112806600D02*
X156160600Y-112806600D01*
X156160600Y-112806600D02*
X156160600Y-115905400D01*
X156160600Y-115905400D02*
X157405200Y-115905400D01*
X157405200Y-115905400D02*
X158014800Y-115905400D01*
X158014800Y-115905400D02*
X159259400Y-115905400D01*
X159259400Y-115905400D02*
X159259400Y-112806600D01*
X157405200Y-115905400D02*
G75*
G02X158014800Y-115905400I304800J0D01*
G01*
D12*
X151570800Y-39695400D02*
X151570800Y-38831800D01*
X151570800Y-38831800D02*
X149767400Y-38831800D01*
X149767400Y-38831800D02*
X149767400Y-39695400D01*
X149767400Y-39695400D02*
X151570800Y-39695400D01*
X151570800Y-42006800D02*
X151570800Y-41143200D01*
X151570800Y-41143200D02*
X149767400Y-41143200D01*
X149767400Y-41143200D02*
X149767400Y-42006800D01*
X149767400Y-42006800D02*
X151570800Y-42006800D01*
X151570800Y-44318200D02*
X151570800Y-43454600D01*
X151570800Y-43454600D02*
X149767400Y-43454600D01*
X149767400Y-43454600D02*
X149767400Y-44318200D01*
X149767400Y-44318200D02*
X151570800Y-44318200D01*
X155279200Y-40000200D02*
X155279200Y-43149800D01*
X155279200Y-43149800D02*
X157082600Y-43149800D01*
X157082600Y-43149800D02*
X157082600Y-39974800D01*
X157082600Y-39974800D02*
X155279200Y-40000200D01*
X151570800Y-44927800D02*
X155279200Y-44927800D01*
X155279200Y-44927800D02*
X155279200Y-38222200D01*
X155279200Y-38222200D02*
X151570800Y-38222200D01*
X151570800Y-38222200D02*
X151570800Y-44927800D01*
D13*
X147225000Y-90375000D02*
X143825000Y-90375000D01*
D14*
X143925000Y-91175000D02*
X143925000Y-89575000D01*
X147125000Y-89575000D02*
X147125000Y-91175000D01*
D13*
X138075000Y-103975000D02*
X141475000Y-103975000D01*
D14*
X141375000Y-103175000D02*
X141375000Y-104775000D01*
X138175000Y-104775000D02*
X138175000Y-103175000D01*
D13*
X138075000Y-101575000D02*
X141475000Y-101575000D01*
D14*
X141375000Y-100775000D02*
X141375000Y-102375000D01*
X138175000Y-102375000D02*
X138175000Y-100775000D01*
D10*
X137891600Y-96641400D02*
X137891600Y-98368600D01*
X137891600Y-98368600D02*
X138196400Y-98368600D01*
X138196400Y-98368600D02*
X138628200Y-98368600D01*
X138628200Y-98368600D02*
X138831400Y-98368600D01*
X138831400Y-98368600D02*
X139288600Y-98368600D01*
X139288600Y-98368600D02*
X139491800Y-98368600D01*
X139491800Y-98368600D02*
X139949000Y-98368600D01*
X139949000Y-98368600D02*
X140152200Y-98368600D01*
X140888800Y-98368600D02*
X140888800Y-97809800D01*
X140888800Y-97809800D02*
X140888800Y-97200200D01*
X140888800Y-97200200D02*
X140888800Y-96641400D01*
X140888800Y-96641400D02*
X140584000Y-96641400D01*
X140584000Y-96641400D02*
X140152200Y-96641400D01*
X140152200Y-96641400D02*
X139949000Y-96641400D01*
X139949000Y-96641400D02*
X139491800Y-96641400D01*
X139491800Y-96641400D02*
X139288600Y-96641400D01*
X139288600Y-96641400D02*
X138831400Y-96641400D01*
X138831400Y-96641400D02*
X138628200Y-96641400D01*
X140584000Y-96641400D02*
X140584000Y-96006400D01*
X140584000Y-96006400D02*
X140152200Y-96006400D01*
X140152200Y-96006400D02*
X140152200Y-96641400D01*
X139949000Y-96641400D02*
X139949000Y-96006400D01*
X139949000Y-96006400D02*
X139491800Y-96006400D01*
X139491800Y-96006400D02*
X139491800Y-96641400D01*
X139288600Y-96641400D02*
X139288600Y-96006400D01*
X139288600Y-96006400D02*
X138831400Y-96006400D01*
X138831400Y-96006400D02*
X138831400Y-96641400D01*
X137891600Y-96641400D02*
X138196400Y-96641400D01*
X138196400Y-96641400D02*
X138628200Y-96641400D01*
X138628200Y-96641400D02*
X138628200Y-96006400D01*
X138628200Y-96006400D02*
X138196400Y-96006400D01*
X138196400Y-96006400D02*
X138196400Y-96641400D01*
X138196400Y-98368600D02*
X138196400Y-99003600D01*
X138196400Y-99003600D02*
X138628200Y-99003600D01*
X138628200Y-99003600D02*
X138628200Y-98368600D01*
X138831400Y-98368600D02*
X138831400Y-99003600D01*
X138831400Y-99003600D02*
X139288600Y-99003600D01*
X139288600Y-99003600D02*
X139288600Y-98368600D01*
X139491800Y-98368600D02*
X139491800Y-99003600D01*
X139491800Y-99003600D02*
X139949000Y-99003600D01*
X139949000Y-99003600D02*
X139949000Y-98368600D01*
X140888800Y-98368600D02*
X140584000Y-98368600D01*
X140584000Y-98368600D02*
X140152200Y-98368600D01*
X140152200Y-98368600D02*
X140152200Y-99003600D01*
X140152200Y-99003600D02*
X140584000Y-99003600D01*
X140584000Y-99003600D02*
X140584000Y-98368600D01*
X140888800Y-97809800D02*
G75*
G02X140888800Y-97200200I0J304800D01*
G01*
D13*
X137725000Y-41175000D02*
X141125000Y-41175000D01*
D14*
X141025000Y-40375000D02*
X141025000Y-41975000D01*
X137825000Y-41975000D02*
X137825000Y-40375000D01*
D13*
X137475000Y-61375000D02*
X140875000Y-61375000D01*
D14*
X140775000Y-60575000D02*
X140775000Y-62175000D01*
X137575000Y-62175000D02*
X137575000Y-60575000D01*
D13*
X137675000Y-81575000D02*
X141075000Y-81575000D01*
D14*
X140975000Y-80775000D02*
X140975000Y-82375000D01*
X137775000Y-82375000D02*
X137775000Y-80775000D01*
D13*
X140692000Y-125864000D02*
X140692000Y-129264000D01*
D14*
X141492000Y-129164000D02*
X139892000Y-129164000D01*
X139892000Y-125964000D02*
X141492000Y-125964000D01*
D13*
X156186000Y-126118000D02*
X156186000Y-129518000D01*
D14*
X156986000Y-129418000D02*
X155386000Y-129418000D01*
X155386000Y-126218000D02*
X156986000Y-126218000D01*
D13*
X171426000Y-126118000D02*
X171426000Y-129518000D01*
D14*
X172226000Y-129418000D02*
X170626000Y-129418000D01*
X170626000Y-126218000D02*
X172226000Y-126218000D01*
D13*
X186158000Y-126372000D02*
X186158000Y-129772000D01*
D14*
X186958000Y-129672000D02*
X185358000Y-129672000D01*
X185358000Y-126472000D02*
X186958000Y-126472000D01*
D13*
X103302000Y-36174000D02*
X103302000Y-32774000D01*
D14*
X102502000Y-32874000D02*
X104102000Y-32874000D01*
X104102000Y-36074000D02*
X102502000Y-36074000D01*
D13*
X147025000Y-29375000D02*
X143625000Y-29375000D01*
D14*
X143725000Y-30175000D02*
X143725000Y-28575000D01*
X146925000Y-28575000D02*
X146925000Y-30175000D01*
D13*
X147325000Y-50575000D02*
X143925000Y-50575000D01*
D14*
X144025000Y-51375000D02*
X144025000Y-49775000D01*
X147225000Y-49775000D02*
X147225000Y-51375000D01*
D13*
X147225000Y-70375000D02*
X143825000Y-70375000D01*
D14*
X143925000Y-71175000D02*
X143925000Y-69575000D01*
X147125000Y-69575000D02*
X147125000Y-71175000D01*
D15*
X183170600Y-83104600D02*
X184491400Y-83104600D01*
X184491400Y-83104600D02*
X184491400Y-85949400D01*
X184491400Y-85949400D02*
X183170600Y-85949400D01*
X183170600Y-85949400D02*
X183170600Y-83104600D01*
D16*
G36*
X182535600Y-84755942D02*
X182535600Y-84298400D01*
X183118736Y-84298400D01*
X183118736Y-84755942D01*
X182535600Y-84755942D01*
G37*
X182535600Y-84755942D02*
X182535600Y-84298400D01*
X183118736Y-84298400D01*
X183118736Y-84755942D01*
X182535600Y-84755942D01*
G36*
X184542200Y-83815071D02*
X184542200Y-83358600D01*
X185127730Y-83358600D01*
X185127730Y-83815071D01*
X184542200Y-83815071D01*
G37*
X184542200Y-83815071D02*
X184542200Y-83358600D01*
X185127730Y-83358600D01*
X185127730Y-83815071D01*
X184542200Y-83815071D01*
G36*
X184542200Y-85697150D02*
X184542200Y-85238200D01*
X185128340Y-85238200D01*
X185128340Y-85697150D01*
X184542200Y-85697150D01*
G37*
X184542200Y-85697150D02*
X184542200Y-85238200D01*
X185128340Y-85238200D01*
X185128340Y-85697150D01*
X184542200Y-85697150D01*
D15*
X183297600Y-96566600D02*
X184618400Y-96566600D01*
X184618400Y-96566600D02*
X184618400Y-99411400D01*
X184618400Y-99411400D02*
X183297600Y-99411400D01*
X183297600Y-99411400D02*
X183297600Y-96566600D01*
D16*
G36*
X182662600Y-98217942D02*
X182662600Y-97760400D01*
X183245736Y-97760400D01*
X183245736Y-98217942D01*
X182662600Y-98217942D01*
G37*
X182662600Y-98217942D02*
X182662600Y-97760400D01*
X183245736Y-97760400D01*
X183245736Y-98217942D01*
X182662600Y-98217942D01*
G36*
X184669200Y-97277071D02*
X184669200Y-96820600D01*
X185254730Y-96820600D01*
X185254730Y-97277071D01*
X184669200Y-97277071D01*
G37*
X184669200Y-97277071D02*
X184669200Y-96820600D01*
X185254730Y-96820600D01*
X185254730Y-97277071D01*
X184669200Y-97277071D01*
G36*
X184669200Y-99159150D02*
X184669200Y-98700200D01*
X185255340Y-98700200D01*
X185255340Y-99159150D01*
X184669200Y-99159150D01*
G37*
X184669200Y-99159150D02*
X184669200Y-98700200D01*
X185255340Y-98700200D01*
X185255340Y-99159150D01*
X184669200Y-99159150D01*
D12*
X151970800Y-59695400D02*
X151970800Y-58831800D01*
X151970800Y-58831800D02*
X150167400Y-58831800D01*
X150167400Y-58831800D02*
X150167400Y-59695400D01*
X150167400Y-59695400D02*
X151970800Y-59695400D01*
X151970800Y-62006800D02*
X151970800Y-61143200D01*
X151970800Y-61143200D02*
X150167400Y-61143200D01*
X150167400Y-61143200D02*
X150167400Y-62006800D01*
X150167400Y-62006800D02*
X151970800Y-62006800D01*
X151970800Y-64318200D02*
X151970800Y-63454600D01*
X151970800Y-63454600D02*
X150167400Y-63454600D01*
X150167400Y-63454600D02*
X150167400Y-64318200D01*
X150167400Y-64318200D02*
X151970800Y-64318200D01*
X155679200Y-60000200D02*
X155679200Y-63149800D01*
X155679200Y-63149800D02*
X157482600Y-63149800D01*
X157482600Y-63149800D02*
X157482600Y-59974800D01*
X157482600Y-59974800D02*
X155679200Y-60000200D01*
X151970800Y-64927800D02*
X155679200Y-64927800D01*
X155679200Y-64927800D02*
X155679200Y-58222200D01*
X155679200Y-58222200D02*
X151970800Y-58222200D01*
X151970800Y-58222200D02*
X151970800Y-64927800D01*
X151570800Y-30495400D02*
X151570800Y-29631800D01*
X151570800Y-29631800D02*
X149767400Y-29631800D01*
X149767400Y-29631800D02*
X149767400Y-30495400D01*
X149767400Y-30495400D02*
X151570800Y-30495400D01*
X151570800Y-32806800D02*
X151570800Y-31943200D01*
X151570800Y-31943200D02*
X149767400Y-31943200D01*
X149767400Y-31943200D02*
X149767400Y-32806800D01*
X149767400Y-32806800D02*
X151570800Y-32806800D01*
X151570800Y-35118200D02*
X151570800Y-34254600D01*
X151570800Y-34254600D02*
X149767400Y-34254600D01*
X149767400Y-34254600D02*
X149767400Y-35118200D01*
X149767400Y-35118200D02*
X151570800Y-35118200D01*
X155279200Y-30800200D02*
X155279200Y-33949800D01*
X155279200Y-33949800D02*
X157082600Y-33949800D01*
X157082600Y-33949800D02*
X157082600Y-30774800D01*
X157082600Y-30774800D02*
X155279200Y-30800200D01*
X151570800Y-35727800D02*
X155279200Y-35727800D01*
X155279200Y-35727800D02*
X155279200Y-29022200D01*
X155279200Y-29022200D02*
X151570800Y-29022200D01*
X151570800Y-29022200D02*
X151570800Y-35727800D01*
X151786800Y-50695400D02*
X151786800Y-49831800D01*
X151786800Y-49831800D02*
X149983400Y-49831800D01*
X149983400Y-49831800D02*
X149983400Y-50695400D01*
X149983400Y-50695400D02*
X151786800Y-50695400D01*
X151786800Y-53006800D02*
X151786800Y-52143200D01*
X151786800Y-52143200D02*
X149983400Y-52143200D01*
X149983400Y-52143200D02*
X149983400Y-53006800D01*
X149983400Y-53006800D02*
X151786800Y-53006800D01*
X151786800Y-55318200D02*
X151786800Y-54454600D01*
X151786800Y-54454600D02*
X149983400Y-54454600D01*
X149983400Y-54454600D02*
X149983400Y-55318200D01*
X149983400Y-55318200D02*
X151786800Y-55318200D01*
X155495200Y-51000200D02*
X155495200Y-54149800D01*
X155495200Y-54149800D02*
X157298600Y-54149800D01*
X157298600Y-54149800D02*
X157298600Y-50974800D01*
X157298600Y-50974800D02*
X155495200Y-51000200D01*
X151786800Y-55927800D02*
X155495200Y-55927800D01*
X155495200Y-55927800D02*
X155495200Y-49222200D01*
X155495200Y-49222200D02*
X151786800Y-49222200D01*
X151786800Y-49222200D02*
X151786800Y-55927800D01*
X151970800Y-79695400D02*
X151970800Y-78831800D01*
X151970800Y-78831800D02*
X150167400Y-78831800D01*
X150167400Y-78831800D02*
X150167400Y-79695400D01*
X150167400Y-79695400D02*
X151970800Y-79695400D01*
X151970800Y-82006800D02*
X151970800Y-81143200D01*
X151970800Y-81143200D02*
X150167400Y-81143200D01*
X150167400Y-81143200D02*
X150167400Y-82006800D01*
X150167400Y-82006800D02*
X151970800Y-82006800D01*
X151970800Y-84318200D02*
X151970800Y-83454600D01*
X151970800Y-83454600D02*
X150167400Y-83454600D01*
X150167400Y-83454600D02*
X150167400Y-84318200D01*
X150167400Y-84318200D02*
X151970800Y-84318200D01*
X155679200Y-80000200D02*
X155679200Y-83149800D01*
X155679200Y-83149800D02*
X157482600Y-83149800D01*
X157482600Y-83149800D02*
X157482600Y-79974800D01*
X157482600Y-79974800D02*
X155679200Y-80000200D01*
X151970800Y-84927800D02*
X155679200Y-84927800D01*
X155679200Y-84927800D02*
X155679200Y-78222200D01*
X155679200Y-78222200D02*
X151970800Y-78222200D01*
X151970800Y-78222200D02*
X151970800Y-84927800D01*
X151770800Y-99695400D02*
X151770800Y-98831800D01*
X151770800Y-98831800D02*
X149967400Y-98831800D01*
X149967400Y-98831800D02*
X149967400Y-99695400D01*
X149967400Y-99695400D02*
X151770800Y-99695400D01*
X151770800Y-102006800D02*
X151770800Y-101143200D01*
X151770800Y-101143200D02*
X149967400Y-101143200D01*
X149967400Y-101143200D02*
X149967400Y-102006800D01*
X149967400Y-102006800D02*
X151770800Y-102006800D01*
X151770800Y-104318200D02*
X151770800Y-103454600D01*
X151770800Y-103454600D02*
X149967400Y-103454600D01*
X149967400Y-103454600D02*
X149967400Y-104318200D01*
X149967400Y-104318200D02*
X151770800Y-104318200D01*
X155479200Y-100000200D02*
X155479200Y-103149800D01*
X155479200Y-103149800D02*
X157282600Y-103149800D01*
X157282600Y-103149800D02*
X157282600Y-99974800D01*
X157282600Y-99974800D02*
X155479200Y-100000200D01*
X151770800Y-104927800D02*
X155479200Y-104927800D01*
X155479200Y-104927800D02*
X155479200Y-98222200D01*
X155479200Y-98222200D02*
X151770800Y-98222200D01*
X151770800Y-98222200D02*
X151770800Y-104927800D01*
X151770800Y-70495400D02*
X151770800Y-69631800D01*
X151770800Y-69631800D02*
X149967400Y-69631800D01*
X149967400Y-69631800D02*
X149967400Y-70495400D01*
X149967400Y-70495400D02*
X151770800Y-70495400D01*
X151770800Y-72806800D02*
X151770800Y-71943200D01*
X151770800Y-71943200D02*
X149967400Y-71943200D01*
X149967400Y-71943200D02*
X149967400Y-72806800D01*
X149967400Y-72806800D02*
X151770800Y-72806800D01*
X151770800Y-75118200D02*
X151770800Y-74254600D01*
X151770800Y-74254600D02*
X149967400Y-74254600D01*
X149967400Y-74254600D02*
X149967400Y-75118200D01*
X149967400Y-75118200D02*
X151770800Y-75118200D01*
X155479200Y-70800200D02*
X155479200Y-73949800D01*
X155479200Y-73949800D02*
X157282600Y-73949800D01*
X157282600Y-73949800D02*
X157282600Y-70774800D01*
X157282600Y-70774800D02*
X155479200Y-70800200D01*
X151770800Y-75727800D02*
X155479200Y-75727800D01*
X155479200Y-75727800D02*
X155479200Y-69022200D01*
X155479200Y-69022200D02*
X151770800Y-69022200D01*
X151770800Y-69022200D02*
X151770800Y-75727800D01*
X151770800Y-90495400D02*
X151770800Y-89631800D01*
X151770800Y-89631800D02*
X149967400Y-89631800D01*
X149967400Y-89631800D02*
X149967400Y-90495400D01*
X149967400Y-90495400D02*
X151770800Y-90495400D01*
X151770800Y-92806800D02*
X151770800Y-91943200D01*
X151770800Y-91943200D02*
X149967400Y-91943200D01*
X149967400Y-91943200D02*
X149967400Y-92806800D01*
X149967400Y-92806800D02*
X151770800Y-92806800D01*
X151770800Y-95118200D02*
X151770800Y-94254600D01*
X151770800Y-94254600D02*
X149967400Y-94254600D01*
X149967400Y-94254600D02*
X149967400Y-95118200D01*
X149967400Y-95118200D02*
X151770800Y-95118200D01*
X155479200Y-90800200D02*
X155479200Y-93949800D01*
X155479200Y-93949800D02*
X157282600Y-93949800D01*
X157282600Y-93949800D02*
X157282600Y-90774800D01*
X157282600Y-90774800D02*
X155479200Y-90800200D01*
X151770800Y-95727800D02*
X155479200Y-95727800D01*
X155479200Y-95727800D02*
X155479200Y-89022200D01*
X155479200Y-89022200D02*
X151770800Y-89022200D01*
X151770800Y-89022200D02*
X151770800Y-95727800D01*
D15*
X138507600Y-118775600D02*
X139828400Y-118775600D01*
X139828400Y-118775600D02*
X139828400Y-121620400D01*
X139828400Y-121620400D02*
X138507600Y-121620400D01*
X138507600Y-121620400D02*
X138507600Y-118775600D01*
D16*
G36*
X137872600Y-120426942D02*
X137872600Y-119969400D01*
X138455736Y-119969400D01*
X138455736Y-120426942D01*
X137872600Y-120426942D01*
G37*
X137872600Y-120426942D02*
X137872600Y-119969400D01*
X138455736Y-119969400D01*
X138455736Y-120426942D01*
X137872600Y-120426942D01*
G36*
X139879200Y-119486071D02*
X139879200Y-119029600D01*
X140464730Y-119029600D01*
X140464730Y-119486071D01*
X139879200Y-119486071D01*
G37*
X139879200Y-119486071D02*
X139879200Y-119029600D01*
X140464730Y-119029600D01*
X140464730Y-119486071D01*
X139879200Y-119486071D01*
G36*
X139879200Y-121368150D02*
X139879200Y-120909200D01*
X140465340Y-120909200D01*
X140465340Y-121368150D01*
X139879200Y-121368150D01*
G37*
X139879200Y-121368150D02*
X139879200Y-120909200D01*
X140465340Y-120909200D01*
X140465340Y-121368150D01*
X139879200Y-121368150D01*
D15*
X154255600Y-119283600D02*
X155576400Y-119283600D01*
X155576400Y-119283600D02*
X155576400Y-122128400D01*
X155576400Y-122128400D02*
X154255600Y-122128400D01*
X154255600Y-122128400D02*
X154255600Y-119283600D01*
D16*
G36*
X153620600Y-120934942D02*
X153620600Y-120477400D01*
X154203736Y-120477400D01*
X154203736Y-120934942D01*
X153620600Y-120934942D01*
G37*
X153620600Y-120934942D02*
X153620600Y-120477400D01*
X154203736Y-120477400D01*
X154203736Y-120934942D01*
X153620600Y-120934942D01*
G36*
X155627200Y-119994071D02*
X155627200Y-119537600D01*
X156212730Y-119537600D01*
X156212730Y-119994071D01*
X155627200Y-119994071D01*
G37*
X155627200Y-119994071D02*
X155627200Y-119537600D01*
X156212730Y-119537600D01*
X156212730Y-119994071D01*
X155627200Y-119994071D01*
G36*
X155627200Y-121876150D02*
X155627200Y-121417200D01*
X156213340Y-121417200D01*
X156213340Y-121876150D01*
X155627200Y-121876150D01*
G37*
X155627200Y-121876150D02*
X155627200Y-121417200D01*
X156213340Y-121417200D01*
X156213340Y-121876150D01*
X155627200Y-121876150D01*
D15*
X169495600Y-118775600D02*
X170816400Y-118775600D01*
X170816400Y-118775600D02*
X170816400Y-121620400D01*
X170816400Y-121620400D02*
X169495600Y-121620400D01*
X169495600Y-121620400D02*
X169495600Y-118775600D01*
D16*
G36*
X168860600Y-120426942D02*
X168860600Y-119969400D01*
X169443736Y-119969400D01*
X169443736Y-120426942D01*
X168860600Y-120426942D01*
G37*
X168860600Y-120426942D02*
X168860600Y-119969400D01*
X169443736Y-119969400D01*
X169443736Y-120426942D01*
X168860600Y-120426942D01*
G36*
X170867200Y-119486071D02*
X170867200Y-119029600D01*
X171452730Y-119029600D01*
X171452730Y-119486071D01*
X170867200Y-119486071D01*
G37*
X170867200Y-119486071D02*
X170867200Y-119029600D01*
X171452730Y-119029600D01*
X171452730Y-119486071D01*
X170867200Y-119486071D01*
G36*
X170867200Y-121368150D02*
X170867200Y-120909200D01*
X171453340Y-120909200D01*
X171453340Y-121368150D01*
X170867200Y-121368150D01*
G37*
X170867200Y-121368150D02*
X170867200Y-120909200D01*
X171453340Y-120909200D01*
X171453340Y-121368150D01*
X170867200Y-121368150D01*
D15*
X183973600Y-119029600D02*
X185294400Y-119029600D01*
X185294400Y-119029600D02*
X185294400Y-121874400D01*
X185294400Y-121874400D02*
X183973600Y-121874400D01*
X183973600Y-121874400D02*
X183973600Y-119029600D01*
D16*
G36*
X183338600Y-120680942D02*
X183338600Y-120223400D01*
X183921736Y-120223400D01*
X183921736Y-120680942D01*
X183338600Y-120680942D01*
G37*
X183338600Y-120680942D02*
X183338600Y-120223400D01*
X183921736Y-120223400D01*
X183921736Y-120680942D01*
X183338600Y-120680942D01*
G36*
X185345200Y-119740071D02*
X185345200Y-119283600D01*
X185930730Y-119283600D01*
X185930730Y-119740071D01*
X185345200Y-119740071D01*
G37*
X185345200Y-119740071D02*
X185345200Y-119283600D01*
X185930730Y-119283600D01*
X185930730Y-119740071D01*
X185345200Y-119740071D01*
G36*
X185345200Y-121622150D02*
X185345200Y-121163200D01*
X185931340Y-121163200D01*
X185931340Y-121622150D01*
X185345200Y-121622150D01*
G37*
X185345200Y-121622150D02*
X185345200Y-121163200D01*
X185931340Y-121163200D01*
X185931340Y-121622150D01*
X185345200Y-121622150D01*
D17*
X158325000Y-43875000D02*
X158325000Y-30875000D01*
X158325000Y-30875000D02*
X167325000Y-30875000D01*
X167325000Y-30875000D02*
X167325000Y-43875000D01*
X167325000Y-43875000D02*
X158325000Y-43875000D01*
X158539000Y-63735000D02*
X158539000Y-50735000D01*
X158539000Y-50735000D02*
X167539000Y-50735000D01*
X167539000Y-50735000D02*
X167539000Y-63735000D01*
X167539000Y-63735000D02*
X158539000Y-63735000D01*
X158325000Y-83775000D02*
X158325000Y-70775000D01*
X158325000Y-70775000D02*
X167325000Y-70775000D01*
X167325000Y-70775000D02*
X167325000Y-83775000D01*
X167325000Y-83775000D02*
X158325000Y-83775000D01*
X158325000Y-103775000D02*
X158325000Y-90775000D01*
X158325000Y-90775000D02*
X167325000Y-90775000D01*
X167325000Y-90775000D02*
X167325000Y-103775000D01*
X167325000Y-103775000D02*
X158325000Y-103775000D01*
X152050000Y-118524000D02*
X152050000Y-131524000D01*
X152050000Y-131524000D02*
X143050000Y-131524000D01*
X143050000Y-131524000D02*
X143050000Y-118524000D01*
X143050000Y-118524000D02*
X152050000Y-118524000D01*
X167290000Y-118524000D02*
X167290000Y-131524000D01*
X167290000Y-131524000D02*
X158290000Y-131524000D01*
X158290000Y-131524000D02*
X158290000Y-118524000D01*
X158290000Y-118524000D02*
X167290000Y-118524000D01*
X181768000Y-118524000D02*
X181768000Y-131524000D01*
X181768000Y-131524000D02*
X172768000Y-131524000D01*
X172768000Y-131524000D02*
X172768000Y-118524000D01*
X172768000Y-118524000D02*
X181768000Y-118524000D01*
X196754000Y-118524000D02*
X196754000Y-131524000D01*
X196754000Y-131524000D02*
X187754000Y-131524000D01*
X187754000Y-131524000D02*
X187754000Y-118524000D01*
X187754000Y-118524000D02*
X196754000Y-118524000D01*
D10*
X138091600Y-36241400D02*
X138091600Y-37968600D01*
X138091600Y-37968600D02*
X138396400Y-37968600D01*
X138396400Y-37968600D02*
X138828200Y-37968600D01*
X138828200Y-37968600D02*
X139031400Y-37968600D01*
X139031400Y-37968600D02*
X139488600Y-37968600D01*
X139488600Y-37968600D02*
X139691800Y-37968600D01*
X139691800Y-37968600D02*
X140149000Y-37968600D01*
X140149000Y-37968600D02*
X140352200Y-37968600D01*
X141088800Y-37968600D02*
X141088800Y-37409800D01*
X141088800Y-37409800D02*
X141088800Y-36800200D01*
X141088800Y-36800200D02*
X141088800Y-36241400D01*
X141088800Y-36241400D02*
X140784000Y-36241400D01*
X140784000Y-36241400D02*
X140352200Y-36241400D01*
X140352200Y-36241400D02*
X140149000Y-36241400D01*
X140149000Y-36241400D02*
X139691800Y-36241400D01*
X139691800Y-36241400D02*
X139488600Y-36241400D01*
X139488600Y-36241400D02*
X139031400Y-36241400D01*
X139031400Y-36241400D02*
X138828200Y-36241400D01*
X140784000Y-36241400D02*
X140784000Y-35606400D01*
X140784000Y-35606400D02*
X140352200Y-35606400D01*
X140352200Y-35606400D02*
X140352200Y-36241400D01*
X140149000Y-36241400D02*
X140149000Y-35606400D01*
X140149000Y-35606400D02*
X139691800Y-35606400D01*
X139691800Y-35606400D02*
X139691800Y-36241400D01*
X139488600Y-36241400D02*
X139488600Y-35606400D01*
X139488600Y-35606400D02*
X139031400Y-35606400D01*
X139031400Y-35606400D02*
X139031400Y-36241400D01*
X138091600Y-36241400D02*
X138396400Y-36241400D01*
X138396400Y-36241400D02*
X138828200Y-36241400D01*
X138828200Y-36241400D02*
X138828200Y-35606400D01*
X138828200Y-35606400D02*
X138396400Y-35606400D01*
X138396400Y-35606400D02*
X138396400Y-36241400D01*
X138396400Y-37968600D02*
X138396400Y-38603600D01*
X138396400Y-38603600D02*
X138828200Y-38603600D01*
X138828200Y-38603600D02*
X138828200Y-37968600D01*
X139031400Y-37968600D02*
X139031400Y-38603600D01*
X139031400Y-38603600D02*
X139488600Y-38603600D01*
X139488600Y-38603600D02*
X139488600Y-37968600D01*
X139691800Y-37968600D02*
X139691800Y-38603600D01*
X139691800Y-38603600D02*
X140149000Y-38603600D01*
X140149000Y-38603600D02*
X140149000Y-37968600D01*
X141088800Y-37968600D02*
X140784000Y-37968600D01*
X140784000Y-37968600D02*
X140352200Y-37968600D01*
X140352200Y-37968600D02*
X140352200Y-38603600D01*
X140352200Y-38603600D02*
X140784000Y-38603600D01*
X140784000Y-38603600D02*
X140784000Y-37968600D01*
X141088800Y-37409800D02*
G75*
G02X141088800Y-36800200I0J304800D01*
G01*
X137761200Y-56381400D02*
X137761200Y-58108600D01*
X137761200Y-58108600D02*
X138066000Y-58108600D01*
X138066000Y-58108600D02*
X138497800Y-58108600D01*
X138497800Y-58108600D02*
X138701000Y-58108600D01*
X138701000Y-58108600D02*
X139158200Y-58108600D01*
X139158200Y-58108600D02*
X139361400Y-58108600D01*
X139361400Y-58108600D02*
X139818600Y-58108600D01*
X139818600Y-58108600D02*
X140021800Y-58108600D01*
X140758400Y-58108600D02*
X140758400Y-57549800D01*
X140758400Y-57549800D02*
X140758400Y-56940200D01*
X140758400Y-56940200D02*
X140758400Y-56381400D01*
X140758400Y-56381400D02*
X140453600Y-56381400D01*
X140453600Y-56381400D02*
X140021800Y-56381400D01*
X140021800Y-56381400D02*
X139818600Y-56381400D01*
X139818600Y-56381400D02*
X139361400Y-56381400D01*
X139361400Y-56381400D02*
X139158200Y-56381400D01*
X139158200Y-56381400D02*
X138701000Y-56381400D01*
X138701000Y-56381400D02*
X138497800Y-56381400D01*
X140453600Y-56381400D02*
X140453600Y-55746400D01*
X140453600Y-55746400D02*
X140021800Y-55746400D01*
X140021800Y-55746400D02*
X140021800Y-56381400D01*
X139818600Y-56381400D02*
X139818600Y-55746400D01*
X139818600Y-55746400D02*
X139361400Y-55746400D01*
X139361400Y-55746400D02*
X139361400Y-56381400D01*
X139158200Y-56381400D02*
X139158200Y-55746400D01*
X139158200Y-55746400D02*
X138701000Y-55746400D01*
X138701000Y-55746400D02*
X138701000Y-56381400D01*
X137761200Y-56381400D02*
X138066000Y-56381400D01*
X138066000Y-56381400D02*
X138497800Y-56381400D01*
X138497800Y-56381400D02*
X138497800Y-55746400D01*
X138497800Y-55746400D02*
X138066000Y-55746400D01*
X138066000Y-55746400D02*
X138066000Y-56381400D01*
X138066000Y-58108600D02*
X138066000Y-58743600D01*
X138066000Y-58743600D02*
X138497800Y-58743600D01*
X138497800Y-58743600D02*
X138497800Y-58108600D01*
X138701000Y-58108600D02*
X138701000Y-58743600D01*
X138701000Y-58743600D02*
X139158200Y-58743600D01*
X139158200Y-58743600D02*
X139158200Y-58108600D01*
X139361400Y-58108600D02*
X139361400Y-58743600D01*
X139361400Y-58743600D02*
X139818600Y-58743600D01*
X139818600Y-58743600D02*
X139818600Y-58108600D01*
X140758400Y-58108600D02*
X140453600Y-58108600D01*
X140453600Y-58108600D02*
X140021800Y-58108600D01*
X140021800Y-58108600D02*
X140021800Y-58743600D01*
X140021800Y-58743600D02*
X140453600Y-58743600D01*
X140453600Y-58743600D02*
X140453600Y-58108600D01*
X140758400Y-57549800D02*
G75*
G02X140758400Y-56940200I0J304800D01*
G01*
X137926400Y-76711400D02*
X137926400Y-78438600D01*
X137926400Y-78438600D02*
X138231200Y-78438600D01*
X138231200Y-78438600D02*
X138663000Y-78438600D01*
X138663000Y-78438600D02*
X138866200Y-78438600D01*
X138866200Y-78438600D02*
X139323400Y-78438600D01*
X139323400Y-78438600D02*
X139526600Y-78438600D01*
X139526600Y-78438600D02*
X139983800Y-78438600D01*
X139983800Y-78438600D02*
X140187000Y-78438600D01*
X140923600Y-78438600D02*
X140923600Y-77879800D01*
X140923600Y-77879800D02*
X140923600Y-77270200D01*
X140923600Y-77270200D02*
X140923600Y-76711400D01*
X140923600Y-76711400D02*
X140618800Y-76711400D01*
X140618800Y-76711400D02*
X140187000Y-76711400D01*
X140187000Y-76711400D02*
X139983800Y-76711400D01*
X139983800Y-76711400D02*
X139526600Y-76711400D01*
X139526600Y-76711400D02*
X139323400Y-76711400D01*
X139323400Y-76711400D02*
X138866200Y-76711400D01*
X138866200Y-76711400D02*
X138663000Y-76711400D01*
X140618800Y-76711400D02*
X140618800Y-76076400D01*
X140618800Y-76076400D02*
X140187000Y-76076400D01*
X140187000Y-76076400D02*
X140187000Y-76711400D01*
X139983800Y-76711400D02*
X139983800Y-76076400D01*
X139983800Y-76076400D02*
X139526600Y-76076400D01*
X139526600Y-76076400D02*
X139526600Y-76711400D01*
X139323400Y-76711400D02*
X139323400Y-76076400D01*
X139323400Y-76076400D02*
X138866200Y-76076400D01*
X138866200Y-76076400D02*
X138866200Y-76711400D01*
X137926400Y-76711400D02*
X138231200Y-76711400D01*
X138231200Y-76711400D02*
X138663000Y-76711400D01*
X138663000Y-76711400D02*
X138663000Y-76076400D01*
X138663000Y-76076400D02*
X138231200Y-76076400D01*
X138231200Y-76076400D02*
X138231200Y-76711400D01*
X138231200Y-78438600D02*
X138231200Y-79073600D01*
X138231200Y-79073600D02*
X138663000Y-79073600D01*
X138663000Y-79073600D02*
X138663000Y-78438600D01*
X138866200Y-78438600D02*
X138866200Y-79073600D01*
X138866200Y-79073600D02*
X139323400Y-79073600D01*
X139323400Y-79073600D02*
X139323400Y-78438600D01*
X139526600Y-78438600D02*
X139526600Y-79073600D01*
X139526600Y-79073600D02*
X139983800Y-79073600D01*
X139983800Y-79073600D02*
X139983800Y-78438600D01*
X140923600Y-78438600D02*
X140618800Y-78438600D01*
X140618800Y-78438600D02*
X140187000Y-78438600D01*
X140187000Y-78438600D02*
X140187000Y-79073600D01*
X140187000Y-79073600D02*
X140618800Y-79073600D01*
X140618800Y-79073600D02*
X140618800Y-78438600D01*
X140923600Y-77879800D02*
G75*
G02X140923600Y-77270200I0J304800D01*
G01*
D13*
X137725000Y-43775000D02*
X141125000Y-43775000D01*
D14*
X141025000Y-42975000D02*
X141025000Y-44575000D01*
X137825000Y-44575000D02*
X137825000Y-42975000D01*
D13*
X137475000Y-63975000D02*
X140875000Y-63975000D01*
D14*
X140775000Y-63175000D02*
X140775000Y-64775000D01*
X137575000Y-64775000D02*
X137575000Y-63175000D01*
D13*
X137475000Y-83575000D02*
X140875000Y-83575000D01*
D14*
X140775000Y-82775000D02*
X140775000Y-84375000D01*
X137575000Y-84375000D02*
X137575000Y-82775000D01*
D13*
X129200000Y-147950000D02*
X125800000Y-147950000D01*
D14*
X125900000Y-148750000D02*
X125900000Y-147150000D01*
X129100000Y-147150000D02*
X129100000Y-148750000D01*
D13*
X129200000Y-151150000D02*
X125800000Y-151150000D01*
D14*
X125900000Y-151950000D02*
X125900000Y-150350000D01*
X129100000Y-150350000D02*
X129100000Y-151950000D01*
M02*
