G04 #@! TF.FileFunction,Paste,Top*
%FSLAX46Y46*%
G04 Gerber Fmt 4.6, Leading zero omitted, Abs format (unit mm)*
G04 Created by KiCad (PCBNEW 4.0.7-e2-6376~60~ubuntu17.10.1) date Fri Nov 10 10:24:04 2017*
%MOMM*%
%LPD*%
G01*
G04 APERTURE LIST*
%ADD10C,0.100000*%
%ADD11R,1.300000X1.500000*%
%ADD12R,1.300000X0.700000*%
%ADD13R,0.700000X1.300000*%
%ADD14R,1.422400X0.279400*%
%ADD15R,1.500000X1.250000*%
%ADD16R,1.625600X0.889000*%
%ADD17R,1.625600X3.175000*%
%ADD18R,1.500000X1.300000*%
%ADD19R,1.350000X1.200000*%
%ADD20R,0.508000X1.320800*%
%ADD21R,1.800000X1.800000*%
%ADD22R,1.250000X1.500000*%
%ADD23R,1.200000X1.350000*%
%ADD24R,2.000000X3.800000*%
%ADD25R,2.000000X1.500000*%
%ADD26R,1.400000X1.000000*%
%ADD27C,1.524000*%
G04 APERTURE END LIST*
D10*
D11*
X123550000Y-102100000D03*
X123550000Y-99400000D03*
D12*
X149582000Y-112644000D03*
X149582000Y-114544000D03*
D13*
X133050000Y-71150000D03*
X131150000Y-71150000D03*
X132450000Y-30750000D03*
X130550000Y-30750000D03*
X146850000Y-38950000D03*
X144950000Y-38950000D03*
D14*
X159894400Y-115346600D03*
X159894400Y-114864000D03*
X159894400Y-114356000D03*
X159894400Y-113848000D03*
X159894400Y-113365400D03*
X155525600Y-113365400D03*
X155525600Y-113848000D03*
X155525600Y-114356000D03*
X155525600Y-114864000D03*
X155525600Y-115346600D03*
D15*
X146725000Y-56975000D03*
X144225000Y-56975000D03*
D16*
X150224600Y-39263600D03*
X150224600Y-41575000D03*
X150224600Y-43886400D03*
D17*
X156625400Y-41575000D03*
D18*
X143925000Y-95175000D03*
X146625000Y-95175000D03*
D15*
X146725000Y-97175000D03*
X144225000Y-97175000D03*
D19*
X147225000Y-90375000D03*
X143875000Y-90375000D03*
D18*
X140625000Y-93775000D03*
X137925000Y-93775000D03*
D19*
X138075000Y-103975000D03*
X141425000Y-103975000D03*
X138075000Y-101575000D03*
X141425000Y-101575000D03*
D20*
X140355400Y-96235000D03*
X139720400Y-96235000D03*
X139060000Y-96235000D03*
X138425000Y-96235000D03*
X138425000Y-98775000D03*
X139060000Y-98775000D03*
X139720400Y-98775000D03*
X140355400Y-98775000D03*
D18*
X144125000Y-101575000D03*
X146825000Y-101575000D03*
X144125000Y-103975000D03*
X146825000Y-103975000D03*
X146825000Y-92575000D03*
X144125000Y-92575000D03*
X144025000Y-33975000D03*
X146725000Y-33975000D03*
D21*
X106002000Y-31274000D03*
X111802000Y-31274000D03*
X170252000Y-142224000D03*
X176052000Y-142224000D03*
D15*
X146725000Y-36375000D03*
X144225000Y-36375000D03*
X146675000Y-77175000D03*
X144175000Y-77175000D03*
D22*
X151868000Y-114844000D03*
X151868000Y-112344000D03*
D11*
X207326000Y-49936000D03*
X207326000Y-47236000D03*
X207326000Y-64922000D03*
X207326000Y-62222000D03*
X207580000Y-81178000D03*
X207580000Y-78478000D03*
X207580000Y-95910000D03*
X207580000Y-93210000D03*
X207326000Y-56540000D03*
X207326000Y-53840000D03*
X207326000Y-72542000D03*
X207326000Y-69842000D03*
X207580000Y-88544000D03*
X207580000Y-85844000D03*
X207580000Y-102768000D03*
X207580000Y-100068000D03*
D19*
X137725000Y-41175000D03*
X141075000Y-41175000D03*
X137475000Y-61375000D03*
X140825000Y-61375000D03*
X137675000Y-81575000D03*
X141025000Y-81575000D03*
D23*
X140692000Y-125864000D03*
X140692000Y-129214000D03*
X156186000Y-126118000D03*
X156186000Y-129468000D03*
X171426000Y-126118000D03*
X171426000Y-129468000D03*
X186158000Y-126372000D03*
X186158000Y-129722000D03*
X103302000Y-36174000D03*
X103302000Y-32824000D03*
D19*
X147025000Y-29375000D03*
X143675000Y-29375000D03*
X147325000Y-50575000D03*
X143975000Y-50575000D03*
X147225000Y-70375000D03*
X143875000Y-70375000D03*
D24*
X179792000Y-49602000D03*
D25*
X186092000Y-49602000D03*
X186092000Y-47302000D03*
X186092000Y-51902000D03*
D24*
X180046000Y-62302000D03*
D25*
X186346000Y-62302000D03*
X186346000Y-60002000D03*
X186346000Y-64602000D03*
D26*
X182731000Y-84527000D03*
X184931000Y-83577000D03*
X184931000Y-85477000D03*
X182858000Y-97989000D03*
X185058000Y-97039000D03*
X185058000Y-98939000D03*
D16*
X150624600Y-59263600D03*
X150624600Y-61575000D03*
X150624600Y-63886400D03*
D17*
X157025400Y-61575000D03*
D16*
X150224600Y-30063600D03*
X150224600Y-32375000D03*
X150224600Y-34686400D03*
D17*
X156625400Y-32375000D03*
D16*
X150440600Y-50263600D03*
X150440600Y-52575000D03*
X150440600Y-54886400D03*
D17*
X156841400Y-52575000D03*
D16*
X150624600Y-79263600D03*
X150624600Y-81575000D03*
X150624600Y-83886400D03*
D17*
X157025400Y-81575000D03*
D16*
X150424600Y-99263600D03*
X150424600Y-101575000D03*
X150424600Y-103886400D03*
D17*
X156825400Y-101575000D03*
D16*
X150424600Y-70063600D03*
X150424600Y-72375000D03*
X150424600Y-74686400D03*
D17*
X156825400Y-72375000D03*
D16*
X150424600Y-90063600D03*
X150424600Y-92375000D03*
X150424600Y-94686400D03*
D17*
X156825400Y-92375000D03*
D26*
X138068000Y-120198000D03*
X140268000Y-119248000D03*
X140268000Y-121148000D03*
X153816000Y-120706000D03*
X156016000Y-119756000D03*
X156016000Y-121656000D03*
X169056000Y-120198000D03*
X171256000Y-119248000D03*
X171256000Y-121148000D03*
X183534000Y-120452000D03*
X185734000Y-119502000D03*
X185734000Y-121402000D03*
D11*
X204024000Y-47236000D03*
X204024000Y-49936000D03*
X204024000Y-62222000D03*
X204024000Y-64922000D03*
X204024000Y-78478000D03*
X204024000Y-81178000D03*
X204024000Y-93210000D03*
X204024000Y-95910000D03*
X204024000Y-53840000D03*
X204024000Y-56540000D03*
X204024000Y-69842000D03*
X204024000Y-72542000D03*
X204024000Y-85844000D03*
X204024000Y-88544000D03*
X204024000Y-100068000D03*
X204024000Y-102768000D03*
X189038000Y-52222000D03*
X189038000Y-49522000D03*
X189038000Y-44442000D03*
X189038000Y-47142000D03*
X189292000Y-64922000D03*
X189292000Y-62222000D03*
X189292000Y-57142000D03*
X189292000Y-59842000D03*
D18*
X185308000Y-77161000D03*
X182608000Y-77161000D03*
X182671500Y-81009100D03*
X185371500Y-81009100D03*
X185435000Y-90877000D03*
X182735000Y-90877000D03*
X182735000Y-94814000D03*
X185435000Y-94814000D03*
X144275000Y-41375000D03*
X146975000Y-41375000D03*
X144125000Y-61375000D03*
X146825000Y-61375000D03*
X140625000Y-33575000D03*
X137925000Y-33575000D03*
X140825000Y-53575000D03*
X138125000Y-53575000D03*
X143925000Y-31575000D03*
X146625000Y-31575000D03*
X144075000Y-52575000D03*
X146775000Y-52575000D03*
X144125000Y-54775000D03*
X146825000Y-54775000D03*
X144125000Y-81375000D03*
X146825000Y-81375000D03*
X140775000Y-73775000D03*
X138075000Y-73775000D03*
X146825000Y-72575000D03*
X144125000Y-72575000D03*
X144125000Y-75175000D03*
X146825000Y-75175000D03*
D11*
X137898000Y-129168000D03*
X137898000Y-126468000D03*
X153646000Y-129168000D03*
X153646000Y-126468000D03*
X168886000Y-129168000D03*
X168886000Y-126468000D03*
X183364000Y-129422000D03*
X183364000Y-126722000D03*
X163552000Y-113006000D03*
X163552000Y-115706000D03*
X170410000Y-113006000D03*
X170410000Y-115706000D03*
X186666000Y-113006000D03*
X186666000Y-115706000D03*
X176760000Y-113006000D03*
X176760000Y-115706000D03*
X166854000Y-115706000D03*
X166854000Y-113006000D03*
X173712000Y-115706000D03*
X173712000Y-113006000D03*
X183364000Y-115706000D03*
X183364000Y-113006000D03*
X180062000Y-115706000D03*
X180062000Y-113006000D03*
D27*
X209612000Y-52142000D03*
X209612000Y-66874000D03*
X209866000Y-83892000D03*
X209866000Y-97862000D03*
X193102000Y-52142000D03*
X193102000Y-65096000D03*
X193102000Y-48586000D03*
X193102000Y-44776000D03*
X193102000Y-61540000D03*
X192848000Y-57222000D03*
D20*
X140555400Y-35835000D03*
X139920400Y-35835000D03*
X139260000Y-35835000D03*
X138625000Y-35835000D03*
X138625000Y-38375000D03*
X139260000Y-38375000D03*
X139920400Y-38375000D03*
X140555400Y-38375000D03*
X140225000Y-55975000D03*
X139590000Y-55975000D03*
X138929600Y-55975000D03*
X138294600Y-55975000D03*
X138294600Y-58515000D03*
X138929600Y-58515000D03*
X139590000Y-58515000D03*
X140225000Y-58515000D03*
X140390200Y-76305000D03*
X139755200Y-76305000D03*
X139094800Y-76305000D03*
X138459800Y-76305000D03*
X138459800Y-78845000D03*
X139094800Y-78845000D03*
X139755200Y-78845000D03*
X140390200Y-78845000D03*
D19*
X137725000Y-43775000D03*
X141075000Y-43775000D03*
X137475000Y-63975000D03*
X140825000Y-63975000D03*
X137475000Y-83575000D03*
X140825000Y-83575000D03*
D18*
X144275000Y-43975000D03*
X146975000Y-43975000D03*
X144125000Y-63975000D03*
X146825000Y-63975000D03*
X144125000Y-83575000D03*
X146825000Y-83575000D03*
X110452000Y-35874000D03*
X107752000Y-35874000D03*
D19*
X129200000Y-147950000D03*
X125850000Y-147950000D03*
X129200000Y-151150000D03*
X125850000Y-151150000D03*
D21*
X185102000Y-142274000D03*
X190902000Y-142274000D03*
X155152000Y-142274000D03*
X160952000Y-142274000D03*
X140402000Y-142274000D03*
X146202000Y-142274000D03*
D13*
X133050000Y-50950000D03*
X131150000Y-50950000D03*
X146450000Y-79175000D03*
X144550000Y-79175000D03*
X146425000Y-58975000D03*
X144525000Y-58975000D03*
X146650000Y-99550000D03*
X144750000Y-99550000D03*
X135250000Y-91150000D03*
X133350000Y-91150000D03*
D18*
X110450000Y-38450000D03*
X107750000Y-38450000D03*
X150300000Y-136900000D03*
X147600000Y-136900000D03*
X165350000Y-136900000D03*
X162650000Y-136900000D03*
X180150000Y-136850000D03*
X177450000Y-136850000D03*
X194950000Y-136850000D03*
X192250000Y-136850000D03*
M02*
