G04 #@! TF.FileFunction,Other,Fab,Top*
%FSLAX46Y46*%
G04 Gerber Fmt 4.6, Leading zero omitted, Abs format (unit mm)*
G04 Created by KiCad (PCBNEW 4.0.7) date 11/06/17 02:09:47*
%MOMM*%
%LPD*%
G01*
G04 APERTURE LIST*
%ADD10C,0.100000*%
%ADD11C,0.150000*%
%ADD12C,0.120000*%
%ADD13C,0.075000*%
G04 APERTURE END LIST*
D10*
X87646000Y-33640000D02*
X87646000Y-32400000D01*
X89646000Y-33640000D02*
X87646000Y-33640000D01*
X89646000Y-32400000D02*
X89646000Y-33640000D01*
X87646000Y-32400000D02*
X89646000Y-32400000D01*
X87138000Y-50404000D02*
X87138000Y-49164000D01*
X89138000Y-50404000D02*
X87138000Y-50404000D01*
X89138000Y-49164000D02*
X89138000Y-50404000D01*
X87138000Y-49164000D02*
X89138000Y-49164000D01*
X87392000Y-67168000D02*
X87392000Y-65928000D01*
X89392000Y-67168000D02*
X87392000Y-67168000D01*
X89392000Y-65928000D02*
X89392000Y-67168000D01*
X87392000Y-65928000D02*
X89392000Y-65928000D01*
X87392000Y-84186000D02*
X87392000Y-82946000D01*
X89392000Y-84186000D02*
X87392000Y-84186000D01*
X89392000Y-82946000D02*
X89392000Y-84186000D01*
X87392000Y-82946000D02*
X89392000Y-82946000D01*
X100188000Y-99044000D02*
X98948000Y-99044000D01*
X100188000Y-97044000D02*
X100188000Y-99044000D01*
X98948000Y-97044000D02*
X100188000Y-97044000D01*
X98948000Y-99044000D02*
X98948000Y-97044000D01*
X156826000Y-34436000D02*
X157626000Y-34436000D01*
X157226000Y-34436000D02*
X156826000Y-33836000D01*
X157626000Y-33836000D02*
X157226000Y-34436000D01*
X156826000Y-33836000D02*
X157626000Y-33836000D01*
X157846000Y-35036000D02*
X156606000Y-35036000D01*
X157846000Y-33036000D02*
X157846000Y-35036000D01*
X156606000Y-33036000D02*
X157846000Y-33036000D01*
X156606000Y-35036000D02*
X156606000Y-33036000D01*
X156826000Y-49422000D02*
X157626000Y-49422000D01*
X157226000Y-49422000D02*
X156826000Y-48822000D01*
X157626000Y-48822000D02*
X157226000Y-49422000D01*
X156826000Y-48822000D02*
X157626000Y-48822000D01*
X157846000Y-50022000D02*
X156606000Y-50022000D01*
X157846000Y-48022000D02*
X157846000Y-50022000D01*
X156606000Y-48022000D02*
X157846000Y-48022000D01*
X156606000Y-50022000D02*
X156606000Y-48022000D01*
X157080000Y-65678000D02*
X157880000Y-65678000D01*
X157480000Y-65678000D02*
X157080000Y-65078000D01*
X157880000Y-65078000D02*
X157480000Y-65678000D01*
X157080000Y-65078000D02*
X157880000Y-65078000D01*
X158100000Y-66278000D02*
X156860000Y-66278000D01*
X158100000Y-64278000D02*
X158100000Y-66278000D01*
X156860000Y-64278000D02*
X158100000Y-64278000D01*
X156860000Y-66278000D02*
X156860000Y-64278000D01*
X157080000Y-80410000D02*
X157880000Y-80410000D01*
X157480000Y-80410000D02*
X157080000Y-79810000D01*
X157880000Y-79810000D02*
X157480000Y-80410000D01*
X157080000Y-79810000D02*
X157880000Y-79810000D01*
X158100000Y-81010000D02*
X156860000Y-81010000D01*
X158100000Y-79010000D02*
X158100000Y-81010000D01*
X156860000Y-79010000D02*
X158100000Y-79010000D01*
X156860000Y-81010000D02*
X156860000Y-79010000D01*
X156826000Y-41040000D02*
X157626000Y-41040000D01*
X157226000Y-41040000D02*
X156826000Y-40440000D01*
X157626000Y-40440000D02*
X157226000Y-41040000D01*
X156826000Y-40440000D02*
X157626000Y-40440000D01*
X157846000Y-41640000D02*
X156606000Y-41640000D01*
X157846000Y-39640000D02*
X157846000Y-41640000D01*
X156606000Y-39640000D02*
X157846000Y-39640000D01*
X156606000Y-41640000D02*
X156606000Y-39640000D01*
X156826000Y-57042000D02*
X157626000Y-57042000D01*
X157226000Y-57042000D02*
X156826000Y-56442000D01*
X157626000Y-56442000D02*
X157226000Y-57042000D01*
X156826000Y-56442000D02*
X157626000Y-56442000D01*
X157846000Y-57642000D02*
X156606000Y-57642000D01*
X157846000Y-55642000D02*
X157846000Y-57642000D01*
X156606000Y-55642000D02*
X157846000Y-55642000D01*
X156606000Y-57642000D02*
X156606000Y-55642000D01*
X157080000Y-73044000D02*
X157880000Y-73044000D01*
X157480000Y-73044000D02*
X157080000Y-72444000D01*
X157880000Y-72444000D02*
X157480000Y-73044000D01*
X157080000Y-72444000D02*
X157880000Y-72444000D01*
X158100000Y-73644000D02*
X156860000Y-73644000D01*
X158100000Y-71644000D02*
X158100000Y-73644000D01*
X156860000Y-71644000D02*
X158100000Y-71644000D01*
X156860000Y-73644000D02*
X156860000Y-71644000D01*
X157080000Y-87268000D02*
X157880000Y-87268000D01*
X157480000Y-87268000D02*
X157080000Y-86668000D01*
X157880000Y-86668000D02*
X157480000Y-87268000D01*
X157080000Y-86668000D02*
X157880000Y-86668000D01*
X158100000Y-87868000D02*
X156860000Y-87868000D01*
X158100000Y-85868000D02*
X158100000Y-87868000D01*
X156860000Y-85868000D02*
X158100000Y-85868000D01*
X156860000Y-87868000D02*
X156860000Y-85868000D01*
X75120500Y-131254500D02*
X71310500Y-131254500D01*
X71310500Y-131254500D02*
X71310500Y-105854500D01*
X71310500Y-105854500D02*
X76390500Y-105854500D01*
X76390500Y-105854500D02*
X76390500Y-129984500D01*
X76390500Y-129984500D02*
X75120500Y-131254500D01*
X149098000Y-33528000D02*
X151003000Y-33528000D01*
X151003000Y-33528000D02*
X151003000Y-41148000D01*
X151003000Y-41148000D02*
X148463000Y-41148000D01*
X148463000Y-41148000D02*
X148463000Y-34163000D01*
X148463000Y-34163000D02*
X149098000Y-33528000D01*
X148971000Y-49022000D02*
X150876000Y-49022000D01*
X150876000Y-49022000D02*
X150876000Y-56642000D01*
X150876000Y-56642000D02*
X148336000Y-56642000D01*
X148336000Y-56642000D02*
X148336000Y-49657000D01*
X148336000Y-49657000D02*
X148971000Y-49022000D01*
X149225000Y-65278000D02*
X151130000Y-65278000D01*
X151130000Y-65278000D02*
X151130000Y-72898000D01*
X151130000Y-72898000D02*
X148590000Y-72898000D01*
X148590000Y-72898000D02*
X148590000Y-65913000D01*
X148590000Y-65913000D02*
X149225000Y-65278000D01*
X149479000Y-79756000D02*
X151384000Y-79756000D01*
X151384000Y-79756000D02*
X151384000Y-87376000D01*
X151384000Y-87376000D02*
X148844000Y-87376000D01*
X148844000Y-87376000D02*
X148844000Y-80391000D01*
X148844000Y-80391000D02*
X149479000Y-79756000D01*
X123545600Y-31343600D02*
X127355600Y-31343600D01*
X127355600Y-31343600D02*
X127355600Y-38963600D01*
X127355600Y-38963600D02*
X122275600Y-38963600D01*
X122275600Y-38963600D02*
X122275600Y-32613600D01*
X122275600Y-32613600D02*
X123545600Y-31343600D01*
X123799600Y-43637200D02*
X127609600Y-43637200D01*
X127609600Y-43637200D02*
X127609600Y-51257200D01*
X127609600Y-51257200D02*
X122529600Y-51257200D01*
X122529600Y-51257200D02*
X122529600Y-44907200D01*
X122529600Y-44907200D02*
X123799600Y-43637200D01*
X126301500Y-63512700D02*
X130111500Y-63512700D01*
X130111500Y-63512700D02*
X130111500Y-71132700D01*
X130111500Y-71132700D02*
X125031500Y-71132700D01*
X125031500Y-71132700D02*
X125031500Y-64782700D01*
X125031500Y-64782700D02*
X126301500Y-63512700D01*
X126238000Y-76200000D02*
X130048000Y-76200000D01*
X130048000Y-76200000D02*
X130048000Y-83820000D01*
X130048000Y-83820000D02*
X124968000Y-83820000D01*
X124968000Y-83820000D02*
X124968000Y-77470000D01*
X124968000Y-77470000D02*
X126238000Y-76200000D01*
X77470000Y-39751000D02*
X77470000Y-41656000D01*
X77470000Y-41656000D02*
X26670000Y-41656000D01*
X26670000Y-41656000D02*
X26670000Y-39116000D01*
X26670000Y-39116000D02*
X76835000Y-39116000D01*
X76835000Y-39116000D02*
X77470000Y-39751000D01*
X77470000Y-42291000D02*
X77470000Y-44196000D01*
X77470000Y-44196000D02*
X26670000Y-44196000D01*
X26670000Y-44196000D02*
X26670000Y-41656000D01*
X26670000Y-41656000D02*
X76835000Y-41656000D01*
X76835000Y-41656000D02*
X77470000Y-42291000D01*
X77470000Y-50546000D02*
X77470000Y-54356000D01*
X77470000Y-54356000D02*
X26670000Y-54356000D01*
X26670000Y-54356000D02*
X26670000Y-49276000D01*
X26670000Y-49276000D02*
X76200000Y-49276000D01*
X76200000Y-49276000D02*
X77470000Y-50546000D01*
X77470000Y-95631000D02*
X77470000Y-97536000D01*
X77470000Y-97536000D02*
X26670000Y-97536000D01*
X26670000Y-97536000D02*
X26670000Y-94996000D01*
X26670000Y-94996000D02*
X76835000Y-94996000D01*
X76835000Y-94996000D02*
X77470000Y-95631000D01*
X77470000Y-98171000D02*
X77470000Y-100076000D01*
X77470000Y-100076000D02*
X26670000Y-100076000D01*
X26670000Y-100076000D02*
X26670000Y-97536000D01*
X26670000Y-97536000D02*
X76835000Y-97536000D01*
X76835000Y-97536000D02*
X77470000Y-98171000D01*
X77470000Y-86106000D02*
X77470000Y-89916000D01*
X77470000Y-89916000D02*
X26670000Y-89916000D01*
X26670000Y-89916000D02*
X26670000Y-84836000D01*
X26670000Y-84836000D02*
X76200000Y-84836000D01*
X76200000Y-84836000D02*
X77470000Y-86106000D01*
X74910000Y-31246000D02*
X74910000Y-32846000D01*
X74910000Y-32846000D02*
X75610000Y-32846000D01*
X75610000Y-32846000D02*
X75610000Y-25246000D01*
X75610000Y-25246000D02*
X69710000Y-25246000D01*
X69710000Y-25246000D02*
X69710000Y-32846000D01*
X69710000Y-32846000D02*
X70410000Y-32846000D01*
X70410000Y-32846000D02*
X70410000Y-31246000D01*
X70410000Y-31246000D02*
X74910000Y-31246000D01*
X73660000Y-30646000D02*
X74160000Y-30146000D01*
X74160000Y-30146000D02*
X73160000Y-30146000D01*
X73160000Y-30146000D02*
X73660000Y-30646000D01*
X83693000Y-38608000D02*
X81788000Y-38608000D01*
X81788000Y-38608000D02*
X81788000Y-33528000D01*
X81788000Y-33528000D02*
X84328000Y-33528000D01*
X84328000Y-33528000D02*
X84328000Y-37973000D01*
X84328000Y-37973000D02*
X83693000Y-38608000D01*
X83693000Y-56388000D02*
X81788000Y-56388000D01*
X81788000Y-56388000D02*
X81788000Y-51308000D01*
X81788000Y-51308000D02*
X84328000Y-51308000D01*
X84328000Y-51308000D02*
X84328000Y-55753000D01*
X84328000Y-55753000D02*
X83693000Y-56388000D01*
X83693000Y-74168000D02*
X81788000Y-74168000D01*
X81788000Y-74168000D02*
X81788000Y-69088000D01*
X81788000Y-69088000D02*
X84328000Y-69088000D01*
X84328000Y-69088000D02*
X84328000Y-73533000D01*
X84328000Y-73533000D02*
X83693000Y-74168000D01*
X83947000Y-90932000D02*
X82042000Y-90932000D01*
X82042000Y-90932000D02*
X82042000Y-85852000D01*
X82042000Y-85852000D02*
X84582000Y-85852000D01*
X84582000Y-85852000D02*
X84582000Y-90297000D01*
X84582000Y-90297000D02*
X83947000Y-90932000D01*
X84328000Y-100965000D02*
X84328000Y-99060000D01*
X84328000Y-99060000D02*
X94488000Y-99060000D01*
X94488000Y-99060000D02*
X94488000Y-101600000D01*
X94488000Y-101600000D02*
X84963000Y-101600000D01*
X84963000Y-101600000D02*
X84328000Y-100965000D01*
X134692000Y-37352000D02*
X133642000Y-38402000D01*
X134692000Y-37352000D02*
X134692000Y-31702000D01*
X133642000Y-38402000D02*
X130992000Y-38402000D01*
X134692000Y-31702000D02*
X130992000Y-31702000D01*
X130992000Y-38402000D02*
X130992000Y-31702000D01*
X134946000Y-50052000D02*
X133896000Y-51102000D01*
X134946000Y-50052000D02*
X134946000Y-44402000D01*
X133896000Y-51102000D02*
X131246000Y-51102000D01*
X134946000Y-44402000D02*
X131246000Y-44402000D01*
X131246000Y-51102000D02*
X131246000Y-44402000D01*
X153304000Y-33036000D02*
X154544000Y-33036000D01*
X153304000Y-35036000D02*
X153304000Y-33036000D01*
X154544000Y-35036000D02*
X153304000Y-35036000D01*
X154544000Y-33036000D02*
X154544000Y-35036000D01*
X153304000Y-48022000D02*
X154544000Y-48022000D01*
X153304000Y-50022000D02*
X153304000Y-48022000D01*
X154544000Y-50022000D02*
X153304000Y-50022000D01*
X154544000Y-48022000D02*
X154544000Y-50022000D01*
X153304000Y-64278000D02*
X154544000Y-64278000D01*
X153304000Y-66278000D02*
X153304000Y-64278000D01*
X154544000Y-66278000D02*
X153304000Y-66278000D01*
X154544000Y-64278000D02*
X154544000Y-66278000D01*
X153304000Y-79010000D02*
X154544000Y-79010000D01*
X153304000Y-81010000D02*
X153304000Y-79010000D01*
X154544000Y-81010000D02*
X153304000Y-81010000D01*
X154544000Y-79010000D02*
X154544000Y-81010000D01*
X153304000Y-39640000D02*
X154544000Y-39640000D01*
X153304000Y-41640000D02*
X153304000Y-39640000D01*
X154544000Y-41640000D02*
X153304000Y-41640000D01*
X154544000Y-39640000D02*
X154544000Y-41640000D01*
X153304000Y-55642000D02*
X154544000Y-55642000D01*
X153304000Y-57642000D02*
X153304000Y-55642000D01*
X154544000Y-57642000D02*
X153304000Y-57642000D01*
X154544000Y-55642000D02*
X154544000Y-57642000D01*
X153304000Y-71644000D02*
X154544000Y-71644000D01*
X153304000Y-73644000D02*
X153304000Y-71644000D01*
X154544000Y-73644000D02*
X153304000Y-73644000D01*
X154544000Y-71644000D02*
X154544000Y-73644000D01*
X153304000Y-85868000D02*
X154544000Y-85868000D01*
X153304000Y-87868000D02*
X153304000Y-85868000D01*
X154544000Y-87868000D02*
X153304000Y-87868000D01*
X154544000Y-85868000D02*
X154544000Y-87868000D01*
X139558000Y-37322000D02*
X138318000Y-37322000D01*
X139558000Y-35322000D02*
X139558000Y-37322000D01*
X138318000Y-35322000D02*
X139558000Y-35322000D01*
X138318000Y-37322000D02*
X138318000Y-35322000D01*
X138318000Y-30242000D02*
X139558000Y-30242000D01*
X138318000Y-32242000D02*
X138318000Y-30242000D01*
X139558000Y-32242000D02*
X138318000Y-32242000D01*
X139558000Y-30242000D02*
X139558000Y-32242000D01*
X139812000Y-50022000D02*
X138572000Y-50022000D01*
X139812000Y-48022000D02*
X139812000Y-50022000D01*
X138572000Y-48022000D02*
X139812000Y-48022000D01*
X138572000Y-50022000D02*
X138572000Y-48022000D01*
X138572000Y-42942000D02*
X139812000Y-42942000D01*
X138572000Y-44942000D02*
X138572000Y-42942000D01*
X139812000Y-44942000D02*
X138572000Y-44942000D01*
X139812000Y-42942000D02*
X139812000Y-44942000D01*
X134858000Y-61991000D02*
X134858000Y-63231000D01*
X132858000Y-61991000D02*
X134858000Y-61991000D01*
X132858000Y-63231000D02*
X132858000Y-61991000D01*
X134858000Y-63231000D02*
X132858000Y-63231000D01*
X132921500Y-67079100D02*
X132921500Y-65839100D01*
X134921500Y-67079100D02*
X132921500Y-67079100D01*
X134921500Y-65839100D02*
X134921500Y-67079100D01*
X132921500Y-65839100D02*
X134921500Y-65839100D01*
X134985000Y-75707000D02*
X134985000Y-76947000D01*
X132985000Y-75707000D02*
X134985000Y-75707000D01*
X132985000Y-76947000D02*
X132985000Y-75707000D01*
X134985000Y-76947000D02*
X132985000Y-76947000D01*
X132985000Y-80884000D02*
X132985000Y-79644000D01*
X134985000Y-80884000D02*
X132985000Y-80884000D01*
X134985000Y-79644000D02*
X134985000Y-80884000D01*
X132985000Y-79644000D02*
X134985000Y-79644000D01*
X71390000Y-92822000D02*
X71390000Y-91582000D01*
X73390000Y-92822000D02*
X71390000Y-92822000D01*
X73390000Y-91582000D02*
X73390000Y-92822000D01*
X71390000Y-91582000D02*
X73390000Y-91582000D01*
X93234000Y-36434000D02*
X93234000Y-35194000D01*
X95234000Y-36434000D02*
X93234000Y-36434000D01*
X95234000Y-35194000D02*
X95234000Y-36434000D01*
X93234000Y-35194000D02*
X95234000Y-35194000D01*
X93234000Y-53960000D02*
X93234000Y-52720000D01*
X95234000Y-53960000D02*
X93234000Y-53960000D01*
X95234000Y-52720000D02*
X95234000Y-53960000D01*
X93234000Y-52720000D02*
X95234000Y-52720000D01*
X89138000Y-29098000D02*
X89138000Y-30338000D01*
X87138000Y-29098000D02*
X89138000Y-29098000D01*
X87138000Y-30338000D02*
X87138000Y-29098000D01*
X89138000Y-30338000D02*
X87138000Y-30338000D01*
X89138000Y-46624000D02*
X89138000Y-47864000D01*
X87138000Y-46624000D02*
X89138000Y-46624000D01*
X87138000Y-47864000D02*
X87138000Y-46624000D01*
X89138000Y-47864000D02*
X87138000Y-47864000D01*
X93584000Y-28432000D02*
X92344000Y-28432000D01*
X93584000Y-26432000D02*
X93584000Y-28432000D01*
X92344000Y-26432000D02*
X93584000Y-26432000D01*
X92344000Y-28432000D02*
X92344000Y-26432000D01*
X93330000Y-46720000D02*
X92090000Y-46720000D01*
X93330000Y-44720000D02*
X93330000Y-46720000D01*
X92090000Y-44720000D02*
X93330000Y-44720000D01*
X92090000Y-46720000D02*
X92090000Y-44720000D01*
X95616000Y-28432000D02*
X94376000Y-28432000D01*
X95616000Y-26432000D02*
X95616000Y-28432000D01*
X94376000Y-26432000D02*
X95616000Y-26432000D01*
X94376000Y-28432000D02*
X94376000Y-26432000D01*
X96124000Y-46720000D02*
X94884000Y-46720000D01*
X96124000Y-44720000D02*
X96124000Y-46720000D01*
X94884000Y-44720000D02*
X96124000Y-44720000D01*
X94884000Y-46720000D02*
X94884000Y-44720000D01*
X93488000Y-71232000D02*
X93488000Y-69992000D01*
X95488000Y-71232000D02*
X93488000Y-71232000D01*
X95488000Y-69992000D02*
X95488000Y-71232000D01*
X93488000Y-69992000D02*
X95488000Y-69992000D01*
X93488000Y-88758000D02*
X93488000Y-87518000D01*
X95488000Y-88758000D02*
X93488000Y-88758000D01*
X95488000Y-87518000D02*
X95488000Y-88758000D01*
X93488000Y-87518000D02*
X95488000Y-87518000D01*
X89392000Y-63134000D02*
X89392000Y-64374000D01*
X87392000Y-63134000D02*
X89392000Y-63134000D01*
X87392000Y-64374000D02*
X87392000Y-63134000D01*
X89392000Y-64374000D02*
X87392000Y-64374000D01*
X89392000Y-80406000D02*
X89392000Y-81646000D01*
X87392000Y-80406000D02*
X89392000Y-80406000D01*
X87392000Y-81646000D02*
X87392000Y-80406000D01*
X89392000Y-81646000D02*
X87392000Y-81646000D01*
X93330000Y-63738000D02*
X92090000Y-63738000D01*
X93330000Y-61738000D02*
X93330000Y-63738000D01*
X92090000Y-61738000D02*
X93330000Y-61738000D01*
X92090000Y-63738000D02*
X92090000Y-61738000D01*
X93330000Y-81264000D02*
X92090000Y-81264000D01*
X93330000Y-79264000D02*
X93330000Y-81264000D01*
X92090000Y-79264000D02*
X93330000Y-79264000D01*
X92090000Y-81264000D02*
X92090000Y-79264000D01*
X96632000Y-63738000D02*
X95392000Y-63738000D01*
X96632000Y-61738000D02*
X96632000Y-63738000D01*
X95392000Y-61738000D02*
X96632000Y-61738000D01*
X95392000Y-63738000D02*
X95392000Y-61738000D01*
X96378000Y-81264000D02*
X95138000Y-81264000D01*
X96378000Y-79264000D02*
X96378000Y-81264000D01*
X95138000Y-79264000D02*
X96378000Y-79264000D01*
X95138000Y-81264000D02*
X95138000Y-79264000D01*
X86218000Y-113268000D02*
X84978000Y-113268000D01*
X86218000Y-111268000D02*
X86218000Y-113268000D01*
X84978000Y-111268000D02*
X86218000Y-111268000D01*
X84978000Y-113268000D02*
X84978000Y-111268000D01*
X101966000Y-113268000D02*
X100726000Y-113268000D01*
X101966000Y-111268000D02*
X101966000Y-113268000D01*
X100726000Y-111268000D02*
X101966000Y-111268000D01*
X100726000Y-113268000D02*
X100726000Y-111268000D01*
X117206000Y-113268000D02*
X115966000Y-113268000D01*
X117206000Y-111268000D02*
X117206000Y-113268000D01*
X115966000Y-111268000D02*
X117206000Y-111268000D01*
X115966000Y-113268000D02*
X115966000Y-111268000D01*
X131684000Y-113522000D02*
X130444000Y-113522000D01*
X131684000Y-111522000D02*
X131684000Y-113522000D01*
X130444000Y-111522000D02*
X131684000Y-111522000D01*
X130444000Y-113522000D02*
X130444000Y-111522000D01*
X110632000Y-97806000D02*
X111872000Y-97806000D01*
X110632000Y-99806000D02*
X110632000Y-97806000D01*
X111872000Y-99806000D02*
X110632000Y-99806000D01*
X111872000Y-97806000D02*
X111872000Y-99806000D01*
X117490000Y-97806000D02*
X118730000Y-97806000D01*
X117490000Y-99806000D02*
X117490000Y-97806000D01*
X118730000Y-99806000D02*
X117490000Y-99806000D01*
X118730000Y-97806000D02*
X118730000Y-99806000D01*
X133746000Y-97806000D02*
X134986000Y-97806000D01*
X133746000Y-99806000D02*
X133746000Y-97806000D01*
X134986000Y-99806000D02*
X133746000Y-99806000D01*
X134986000Y-97806000D02*
X134986000Y-99806000D01*
X123840000Y-97806000D02*
X125080000Y-97806000D01*
X123840000Y-99806000D02*
X123840000Y-97806000D01*
X125080000Y-99806000D02*
X123840000Y-99806000D01*
X125080000Y-97806000D02*
X125080000Y-99806000D01*
X115174000Y-99806000D02*
X113934000Y-99806000D01*
X115174000Y-97806000D02*
X115174000Y-99806000D01*
X113934000Y-97806000D02*
X115174000Y-97806000D01*
X113934000Y-99806000D02*
X113934000Y-97806000D01*
X122032000Y-99806000D02*
X120792000Y-99806000D01*
X122032000Y-97806000D02*
X122032000Y-99806000D01*
X120792000Y-97806000D02*
X122032000Y-97806000D01*
X120792000Y-99806000D02*
X120792000Y-97806000D01*
X131684000Y-99806000D02*
X130444000Y-99806000D01*
X131684000Y-97806000D02*
X131684000Y-99806000D01*
X130444000Y-97806000D02*
X131684000Y-97806000D01*
X130444000Y-99806000D02*
X130444000Y-97806000D01*
X128382000Y-99806000D02*
X127142000Y-99806000D01*
X128382000Y-97806000D02*
X128382000Y-99806000D01*
X127142000Y-97806000D02*
X128382000Y-97806000D01*
X127142000Y-99806000D02*
X127142000Y-97806000D01*
X93234000Y-39228000D02*
X93234000Y-37988000D01*
X95234000Y-39228000D02*
X93234000Y-39228000D01*
X95234000Y-37988000D02*
X95234000Y-39228000D01*
X93234000Y-37988000D02*
X95234000Y-37988000D01*
X93234000Y-56246000D02*
X93234000Y-55006000D01*
X95234000Y-56246000D02*
X93234000Y-56246000D01*
X95234000Y-55006000D02*
X95234000Y-56246000D01*
X93234000Y-55006000D02*
X95234000Y-55006000D01*
X93488000Y-74026000D02*
X93488000Y-72786000D01*
X95488000Y-74026000D02*
X93488000Y-74026000D01*
X95488000Y-72786000D02*
X95488000Y-74026000D01*
X93488000Y-72786000D02*
X95488000Y-72786000D01*
X93488000Y-91298000D02*
X93488000Y-90058000D01*
X95488000Y-91298000D02*
X93488000Y-91298000D01*
X95488000Y-90058000D02*
X95488000Y-91298000D01*
X93488000Y-90058000D02*
X95488000Y-90058000D01*
X116840000Y-121602500D02*
X120650000Y-121602500D01*
X120650000Y-121602500D02*
X120650000Y-124142500D01*
X120650000Y-124142500D02*
X115570000Y-124142500D01*
X115570000Y-124142500D02*
X115570000Y-122872500D01*
X115570000Y-122872500D02*
X116840000Y-121602500D01*
X91440000Y-121602500D02*
X95250000Y-121602500D01*
X95250000Y-121602500D02*
X95250000Y-124142500D01*
X95250000Y-124142500D02*
X90170000Y-124142500D01*
X90170000Y-124142500D02*
X90170000Y-122872500D01*
X90170000Y-122872500D02*
X91440000Y-121602500D01*
X103886000Y-121602500D02*
X107696000Y-121602500D01*
X107696000Y-121602500D02*
X107696000Y-124142500D01*
X107696000Y-124142500D02*
X102616000Y-124142500D01*
X102616000Y-124142500D02*
X102616000Y-122872500D01*
X102616000Y-122872500D02*
X103886000Y-121602500D01*
X132334000Y-121475500D02*
X136144000Y-121475500D01*
X136144000Y-121475500D02*
X136144000Y-124015500D01*
X136144000Y-124015500D02*
X131064000Y-124015500D01*
X131064000Y-124015500D02*
X131064000Y-122745500D01*
X131064000Y-122745500D02*
X132334000Y-121475500D01*
X82423000Y-26162000D02*
X84328000Y-26162000D01*
X84328000Y-26162000D02*
X84328000Y-28702000D01*
X84328000Y-28702000D02*
X81788000Y-28702000D01*
X81788000Y-28702000D02*
X81788000Y-26797000D01*
X81788000Y-26797000D02*
X82423000Y-26162000D01*
X82423000Y-43942000D02*
X84328000Y-43942000D01*
X84328000Y-43942000D02*
X84328000Y-46482000D01*
X84328000Y-46482000D02*
X81788000Y-46482000D01*
X81788000Y-46482000D02*
X81788000Y-44577000D01*
X81788000Y-44577000D02*
X82423000Y-43942000D01*
X82423000Y-61214000D02*
X84328000Y-61214000D01*
X84328000Y-61214000D02*
X84328000Y-63754000D01*
X84328000Y-63754000D02*
X81788000Y-63754000D01*
X81788000Y-63754000D02*
X81788000Y-61849000D01*
X81788000Y-61849000D02*
X82423000Y-61214000D01*
X82423000Y-77978000D02*
X84328000Y-77978000D01*
X84328000Y-77978000D02*
X84328000Y-80518000D01*
X84328000Y-80518000D02*
X81788000Y-80518000D01*
X81788000Y-80518000D02*
X81788000Y-78613000D01*
X81788000Y-78613000D02*
X82423000Y-77978000D01*
X149395000Y-125281000D02*
X148145000Y-125281000D01*
X148145000Y-125281000D02*
X148145000Y-126531000D01*
X148545000Y-125681000D02*
X148545000Y-130181000D01*
X148545000Y-130181000D02*
X154445000Y-130181000D01*
X154445000Y-130181000D02*
X154445000Y-125681000D01*
X154445000Y-125681000D02*
X148545000Y-125681000D01*
X148717000Y-121793000D02*
X148717000Y-119888000D01*
X148717000Y-119888000D02*
X153797000Y-119888000D01*
X153797000Y-119888000D02*
X153797000Y-122428000D01*
X153797000Y-122428000D02*
X149352000Y-122428000D01*
X149352000Y-122428000D02*
X148717000Y-121793000D01*
X64878000Y-33382000D02*
X64878000Y-34182000D01*
X64878000Y-33782000D02*
X65478000Y-33382000D01*
X65478000Y-34182000D02*
X64878000Y-33782000D01*
X65478000Y-33382000D02*
X65478000Y-34182000D01*
X64278000Y-34402000D02*
X64278000Y-33162000D01*
X66278000Y-34402000D02*
X64278000Y-34402000D01*
X66278000Y-33162000D02*
X66278000Y-34402000D01*
X64278000Y-33162000D02*
X66278000Y-33162000D01*
D11*
X88479334Y-31627143D02*
X88431715Y-31674762D01*
X88288858Y-31722381D01*
X88193620Y-31722381D01*
X88050762Y-31674762D01*
X87955524Y-31579524D01*
X87907905Y-31484286D01*
X87860286Y-31293810D01*
X87860286Y-31150952D01*
X87907905Y-30960476D01*
X87955524Y-30865238D01*
X88050762Y-30770000D01*
X88193620Y-30722381D01*
X88288858Y-30722381D01*
X88431715Y-30770000D01*
X88479334Y-30817619D01*
X89384096Y-30722381D02*
X88907905Y-30722381D01*
X88860286Y-31198571D01*
X88907905Y-31150952D01*
X89003143Y-31103333D01*
X89241239Y-31103333D01*
X89336477Y-31150952D01*
X89384096Y-31198571D01*
X89431715Y-31293810D01*
X89431715Y-31531905D01*
X89384096Y-31627143D01*
X89336477Y-31674762D01*
X89241239Y-31722381D01*
X89003143Y-31722381D01*
X88907905Y-31674762D01*
X88860286Y-31627143D01*
X87971334Y-48391143D02*
X87923715Y-48438762D01*
X87780858Y-48486381D01*
X87685620Y-48486381D01*
X87542762Y-48438762D01*
X87447524Y-48343524D01*
X87399905Y-48248286D01*
X87352286Y-48057810D01*
X87352286Y-47914952D01*
X87399905Y-47724476D01*
X87447524Y-47629238D01*
X87542762Y-47534000D01*
X87685620Y-47486381D01*
X87780858Y-47486381D01*
X87923715Y-47534000D01*
X87971334Y-47581619D01*
X88828477Y-47486381D02*
X88638000Y-47486381D01*
X88542762Y-47534000D01*
X88495143Y-47581619D01*
X88399905Y-47724476D01*
X88352286Y-47914952D01*
X88352286Y-48295905D01*
X88399905Y-48391143D01*
X88447524Y-48438762D01*
X88542762Y-48486381D01*
X88733239Y-48486381D01*
X88828477Y-48438762D01*
X88876096Y-48391143D01*
X88923715Y-48295905D01*
X88923715Y-48057810D01*
X88876096Y-47962571D01*
X88828477Y-47914952D01*
X88733239Y-47867333D01*
X88542762Y-47867333D01*
X88447524Y-47914952D01*
X88399905Y-47962571D01*
X88352286Y-48057810D01*
X88225334Y-65155143D02*
X88177715Y-65202762D01*
X88034858Y-65250381D01*
X87939620Y-65250381D01*
X87796762Y-65202762D01*
X87701524Y-65107524D01*
X87653905Y-65012286D01*
X87606286Y-64821810D01*
X87606286Y-64678952D01*
X87653905Y-64488476D01*
X87701524Y-64393238D01*
X87796762Y-64298000D01*
X87939620Y-64250381D01*
X88034858Y-64250381D01*
X88177715Y-64298000D01*
X88225334Y-64345619D01*
X88558667Y-64250381D02*
X89225334Y-64250381D01*
X88796762Y-65250381D01*
X88225334Y-82173143D02*
X88177715Y-82220762D01*
X88034858Y-82268381D01*
X87939620Y-82268381D01*
X87796762Y-82220762D01*
X87701524Y-82125524D01*
X87653905Y-82030286D01*
X87606286Y-81839810D01*
X87606286Y-81696952D01*
X87653905Y-81506476D01*
X87701524Y-81411238D01*
X87796762Y-81316000D01*
X87939620Y-81268381D01*
X88034858Y-81268381D01*
X88177715Y-81316000D01*
X88225334Y-81363619D01*
X88796762Y-81696952D02*
X88701524Y-81649333D01*
X88653905Y-81601714D01*
X88606286Y-81506476D01*
X88606286Y-81458857D01*
X88653905Y-81363619D01*
X88701524Y-81316000D01*
X88796762Y-81268381D01*
X88987239Y-81268381D01*
X89082477Y-81316000D01*
X89130096Y-81363619D01*
X89177715Y-81458857D01*
X89177715Y-81506476D01*
X89130096Y-81601714D01*
X89082477Y-81649333D01*
X88987239Y-81696952D01*
X88796762Y-81696952D01*
X88701524Y-81744571D01*
X88653905Y-81792190D01*
X88606286Y-81887429D01*
X88606286Y-82077905D01*
X88653905Y-82173143D01*
X88701524Y-82220762D01*
X88796762Y-82268381D01*
X88987239Y-82268381D01*
X89082477Y-82220762D01*
X89130096Y-82173143D01*
X89177715Y-82077905D01*
X89177715Y-81887429D01*
X89130096Y-81792190D01*
X89082477Y-81744571D01*
X88987239Y-81696952D01*
X98175143Y-98210666D02*
X98222762Y-98258285D01*
X98270381Y-98401142D01*
X98270381Y-98496380D01*
X98222762Y-98639238D01*
X98127524Y-98734476D01*
X98032286Y-98782095D01*
X97841810Y-98829714D01*
X97698952Y-98829714D01*
X97508476Y-98782095D01*
X97413238Y-98734476D01*
X97318000Y-98639238D01*
X97270381Y-98496380D01*
X97270381Y-98401142D01*
X97318000Y-98258285D01*
X97365619Y-98210666D01*
X98270381Y-97734476D02*
X98270381Y-97544000D01*
X98222762Y-97448761D01*
X98175143Y-97401142D01*
X98032286Y-97305904D01*
X97841810Y-97258285D01*
X97460857Y-97258285D01*
X97365619Y-97305904D01*
X97318000Y-97353523D01*
X97270381Y-97448761D01*
X97270381Y-97639238D01*
X97318000Y-97734476D01*
X97365619Y-97782095D01*
X97460857Y-97829714D01*
X97698952Y-97829714D01*
X97794190Y-97782095D01*
X97841810Y-97734476D01*
X97889429Y-97639238D01*
X97889429Y-97448761D01*
X97841810Y-97353523D01*
X97794190Y-97305904D01*
X97698952Y-97258285D01*
X73302881Y-118887833D02*
X74017167Y-118887833D01*
X74160024Y-118935453D01*
X74255262Y-119030691D01*
X74302881Y-119173548D01*
X74302881Y-119268786D01*
X74302881Y-117887833D02*
X74302881Y-118459262D01*
X74302881Y-118173548D02*
X73302881Y-118173548D01*
X73445738Y-118268786D01*
X73540976Y-118364024D01*
X73588595Y-118459262D01*
X149185381Y-37671333D02*
X149899667Y-37671333D01*
X150042524Y-37718953D01*
X150137762Y-37814191D01*
X150185381Y-37957048D01*
X150185381Y-38052286D01*
X149185381Y-37290381D02*
X149185381Y-36671333D01*
X149566333Y-37004667D01*
X149566333Y-36861809D01*
X149613952Y-36766571D01*
X149661571Y-36718952D01*
X149756810Y-36671333D01*
X149994905Y-36671333D01*
X150090143Y-36718952D01*
X150137762Y-36766571D01*
X150185381Y-36861809D01*
X150185381Y-37147524D01*
X150137762Y-37242762D01*
X150090143Y-37290381D01*
X149058381Y-53165333D02*
X149772667Y-53165333D01*
X149915524Y-53212953D01*
X150010762Y-53308191D01*
X150058381Y-53451048D01*
X150058381Y-53546286D01*
X149391714Y-52260571D02*
X150058381Y-52260571D01*
X149010762Y-52498667D02*
X149725048Y-52736762D01*
X149725048Y-52117714D01*
X149312381Y-69421333D02*
X150026667Y-69421333D01*
X150169524Y-69468953D01*
X150264762Y-69564191D01*
X150312381Y-69707048D01*
X150312381Y-69802286D01*
X149312381Y-68468952D02*
X149312381Y-68945143D01*
X149788571Y-68992762D01*
X149740952Y-68945143D01*
X149693333Y-68849905D01*
X149693333Y-68611809D01*
X149740952Y-68516571D01*
X149788571Y-68468952D01*
X149883810Y-68421333D01*
X150121905Y-68421333D01*
X150217143Y-68468952D01*
X150264762Y-68516571D01*
X150312381Y-68611809D01*
X150312381Y-68849905D01*
X150264762Y-68945143D01*
X150217143Y-68992762D01*
X149566381Y-83899333D02*
X150280667Y-83899333D01*
X150423524Y-83946953D01*
X150518762Y-84042191D01*
X150566381Y-84185048D01*
X150566381Y-84280286D01*
X149566381Y-82994571D02*
X149566381Y-83185048D01*
X149614000Y-83280286D01*
X149661619Y-83327905D01*
X149804476Y-83423143D01*
X149994952Y-83470762D01*
X150375905Y-83470762D01*
X150471143Y-83423143D01*
X150518762Y-83375524D01*
X150566381Y-83280286D01*
X150566381Y-83089809D01*
X150518762Y-82994571D01*
X150471143Y-82946952D01*
X150375905Y-82899333D01*
X150137810Y-82899333D01*
X150042571Y-82946952D01*
X149994952Y-82994571D01*
X149947333Y-83089809D01*
X149947333Y-83280286D01*
X149994952Y-83375524D01*
X150042571Y-83423143D01*
X150137810Y-83470762D01*
X124267981Y-35963123D02*
X124982267Y-35963123D01*
X125125124Y-36010743D01*
X125220362Y-36105981D01*
X125267981Y-36248838D01*
X125267981Y-36344076D01*
X125267981Y-34963123D02*
X125267981Y-35534552D01*
X125267981Y-35248838D02*
X124267981Y-35248838D01*
X124410838Y-35344076D01*
X124506076Y-35439314D01*
X124553695Y-35534552D01*
X125267981Y-34010742D02*
X125267981Y-34582171D01*
X125267981Y-34296457D02*
X124267981Y-34296457D01*
X124410838Y-34391695D01*
X124506076Y-34486933D01*
X124553695Y-34582171D01*
X124521981Y-48256723D02*
X125236267Y-48256723D01*
X125379124Y-48304343D01*
X125474362Y-48399581D01*
X125521981Y-48542438D01*
X125521981Y-48637676D01*
X125521981Y-47256723D02*
X125521981Y-47828152D01*
X125521981Y-47542438D02*
X124521981Y-47542438D01*
X124664838Y-47637676D01*
X124760076Y-47732914D01*
X124807695Y-47828152D01*
X124617219Y-46875771D02*
X124569600Y-46828152D01*
X124521981Y-46732914D01*
X124521981Y-46494818D01*
X124569600Y-46399580D01*
X124617219Y-46351961D01*
X124712457Y-46304342D01*
X124807695Y-46304342D01*
X124950552Y-46351961D01*
X125521981Y-46923390D01*
X125521981Y-46304342D01*
X127023881Y-68132223D02*
X127738167Y-68132223D01*
X127881024Y-68179843D01*
X127976262Y-68275081D01*
X128023881Y-68417938D01*
X128023881Y-68513176D01*
X128023881Y-67132223D02*
X128023881Y-67703652D01*
X128023881Y-67417938D02*
X127023881Y-67417938D01*
X127166738Y-67513176D01*
X127261976Y-67608414D01*
X127309595Y-67703652D01*
X127023881Y-66798890D02*
X127023881Y-66179842D01*
X127404833Y-66513176D01*
X127404833Y-66370318D01*
X127452452Y-66275080D01*
X127500071Y-66227461D01*
X127595310Y-66179842D01*
X127833405Y-66179842D01*
X127928643Y-66227461D01*
X127976262Y-66275080D01*
X128023881Y-66370318D01*
X128023881Y-66656033D01*
X127976262Y-66751271D01*
X127928643Y-66798890D01*
X126960381Y-80819523D02*
X127674667Y-80819523D01*
X127817524Y-80867143D01*
X127912762Y-80962381D01*
X127960381Y-81105238D01*
X127960381Y-81200476D01*
X127960381Y-79819523D02*
X127960381Y-80390952D01*
X127960381Y-80105238D02*
X126960381Y-80105238D01*
X127103238Y-80200476D01*
X127198476Y-80295714D01*
X127246095Y-80390952D01*
X127293714Y-78962380D02*
X127960381Y-78962380D01*
X126912762Y-79200476D02*
X127627048Y-79438571D01*
X127627048Y-78819523D01*
X51260477Y-39838381D02*
X51260477Y-40552667D01*
X51212857Y-40695524D01*
X51117619Y-40790762D01*
X50974762Y-40838381D01*
X50879524Y-40838381D01*
X52260477Y-40838381D02*
X51689048Y-40838381D01*
X51974762Y-40838381D02*
X51974762Y-39838381D01*
X51879524Y-39981238D01*
X51784286Y-40076476D01*
X51689048Y-40124095D01*
X53165239Y-39838381D02*
X52689048Y-39838381D01*
X52641429Y-40314571D01*
X52689048Y-40266952D01*
X52784286Y-40219333D01*
X53022382Y-40219333D01*
X53117620Y-40266952D01*
X53165239Y-40314571D01*
X53212858Y-40409810D01*
X53212858Y-40647905D01*
X53165239Y-40743143D01*
X53117620Y-40790762D01*
X53022382Y-40838381D01*
X52784286Y-40838381D01*
X52689048Y-40790762D01*
X52641429Y-40743143D01*
X51260477Y-42378381D02*
X51260477Y-43092667D01*
X51212857Y-43235524D01*
X51117619Y-43330762D01*
X50974762Y-43378381D01*
X50879524Y-43378381D01*
X52260477Y-43378381D02*
X51689048Y-43378381D01*
X51974762Y-43378381D02*
X51974762Y-42378381D01*
X51879524Y-42521238D01*
X51784286Y-42616476D01*
X51689048Y-42664095D01*
X53117620Y-42378381D02*
X52927143Y-42378381D01*
X52831905Y-42426000D01*
X52784286Y-42473619D01*
X52689048Y-42616476D01*
X52641429Y-42806952D01*
X52641429Y-43187905D01*
X52689048Y-43283143D01*
X52736667Y-43330762D01*
X52831905Y-43378381D01*
X53022382Y-43378381D01*
X53117620Y-43330762D01*
X53165239Y-43283143D01*
X53212858Y-43187905D01*
X53212858Y-42949810D01*
X53165239Y-42854571D01*
X53117620Y-42806952D01*
X53022382Y-42759333D01*
X52831905Y-42759333D01*
X52736667Y-42806952D01*
X52689048Y-42854571D01*
X52641429Y-42949810D01*
X51260477Y-51268381D02*
X51260477Y-51982667D01*
X51212857Y-52125524D01*
X51117619Y-52220762D01*
X50974762Y-52268381D01*
X50879524Y-52268381D01*
X52260477Y-52268381D02*
X51689048Y-52268381D01*
X51974762Y-52268381D02*
X51974762Y-51268381D01*
X51879524Y-51411238D01*
X51784286Y-51506476D01*
X51689048Y-51554095D01*
X52593810Y-51268381D02*
X53260477Y-51268381D01*
X52831905Y-52268381D01*
X51260477Y-95718381D02*
X51260477Y-96432667D01*
X51212857Y-96575524D01*
X51117619Y-96670762D01*
X50974762Y-96718381D01*
X50879524Y-96718381D01*
X51689048Y-95813619D02*
X51736667Y-95766000D01*
X51831905Y-95718381D01*
X52070001Y-95718381D01*
X52165239Y-95766000D01*
X52212858Y-95813619D01*
X52260477Y-95908857D01*
X52260477Y-96004095D01*
X52212858Y-96146952D01*
X51641429Y-96718381D01*
X52260477Y-96718381D01*
X52879524Y-95718381D02*
X52974763Y-95718381D01*
X53070001Y-95766000D01*
X53117620Y-95813619D01*
X53165239Y-95908857D01*
X53212858Y-96099333D01*
X53212858Y-96337429D01*
X53165239Y-96527905D01*
X53117620Y-96623143D01*
X53070001Y-96670762D01*
X52974763Y-96718381D01*
X52879524Y-96718381D01*
X52784286Y-96670762D01*
X52736667Y-96623143D01*
X52689048Y-96527905D01*
X52641429Y-96337429D01*
X52641429Y-96099333D01*
X52689048Y-95908857D01*
X52736667Y-95813619D01*
X52784286Y-95766000D01*
X52879524Y-95718381D01*
X51260477Y-98258381D02*
X51260477Y-98972667D01*
X51212857Y-99115524D01*
X51117619Y-99210762D01*
X50974762Y-99258381D01*
X50879524Y-99258381D01*
X51689048Y-98353619D02*
X51736667Y-98306000D01*
X51831905Y-98258381D01*
X52070001Y-98258381D01*
X52165239Y-98306000D01*
X52212858Y-98353619D01*
X52260477Y-98448857D01*
X52260477Y-98544095D01*
X52212858Y-98686952D01*
X51641429Y-99258381D01*
X52260477Y-99258381D01*
X53212858Y-99258381D02*
X52641429Y-99258381D01*
X52927143Y-99258381D02*
X52927143Y-98258381D01*
X52831905Y-98401238D01*
X52736667Y-98496476D01*
X52641429Y-98544095D01*
X51260477Y-86828381D02*
X51260477Y-87542667D01*
X51212857Y-87685524D01*
X51117619Y-87780762D01*
X50974762Y-87828381D01*
X50879524Y-87828381D01*
X51689048Y-86923619D02*
X51736667Y-86876000D01*
X51831905Y-86828381D01*
X52070001Y-86828381D01*
X52165239Y-86876000D01*
X52212858Y-86923619D01*
X52260477Y-87018857D01*
X52260477Y-87114095D01*
X52212858Y-87256952D01*
X51641429Y-87828381D01*
X52260477Y-87828381D01*
X52593810Y-86828381D02*
X53212858Y-86828381D01*
X52879524Y-87209333D01*
X53022382Y-87209333D01*
X53117620Y-87256952D01*
X53165239Y-87304571D01*
X53212858Y-87399810D01*
X53212858Y-87637905D01*
X53165239Y-87733143D01*
X53117620Y-87780762D01*
X53022382Y-87828381D01*
X52736667Y-87828381D01*
X52641429Y-87780762D01*
X52593810Y-87733143D01*
X71850477Y-28448381D02*
X71850477Y-29162667D01*
X71802857Y-29305524D01*
X71707619Y-29400762D01*
X71564762Y-29448381D01*
X71469524Y-29448381D01*
X72279048Y-28543619D02*
X72326667Y-28496000D01*
X72421905Y-28448381D01*
X72660001Y-28448381D01*
X72755239Y-28496000D01*
X72802858Y-28543619D01*
X72850477Y-28638857D01*
X72850477Y-28734095D01*
X72802858Y-28876952D01*
X72231429Y-29448381D01*
X72850477Y-29448381D01*
X73755239Y-28448381D02*
X73279048Y-28448381D01*
X73231429Y-28924571D01*
X73279048Y-28876952D01*
X73374286Y-28829333D01*
X73612382Y-28829333D01*
X73707620Y-28876952D01*
X73755239Y-28924571D01*
X73802858Y-29019810D01*
X73802858Y-29257905D01*
X73755239Y-29353143D01*
X73707620Y-29400762D01*
X73612382Y-29448381D01*
X73374286Y-29448381D01*
X73279048Y-29400762D01*
X73231429Y-29353143D01*
X82510381Y-36877523D02*
X83224667Y-36877523D01*
X83367524Y-36925143D01*
X83462762Y-37020381D01*
X83510381Y-37163238D01*
X83510381Y-37258476D01*
X82605619Y-36448952D02*
X82558000Y-36401333D01*
X82510381Y-36306095D01*
X82510381Y-36067999D01*
X82558000Y-35972761D01*
X82605619Y-35925142D01*
X82700857Y-35877523D01*
X82796095Y-35877523D01*
X82938952Y-35925142D01*
X83510381Y-36496571D01*
X83510381Y-35877523D01*
X82510381Y-35544190D02*
X82510381Y-34877523D01*
X83510381Y-35306095D01*
X82510381Y-54657523D02*
X83224667Y-54657523D01*
X83367524Y-54705143D01*
X83462762Y-54800381D01*
X83510381Y-54943238D01*
X83510381Y-55038476D01*
X82605619Y-54228952D02*
X82558000Y-54181333D01*
X82510381Y-54086095D01*
X82510381Y-53847999D01*
X82558000Y-53752761D01*
X82605619Y-53705142D01*
X82700857Y-53657523D01*
X82796095Y-53657523D01*
X82938952Y-53705142D01*
X83510381Y-54276571D01*
X83510381Y-53657523D01*
X82938952Y-53086095D02*
X82891333Y-53181333D01*
X82843714Y-53228952D01*
X82748476Y-53276571D01*
X82700857Y-53276571D01*
X82605619Y-53228952D01*
X82558000Y-53181333D01*
X82510381Y-53086095D01*
X82510381Y-52895618D01*
X82558000Y-52800380D01*
X82605619Y-52752761D01*
X82700857Y-52705142D01*
X82748476Y-52705142D01*
X82843714Y-52752761D01*
X82891333Y-52800380D01*
X82938952Y-52895618D01*
X82938952Y-53086095D01*
X82986571Y-53181333D01*
X83034190Y-53228952D01*
X83129429Y-53276571D01*
X83319905Y-53276571D01*
X83415143Y-53228952D01*
X83462762Y-53181333D01*
X83510381Y-53086095D01*
X83510381Y-52895618D01*
X83462762Y-52800380D01*
X83415143Y-52752761D01*
X83319905Y-52705142D01*
X83129429Y-52705142D01*
X83034190Y-52752761D01*
X82986571Y-52800380D01*
X82938952Y-52895618D01*
X82510381Y-72437523D02*
X83224667Y-72437523D01*
X83367524Y-72485143D01*
X83462762Y-72580381D01*
X83510381Y-72723238D01*
X83510381Y-72818476D01*
X82605619Y-72008952D02*
X82558000Y-71961333D01*
X82510381Y-71866095D01*
X82510381Y-71627999D01*
X82558000Y-71532761D01*
X82605619Y-71485142D01*
X82700857Y-71437523D01*
X82796095Y-71437523D01*
X82938952Y-71485142D01*
X83510381Y-72056571D01*
X83510381Y-71437523D01*
X83510381Y-70961333D02*
X83510381Y-70770857D01*
X83462762Y-70675618D01*
X83415143Y-70627999D01*
X83272286Y-70532761D01*
X83081810Y-70485142D01*
X82700857Y-70485142D01*
X82605619Y-70532761D01*
X82558000Y-70580380D01*
X82510381Y-70675618D01*
X82510381Y-70866095D01*
X82558000Y-70961333D01*
X82605619Y-71008952D01*
X82700857Y-71056571D01*
X82938952Y-71056571D01*
X83034190Y-71008952D01*
X83081810Y-70961333D01*
X83129429Y-70866095D01*
X83129429Y-70675618D01*
X83081810Y-70580380D01*
X83034190Y-70532761D01*
X82938952Y-70485142D01*
X82764381Y-89201523D02*
X83478667Y-89201523D01*
X83621524Y-89249143D01*
X83716762Y-89344381D01*
X83764381Y-89487238D01*
X83764381Y-89582476D01*
X82764381Y-88820571D02*
X82764381Y-88201523D01*
X83145333Y-88534857D01*
X83145333Y-88391999D01*
X83192952Y-88296761D01*
X83240571Y-88249142D01*
X83335810Y-88201523D01*
X83573905Y-88201523D01*
X83669143Y-88249142D01*
X83716762Y-88296761D01*
X83764381Y-88391999D01*
X83764381Y-88677714D01*
X83716762Y-88772952D01*
X83669143Y-88820571D01*
X82764381Y-87582476D02*
X82764381Y-87487237D01*
X82812000Y-87391999D01*
X82859619Y-87344380D01*
X82954857Y-87296761D01*
X83145333Y-87249142D01*
X83383429Y-87249142D01*
X83573905Y-87296761D01*
X83669143Y-87344380D01*
X83716762Y-87391999D01*
X83764381Y-87487237D01*
X83764381Y-87582476D01*
X83716762Y-87677714D01*
X83669143Y-87725333D01*
X83573905Y-87772952D01*
X83383429Y-87820571D01*
X83145333Y-87820571D01*
X82954857Y-87772952D01*
X82859619Y-87725333D01*
X82812000Y-87677714D01*
X82764381Y-87582476D01*
X88598477Y-99782381D02*
X88598477Y-100496667D01*
X88550857Y-100639524D01*
X88455619Y-100734762D01*
X88312762Y-100782381D01*
X88217524Y-100782381D01*
X88979429Y-99782381D02*
X89598477Y-99782381D01*
X89265143Y-100163333D01*
X89408001Y-100163333D01*
X89503239Y-100210952D01*
X89550858Y-100258571D01*
X89598477Y-100353810D01*
X89598477Y-100591905D01*
X89550858Y-100687143D01*
X89503239Y-100734762D01*
X89408001Y-100782381D01*
X89122286Y-100782381D01*
X89027048Y-100734762D01*
X88979429Y-100687143D01*
X90550858Y-100782381D02*
X89979429Y-100782381D01*
X90265143Y-100782381D02*
X90265143Y-99782381D01*
X90169905Y-99925238D01*
X90074667Y-100020476D01*
X89979429Y-100068095D01*
D12*
X133280095Y-35128190D02*
X133242000Y-35204381D01*
X133165810Y-35280571D01*
X133051524Y-35394857D01*
X133013429Y-35471048D01*
X133013429Y-35547238D01*
X133203905Y-35509143D02*
X133165810Y-35585333D01*
X133089619Y-35661524D01*
X132937238Y-35699619D01*
X132670571Y-35699619D01*
X132518190Y-35661524D01*
X132442000Y-35585333D01*
X132403905Y-35509143D01*
X132403905Y-35356762D01*
X132442000Y-35280571D01*
X132518190Y-35204381D01*
X132670571Y-35166286D01*
X132937238Y-35166286D01*
X133089619Y-35204381D01*
X133165810Y-35280571D01*
X133203905Y-35356762D01*
X133203905Y-35509143D01*
X133203905Y-34404381D02*
X133203905Y-34861524D01*
X133203905Y-34632953D02*
X132403905Y-34632953D01*
X132518190Y-34709143D01*
X132594381Y-34785334D01*
X132632476Y-34861524D01*
X133534095Y-47828190D02*
X133496000Y-47904381D01*
X133419810Y-47980571D01*
X133305524Y-48094857D01*
X133267429Y-48171048D01*
X133267429Y-48247238D01*
X133457905Y-48209143D02*
X133419810Y-48285333D01*
X133343619Y-48361524D01*
X133191238Y-48399619D01*
X132924571Y-48399619D01*
X132772190Y-48361524D01*
X132696000Y-48285333D01*
X132657905Y-48209143D01*
X132657905Y-48056762D01*
X132696000Y-47980571D01*
X132772190Y-47904381D01*
X132924571Y-47866286D01*
X133191238Y-47866286D01*
X133343619Y-47904381D01*
X133419810Y-47980571D01*
X133457905Y-48056762D01*
X133457905Y-48209143D01*
X132734095Y-47561524D02*
X132696000Y-47523429D01*
X132657905Y-47447238D01*
X132657905Y-47256762D01*
X132696000Y-47180572D01*
X132734095Y-47142476D01*
X132810286Y-47104381D01*
X132886476Y-47104381D01*
X133000762Y-47142476D01*
X133457905Y-47599619D01*
X133457905Y-47104381D01*
D13*
X154150190Y-34119333D02*
X153912095Y-34286000D01*
X154150190Y-34405047D02*
X153650190Y-34405047D01*
X153650190Y-34214571D01*
X153674000Y-34166952D01*
X153697810Y-34143143D01*
X153745429Y-34119333D01*
X153816857Y-34119333D01*
X153864476Y-34143143D01*
X153888286Y-34166952D01*
X153912095Y-34214571D01*
X153912095Y-34405047D01*
X154150190Y-33643143D02*
X154150190Y-33928857D01*
X154150190Y-33786000D02*
X153650190Y-33786000D01*
X153721619Y-33833619D01*
X153769238Y-33881238D01*
X153793048Y-33928857D01*
X154150190Y-49105333D02*
X153912095Y-49272000D01*
X154150190Y-49391047D02*
X153650190Y-49391047D01*
X153650190Y-49200571D01*
X153674000Y-49152952D01*
X153697810Y-49129143D01*
X153745429Y-49105333D01*
X153816857Y-49105333D01*
X153864476Y-49129143D01*
X153888286Y-49152952D01*
X153912095Y-49200571D01*
X153912095Y-49391047D01*
X153697810Y-48914857D02*
X153674000Y-48891047D01*
X153650190Y-48843428D01*
X153650190Y-48724381D01*
X153674000Y-48676762D01*
X153697810Y-48652952D01*
X153745429Y-48629143D01*
X153793048Y-48629143D01*
X153864476Y-48652952D01*
X154150190Y-48938666D01*
X154150190Y-48629143D01*
X154150190Y-65361333D02*
X153912095Y-65528000D01*
X154150190Y-65647047D02*
X153650190Y-65647047D01*
X153650190Y-65456571D01*
X153674000Y-65408952D01*
X153697810Y-65385143D01*
X153745429Y-65361333D01*
X153816857Y-65361333D01*
X153864476Y-65385143D01*
X153888286Y-65408952D01*
X153912095Y-65456571D01*
X153912095Y-65647047D01*
X153650190Y-65194666D02*
X153650190Y-64885143D01*
X153840667Y-65051809D01*
X153840667Y-64980381D01*
X153864476Y-64932762D01*
X153888286Y-64908952D01*
X153935905Y-64885143D01*
X154054952Y-64885143D01*
X154102571Y-64908952D01*
X154126381Y-64932762D01*
X154150190Y-64980381D01*
X154150190Y-65123238D01*
X154126381Y-65170857D01*
X154102571Y-65194666D01*
X154150190Y-80093333D02*
X153912095Y-80260000D01*
X154150190Y-80379047D02*
X153650190Y-80379047D01*
X153650190Y-80188571D01*
X153674000Y-80140952D01*
X153697810Y-80117143D01*
X153745429Y-80093333D01*
X153816857Y-80093333D01*
X153864476Y-80117143D01*
X153888286Y-80140952D01*
X153912095Y-80188571D01*
X153912095Y-80379047D01*
X153816857Y-79664762D02*
X154150190Y-79664762D01*
X153626381Y-79783809D02*
X153983524Y-79902857D01*
X153983524Y-79593333D01*
X154150190Y-40723333D02*
X153912095Y-40890000D01*
X154150190Y-41009047D02*
X153650190Y-41009047D01*
X153650190Y-40818571D01*
X153674000Y-40770952D01*
X153697810Y-40747143D01*
X153745429Y-40723333D01*
X153816857Y-40723333D01*
X153864476Y-40747143D01*
X153888286Y-40770952D01*
X153912095Y-40818571D01*
X153912095Y-41009047D01*
X153650190Y-40270952D02*
X153650190Y-40509047D01*
X153888286Y-40532857D01*
X153864476Y-40509047D01*
X153840667Y-40461428D01*
X153840667Y-40342381D01*
X153864476Y-40294762D01*
X153888286Y-40270952D01*
X153935905Y-40247143D01*
X154054952Y-40247143D01*
X154102571Y-40270952D01*
X154126381Y-40294762D01*
X154150190Y-40342381D01*
X154150190Y-40461428D01*
X154126381Y-40509047D01*
X154102571Y-40532857D01*
X154150190Y-56725333D02*
X153912095Y-56892000D01*
X154150190Y-57011047D02*
X153650190Y-57011047D01*
X153650190Y-56820571D01*
X153674000Y-56772952D01*
X153697810Y-56749143D01*
X153745429Y-56725333D01*
X153816857Y-56725333D01*
X153864476Y-56749143D01*
X153888286Y-56772952D01*
X153912095Y-56820571D01*
X153912095Y-57011047D01*
X153650190Y-56296762D02*
X153650190Y-56392000D01*
X153674000Y-56439619D01*
X153697810Y-56463428D01*
X153769238Y-56511047D01*
X153864476Y-56534857D01*
X154054952Y-56534857D01*
X154102571Y-56511047D01*
X154126381Y-56487238D01*
X154150190Y-56439619D01*
X154150190Y-56344381D01*
X154126381Y-56296762D01*
X154102571Y-56272952D01*
X154054952Y-56249143D01*
X153935905Y-56249143D01*
X153888286Y-56272952D01*
X153864476Y-56296762D01*
X153840667Y-56344381D01*
X153840667Y-56439619D01*
X153864476Y-56487238D01*
X153888286Y-56511047D01*
X153935905Y-56534857D01*
X154150190Y-72727333D02*
X153912095Y-72894000D01*
X154150190Y-73013047D02*
X153650190Y-73013047D01*
X153650190Y-72822571D01*
X153674000Y-72774952D01*
X153697810Y-72751143D01*
X153745429Y-72727333D01*
X153816857Y-72727333D01*
X153864476Y-72751143D01*
X153888286Y-72774952D01*
X153912095Y-72822571D01*
X153912095Y-73013047D01*
X153650190Y-72560666D02*
X153650190Y-72227333D01*
X154150190Y-72441619D01*
X154150190Y-86951333D02*
X153912095Y-87118000D01*
X154150190Y-87237047D02*
X153650190Y-87237047D01*
X153650190Y-87046571D01*
X153674000Y-86998952D01*
X153697810Y-86975143D01*
X153745429Y-86951333D01*
X153816857Y-86951333D01*
X153864476Y-86975143D01*
X153888286Y-86998952D01*
X153912095Y-87046571D01*
X153912095Y-87237047D01*
X153864476Y-86665619D02*
X153840667Y-86713238D01*
X153816857Y-86737047D01*
X153769238Y-86760857D01*
X153745429Y-86760857D01*
X153697810Y-86737047D01*
X153674000Y-86713238D01*
X153650190Y-86665619D01*
X153650190Y-86570381D01*
X153674000Y-86522762D01*
X153697810Y-86498952D01*
X153745429Y-86475143D01*
X153769238Y-86475143D01*
X153816857Y-86498952D01*
X153840667Y-86522762D01*
X153864476Y-86570381D01*
X153864476Y-86665619D01*
X153888286Y-86713238D01*
X153912095Y-86737047D01*
X153959714Y-86760857D01*
X154054952Y-86760857D01*
X154102571Y-86737047D01*
X154126381Y-86713238D01*
X154150190Y-86665619D01*
X154150190Y-86570381D01*
X154126381Y-86522762D01*
X154102571Y-86498952D01*
X154054952Y-86475143D01*
X153959714Y-86475143D01*
X153912095Y-86498952D01*
X153888286Y-86522762D01*
X153864476Y-86570381D01*
X139164190Y-36405333D02*
X138926095Y-36572000D01*
X139164190Y-36691047D02*
X138664190Y-36691047D01*
X138664190Y-36500571D01*
X138688000Y-36452952D01*
X138711810Y-36429143D01*
X138759429Y-36405333D01*
X138830857Y-36405333D01*
X138878476Y-36429143D01*
X138902286Y-36452952D01*
X138926095Y-36500571D01*
X138926095Y-36691047D01*
X139164190Y-36167238D02*
X139164190Y-36072000D01*
X139140381Y-36024381D01*
X139116571Y-36000571D01*
X139045143Y-35952952D01*
X138949905Y-35929143D01*
X138759429Y-35929143D01*
X138711810Y-35952952D01*
X138688000Y-35976762D01*
X138664190Y-36024381D01*
X138664190Y-36119619D01*
X138688000Y-36167238D01*
X138711810Y-36191047D01*
X138759429Y-36214857D01*
X138878476Y-36214857D01*
X138926095Y-36191047D01*
X138949905Y-36167238D01*
X138973714Y-36119619D01*
X138973714Y-36024381D01*
X138949905Y-35976762D01*
X138926095Y-35952952D01*
X138878476Y-35929143D01*
X139164190Y-31563428D02*
X138926095Y-31730095D01*
X139164190Y-31849142D02*
X138664190Y-31849142D01*
X138664190Y-31658666D01*
X138688000Y-31611047D01*
X138711810Y-31587238D01*
X138759429Y-31563428D01*
X138830857Y-31563428D01*
X138878476Y-31587238D01*
X138902286Y-31611047D01*
X138926095Y-31658666D01*
X138926095Y-31849142D01*
X139164190Y-31087238D02*
X139164190Y-31372952D01*
X139164190Y-31230095D02*
X138664190Y-31230095D01*
X138735619Y-31277714D01*
X138783238Y-31325333D01*
X138807048Y-31372952D01*
X138664190Y-30777714D02*
X138664190Y-30730095D01*
X138688000Y-30682476D01*
X138711810Y-30658667D01*
X138759429Y-30634857D01*
X138854667Y-30611048D01*
X138973714Y-30611048D01*
X139068952Y-30634857D01*
X139116571Y-30658667D01*
X139140381Y-30682476D01*
X139164190Y-30730095D01*
X139164190Y-30777714D01*
X139140381Y-30825333D01*
X139116571Y-30849143D01*
X139068952Y-30872952D01*
X138973714Y-30896762D01*
X138854667Y-30896762D01*
X138759429Y-30872952D01*
X138711810Y-30849143D01*
X138688000Y-30825333D01*
X138664190Y-30777714D01*
X139418190Y-49343428D02*
X139180095Y-49510095D01*
X139418190Y-49629142D02*
X138918190Y-49629142D01*
X138918190Y-49438666D01*
X138942000Y-49391047D01*
X138965810Y-49367238D01*
X139013429Y-49343428D01*
X139084857Y-49343428D01*
X139132476Y-49367238D01*
X139156286Y-49391047D01*
X139180095Y-49438666D01*
X139180095Y-49629142D01*
X139418190Y-48867238D02*
X139418190Y-49152952D01*
X139418190Y-49010095D02*
X138918190Y-49010095D01*
X138989619Y-49057714D01*
X139037238Y-49105333D01*
X139061048Y-49152952D01*
X139418190Y-48391048D02*
X139418190Y-48676762D01*
X139418190Y-48533905D02*
X138918190Y-48533905D01*
X138989619Y-48581524D01*
X139037238Y-48629143D01*
X139061048Y-48676762D01*
X139418190Y-44263428D02*
X139180095Y-44430095D01*
X139418190Y-44549142D02*
X138918190Y-44549142D01*
X138918190Y-44358666D01*
X138942000Y-44311047D01*
X138965810Y-44287238D01*
X139013429Y-44263428D01*
X139084857Y-44263428D01*
X139132476Y-44287238D01*
X139156286Y-44311047D01*
X139180095Y-44358666D01*
X139180095Y-44549142D01*
X139418190Y-43787238D02*
X139418190Y-44072952D01*
X139418190Y-43930095D02*
X138918190Y-43930095D01*
X138989619Y-43977714D01*
X139037238Y-44025333D01*
X139061048Y-44072952D01*
X138965810Y-43596762D02*
X138942000Y-43572952D01*
X138918190Y-43525333D01*
X138918190Y-43406286D01*
X138942000Y-43358667D01*
X138965810Y-43334857D01*
X139013429Y-43311048D01*
X139061048Y-43311048D01*
X139132476Y-43334857D01*
X139418190Y-43620571D01*
X139418190Y-43311048D01*
X133536572Y-62837190D02*
X133369905Y-62599095D01*
X133250858Y-62837190D02*
X133250858Y-62337190D01*
X133441334Y-62337190D01*
X133488953Y-62361000D01*
X133512762Y-62384810D01*
X133536572Y-62432429D01*
X133536572Y-62503857D01*
X133512762Y-62551476D01*
X133488953Y-62575286D01*
X133441334Y-62599095D01*
X133250858Y-62599095D01*
X134012762Y-62837190D02*
X133727048Y-62837190D01*
X133869905Y-62837190D02*
X133869905Y-62337190D01*
X133822286Y-62408619D01*
X133774667Y-62456238D01*
X133727048Y-62480048D01*
X134179429Y-62337190D02*
X134488952Y-62337190D01*
X134322286Y-62527667D01*
X134393714Y-62527667D01*
X134441333Y-62551476D01*
X134465143Y-62575286D01*
X134488952Y-62622905D01*
X134488952Y-62741952D01*
X134465143Y-62789571D01*
X134441333Y-62813381D01*
X134393714Y-62837190D01*
X134250857Y-62837190D01*
X134203238Y-62813381D01*
X134179429Y-62789571D01*
X133600072Y-66685290D02*
X133433405Y-66447195D01*
X133314358Y-66685290D02*
X133314358Y-66185290D01*
X133504834Y-66185290D01*
X133552453Y-66209100D01*
X133576262Y-66232910D01*
X133600072Y-66280529D01*
X133600072Y-66351957D01*
X133576262Y-66399576D01*
X133552453Y-66423386D01*
X133504834Y-66447195D01*
X133314358Y-66447195D01*
X134076262Y-66685290D02*
X133790548Y-66685290D01*
X133933405Y-66685290D02*
X133933405Y-66185290D01*
X133885786Y-66256719D01*
X133838167Y-66304338D01*
X133790548Y-66328148D01*
X134504833Y-66351957D02*
X134504833Y-66685290D01*
X134385786Y-66161481D02*
X134266738Y-66518624D01*
X134576262Y-66518624D01*
X133663572Y-76553190D02*
X133496905Y-76315095D01*
X133377858Y-76553190D02*
X133377858Y-76053190D01*
X133568334Y-76053190D01*
X133615953Y-76077000D01*
X133639762Y-76100810D01*
X133663572Y-76148429D01*
X133663572Y-76219857D01*
X133639762Y-76267476D01*
X133615953Y-76291286D01*
X133568334Y-76315095D01*
X133377858Y-76315095D01*
X134139762Y-76553190D02*
X133854048Y-76553190D01*
X133996905Y-76553190D02*
X133996905Y-76053190D01*
X133949286Y-76124619D01*
X133901667Y-76172238D01*
X133854048Y-76196048D01*
X134592143Y-76053190D02*
X134354048Y-76053190D01*
X134330238Y-76291286D01*
X134354048Y-76267476D01*
X134401667Y-76243667D01*
X134520714Y-76243667D01*
X134568333Y-76267476D01*
X134592143Y-76291286D01*
X134615952Y-76338905D01*
X134615952Y-76457952D01*
X134592143Y-76505571D01*
X134568333Y-76529381D01*
X134520714Y-76553190D01*
X134401667Y-76553190D01*
X134354048Y-76529381D01*
X134330238Y-76505571D01*
X133663572Y-80490190D02*
X133496905Y-80252095D01*
X133377858Y-80490190D02*
X133377858Y-79990190D01*
X133568334Y-79990190D01*
X133615953Y-80014000D01*
X133639762Y-80037810D01*
X133663572Y-80085429D01*
X133663572Y-80156857D01*
X133639762Y-80204476D01*
X133615953Y-80228286D01*
X133568334Y-80252095D01*
X133377858Y-80252095D01*
X134139762Y-80490190D02*
X133854048Y-80490190D01*
X133996905Y-80490190D02*
X133996905Y-79990190D01*
X133949286Y-80061619D01*
X133901667Y-80109238D01*
X133854048Y-80133048D01*
X134568333Y-79990190D02*
X134473095Y-79990190D01*
X134425476Y-80014000D01*
X134401667Y-80037810D01*
X134354048Y-80109238D01*
X134330238Y-80204476D01*
X134330238Y-80394952D01*
X134354048Y-80442571D01*
X134377857Y-80466381D01*
X134425476Y-80490190D01*
X134520714Y-80490190D01*
X134568333Y-80466381D01*
X134592143Y-80442571D01*
X134615952Y-80394952D01*
X134615952Y-80275905D01*
X134592143Y-80228286D01*
X134568333Y-80204476D01*
X134520714Y-80180667D01*
X134425476Y-80180667D01*
X134377857Y-80204476D01*
X134354048Y-80228286D01*
X134330238Y-80275905D01*
X72068572Y-92428190D02*
X71901905Y-92190095D01*
X71782858Y-92428190D02*
X71782858Y-91928190D01*
X71973334Y-91928190D01*
X72020953Y-91952000D01*
X72044762Y-91975810D01*
X72068572Y-92023429D01*
X72068572Y-92094857D01*
X72044762Y-92142476D01*
X72020953Y-92166286D01*
X71973334Y-92190095D01*
X71782858Y-92190095D01*
X72544762Y-92428190D02*
X72259048Y-92428190D01*
X72401905Y-92428190D02*
X72401905Y-91928190D01*
X72354286Y-91999619D01*
X72306667Y-92047238D01*
X72259048Y-92071048D01*
X72782857Y-92428190D02*
X72878095Y-92428190D01*
X72925714Y-92404381D01*
X72949524Y-92380571D01*
X72997143Y-92309143D01*
X73020952Y-92213905D01*
X73020952Y-92023429D01*
X72997143Y-91975810D01*
X72973333Y-91952000D01*
X72925714Y-91928190D01*
X72830476Y-91928190D01*
X72782857Y-91952000D01*
X72759048Y-91975810D01*
X72735238Y-92023429D01*
X72735238Y-92142476D01*
X72759048Y-92190095D01*
X72782857Y-92213905D01*
X72830476Y-92237714D01*
X72925714Y-92237714D01*
X72973333Y-92213905D01*
X72997143Y-92190095D01*
X73020952Y-92142476D01*
X93912572Y-36040190D02*
X93745905Y-35802095D01*
X93626858Y-36040190D02*
X93626858Y-35540190D01*
X93817334Y-35540190D01*
X93864953Y-35564000D01*
X93888762Y-35587810D01*
X93912572Y-35635429D01*
X93912572Y-35706857D01*
X93888762Y-35754476D01*
X93864953Y-35778286D01*
X93817334Y-35802095D01*
X93626858Y-35802095D01*
X94103048Y-35587810D02*
X94126858Y-35564000D01*
X94174477Y-35540190D01*
X94293524Y-35540190D01*
X94341143Y-35564000D01*
X94364953Y-35587810D01*
X94388762Y-35635429D01*
X94388762Y-35683048D01*
X94364953Y-35754476D01*
X94079239Y-36040190D01*
X94388762Y-36040190D01*
X94698286Y-35540190D02*
X94745905Y-35540190D01*
X94793524Y-35564000D01*
X94817333Y-35587810D01*
X94841143Y-35635429D01*
X94864952Y-35730667D01*
X94864952Y-35849714D01*
X94841143Y-35944952D01*
X94817333Y-35992571D01*
X94793524Y-36016381D01*
X94745905Y-36040190D01*
X94698286Y-36040190D01*
X94650667Y-36016381D01*
X94626857Y-35992571D01*
X94603048Y-35944952D01*
X94579238Y-35849714D01*
X94579238Y-35730667D01*
X94603048Y-35635429D01*
X94626857Y-35587810D01*
X94650667Y-35564000D01*
X94698286Y-35540190D01*
X93912572Y-53566190D02*
X93745905Y-53328095D01*
X93626858Y-53566190D02*
X93626858Y-53066190D01*
X93817334Y-53066190D01*
X93864953Y-53090000D01*
X93888762Y-53113810D01*
X93912572Y-53161429D01*
X93912572Y-53232857D01*
X93888762Y-53280476D01*
X93864953Y-53304286D01*
X93817334Y-53328095D01*
X93626858Y-53328095D01*
X94103048Y-53113810D02*
X94126858Y-53090000D01*
X94174477Y-53066190D01*
X94293524Y-53066190D01*
X94341143Y-53090000D01*
X94364953Y-53113810D01*
X94388762Y-53161429D01*
X94388762Y-53209048D01*
X94364953Y-53280476D01*
X94079239Y-53566190D01*
X94388762Y-53566190D01*
X94864952Y-53566190D02*
X94579238Y-53566190D01*
X94722095Y-53566190D02*
X94722095Y-53066190D01*
X94674476Y-53137619D01*
X94626857Y-53185238D01*
X94579238Y-53209048D01*
X87816572Y-29944190D02*
X87649905Y-29706095D01*
X87530858Y-29944190D02*
X87530858Y-29444190D01*
X87721334Y-29444190D01*
X87768953Y-29468000D01*
X87792762Y-29491810D01*
X87816572Y-29539429D01*
X87816572Y-29610857D01*
X87792762Y-29658476D01*
X87768953Y-29682286D01*
X87721334Y-29706095D01*
X87530858Y-29706095D01*
X88007048Y-29491810D02*
X88030858Y-29468000D01*
X88078477Y-29444190D01*
X88197524Y-29444190D01*
X88245143Y-29468000D01*
X88268953Y-29491810D01*
X88292762Y-29539429D01*
X88292762Y-29587048D01*
X88268953Y-29658476D01*
X87983239Y-29944190D01*
X88292762Y-29944190D01*
X88721333Y-29610857D02*
X88721333Y-29944190D01*
X88602286Y-29420381D02*
X88483238Y-29777524D01*
X88792762Y-29777524D01*
X87816572Y-47470190D02*
X87649905Y-47232095D01*
X87530858Y-47470190D02*
X87530858Y-46970190D01*
X87721334Y-46970190D01*
X87768953Y-46994000D01*
X87792762Y-47017810D01*
X87816572Y-47065429D01*
X87816572Y-47136857D01*
X87792762Y-47184476D01*
X87768953Y-47208286D01*
X87721334Y-47232095D01*
X87530858Y-47232095D01*
X88007048Y-47017810D02*
X88030858Y-46994000D01*
X88078477Y-46970190D01*
X88197524Y-46970190D01*
X88245143Y-46994000D01*
X88268953Y-47017810D01*
X88292762Y-47065429D01*
X88292762Y-47113048D01*
X88268953Y-47184476D01*
X87983239Y-47470190D01*
X88292762Y-47470190D01*
X88745143Y-46970190D02*
X88507048Y-46970190D01*
X88483238Y-47208286D01*
X88507048Y-47184476D01*
X88554667Y-47160667D01*
X88673714Y-47160667D01*
X88721333Y-47184476D01*
X88745143Y-47208286D01*
X88768952Y-47255905D01*
X88768952Y-47374952D01*
X88745143Y-47422571D01*
X88721333Y-47446381D01*
X88673714Y-47470190D01*
X88554667Y-47470190D01*
X88507048Y-47446381D01*
X88483238Y-47422571D01*
X93190190Y-27753428D02*
X92952095Y-27920095D01*
X93190190Y-28039142D02*
X92690190Y-28039142D01*
X92690190Y-27848666D01*
X92714000Y-27801047D01*
X92737810Y-27777238D01*
X92785429Y-27753428D01*
X92856857Y-27753428D01*
X92904476Y-27777238D01*
X92928286Y-27801047D01*
X92952095Y-27848666D01*
X92952095Y-28039142D01*
X92737810Y-27562952D02*
X92714000Y-27539142D01*
X92690190Y-27491523D01*
X92690190Y-27372476D01*
X92714000Y-27324857D01*
X92737810Y-27301047D01*
X92785429Y-27277238D01*
X92833048Y-27277238D01*
X92904476Y-27301047D01*
X93190190Y-27586761D01*
X93190190Y-27277238D01*
X92690190Y-26848667D02*
X92690190Y-26943905D01*
X92714000Y-26991524D01*
X92737810Y-27015333D01*
X92809238Y-27062952D01*
X92904476Y-27086762D01*
X93094952Y-27086762D01*
X93142571Y-27062952D01*
X93166381Y-27039143D01*
X93190190Y-26991524D01*
X93190190Y-26896286D01*
X93166381Y-26848667D01*
X93142571Y-26824857D01*
X93094952Y-26801048D01*
X92975905Y-26801048D01*
X92928286Y-26824857D01*
X92904476Y-26848667D01*
X92880667Y-26896286D01*
X92880667Y-26991524D01*
X92904476Y-27039143D01*
X92928286Y-27062952D01*
X92975905Y-27086762D01*
X92936190Y-46041428D02*
X92698095Y-46208095D01*
X92936190Y-46327142D02*
X92436190Y-46327142D01*
X92436190Y-46136666D01*
X92460000Y-46089047D01*
X92483810Y-46065238D01*
X92531429Y-46041428D01*
X92602857Y-46041428D01*
X92650476Y-46065238D01*
X92674286Y-46089047D01*
X92698095Y-46136666D01*
X92698095Y-46327142D01*
X92483810Y-45850952D02*
X92460000Y-45827142D01*
X92436190Y-45779523D01*
X92436190Y-45660476D01*
X92460000Y-45612857D01*
X92483810Y-45589047D01*
X92531429Y-45565238D01*
X92579048Y-45565238D01*
X92650476Y-45589047D01*
X92936190Y-45874761D01*
X92936190Y-45565238D01*
X92436190Y-45398571D02*
X92436190Y-45065238D01*
X92936190Y-45279524D01*
X95222190Y-27753428D02*
X94984095Y-27920095D01*
X95222190Y-28039142D02*
X94722190Y-28039142D01*
X94722190Y-27848666D01*
X94746000Y-27801047D01*
X94769810Y-27777238D01*
X94817429Y-27753428D01*
X94888857Y-27753428D01*
X94936476Y-27777238D01*
X94960286Y-27801047D01*
X94984095Y-27848666D01*
X94984095Y-28039142D01*
X94769810Y-27562952D02*
X94746000Y-27539142D01*
X94722190Y-27491523D01*
X94722190Y-27372476D01*
X94746000Y-27324857D01*
X94769810Y-27301047D01*
X94817429Y-27277238D01*
X94865048Y-27277238D01*
X94936476Y-27301047D01*
X95222190Y-27586761D01*
X95222190Y-27277238D01*
X94936476Y-26991524D02*
X94912667Y-27039143D01*
X94888857Y-27062952D01*
X94841238Y-27086762D01*
X94817429Y-27086762D01*
X94769810Y-27062952D01*
X94746000Y-27039143D01*
X94722190Y-26991524D01*
X94722190Y-26896286D01*
X94746000Y-26848667D01*
X94769810Y-26824857D01*
X94817429Y-26801048D01*
X94841238Y-26801048D01*
X94888857Y-26824857D01*
X94912667Y-26848667D01*
X94936476Y-26896286D01*
X94936476Y-26991524D01*
X94960286Y-27039143D01*
X94984095Y-27062952D01*
X95031714Y-27086762D01*
X95126952Y-27086762D01*
X95174571Y-27062952D01*
X95198381Y-27039143D01*
X95222190Y-26991524D01*
X95222190Y-26896286D01*
X95198381Y-26848667D01*
X95174571Y-26824857D01*
X95126952Y-26801048D01*
X95031714Y-26801048D01*
X94984095Y-26824857D01*
X94960286Y-26848667D01*
X94936476Y-26896286D01*
X95730190Y-46041428D02*
X95492095Y-46208095D01*
X95730190Y-46327142D02*
X95230190Y-46327142D01*
X95230190Y-46136666D01*
X95254000Y-46089047D01*
X95277810Y-46065238D01*
X95325429Y-46041428D01*
X95396857Y-46041428D01*
X95444476Y-46065238D01*
X95468286Y-46089047D01*
X95492095Y-46136666D01*
X95492095Y-46327142D01*
X95277810Y-45850952D02*
X95254000Y-45827142D01*
X95230190Y-45779523D01*
X95230190Y-45660476D01*
X95254000Y-45612857D01*
X95277810Y-45589047D01*
X95325429Y-45565238D01*
X95373048Y-45565238D01*
X95444476Y-45589047D01*
X95730190Y-45874761D01*
X95730190Y-45565238D01*
X95730190Y-45327143D02*
X95730190Y-45231905D01*
X95706381Y-45184286D01*
X95682571Y-45160476D01*
X95611143Y-45112857D01*
X95515905Y-45089048D01*
X95325429Y-45089048D01*
X95277810Y-45112857D01*
X95254000Y-45136667D01*
X95230190Y-45184286D01*
X95230190Y-45279524D01*
X95254000Y-45327143D01*
X95277810Y-45350952D01*
X95325429Y-45374762D01*
X95444476Y-45374762D01*
X95492095Y-45350952D01*
X95515905Y-45327143D01*
X95539714Y-45279524D01*
X95539714Y-45184286D01*
X95515905Y-45136667D01*
X95492095Y-45112857D01*
X95444476Y-45089048D01*
X94166572Y-70838190D02*
X93999905Y-70600095D01*
X93880858Y-70838190D02*
X93880858Y-70338190D01*
X94071334Y-70338190D01*
X94118953Y-70362000D01*
X94142762Y-70385810D01*
X94166572Y-70433429D01*
X94166572Y-70504857D01*
X94142762Y-70552476D01*
X94118953Y-70576286D01*
X94071334Y-70600095D01*
X93880858Y-70600095D01*
X94333239Y-70338190D02*
X94642762Y-70338190D01*
X94476096Y-70528667D01*
X94547524Y-70528667D01*
X94595143Y-70552476D01*
X94618953Y-70576286D01*
X94642762Y-70623905D01*
X94642762Y-70742952D01*
X94618953Y-70790571D01*
X94595143Y-70814381D01*
X94547524Y-70838190D01*
X94404667Y-70838190D01*
X94357048Y-70814381D01*
X94333239Y-70790571D01*
X94952286Y-70338190D02*
X94999905Y-70338190D01*
X95047524Y-70362000D01*
X95071333Y-70385810D01*
X95095143Y-70433429D01*
X95118952Y-70528667D01*
X95118952Y-70647714D01*
X95095143Y-70742952D01*
X95071333Y-70790571D01*
X95047524Y-70814381D01*
X94999905Y-70838190D01*
X94952286Y-70838190D01*
X94904667Y-70814381D01*
X94880857Y-70790571D01*
X94857048Y-70742952D01*
X94833238Y-70647714D01*
X94833238Y-70528667D01*
X94857048Y-70433429D01*
X94880857Y-70385810D01*
X94904667Y-70362000D01*
X94952286Y-70338190D01*
X94166572Y-88364190D02*
X93999905Y-88126095D01*
X93880858Y-88364190D02*
X93880858Y-87864190D01*
X94071334Y-87864190D01*
X94118953Y-87888000D01*
X94142762Y-87911810D01*
X94166572Y-87959429D01*
X94166572Y-88030857D01*
X94142762Y-88078476D01*
X94118953Y-88102286D01*
X94071334Y-88126095D01*
X93880858Y-88126095D01*
X94333239Y-87864190D02*
X94642762Y-87864190D01*
X94476096Y-88054667D01*
X94547524Y-88054667D01*
X94595143Y-88078476D01*
X94618953Y-88102286D01*
X94642762Y-88149905D01*
X94642762Y-88268952D01*
X94618953Y-88316571D01*
X94595143Y-88340381D01*
X94547524Y-88364190D01*
X94404667Y-88364190D01*
X94357048Y-88340381D01*
X94333239Y-88316571D01*
X95118952Y-88364190D02*
X94833238Y-88364190D01*
X94976095Y-88364190D02*
X94976095Y-87864190D01*
X94928476Y-87935619D01*
X94880857Y-87983238D01*
X94833238Y-88007048D01*
X88070572Y-63980190D02*
X87903905Y-63742095D01*
X87784858Y-63980190D02*
X87784858Y-63480190D01*
X87975334Y-63480190D01*
X88022953Y-63504000D01*
X88046762Y-63527810D01*
X88070572Y-63575429D01*
X88070572Y-63646857D01*
X88046762Y-63694476D01*
X88022953Y-63718286D01*
X87975334Y-63742095D01*
X87784858Y-63742095D01*
X88237239Y-63480190D02*
X88546762Y-63480190D01*
X88380096Y-63670667D01*
X88451524Y-63670667D01*
X88499143Y-63694476D01*
X88522953Y-63718286D01*
X88546762Y-63765905D01*
X88546762Y-63884952D01*
X88522953Y-63932571D01*
X88499143Y-63956381D01*
X88451524Y-63980190D01*
X88308667Y-63980190D01*
X88261048Y-63956381D01*
X88237239Y-63932571D01*
X88975333Y-63646857D02*
X88975333Y-63980190D01*
X88856286Y-63456381D02*
X88737238Y-63813524D01*
X89046762Y-63813524D01*
X88070572Y-81252190D02*
X87903905Y-81014095D01*
X87784858Y-81252190D02*
X87784858Y-80752190D01*
X87975334Y-80752190D01*
X88022953Y-80776000D01*
X88046762Y-80799810D01*
X88070572Y-80847429D01*
X88070572Y-80918857D01*
X88046762Y-80966476D01*
X88022953Y-80990286D01*
X87975334Y-81014095D01*
X87784858Y-81014095D01*
X88237239Y-80752190D02*
X88546762Y-80752190D01*
X88380096Y-80942667D01*
X88451524Y-80942667D01*
X88499143Y-80966476D01*
X88522953Y-80990286D01*
X88546762Y-81037905D01*
X88546762Y-81156952D01*
X88522953Y-81204571D01*
X88499143Y-81228381D01*
X88451524Y-81252190D01*
X88308667Y-81252190D01*
X88261048Y-81228381D01*
X88237239Y-81204571D01*
X88999143Y-80752190D02*
X88761048Y-80752190D01*
X88737238Y-80990286D01*
X88761048Y-80966476D01*
X88808667Y-80942667D01*
X88927714Y-80942667D01*
X88975333Y-80966476D01*
X88999143Y-80990286D01*
X89022952Y-81037905D01*
X89022952Y-81156952D01*
X88999143Y-81204571D01*
X88975333Y-81228381D01*
X88927714Y-81252190D01*
X88808667Y-81252190D01*
X88761048Y-81228381D01*
X88737238Y-81204571D01*
X92936190Y-63059428D02*
X92698095Y-63226095D01*
X92936190Y-63345142D02*
X92436190Y-63345142D01*
X92436190Y-63154666D01*
X92460000Y-63107047D01*
X92483810Y-63083238D01*
X92531429Y-63059428D01*
X92602857Y-63059428D01*
X92650476Y-63083238D01*
X92674286Y-63107047D01*
X92698095Y-63154666D01*
X92698095Y-63345142D01*
X92436190Y-62892761D02*
X92436190Y-62583238D01*
X92626667Y-62749904D01*
X92626667Y-62678476D01*
X92650476Y-62630857D01*
X92674286Y-62607047D01*
X92721905Y-62583238D01*
X92840952Y-62583238D01*
X92888571Y-62607047D01*
X92912381Y-62630857D01*
X92936190Y-62678476D01*
X92936190Y-62821333D01*
X92912381Y-62868952D01*
X92888571Y-62892761D01*
X92436190Y-62154667D02*
X92436190Y-62249905D01*
X92460000Y-62297524D01*
X92483810Y-62321333D01*
X92555238Y-62368952D01*
X92650476Y-62392762D01*
X92840952Y-62392762D01*
X92888571Y-62368952D01*
X92912381Y-62345143D01*
X92936190Y-62297524D01*
X92936190Y-62202286D01*
X92912381Y-62154667D01*
X92888571Y-62130857D01*
X92840952Y-62107048D01*
X92721905Y-62107048D01*
X92674286Y-62130857D01*
X92650476Y-62154667D01*
X92626667Y-62202286D01*
X92626667Y-62297524D01*
X92650476Y-62345143D01*
X92674286Y-62368952D01*
X92721905Y-62392762D01*
X92936190Y-80585428D02*
X92698095Y-80752095D01*
X92936190Y-80871142D02*
X92436190Y-80871142D01*
X92436190Y-80680666D01*
X92460000Y-80633047D01*
X92483810Y-80609238D01*
X92531429Y-80585428D01*
X92602857Y-80585428D01*
X92650476Y-80609238D01*
X92674286Y-80633047D01*
X92698095Y-80680666D01*
X92698095Y-80871142D01*
X92436190Y-80418761D02*
X92436190Y-80109238D01*
X92626667Y-80275904D01*
X92626667Y-80204476D01*
X92650476Y-80156857D01*
X92674286Y-80133047D01*
X92721905Y-80109238D01*
X92840952Y-80109238D01*
X92888571Y-80133047D01*
X92912381Y-80156857D01*
X92936190Y-80204476D01*
X92936190Y-80347333D01*
X92912381Y-80394952D01*
X92888571Y-80418761D01*
X92436190Y-79942571D02*
X92436190Y-79609238D01*
X92936190Y-79823524D01*
X96238190Y-63059428D02*
X96000095Y-63226095D01*
X96238190Y-63345142D02*
X95738190Y-63345142D01*
X95738190Y-63154666D01*
X95762000Y-63107047D01*
X95785810Y-63083238D01*
X95833429Y-63059428D01*
X95904857Y-63059428D01*
X95952476Y-63083238D01*
X95976286Y-63107047D01*
X96000095Y-63154666D01*
X96000095Y-63345142D01*
X95738190Y-62892761D02*
X95738190Y-62583238D01*
X95928667Y-62749904D01*
X95928667Y-62678476D01*
X95952476Y-62630857D01*
X95976286Y-62607047D01*
X96023905Y-62583238D01*
X96142952Y-62583238D01*
X96190571Y-62607047D01*
X96214381Y-62630857D01*
X96238190Y-62678476D01*
X96238190Y-62821333D01*
X96214381Y-62868952D01*
X96190571Y-62892761D01*
X95952476Y-62297524D02*
X95928667Y-62345143D01*
X95904857Y-62368952D01*
X95857238Y-62392762D01*
X95833429Y-62392762D01*
X95785810Y-62368952D01*
X95762000Y-62345143D01*
X95738190Y-62297524D01*
X95738190Y-62202286D01*
X95762000Y-62154667D01*
X95785810Y-62130857D01*
X95833429Y-62107048D01*
X95857238Y-62107048D01*
X95904857Y-62130857D01*
X95928667Y-62154667D01*
X95952476Y-62202286D01*
X95952476Y-62297524D01*
X95976286Y-62345143D01*
X96000095Y-62368952D01*
X96047714Y-62392762D01*
X96142952Y-62392762D01*
X96190571Y-62368952D01*
X96214381Y-62345143D01*
X96238190Y-62297524D01*
X96238190Y-62202286D01*
X96214381Y-62154667D01*
X96190571Y-62130857D01*
X96142952Y-62107048D01*
X96047714Y-62107048D01*
X96000095Y-62130857D01*
X95976286Y-62154667D01*
X95952476Y-62202286D01*
X95984190Y-80585428D02*
X95746095Y-80752095D01*
X95984190Y-80871142D02*
X95484190Y-80871142D01*
X95484190Y-80680666D01*
X95508000Y-80633047D01*
X95531810Y-80609238D01*
X95579429Y-80585428D01*
X95650857Y-80585428D01*
X95698476Y-80609238D01*
X95722286Y-80633047D01*
X95746095Y-80680666D01*
X95746095Y-80871142D01*
X95484190Y-80418761D02*
X95484190Y-80109238D01*
X95674667Y-80275904D01*
X95674667Y-80204476D01*
X95698476Y-80156857D01*
X95722286Y-80133047D01*
X95769905Y-80109238D01*
X95888952Y-80109238D01*
X95936571Y-80133047D01*
X95960381Y-80156857D01*
X95984190Y-80204476D01*
X95984190Y-80347333D01*
X95960381Y-80394952D01*
X95936571Y-80418761D01*
X95984190Y-79871143D02*
X95984190Y-79775905D01*
X95960381Y-79728286D01*
X95936571Y-79704476D01*
X95865143Y-79656857D01*
X95769905Y-79633048D01*
X95579429Y-79633048D01*
X95531810Y-79656857D01*
X95508000Y-79680667D01*
X95484190Y-79728286D01*
X95484190Y-79823524D01*
X95508000Y-79871143D01*
X95531810Y-79894952D01*
X95579429Y-79918762D01*
X95698476Y-79918762D01*
X95746095Y-79894952D01*
X95769905Y-79871143D01*
X95793714Y-79823524D01*
X95793714Y-79728286D01*
X95769905Y-79680667D01*
X95746095Y-79656857D01*
X95698476Y-79633048D01*
X85824190Y-112589428D02*
X85586095Y-112756095D01*
X85824190Y-112875142D02*
X85324190Y-112875142D01*
X85324190Y-112684666D01*
X85348000Y-112637047D01*
X85371810Y-112613238D01*
X85419429Y-112589428D01*
X85490857Y-112589428D01*
X85538476Y-112613238D01*
X85562286Y-112637047D01*
X85586095Y-112684666D01*
X85586095Y-112875142D01*
X85490857Y-112160857D02*
X85824190Y-112160857D01*
X85300381Y-112279904D02*
X85657524Y-112398952D01*
X85657524Y-112089428D01*
X85324190Y-111803714D02*
X85324190Y-111756095D01*
X85348000Y-111708476D01*
X85371810Y-111684667D01*
X85419429Y-111660857D01*
X85514667Y-111637048D01*
X85633714Y-111637048D01*
X85728952Y-111660857D01*
X85776571Y-111684667D01*
X85800381Y-111708476D01*
X85824190Y-111756095D01*
X85824190Y-111803714D01*
X85800381Y-111851333D01*
X85776571Y-111875143D01*
X85728952Y-111898952D01*
X85633714Y-111922762D01*
X85514667Y-111922762D01*
X85419429Y-111898952D01*
X85371810Y-111875143D01*
X85348000Y-111851333D01*
X85324190Y-111803714D01*
X101572190Y-112589428D02*
X101334095Y-112756095D01*
X101572190Y-112875142D02*
X101072190Y-112875142D01*
X101072190Y-112684666D01*
X101096000Y-112637047D01*
X101119810Y-112613238D01*
X101167429Y-112589428D01*
X101238857Y-112589428D01*
X101286476Y-112613238D01*
X101310286Y-112637047D01*
X101334095Y-112684666D01*
X101334095Y-112875142D01*
X101238857Y-112160857D02*
X101572190Y-112160857D01*
X101048381Y-112279904D02*
X101405524Y-112398952D01*
X101405524Y-112089428D01*
X101572190Y-111637048D02*
X101572190Y-111922762D01*
X101572190Y-111779905D02*
X101072190Y-111779905D01*
X101143619Y-111827524D01*
X101191238Y-111875143D01*
X101215048Y-111922762D01*
X116812190Y-112589428D02*
X116574095Y-112756095D01*
X116812190Y-112875142D02*
X116312190Y-112875142D01*
X116312190Y-112684666D01*
X116336000Y-112637047D01*
X116359810Y-112613238D01*
X116407429Y-112589428D01*
X116478857Y-112589428D01*
X116526476Y-112613238D01*
X116550286Y-112637047D01*
X116574095Y-112684666D01*
X116574095Y-112875142D01*
X116478857Y-112160857D02*
X116812190Y-112160857D01*
X116288381Y-112279904D02*
X116645524Y-112398952D01*
X116645524Y-112089428D01*
X116359810Y-111922762D02*
X116336000Y-111898952D01*
X116312190Y-111851333D01*
X116312190Y-111732286D01*
X116336000Y-111684667D01*
X116359810Y-111660857D01*
X116407429Y-111637048D01*
X116455048Y-111637048D01*
X116526476Y-111660857D01*
X116812190Y-111946571D01*
X116812190Y-111637048D01*
X131290190Y-112843428D02*
X131052095Y-113010095D01*
X131290190Y-113129142D02*
X130790190Y-113129142D01*
X130790190Y-112938666D01*
X130814000Y-112891047D01*
X130837810Y-112867238D01*
X130885429Y-112843428D01*
X130956857Y-112843428D01*
X131004476Y-112867238D01*
X131028286Y-112891047D01*
X131052095Y-112938666D01*
X131052095Y-113129142D01*
X130956857Y-112414857D02*
X131290190Y-112414857D01*
X130766381Y-112533904D02*
X131123524Y-112652952D01*
X131123524Y-112343428D01*
X130790190Y-112200571D02*
X130790190Y-111891048D01*
X130980667Y-112057714D01*
X130980667Y-111986286D01*
X131004476Y-111938667D01*
X131028286Y-111914857D01*
X131075905Y-111891048D01*
X131194952Y-111891048D01*
X131242571Y-111914857D01*
X131266381Y-111938667D01*
X131290190Y-111986286D01*
X131290190Y-112129143D01*
X131266381Y-112176762D01*
X131242571Y-112200571D01*
X111478190Y-99127428D02*
X111240095Y-99294095D01*
X111478190Y-99413142D02*
X110978190Y-99413142D01*
X110978190Y-99222666D01*
X111002000Y-99175047D01*
X111025810Y-99151238D01*
X111073429Y-99127428D01*
X111144857Y-99127428D01*
X111192476Y-99151238D01*
X111216286Y-99175047D01*
X111240095Y-99222666D01*
X111240095Y-99413142D01*
X111144857Y-98698857D02*
X111478190Y-98698857D01*
X110954381Y-98817904D02*
X111311524Y-98936952D01*
X111311524Y-98627428D01*
X111192476Y-98365524D02*
X111168667Y-98413143D01*
X111144857Y-98436952D01*
X111097238Y-98460762D01*
X111073429Y-98460762D01*
X111025810Y-98436952D01*
X111002000Y-98413143D01*
X110978190Y-98365524D01*
X110978190Y-98270286D01*
X111002000Y-98222667D01*
X111025810Y-98198857D01*
X111073429Y-98175048D01*
X111097238Y-98175048D01*
X111144857Y-98198857D01*
X111168667Y-98222667D01*
X111192476Y-98270286D01*
X111192476Y-98365524D01*
X111216286Y-98413143D01*
X111240095Y-98436952D01*
X111287714Y-98460762D01*
X111382952Y-98460762D01*
X111430571Y-98436952D01*
X111454381Y-98413143D01*
X111478190Y-98365524D01*
X111478190Y-98270286D01*
X111454381Y-98222667D01*
X111430571Y-98198857D01*
X111382952Y-98175048D01*
X111287714Y-98175048D01*
X111240095Y-98198857D01*
X111216286Y-98222667D01*
X111192476Y-98270286D01*
X118336190Y-99127428D02*
X118098095Y-99294095D01*
X118336190Y-99413142D02*
X117836190Y-99413142D01*
X117836190Y-99222666D01*
X117860000Y-99175047D01*
X117883810Y-99151238D01*
X117931429Y-99127428D01*
X118002857Y-99127428D01*
X118050476Y-99151238D01*
X118074286Y-99175047D01*
X118098095Y-99222666D01*
X118098095Y-99413142D01*
X118002857Y-98698857D02*
X118336190Y-98698857D01*
X117812381Y-98817904D02*
X118169524Y-98936952D01*
X118169524Y-98627428D01*
X118336190Y-98413143D02*
X118336190Y-98317905D01*
X118312381Y-98270286D01*
X118288571Y-98246476D01*
X118217143Y-98198857D01*
X118121905Y-98175048D01*
X117931429Y-98175048D01*
X117883810Y-98198857D01*
X117860000Y-98222667D01*
X117836190Y-98270286D01*
X117836190Y-98365524D01*
X117860000Y-98413143D01*
X117883810Y-98436952D01*
X117931429Y-98460762D01*
X118050476Y-98460762D01*
X118098095Y-98436952D01*
X118121905Y-98413143D01*
X118145714Y-98365524D01*
X118145714Y-98270286D01*
X118121905Y-98222667D01*
X118098095Y-98198857D01*
X118050476Y-98175048D01*
X134592190Y-99127428D02*
X134354095Y-99294095D01*
X134592190Y-99413142D02*
X134092190Y-99413142D01*
X134092190Y-99222666D01*
X134116000Y-99175047D01*
X134139810Y-99151238D01*
X134187429Y-99127428D01*
X134258857Y-99127428D01*
X134306476Y-99151238D01*
X134330286Y-99175047D01*
X134354095Y-99222666D01*
X134354095Y-99413142D01*
X134092190Y-98675047D02*
X134092190Y-98913142D01*
X134330286Y-98936952D01*
X134306476Y-98913142D01*
X134282667Y-98865523D01*
X134282667Y-98746476D01*
X134306476Y-98698857D01*
X134330286Y-98675047D01*
X134377905Y-98651238D01*
X134496952Y-98651238D01*
X134544571Y-98675047D01*
X134568381Y-98698857D01*
X134592190Y-98746476D01*
X134592190Y-98865523D01*
X134568381Y-98913142D01*
X134544571Y-98936952D01*
X134092190Y-98341714D02*
X134092190Y-98294095D01*
X134116000Y-98246476D01*
X134139810Y-98222667D01*
X134187429Y-98198857D01*
X134282667Y-98175048D01*
X134401714Y-98175048D01*
X134496952Y-98198857D01*
X134544571Y-98222667D01*
X134568381Y-98246476D01*
X134592190Y-98294095D01*
X134592190Y-98341714D01*
X134568381Y-98389333D01*
X134544571Y-98413143D01*
X134496952Y-98436952D01*
X134401714Y-98460762D01*
X134282667Y-98460762D01*
X134187429Y-98436952D01*
X134139810Y-98413143D01*
X134116000Y-98389333D01*
X134092190Y-98341714D01*
X124686190Y-99127428D02*
X124448095Y-99294095D01*
X124686190Y-99413142D02*
X124186190Y-99413142D01*
X124186190Y-99222666D01*
X124210000Y-99175047D01*
X124233810Y-99151238D01*
X124281429Y-99127428D01*
X124352857Y-99127428D01*
X124400476Y-99151238D01*
X124424286Y-99175047D01*
X124448095Y-99222666D01*
X124448095Y-99413142D01*
X124186190Y-98675047D02*
X124186190Y-98913142D01*
X124424286Y-98936952D01*
X124400476Y-98913142D01*
X124376667Y-98865523D01*
X124376667Y-98746476D01*
X124400476Y-98698857D01*
X124424286Y-98675047D01*
X124471905Y-98651238D01*
X124590952Y-98651238D01*
X124638571Y-98675047D01*
X124662381Y-98698857D01*
X124686190Y-98746476D01*
X124686190Y-98865523D01*
X124662381Y-98913142D01*
X124638571Y-98936952D01*
X124686190Y-98175048D02*
X124686190Y-98460762D01*
X124686190Y-98317905D02*
X124186190Y-98317905D01*
X124257619Y-98365524D01*
X124305238Y-98413143D01*
X124329048Y-98460762D01*
X114780190Y-99127428D02*
X114542095Y-99294095D01*
X114780190Y-99413142D02*
X114280190Y-99413142D01*
X114280190Y-99222666D01*
X114304000Y-99175047D01*
X114327810Y-99151238D01*
X114375429Y-99127428D01*
X114446857Y-99127428D01*
X114494476Y-99151238D01*
X114518286Y-99175047D01*
X114542095Y-99222666D01*
X114542095Y-99413142D01*
X114280190Y-98675047D02*
X114280190Y-98913142D01*
X114518286Y-98936952D01*
X114494476Y-98913142D01*
X114470667Y-98865523D01*
X114470667Y-98746476D01*
X114494476Y-98698857D01*
X114518286Y-98675047D01*
X114565905Y-98651238D01*
X114684952Y-98651238D01*
X114732571Y-98675047D01*
X114756381Y-98698857D01*
X114780190Y-98746476D01*
X114780190Y-98865523D01*
X114756381Y-98913142D01*
X114732571Y-98936952D01*
X114327810Y-98460762D02*
X114304000Y-98436952D01*
X114280190Y-98389333D01*
X114280190Y-98270286D01*
X114304000Y-98222667D01*
X114327810Y-98198857D01*
X114375429Y-98175048D01*
X114423048Y-98175048D01*
X114494476Y-98198857D01*
X114780190Y-98484571D01*
X114780190Y-98175048D01*
X121638190Y-99127428D02*
X121400095Y-99294095D01*
X121638190Y-99413142D02*
X121138190Y-99413142D01*
X121138190Y-99222666D01*
X121162000Y-99175047D01*
X121185810Y-99151238D01*
X121233429Y-99127428D01*
X121304857Y-99127428D01*
X121352476Y-99151238D01*
X121376286Y-99175047D01*
X121400095Y-99222666D01*
X121400095Y-99413142D01*
X121138190Y-98675047D02*
X121138190Y-98913142D01*
X121376286Y-98936952D01*
X121352476Y-98913142D01*
X121328667Y-98865523D01*
X121328667Y-98746476D01*
X121352476Y-98698857D01*
X121376286Y-98675047D01*
X121423905Y-98651238D01*
X121542952Y-98651238D01*
X121590571Y-98675047D01*
X121614381Y-98698857D01*
X121638190Y-98746476D01*
X121638190Y-98865523D01*
X121614381Y-98913142D01*
X121590571Y-98936952D01*
X121138190Y-98484571D02*
X121138190Y-98175048D01*
X121328667Y-98341714D01*
X121328667Y-98270286D01*
X121352476Y-98222667D01*
X121376286Y-98198857D01*
X121423905Y-98175048D01*
X121542952Y-98175048D01*
X121590571Y-98198857D01*
X121614381Y-98222667D01*
X121638190Y-98270286D01*
X121638190Y-98413143D01*
X121614381Y-98460762D01*
X121590571Y-98484571D01*
X131290190Y-99127428D02*
X131052095Y-99294095D01*
X131290190Y-99413142D02*
X130790190Y-99413142D01*
X130790190Y-99222666D01*
X130814000Y-99175047D01*
X130837810Y-99151238D01*
X130885429Y-99127428D01*
X130956857Y-99127428D01*
X131004476Y-99151238D01*
X131028286Y-99175047D01*
X131052095Y-99222666D01*
X131052095Y-99413142D01*
X130790190Y-98675047D02*
X130790190Y-98913142D01*
X131028286Y-98936952D01*
X131004476Y-98913142D01*
X130980667Y-98865523D01*
X130980667Y-98746476D01*
X131004476Y-98698857D01*
X131028286Y-98675047D01*
X131075905Y-98651238D01*
X131194952Y-98651238D01*
X131242571Y-98675047D01*
X131266381Y-98698857D01*
X131290190Y-98746476D01*
X131290190Y-98865523D01*
X131266381Y-98913142D01*
X131242571Y-98936952D01*
X130956857Y-98222667D02*
X131290190Y-98222667D01*
X130766381Y-98341714D02*
X131123524Y-98460762D01*
X131123524Y-98151238D01*
X127988190Y-99127428D02*
X127750095Y-99294095D01*
X127988190Y-99413142D02*
X127488190Y-99413142D01*
X127488190Y-99222666D01*
X127512000Y-99175047D01*
X127535810Y-99151238D01*
X127583429Y-99127428D01*
X127654857Y-99127428D01*
X127702476Y-99151238D01*
X127726286Y-99175047D01*
X127750095Y-99222666D01*
X127750095Y-99413142D01*
X127488190Y-98675047D02*
X127488190Y-98913142D01*
X127726286Y-98936952D01*
X127702476Y-98913142D01*
X127678667Y-98865523D01*
X127678667Y-98746476D01*
X127702476Y-98698857D01*
X127726286Y-98675047D01*
X127773905Y-98651238D01*
X127892952Y-98651238D01*
X127940571Y-98675047D01*
X127964381Y-98698857D01*
X127988190Y-98746476D01*
X127988190Y-98865523D01*
X127964381Y-98913142D01*
X127940571Y-98936952D01*
X127488190Y-98198857D02*
X127488190Y-98436952D01*
X127726286Y-98460762D01*
X127702476Y-98436952D01*
X127678667Y-98389333D01*
X127678667Y-98270286D01*
X127702476Y-98222667D01*
X127726286Y-98198857D01*
X127773905Y-98175048D01*
X127892952Y-98175048D01*
X127940571Y-98198857D01*
X127964381Y-98222667D01*
X127988190Y-98270286D01*
X127988190Y-98389333D01*
X127964381Y-98436952D01*
X127940571Y-98460762D01*
X93912572Y-38834190D02*
X93745905Y-38596095D01*
X93626858Y-38834190D02*
X93626858Y-38334190D01*
X93817334Y-38334190D01*
X93864953Y-38358000D01*
X93888762Y-38381810D01*
X93912572Y-38429429D01*
X93912572Y-38500857D01*
X93888762Y-38548476D01*
X93864953Y-38572286D01*
X93817334Y-38596095D01*
X93626858Y-38596095D01*
X94388762Y-38834190D02*
X94103048Y-38834190D01*
X94245905Y-38834190D02*
X94245905Y-38334190D01*
X94198286Y-38405619D01*
X94150667Y-38453238D01*
X94103048Y-38477048D01*
X94555429Y-38334190D02*
X94888762Y-38334190D01*
X94674476Y-38834190D01*
X93912572Y-55852190D02*
X93745905Y-55614095D01*
X93626858Y-55852190D02*
X93626858Y-55352190D01*
X93817334Y-55352190D01*
X93864953Y-55376000D01*
X93888762Y-55399810D01*
X93912572Y-55447429D01*
X93912572Y-55518857D01*
X93888762Y-55566476D01*
X93864953Y-55590286D01*
X93817334Y-55614095D01*
X93626858Y-55614095D01*
X94388762Y-55852190D02*
X94103048Y-55852190D01*
X94245905Y-55852190D02*
X94245905Y-55352190D01*
X94198286Y-55423619D01*
X94150667Y-55471238D01*
X94103048Y-55495048D01*
X94674476Y-55566476D02*
X94626857Y-55542667D01*
X94603048Y-55518857D01*
X94579238Y-55471238D01*
X94579238Y-55447429D01*
X94603048Y-55399810D01*
X94626857Y-55376000D01*
X94674476Y-55352190D01*
X94769714Y-55352190D01*
X94817333Y-55376000D01*
X94841143Y-55399810D01*
X94864952Y-55447429D01*
X94864952Y-55471238D01*
X94841143Y-55518857D01*
X94817333Y-55542667D01*
X94769714Y-55566476D01*
X94674476Y-55566476D01*
X94626857Y-55590286D01*
X94603048Y-55614095D01*
X94579238Y-55661714D01*
X94579238Y-55756952D01*
X94603048Y-55804571D01*
X94626857Y-55828381D01*
X94674476Y-55852190D01*
X94769714Y-55852190D01*
X94817333Y-55828381D01*
X94841143Y-55804571D01*
X94864952Y-55756952D01*
X94864952Y-55661714D01*
X94841143Y-55614095D01*
X94817333Y-55590286D01*
X94769714Y-55566476D01*
X94166572Y-73632190D02*
X93999905Y-73394095D01*
X93880858Y-73632190D02*
X93880858Y-73132190D01*
X94071334Y-73132190D01*
X94118953Y-73156000D01*
X94142762Y-73179810D01*
X94166572Y-73227429D01*
X94166572Y-73298857D01*
X94142762Y-73346476D01*
X94118953Y-73370286D01*
X94071334Y-73394095D01*
X93880858Y-73394095D01*
X94618953Y-73132190D02*
X94380858Y-73132190D01*
X94357048Y-73370286D01*
X94380858Y-73346476D01*
X94428477Y-73322667D01*
X94547524Y-73322667D01*
X94595143Y-73346476D01*
X94618953Y-73370286D01*
X94642762Y-73417905D01*
X94642762Y-73536952D01*
X94618953Y-73584571D01*
X94595143Y-73608381D01*
X94547524Y-73632190D01*
X94428477Y-73632190D01*
X94380858Y-73608381D01*
X94357048Y-73584571D01*
X95071333Y-73132190D02*
X94976095Y-73132190D01*
X94928476Y-73156000D01*
X94904667Y-73179810D01*
X94857048Y-73251238D01*
X94833238Y-73346476D01*
X94833238Y-73536952D01*
X94857048Y-73584571D01*
X94880857Y-73608381D01*
X94928476Y-73632190D01*
X95023714Y-73632190D01*
X95071333Y-73608381D01*
X95095143Y-73584571D01*
X95118952Y-73536952D01*
X95118952Y-73417905D01*
X95095143Y-73370286D01*
X95071333Y-73346476D01*
X95023714Y-73322667D01*
X94928476Y-73322667D01*
X94880857Y-73346476D01*
X94857048Y-73370286D01*
X94833238Y-73417905D01*
X94166572Y-90904190D02*
X93999905Y-90666095D01*
X93880858Y-90904190D02*
X93880858Y-90404190D01*
X94071334Y-90404190D01*
X94118953Y-90428000D01*
X94142762Y-90451810D01*
X94166572Y-90499429D01*
X94166572Y-90570857D01*
X94142762Y-90618476D01*
X94118953Y-90642286D01*
X94071334Y-90666095D01*
X93880858Y-90666095D01*
X94618953Y-90404190D02*
X94380858Y-90404190D01*
X94357048Y-90642286D01*
X94380858Y-90618476D01*
X94428477Y-90594667D01*
X94547524Y-90594667D01*
X94595143Y-90618476D01*
X94618953Y-90642286D01*
X94642762Y-90689905D01*
X94642762Y-90808952D01*
X94618953Y-90856571D01*
X94595143Y-90880381D01*
X94547524Y-90904190D01*
X94428477Y-90904190D01*
X94380858Y-90880381D01*
X94357048Y-90856571D01*
X94809429Y-90404190D02*
X95142762Y-90404190D01*
X94928476Y-90904190D01*
D11*
X117562381Y-123682023D02*
X118276667Y-123682023D01*
X118419524Y-123729643D01*
X118514762Y-123824881D01*
X118562381Y-123967738D01*
X118562381Y-124062976D01*
X118562381Y-122682023D02*
X118562381Y-123253452D01*
X118562381Y-122967738D02*
X117562381Y-122967738D01*
X117705238Y-123062976D01*
X117800476Y-123158214D01*
X117848095Y-123253452D01*
X117990952Y-122110595D02*
X117943333Y-122205833D01*
X117895714Y-122253452D01*
X117800476Y-122301071D01*
X117752857Y-122301071D01*
X117657619Y-122253452D01*
X117610000Y-122205833D01*
X117562381Y-122110595D01*
X117562381Y-121920118D01*
X117610000Y-121824880D01*
X117657619Y-121777261D01*
X117752857Y-121729642D01*
X117800476Y-121729642D01*
X117895714Y-121777261D01*
X117943333Y-121824880D01*
X117990952Y-121920118D01*
X117990952Y-122110595D01*
X118038571Y-122205833D01*
X118086190Y-122253452D01*
X118181429Y-122301071D01*
X118371905Y-122301071D01*
X118467143Y-122253452D01*
X118514762Y-122205833D01*
X118562381Y-122110595D01*
X118562381Y-121920118D01*
X118514762Y-121824880D01*
X118467143Y-121777261D01*
X118371905Y-121729642D01*
X118181429Y-121729642D01*
X118086190Y-121777261D01*
X118038571Y-121824880D01*
X117990952Y-121920118D01*
X92162381Y-123682023D02*
X92876667Y-123682023D01*
X93019524Y-123729643D01*
X93114762Y-123824881D01*
X93162381Y-123967738D01*
X93162381Y-124062976D01*
X93162381Y-122682023D02*
X93162381Y-123253452D01*
X93162381Y-122967738D02*
X92162381Y-122967738D01*
X92305238Y-123062976D01*
X92400476Y-123158214D01*
X92448095Y-123253452D01*
X93162381Y-122205833D02*
X93162381Y-122015357D01*
X93114762Y-121920118D01*
X93067143Y-121872499D01*
X92924286Y-121777261D01*
X92733810Y-121729642D01*
X92352857Y-121729642D01*
X92257619Y-121777261D01*
X92210000Y-121824880D01*
X92162381Y-121920118D01*
X92162381Y-122110595D01*
X92210000Y-122205833D01*
X92257619Y-122253452D01*
X92352857Y-122301071D01*
X92590952Y-122301071D01*
X92686190Y-122253452D01*
X92733810Y-122205833D01*
X92781429Y-122110595D01*
X92781429Y-121920118D01*
X92733810Y-121824880D01*
X92686190Y-121777261D01*
X92590952Y-121729642D01*
X104608381Y-123682023D02*
X105322667Y-123682023D01*
X105465524Y-123729643D01*
X105560762Y-123824881D01*
X105608381Y-123967738D01*
X105608381Y-124062976D01*
X104703619Y-123253452D02*
X104656000Y-123205833D01*
X104608381Y-123110595D01*
X104608381Y-122872499D01*
X104656000Y-122777261D01*
X104703619Y-122729642D01*
X104798857Y-122682023D01*
X104894095Y-122682023D01*
X105036952Y-122729642D01*
X105608381Y-123301071D01*
X105608381Y-122682023D01*
X104703619Y-122301071D02*
X104656000Y-122253452D01*
X104608381Y-122158214D01*
X104608381Y-121920118D01*
X104656000Y-121824880D01*
X104703619Y-121777261D01*
X104798857Y-121729642D01*
X104894095Y-121729642D01*
X105036952Y-121777261D01*
X105608381Y-122348690D01*
X105608381Y-121729642D01*
X133056381Y-123555023D02*
X133770667Y-123555023D01*
X133913524Y-123602643D01*
X134008762Y-123697881D01*
X134056381Y-123840738D01*
X134056381Y-123935976D01*
X133151619Y-123126452D02*
X133104000Y-123078833D01*
X133056381Y-122983595D01*
X133056381Y-122745499D01*
X133104000Y-122650261D01*
X133151619Y-122602642D01*
X133246857Y-122555023D01*
X133342095Y-122555023D01*
X133484952Y-122602642D01*
X134056381Y-123174071D01*
X134056381Y-122555023D01*
X133389714Y-121697880D02*
X134056381Y-121697880D01*
X133008762Y-121935976D02*
X133723048Y-122174071D01*
X133723048Y-121555023D01*
X82510381Y-28241523D02*
X83224667Y-28241523D01*
X83367524Y-28289143D01*
X83462762Y-28384381D01*
X83510381Y-28527238D01*
X83510381Y-28622476D01*
X82510381Y-27860571D02*
X82510381Y-27241523D01*
X82891333Y-27574857D01*
X82891333Y-27431999D01*
X82938952Y-27336761D01*
X82986571Y-27289142D01*
X83081810Y-27241523D01*
X83319905Y-27241523D01*
X83415143Y-27289142D01*
X83462762Y-27336761D01*
X83510381Y-27431999D01*
X83510381Y-27717714D01*
X83462762Y-27812952D01*
X83415143Y-27860571D01*
X82510381Y-26336761D02*
X82510381Y-26812952D01*
X82986571Y-26860571D01*
X82938952Y-26812952D01*
X82891333Y-26717714D01*
X82891333Y-26479618D01*
X82938952Y-26384380D01*
X82986571Y-26336761D01*
X83081810Y-26289142D01*
X83319905Y-26289142D01*
X83415143Y-26336761D01*
X83462762Y-26384380D01*
X83510381Y-26479618D01*
X83510381Y-26717714D01*
X83462762Y-26812952D01*
X83415143Y-26860571D01*
X82510381Y-46021523D02*
X83224667Y-46021523D01*
X83367524Y-46069143D01*
X83462762Y-46164381D01*
X83510381Y-46307238D01*
X83510381Y-46402476D01*
X82510381Y-45640571D02*
X82510381Y-45021523D01*
X82891333Y-45354857D01*
X82891333Y-45211999D01*
X82938952Y-45116761D01*
X82986571Y-45069142D01*
X83081810Y-45021523D01*
X83319905Y-45021523D01*
X83415143Y-45069142D01*
X83462762Y-45116761D01*
X83510381Y-45211999D01*
X83510381Y-45497714D01*
X83462762Y-45592952D01*
X83415143Y-45640571D01*
X82510381Y-44164380D02*
X82510381Y-44354857D01*
X82558000Y-44450095D01*
X82605619Y-44497714D01*
X82748476Y-44592952D01*
X82938952Y-44640571D01*
X83319905Y-44640571D01*
X83415143Y-44592952D01*
X83462762Y-44545333D01*
X83510381Y-44450095D01*
X83510381Y-44259618D01*
X83462762Y-44164380D01*
X83415143Y-44116761D01*
X83319905Y-44069142D01*
X83081810Y-44069142D01*
X82986571Y-44116761D01*
X82938952Y-44164380D01*
X82891333Y-44259618D01*
X82891333Y-44450095D01*
X82938952Y-44545333D01*
X82986571Y-44592952D01*
X83081810Y-44640571D01*
X82510381Y-63293523D02*
X83224667Y-63293523D01*
X83367524Y-63341143D01*
X83462762Y-63436381D01*
X83510381Y-63579238D01*
X83510381Y-63674476D01*
X82510381Y-62912571D02*
X82510381Y-62293523D01*
X82891333Y-62626857D01*
X82891333Y-62483999D01*
X82938952Y-62388761D01*
X82986571Y-62341142D01*
X83081810Y-62293523D01*
X83319905Y-62293523D01*
X83415143Y-62341142D01*
X83462762Y-62388761D01*
X83510381Y-62483999D01*
X83510381Y-62769714D01*
X83462762Y-62864952D01*
X83415143Y-62912571D01*
X82510381Y-61960190D02*
X82510381Y-61293523D01*
X83510381Y-61722095D01*
X82510381Y-80057523D02*
X83224667Y-80057523D01*
X83367524Y-80105143D01*
X83462762Y-80200381D01*
X83510381Y-80343238D01*
X83510381Y-80438476D01*
X82510381Y-79676571D02*
X82510381Y-79057523D01*
X82891333Y-79390857D01*
X82891333Y-79247999D01*
X82938952Y-79152761D01*
X82986571Y-79105142D01*
X83081810Y-79057523D01*
X83319905Y-79057523D01*
X83415143Y-79105142D01*
X83462762Y-79152761D01*
X83510381Y-79247999D01*
X83510381Y-79533714D01*
X83462762Y-79628952D01*
X83415143Y-79676571D01*
X82938952Y-78486095D02*
X82891333Y-78581333D01*
X82843714Y-78628952D01*
X82748476Y-78676571D01*
X82700857Y-78676571D01*
X82605619Y-78628952D01*
X82558000Y-78581333D01*
X82510381Y-78486095D01*
X82510381Y-78295618D01*
X82558000Y-78200380D01*
X82605619Y-78152761D01*
X82700857Y-78105142D01*
X82748476Y-78105142D01*
X82843714Y-78152761D01*
X82891333Y-78200380D01*
X82938952Y-78295618D01*
X82938952Y-78486095D01*
X82986571Y-78581333D01*
X83034190Y-78628952D01*
X83129429Y-78676571D01*
X83319905Y-78676571D01*
X83415143Y-78628952D01*
X83462762Y-78581333D01*
X83510381Y-78486095D01*
X83510381Y-78295618D01*
X83462762Y-78200380D01*
X83415143Y-78152761D01*
X83319905Y-78105142D01*
X83129429Y-78105142D01*
X83034190Y-78152761D01*
X82986571Y-78200380D01*
X82938952Y-78295618D01*
X150685477Y-128333381D02*
X150685477Y-129047667D01*
X150637857Y-129190524D01*
X150542619Y-129285762D01*
X150399762Y-129333381D01*
X150304524Y-129333381D01*
X151066429Y-128333381D02*
X151685477Y-128333381D01*
X151352143Y-128714333D01*
X151495001Y-128714333D01*
X151590239Y-128761952D01*
X151637858Y-128809571D01*
X151685477Y-128904810D01*
X151685477Y-129142905D01*
X151637858Y-129238143D01*
X151590239Y-129285762D01*
X151495001Y-129333381D01*
X151209286Y-129333381D01*
X151114048Y-129285762D01*
X151066429Y-129238143D01*
X152161667Y-129333381D02*
X152352143Y-129333381D01*
X152447382Y-129285762D01*
X152495001Y-129238143D01*
X152590239Y-129095286D01*
X152637858Y-128904810D01*
X152637858Y-128523857D01*
X152590239Y-128428619D01*
X152542620Y-128381000D01*
X152447382Y-128333381D01*
X152256905Y-128333381D01*
X152161667Y-128381000D01*
X152114048Y-128428619D01*
X152066429Y-128523857D01*
X152066429Y-128761952D01*
X152114048Y-128857190D01*
X152161667Y-128904810D01*
X152256905Y-128952429D01*
X152447382Y-128952429D01*
X152542620Y-128904810D01*
X152590239Y-128857190D01*
X152637858Y-128761952D01*
X150447477Y-120610381D02*
X150447477Y-121324667D01*
X150399857Y-121467524D01*
X150304619Y-121562762D01*
X150161762Y-121610381D01*
X150066524Y-121610381D01*
X151352239Y-120943714D02*
X151352239Y-121610381D01*
X151114143Y-120562762D02*
X150876048Y-121277048D01*
X151495096Y-121277048D01*
X152066524Y-120610381D02*
X152161763Y-120610381D01*
X152257001Y-120658000D01*
X152304620Y-120705619D01*
X152352239Y-120800857D01*
X152399858Y-120991333D01*
X152399858Y-121229429D01*
X152352239Y-121419905D01*
X152304620Y-121515143D01*
X152257001Y-121562762D01*
X152161763Y-121610381D01*
X152066524Y-121610381D01*
X151971286Y-121562762D01*
X151923667Y-121515143D01*
X151876048Y-121419905D01*
X151828429Y-121229429D01*
X151828429Y-120991333D01*
X151876048Y-120800857D01*
X151923667Y-120705619D01*
X151971286Y-120658000D01*
X152066524Y-120610381D01*
M02*
