G04 #@! TF.FileFunction,Paste,Top*
%FSLAX46Y46*%
G04 Gerber Fmt 4.6, Leading zero omitted, Abs format (unit mm)*
G04 Created by KiCad (PCBNEW 4.0.7) date 11/06/17 02:09:46*
%MOMM*%
%LPD*%
G01*
G04 APERTURE LIST*
%ADD10C,0.100000*%
%ADD11R,1.500000X1.250000*%
%ADD12R,1.250000X1.500000*%
%ADD13R,1.300000X1.500000*%
%ADD14R,1.350000X1.200000*%
%ADD15R,1.200000X1.350000*%
%ADD16R,2.000000X3.800000*%
%ADD17R,2.000000X1.500000*%
%ADD18R,1.400000X1.000000*%
%ADD19R,1.625600X0.889000*%
%ADD20R,1.625600X3.175000*%
%ADD21R,1.500000X1.300000*%
%ADD22C,1.524000*%
%ADD23R,1.320800X0.508000*%
%ADD24R,1.422400X0.279400*%
%ADD25R,2.000000X1.800000*%
%ADD26R,1.500000X1.500000*%
G04 APERTURE END LIST*
D10*
D11*
X87396000Y-33020000D03*
X89896000Y-33020000D03*
X86888000Y-49784000D03*
X89388000Y-49784000D03*
X87142000Y-66548000D03*
X89642000Y-66548000D03*
X87142000Y-83566000D03*
X89642000Y-83566000D03*
D12*
X99568000Y-99294000D03*
X99568000Y-96794000D03*
D13*
X157226000Y-35386000D03*
X157226000Y-32686000D03*
X157226000Y-50372000D03*
X157226000Y-47672000D03*
X157480000Y-66628000D03*
X157480000Y-63928000D03*
X157480000Y-81360000D03*
X157480000Y-78660000D03*
X157226000Y-41990000D03*
X157226000Y-39290000D03*
X157226000Y-57992000D03*
X157226000Y-55292000D03*
X157480000Y-73994000D03*
X157480000Y-71294000D03*
X157480000Y-88218000D03*
X157480000Y-85518000D03*
D14*
X86184000Y-37084000D03*
X89534000Y-37084000D03*
X86184000Y-54102000D03*
X89534000Y-54102000D03*
X86438000Y-70612000D03*
X89788000Y-70612000D03*
X86692000Y-88138000D03*
X90042000Y-88138000D03*
D15*
X88392000Y-110314000D03*
X88392000Y-113664000D03*
X103886000Y-110568000D03*
X103886000Y-113918000D03*
X119126000Y-110568000D03*
X119126000Y-113918000D03*
X133858000Y-110822000D03*
X133858000Y-114172000D03*
X52578000Y-30402000D03*
X52578000Y-27052000D03*
D14*
X89838000Y-26416000D03*
X86488000Y-26416000D03*
X89838000Y-44450000D03*
X86488000Y-44450000D03*
X90092000Y-61468000D03*
X86742000Y-61468000D03*
X90092000Y-77978000D03*
X86742000Y-77978000D03*
D16*
X129692000Y-35052000D03*
D17*
X135992000Y-35052000D03*
X135992000Y-32752000D03*
X135992000Y-37352000D03*
D16*
X129946000Y-47752000D03*
D17*
X136246000Y-47752000D03*
X136246000Y-45452000D03*
X136246000Y-50052000D03*
D18*
X132631000Y-69977000D03*
X134831000Y-69027000D03*
X134831000Y-70927000D03*
X132758000Y-83439000D03*
X134958000Y-82489000D03*
X134958000Y-84389000D03*
D19*
X99415600Y-32740600D03*
X99415600Y-35052000D03*
X99415600Y-37363400D03*
D20*
X105816400Y-35052000D03*
D19*
X99415600Y-50520600D03*
X99415600Y-52832000D03*
X99415600Y-55143400D03*
D20*
X105816400Y-52832000D03*
D19*
X99415600Y-25374600D03*
X99415600Y-27686000D03*
X99415600Y-29997400D03*
D20*
X105816400Y-27686000D03*
D19*
X99415600Y-43154600D03*
X99415600Y-45466000D03*
X99415600Y-47777400D03*
D20*
X105816400Y-45466000D03*
D19*
X99669600Y-68300600D03*
X99669600Y-70612000D03*
X99669600Y-72923400D03*
D20*
X106070400Y-70612000D03*
D19*
X99669600Y-86080600D03*
X99669600Y-88392000D03*
X99669600Y-90703400D03*
D20*
X106070400Y-88392000D03*
D19*
X99669600Y-60680600D03*
X99669600Y-62992000D03*
X99669600Y-65303400D03*
D20*
X106070400Y-62992000D03*
D19*
X99669600Y-78714600D03*
X99669600Y-81026000D03*
X99669600Y-83337400D03*
D20*
X106070400Y-81026000D03*
D18*
X85768000Y-104648000D03*
X87968000Y-103698000D03*
X87968000Y-105598000D03*
X101516000Y-105156000D03*
X103716000Y-104206000D03*
X103716000Y-106106000D03*
X116756000Y-104648000D03*
X118956000Y-103698000D03*
X118956000Y-105598000D03*
X131234000Y-104902000D03*
X133434000Y-103952000D03*
X133434000Y-105852000D03*
D13*
X153924000Y-32686000D03*
X153924000Y-35386000D03*
X153924000Y-47672000D03*
X153924000Y-50372000D03*
X153924000Y-63928000D03*
X153924000Y-66628000D03*
X153924000Y-78660000D03*
X153924000Y-81360000D03*
X153924000Y-39290000D03*
X153924000Y-41990000D03*
X153924000Y-55292000D03*
X153924000Y-57992000D03*
X153924000Y-71294000D03*
X153924000Y-73994000D03*
X153924000Y-85518000D03*
X153924000Y-88218000D03*
X138938000Y-37672000D03*
X138938000Y-34972000D03*
X138938000Y-29892000D03*
X138938000Y-32592000D03*
X139192000Y-50372000D03*
X139192000Y-47672000D03*
X139192000Y-42592000D03*
X139192000Y-45292000D03*
D21*
X135208000Y-62611000D03*
X132508000Y-62611000D03*
X132571500Y-66459100D03*
X135271500Y-66459100D03*
X135335000Y-76327000D03*
X132635000Y-76327000D03*
X132635000Y-80264000D03*
X135335000Y-80264000D03*
X71040000Y-92202000D03*
X73740000Y-92202000D03*
X92884000Y-35814000D03*
X95584000Y-35814000D03*
X92884000Y-53340000D03*
X95584000Y-53340000D03*
X89488000Y-29718000D03*
X86788000Y-29718000D03*
X89488000Y-47244000D03*
X86788000Y-47244000D03*
D13*
X92964000Y-28782000D03*
X92964000Y-26082000D03*
X92710000Y-47070000D03*
X92710000Y-44370000D03*
X94996000Y-28782000D03*
X94996000Y-26082000D03*
X95504000Y-47070000D03*
X95504000Y-44370000D03*
D21*
X93138000Y-70612000D03*
X95838000Y-70612000D03*
X93138000Y-88138000D03*
X95838000Y-88138000D03*
X89742000Y-63754000D03*
X87042000Y-63754000D03*
X89742000Y-81026000D03*
X87042000Y-81026000D03*
D13*
X92710000Y-64088000D03*
X92710000Y-61388000D03*
X92710000Y-81614000D03*
X92710000Y-78914000D03*
X96012000Y-64088000D03*
X96012000Y-61388000D03*
X95758000Y-81614000D03*
X95758000Y-78914000D03*
X85598000Y-113618000D03*
X85598000Y-110918000D03*
X101346000Y-113618000D03*
X101346000Y-110918000D03*
X116586000Y-113618000D03*
X116586000Y-110918000D03*
X131064000Y-113872000D03*
X131064000Y-111172000D03*
X111252000Y-97456000D03*
X111252000Y-100156000D03*
X118110000Y-97456000D03*
X118110000Y-100156000D03*
X134366000Y-97456000D03*
X134366000Y-100156000D03*
X124460000Y-97456000D03*
X124460000Y-100156000D03*
X114554000Y-100156000D03*
X114554000Y-97456000D03*
X121412000Y-100156000D03*
X121412000Y-97456000D03*
X131064000Y-100156000D03*
X131064000Y-97456000D03*
X127762000Y-100156000D03*
X127762000Y-97456000D03*
D22*
X159512000Y-37592000D03*
X159512000Y-52324000D03*
X159766000Y-69342000D03*
X159766000Y-83312000D03*
X143002000Y-37592000D03*
X143002000Y-50546000D03*
X143002000Y-34036000D03*
X143002000Y-30226000D03*
X143002000Y-46990000D03*
X142748000Y-42672000D03*
D23*
X93726000Y-31292800D03*
X93726000Y-31927800D03*
X93726000Y-32588200D03*
X93726000Y-33223200D03*
X96266000Y-33223200D03*
X96266000Y-32588200D03*
X96266000Y-31927800D03*
X96266000Y-31292800D03*
X93472000Y-49072800D03*
X93472000Y-49707800D03*
X93472000Y-50368200D03*
X93472000Y-51003200D03*
X96012000Y-51003200D03*
X96012000Y-50368200D03*
X96012000Y-49707800D03*
X96012000Y-49072800D03*
X93726000Y-66344800D03*
X93726000Y-66979800D03*
X93726000Y-67640200D03*
X93726000Y-68275200D03*
X96266000Y-68275200D03*
X96266000Y-67640200D03*
X96266000Y-66979800D03*
X96266000Y-66344800D03*
X93472000Y-83870800D03*
X93472000Y-84505800D03*
X93472000Y-85166200D03*
X93472000Y-85801200D03*
X96012000Y-85801200D03*
X96012000Y-85166200D03*
X96012000Y-84505800D03*
X96012000Y-83870800D03*
D24*
X107594400Y-99796600D03*
X107594400Y-99314000D03*
X107594400Y-98806000D03*
X107594400Y-98298000D03*
X107594400Y-97815400D03*
X103225600Y-97815400D03*
X103225600Y-98298000D03*
X103225600Y-98806000D03*
X103225600Y-99314000D03*
X103225600Y-99796600D03*
D14*
X86184000Y-39370000D03*
X89534000Y-39370000D03*
X86184000Y-56642000D03*
X89534000Y-56642000D03*
X86438000Y-73406000D03*
X89788000Y-73406000D03*
X86692000Y-90678000D03*
X90042000Y-90678000D03*
D21*
X92884000Y-38608000D03*
X95584000Y-38608000D03*
X92884000Y-55626000D03*
X95584000Y-55626000D03*
X93138000Y-73406000D03*
X95838000Y-73406000D03*
X93138000Y-90678000D03*
X95838000Y-90678000D03*
D25*
X114856000Y-128841500D03*
X120856000Y-128841500D03*
X89583000Y-128714500D03*
X95583000Y-128714500D03*
X102029000Y-128714500D03*
X108029000Y-128714500D03*
X130350000Y-128841500D03*
X136350000Y-128841500D03*
X57960000Y-28956000D03*
X63960000Y-28956000D03*
D26*
X87396000Y-35052000D03*
X89896000Y-35052000D03*
X86888000Y-51816000D03*
X89388000Y-51816000D03*
X87142000Y-68580000D03*
X89642000Y-68580000D03*
X87142000Y-85852000D03*
X89642000Y-85852000D03*
X97282000Y-96794000D03*
X97282000Y-99294000D03*
D21*
X63928000Y-33782000D03*
X66628000Y-33782000D03*
D26*
X84562000Y-30480000D03*
X82062000Y-30480000D03*
X84308000Y-48006000D03*
X81808000Y-48006000D03*
X84562000Y-65532000D03*
X82062000Y-65532000D03*
X84562000Y-82804000D03*
X82062000Y-82804000D03*
M02*
