G04 #@! TF.FileFunction,Copper,L1,Top,Signal*
%FSLAX46Y46*%
G04 Gerber Fmt 4.6, Leading zero omitted, Abs format (unit mm)*
G04 Created by KiCad (PCBNEW 4.0.7) date 11/06/17 02:09:46*
%MOMM*%
%LPD*%
G01*
G04 APERTURE LIST*
%ADD10C,0.100000*%
%ADD11R,1.500000X1.250000*%
%ADD12R,1.250000X1.500000*%
%ADD13R,1.300000X1.500000*%
%ADD14R,1.350000X1.200000*%
%ADD15R,1.200000X1.350000*%
%ADD16R,1.700000X1.700000*%
%ADD17O,1.700000X1.700000*%
%ADD18R,1.200000X1.700000*%
%ADD19O,1.200000X1.700000*%
%ADD20R,2.000000X3.800000*%
%ADD21R,2.000000X1.500000*%
%ADD22R,1.400000X1.000000*%
%ADD23R,1.625600X0.889000*%
%ADD24R,1.625600X3.175000*%
%ADD25R,1.500000X1.300000*%
%ADD26C,1.800000*%
%ADD27C,1.524000*%
%ADD28R,1.320800X0.508000*%
%ADD29R,1.422400X0.279400*%
%ADD30R,2.000000X1.800000*%
%ADD31O,3.000000X2.000000*%
%ADD32R,1.500000X1.500000*%
%ADD33C,1.750000*%
%ADD34C,2.000000*%
%ADD35C,1.000000*%
%ADD36C,1.000000*%
%ADD37C,0.500000*%
%ADD38C,0.254000*%
%ADD39C,0.250000*%
%ADD40C,2.000000*%
G04 APERTURE END LIST*
D10*
D11*
X87396000Y-33020000D03*
X89896000Y-33020000D03*
X86888000Y-49784000D03*
X89388000Y-49784000D03*
X87142000Y-66548000D03*
X89642000Y-66548000D03*
X87142000Y-83566000D03*
X89642000Y-83566000D03*
D12*
X99568000Y-99294000D03*
X99568000Y-96794000D03*
D13*
X157226000Y-35386000D03*
X157226000Y-32686000D03*
X157226000Y-50372000D03*
X157226000Y-47672000D03*
X157480000Y-66628000D03*
X157480000Y-63928000D03*
X157480000Y-81360000D03*
X157480000Y-78660000D03*
X157226000Y-41990000D03*
X157226000Y-39290000D03*
X157226000Y-57992000D03*
X157226000Y-55292000D03*
X157480000Y-73994000D03*
X157480000Y-71294000D03*
X157480000Y-88218000D03*
X157480000Y-85518000D03*
D14*
X86184000Y-37084000D03*
X89534000Y-37084000D03*
X86184000Y-54102000D03*
X89534000Y-54102000D03*
X86438000Y-70612000D03*
X89788000Y-70612000D03*
X86692000Y-88138000D03*
X90042000Y-88138000D03*
D15*
X88392000Y-110314000D03*
X88392000Y-113664000D03*
X103886000Y-110568000D03*
X103886000Y-113918000D03*
X119126000Y-110568000D03*
X119126000Y-113918000D03*
X133858000Y-110822000D03*
X133858000Y-114172000D03*
X52578000Y-30402000D03*
X52578000Y-27052000D03*
D14*
X89838000Y-26416000D03*
X86488000Y-26416000D03*
X89838000Y-44450000D03*
X86488000Y-44450000D03*
X90092000Y-61468000D03*
X86742000Y-61468000D03*
X90092000Y-77978000D03*
X86742000Y-77978000D03*
D16*
X75120500Y-129984500D03*
D17*
X72580500Y-129984500D03*
X75120500Y-127444500D03*
X72580500Y-127444500D03*
X75120500Y-124904500D03*
X72580500Y-124904500D03*
X75120500Y-122364500D03*
X72580500Y-122364500D03*
X75120500Y-119824500D03*
X72580500Y-119824500D03*
X75120500Y-117284500D03*
X72580500Y-117284500D03*
X75120500Y-114744500D03*
X72580500Y-114744500D03*
X75120500Y-112204500D03*
X72580500Y-112204500D03*
X75120500Y-109664500D03*
X72580500Y-109664500D03*
X75120500Y-107124500D03*
X72580500Y-107124500D03*
D16*
X149733000Y-34798000D03*
D17*
X149733000Y-37338000D03*
X149733000Y-39878000D03*
D16*
X149606000Y-50292000D03*
D17*
X149606000Y-52832000D03*
X149606000Y-55372000D03*
D16*
X149860000Y-66548000D03*
D17*
X149860000Y-69088000D03*
X149860000Y-71628000D03*
D16*
X150114000Y-81026000D03*
D17*
X150114000Y-83566000D03*
X150114000Y-86106000D03*
D16*
X123545600Y-32613600D03*
D17*
X126085600Y-32613600D03*
X123545600Y-35153600D03*
X126085600Y-35153600D03*
X123545600Y-37693600D03*
X126085600Y-37693600D03*
D16*
X123799600Y-44907200D03*
D17*
X126339600Y-44907200D03*
X123799600Y-47447200D03*
X126339600Y-47447200D03*
X123799600Y-49987200D03*
X126339600Y-49987200D03*
D16*
X126301500Y-64782700D03*
D17*
X128841500Y-64782700D03*
X126301500Y-67322700D03*
X128841500Y-67322700D03*
X126301500Y-69862700D03*
X128841500Y-69862700D03*
D16*
X126238000Y-77470000D03*
D17*
X128778000Y-77470000D03*
X126238000Y-80010000D03*
X128778000Y-80010000D03*
X126238000Y-82550000D03*
X128778000Y-82550000D03*
D16*
X76200000Y-40386000D03*
D17*
X73660000Y-40386000D03*
X71120000Y-40386000D03*
X68580000Y-40386000D03*
X66040000Y-40386000D03*
X63500000Y-40386000D03*
X60960000Y-40386000D03*
X58420000Y-40386000D03*
X55880000Y-40386000D03*
X53340000Y-40386000D03*
X50800000Y-40386000D03*
X48260000Y-40386000D03*
X45720000Y-40386000D03*
X43180000Y-40386000D03*
X40640000Y-40386000D03*
X38100000Y-40386000D03*
X35560000Y-40386000D03*
X33020000Y-40386000D03*
X30480000Y-40386000D03*
X27940000Y-40386000D03*
D16*
X76200000Y-42926000D03*
D17*
X73660000Y-42926000D03*
X71120000Y-42926000D03*
X68580000Y-42926000D03*
X66040000Y-42926000D03*
X63500000Y-42926000D03*
X60960000Y-42926000D03*
X58420000Y-42926000D03*
X55880000Y-42926000D03*
X53340000Y-42926000D03*
X50800000Y-42926000D03*
X48260000Y-42926000D03*
X45720000Y-42926000D03*
X43180000Y-42926000D03*
X40640000Y-42926000D03*
X38100000Y-42926000D03*
X35560000Y-42926000D03*
X33020000Y-42926000D03*
X30480000Y-42926000D03*
X27940000Y-42926000D03*
D16*
X76200000Y-50546000D03*
D17*
X76200000Y-53086000D03*
X73660000Y-50546000D03*
X73660000Y-53086000D03*
X71120000Y-50546000D03*
X71120000Y-53086000D03*
X68580000Y-50546000D03*
X68580000Y-53086000D03*
X66040000Y-50546000D03*
X66040000Y-53086000D03*
X63500000Y-50546000D03*
X63500000Y-53086000D03*
X60960000Y-50546000D03*
X60960000Y-53086000D03*
X58420000Y-50546000D03*
X58420000Y-53086000D03*
X55880000Y-50546000D03*
X55880000Y-53086000D03*
X53340000Y-50546000D03*
X53340000Y-53086000D03*
X50800000Y-50546000D03*
X50800000Y-53086000D03*
X48260000Y-50546000D03*
X48260000Y-53086000D03*
X45720000Y-50546000D03*
X45720000Y-53086000D03*
X43180000Y-50546000D03*
X43180000Y-53086000D03*
X40640000Y-50546000D03*
X40640000Y-53086000D03*
X38100000Y-50546000D03*
X38100000Y-53086000D03*
X35560000Y-50546000D03*
X35560000Y-53086000D03*
X33020000Y-50546000D03*
X33020000Y-53086000D03*
X30480000Y-50546000D03*
X30480000Y-53086000D03*
X27940000Y-50546000D03*
X27940000Y-53086000D03*
D16*
X76200000Y-96266000D03*
D17*
X73660000Y-96266000D03*
X71120000Y-96266000D03*
X68580000Y-96266000D03*
X66040000Y-96266000D03*
X63500000Y-96266000D03*
X60960000Y-96266000D03*
X58420000Y-96266000D03*
X55880000Y-96266000D03*
X53340000Y-96266000D03*
X50800000Y-96266000D03*
X48260000Y-96266000D03*
X45720000Y-96266000D03*
X43180000Y-96266000D03*
X40640000Y-96266000D03*
X38100000Y-96266000D03*
X35560000Y-96266000D03*
X33020000Y-96266000D03*
X30480000Y-96266000D03*
X27940000Y-96266000D03*
D16*
X76200000Y-98806000D03*
D17*
X73660000Y-98806000D03*
X71120000Y-98806000D03*
X68580000Y-98806000D03*
X66040000Y-98806000D03*
X63500000Y-98806000D03*
X60960000Y-98806000D03*
X58420000Y-98806000D03*
X55880000Y-98806000D03*
X53340000Y-98806000D03*
X50800000Y-98806000D03*
X48260000Y-98806000D03*
X45720000Y-98806000D03*
X43180000Y-98806000D03*
X40640000Y-98806000D03*
X38100000Y-98806000D03*
X35560000Y-98806000D03*
X33020000Y-98806000D03*
X30480000Y-98806000D03*
X27940000Y-98806000D03*
D16*
X76200000Y-86106000D03*
D17*
X76200000Y-88646000D03*
X73660000Y-86106000D03*
X73660000Y-88646000D03*
X71120000Y-86106000D03*
X71120000Y-88646000D03*
X68580000Y-86106000D03*
X68580000Y-88646000D03*
X66040000Y-86106000D03*
X66040000Y-88646000D03*
X63500000Y-86106000D03*
X63500000Y-88646000D03*
X60960000Y-86106000D03*
X60960000Y-88646000D03*
X58420000Y-86106000D03*
X58420000Y-88646000D03*
X55880000Y-86106000D03*
X55880000Y-88646000D03*
X53340000Y-86106000D03*
X53340000Y-88646000D03*
X50800000Y-86106000D03*
X50800000Y-88646000D03*
X48260000Y-86106000D03*
X48260000Y-88646000D03*
X45720000Y-86106000D03*
X45720000Y-88646000D03*
X43180000Y-86106000D03*
X43180000Y-88646000D03*
X40640000Y-86106000D03*
X40640000Y-88646000D03*
X38100000Y-86106000D03*
X38100000Y-88646000D03*
X35560000Y-86106000D03*
X35560000Y-88646000D03*
X33020000Y-86106000D03*
X33020000Y-88646000D03*
X30480000Y-86106000D03*
X30480000Y-88646000D03*
X27940000Y-86106000D03*
X27940000Y-88646000D03*
D18*
X73660000Y-31496000D03*
D19*
X71660000Y-31496000D03*
D16*
X83058000Y-37338000D03*
D17*
X83058000Y-34798000D03*
D16*
X83058000Y-55118000D03*
D17*
X83058000Y-52578000D03*
D16*
X83058000Y-72898000D03*
D17*
X83058000Y-70358000D03*
D16*
X83312000Y-89662000D03*
D17*
X83312000Y-87122000D03*
D16*
X85598000Y-100330000D03*
D17*
X88138000Y-100330000D03*
X90678000Y-100330000D03*
X93218000Y-100330000D03*
D20*
X129692000Y-35052000D03*
D21*
X135992000Y-35052000D03*
X135992000Y-32752000D03*
X135992000Y-37352000D03*
D20*
X129946000Y-47752000D03*
D21*
X136246000Y-47752000D03*
X136246000Y-45452000D03*
X136246000Y-50052000D03*
D22*
X132631000Y-69977000D03*
X134831000Y-69027000D03*
X134831000Y-70927000D03*
X132758000Y-83439000D03*
X134958000Y-82489000D03*
X134958000Y-84389000D03*
D23*
X99415600Y-32740600D03*
X99415600Y-35052000D03*
X99415600Y-37363400D03*
D24*
X105816400Y-35052000D03*
D23*
X99415600Y-50520600D03*
X99415600Y-52832000D03*
X99415600Y-55143400D03*
D24*
X105816400Y-52832000D03*
D23*
X99415600Y-25374600D03*
X99415600Y-27686000D03*
X99415600Y-29997400D03*
D24*
X105816400Y-27686000D03*
D23*
X99415600Y-43154600D03*
X99415600Y-45466000D03*
X99415600Y-47777400D03*
D24*
X105816400Y-45466000D03*
D23*
X99669600Y-68300600D03*
X99669600Y-70612000D03*
X99669600Y-72923400D03*
D24*
X106070400Y-70612000D03*
D23*
X99669600Y-86080600D03*
X99669600Y-88392000D03*
X99669600Y-90703400D03*
D24*
X106070400Y-88392000D03*
D23*
X99669600Y-60680600D03*
X99669600Y-62992000D03*
X99669600Y-65303400D03*
D24*
X106070400Y-62992000D03*
D23*
X99669600Y-78714600D03*
X99669600Y-81026000D03*
X99669600Y-83337400D03*
D24*
X106070400Y-81026000D03*
D22*
X85768000Y-104648000D03*
X87968000Y-103698000D03*
X87968000Y-105598000D03*
X101516000Y-105156000D03*
X103716000Y-104206000D03*
X103716000Y-106106000D03*
X116756000Y-104648000D03*
X118956000Y-103698000D03*
X118956000Y-105598000D03*
X131234000Y-104902000D03*
X133434000Y-103952000D03*
X133434000Y-105852000D03*
D13*
X153924000Y-32686000D03*
X153924000Y-35386000D03*
X153924000Y-47672000D03*
X153924000Y-50372000D03*
X153924000Y-63928000D03*
X153924000Y-66628000D03*
X153924000Y-78660000D03*
X153924000Y-81360000D03*
X153924000Y-39290000D03*
X153924000Y-41990000D03*
X153924000Y-55292000D03*
X153924000Y-57992000D03*
X153924000Y-71294000D03*
X153924000Y-73994000D03*
X153924000Y-85518000D03*
X153924000Y-88218000D03*
X138938000Y-37672000D03*
X138938000Y-34972000D03*
X138938000Y-29892000D03*
X138938000Y-32592000D03*
X139192000Y-50372000D03*
X139192000Y-47672000D03*
X139192000Y-42592000D03*
X139192000Y-45292000D03*
D25*
X135208000Y-62611000D03*
X132508000Y-62611000D03*
X132571500Y-66459100D03*
X135271500Y-66459100D03*
X135335000Y-76327000D03*
X132635000Y-76327000D03*
X132635000Y-80264000D03*
X135335000Y-80264000D03*
X71040000Y-92202000D03*
X73740000Y-92202000D03*
X92884000Y-35814000D03*
X95584000Y-35814000D03*
X92884000Y-53340000D03*
X95584000Y-53340000D03*
D26*
X112014000Y-33234000D03*
X112014000Y-28234000D03*
X112014000Y-50760000D03*
X112014000Y-45760000D03*
D25*
X89488000Y-29718000D03*
X86788000Y-29718000D03*
X89488000Y-47244000D03*
X86788000Y-47244000D03*
D13*
X92964000Y-28782000D03*
X92964000Y-26082000D03*
X92710000Y-47070000D03*
X92710000Y-44370000D03*
X94996000Y-28782000D03*
X94996000Y-26082000D03*
X95504000Y-47070000D03*
X95504000Y-44370000D03*
D25*
X93138000Y-70612000D03*
X95838000Y-70612000D03*
X93138000Y-88138000D03*
X95838000Y-88138000D03*
D26*
X112014000Y-69556000D03*
X112014000Y-64556000D03*
X112014000Y-87590000D03*
X112014000Y-82590000D03*
D25*
X89742000Y-63754000D03*
X87042000Y-63754000D03*
X89742000Y-81026000D03*
X87042000Y-81026000D03*
D13*
X92710000Y-64088000D03*
X92710000Y-61388000D03*
X92710000Y-81614000D03*
X92710000Y-78914000D03*
X96012000Y-64088000D03*
X96012000Y-61388000D03*
X95758000Y-81614000D03*
X95758000Y-78914000D03*
X85598000Y-113618000D03*
X85598000Y-110918000D03*
X101346000Y-113618000D03*
X101346000Y-110918000D03*
X116586000Y-113618000D03*
X116586000Y-110918000D03*
X131064000Y-113872000D03*
X131064000Y-111172000D03*
D26*
X95250000Y-106974000D03*
X95250000Y-111974000D03*
X110490000Y-106974000D03*
X110490000Y-111974000D03*
X124968000Y-106974000D03*
X124968000Y-111974000D03*
X139954000Y-106974000D03*
X139954000Y-111974000D03*
D13*
X111252000Y-97456000D03*
X111252000Y-100156000D03*
X118110000Y-97456000D03*
X118110000Y-100156000D03*
X134366000Y-97456000D03*
X134366000Y-100156000D03*
X124460000Y-97456000D03*
X124460000Y-100156000D03*
X114554000Y-100156000D03*
X114554000Y-97456000D03*
X121412000Y-100156000D03*
X121412000Y-97456000D03*
X131064000Y-100156000D03*
X131064000Y-97456000D03*
X127762000Y-100156000D03*
X127762000Y-97456000D03*
D27*
X159512000Y-37592000D03*
X159512000Y-52324000D03*
X159766000Y-69342000D03*
X159766000Y-83312000D03*
X143002000Y-37592000D03*
X143002000Y-50546000D03*
X143002000Y-34036000D03*
X143002000Y-30226000D03*
X143002000Y-46990000D03*
X142748000Y-42672000D03*
D28*
X93726000Y-31292800D03*
X93726000Y-31927800D03*
X93726000Y-32588200D03*
X93726000Y-33223200D03*
X96266000Y-33223200D03*
X96266000Y-32588200D03*
X96266000Y-31927800D03*
X96266000Y-31292800D03*
X93472000Y-49072800D03*
X93472000Y-49707800D03*
X93472000Y-50368200D03*
X93472000Y-51003200D03*
X96012000Y-51003200D03*
X96012000Y-50368200D03*
X96012000Y-49707800D03*
X96012000Y-49072800D03*
X93726000Y-66344800D03*
X93726000Y-66979800D03*
X93726000Y-67640200D03*
X93726000Y-68275200D03*
X96266000Y-68275200D03*
X96266000Y-67640200D03*
X96266000Y-66979800D03*
X96266000Y-66344800D03*
X93472000Y-83870800D03*
X93472000Y-84505800D03*
X93472000Y-85166200D03*
X93472000Y-85801200D03*
X96012000Y-85801200D03*
X96012000Y-85166200D03*
X96012000Y-84505800D03*
X96012000Y-83870800D03*
D29*
X107594400Y-99796600D03*
X107594400Y-99314000D03*
X107594400Y-98806000D03*
X107594400Y-98298000D03*
X107594400Y-97815400D03*
X103225600Y-97815400D03*
X103225600Y-98298000D03*
X103225600Y-98806000D03*
X103225600Y-99314000D03*
X103225600Y-99796600D03*
D14*
X86184000Y-39370000D03*
X89534000Y-39370000D03*
X86184000Y-56642000D03*
X89534000Y-56642000D03*
X86438000Y-73406000D03*
X89788000Y-73406000D03*
X86692000Y-90678000D03*
X90042000Y-90678000D03*
D25*
X92884000Y-38608000D03*
X95584000Y-38608000D03*
X92884000Y-55626000D03*
X95584000Y-55626000D03*
X93138000Y-73406000D03*
X95838000Y-73406000D03*
X93138000Y-90678000D03*
X95838000Y-90678000D03*
D16*
X116840000Y-122872500D03*
D17*
X119380000Y-122872500D03*
D16*
X91440000Y-122872500D03*
D17*
X93980000Y-122872500D03*
D16*
X103886000Y-122872500D03*
D17*
X106426000Y-122872500D03*
D16*
X132334000Y-122745500D03*
D17*
X134874000Y-122745500D03*
D16*
X83058000Y-27432000D03*
X83058000Y-45212000D03*
X83058000Y-62484000D03*
X83058000Y-79248000D03*
D30*
X114856000Y-128841500D03*
X120856000Y-128841500D03*
X89583000Y-128714500D03*
X95583000Y-128714500D03*
X102029000Y-128714500D03*
X108029000Y-128714500D03*
X130350000Y-128841500D03*
X136350000Y-128841500D03*
D31*
X47244000Y-33888000D03*
X47244000Y-30988000D03*
X47244000Y-28088000D03*
D30*
X57960000Y-28956000D03*
X63960000Y-28956000D03*
D32*
X87396000Y-35052000D03*
X89896000Y-35052000D03*
X86888000Y-51816000D03*
X89388000Y-51816000D03*
X87142000Y-68580000D03*
X89642000Y-68580000D03*
X87142000Y-85852000D03*
X89642000Y-85852000D03*
X97282000Y-96794000D03*
X97282000Y-99294000D03*
D18*
X150495000Y-127381000D03*
D19*
X152495000Y-127381000D03*
D16*
X149987000Y-121158000D03*
D17*
X152527000Y-121158000D03*
D25*
X63928000Y-33782000D03*
X66628000Y-33782000D03*
D33*
X34734500Y-31178500D03*
X39814500Y-31178500D03*
X115316000Y-134874000D03*
X120396000Y-134874000D03*
X89916000Y-134874000D03*
X94996000Y-134874000D03*
X102362000Y-134874000D03*
X107442000Y-134874000D03*
X130810000Y-134874000D03*
X135890000Y-134874000D03*
D32*
X84562000Y-30480000D03*
X82062000Y-30480000D03*
X84308000Y-48006000D03*
X81808000Y-48006000D03*
X84562000Y-65532000D03*
X82062000Y-65532000D03*
X84562000Y-82804000D03*
X82062000Y-82804000D03*
D34*
X165100000Y-32004000D03*
X165100000Y-37084000D03*
X165100000Y-42164000D03*
X165100000Y-48006000D03*
X165100000Y-53086000D03*
X165100000Y-58166000D03*
X165100000Y-64008000D03*
X165100000Y-69088000D03*
X165100000Y-74168000D03*
X165100000Y-80010000D03*
X165100000Y-85090000D03*
X165100000Y-90170000D03*
D35*
X101854000Y-92202000D03*
X101346000Y-96774000D03*
X46990000Y-55372000D03*
X61722000Y-33782000D03*
X66802000Y-28956000D03*
X94234000Y-78994000D03*
X83566000Y-84582000D03*
X91440000Y-85344000D03*
X102362000Y-73152000D03*
X83312000Y-67310000D03*
X91440000Y-67564000D03*
X94488000Y-61468000D03*
X83058000Y-49530000D03*
X101854000Y-55118000D03*
X91440000Y-50800000D03*
X94234000Y-44450000D03*
X86106000Y-31750000D03*
X102870000Y-38100000D03*
X91694000Y-32766000D03*
X91440000Y-26162000D03*
X85852000Y-102870000D03*
X109474000Y-99568000D03*
X100330000Y-104394000D03*
X112522000Y-96266000D03*
X116332000Y-97028000D03*
X114808000Y-104648000D03*
X123444000Y-96520000D03*
X129286000Y-104902000D03*
X137160000Y-97536000D03*
X82804000Y-112014000D03*
X80518000Y-114300000D03*
X97536000Y-91948000D03*
X85598000Y-85852000D03*
X97790000Y-73660000D03*
X85090000Y-68834000D03*
X85344000Y-51816000D03*
X97790000Y-56134000D03*
X91186000Y-45720000D03*
X97536000Y-39370000D03*
X85344000Y-33528000D03*
X101854000Y-25400000D03*
X101854000Y-43180000D03*
X102108000Y-60706000D03*
X102616000Y-78740000D03*
X101854000Y-108966000D03*
X117348000Y-108712000D03*
X131826000Y-109220000D03*
X87884000Y-125476000D03*
X106172000Y-83820000D03*
X106680000Y-66040000D03*
X106172000Y-48514000D03*
X105664000Y-30480000D03*
X91440000Y-62738000D03*
X105156000Y-99314000D03*
X103632000Y-74168000D03*
X107696000Y-74168000D03*
X106172000Y-85344000D03*
X106680000Y-67564000D03*
X106172000Y-50038000D03*
X105664000Y-32258000D03*
X91186000Y-79502000D03*
X101854000Y-100584000D03*
X69850000Y-55118000D03*
X72390000Y-54864000D03*
X136398000Y-69088000D03*
X136652000Y-82550000D03*
X27178000Y-55626000D03*
X28194000Y-37338000D03*
X67310000Y-84074000D03*
X101854000Y-32766000D03*
X101854000Y-50546000D03*
X102108000Y-68326000D03*
X102616000Y-85852000D03*
D36*
X99669600Y-90703400D02*
X100355400Y-90703400D01*
X100355400Y-90703400D02*
X101854000Y-92202000D01*
X99568000Y-96794000D02*
X99588000Y-96774000D01*
X99588000Y-96774000D02*
X101346000Y-96774000D01*
X73660000Y-31496000D02*
X73660000Y-31750000D01*
X73660000Y-31750000D02*
X76200000Y-34290000D01*
X76200000Y-34290000D02*
X76200000Y-40386000D01*
D37*
X86888000Y-49784000D02*
X83312000Y-49784000D01*
X83312000Y-49784000D02*
X83058000Y-49530000D01*
D38*
X45720000Y-50546000D02*
X46228000Y-50546000D01*
X46228000Y-50546000D02*
X46990000Y-51308000D01*
X46990000Y-51308000D02*
X46990000Y-55372000D01*
D37*
X73740000Y-92202000D02*
X73740000Y-88726000D01*
X73740000Y-88726000D02*
X73660000Y-88646000D01*
X73660000Y-88646000D02*
X76200000Y-86106000D01*
X73660000Y-98806000D02*
X76200000Y-96266000D01*
D36*
X63928000Y-33782000D02*
X61722000Y-33782000D01*
X63960000Y-28956000D02*
X66802000Y-28956000D01*
X95758000Y-78914000D02*
X95678000Y-78994000D01*
X95678000Y-78994000D02*
X94234000Y-78994000D01*
D37*
X87142000Y-83566000D02*
X86360000Y-83566000D01*
X86360000Y-83566000D02*
X85344000Y-84582000D01*
X85344000Y-84582000D02*
X83566000Y-84582000D01*
D38*
X93472000Y-85166200D02*
X91617800Y-85166200D01*
X91617800Y-85166200D02*
X91440000Y-85344000D01*
D36*
X99669600Y-72923400D02*
X102133400Y-72923400D01*
X102133400Y-72923400D02*
X102362000Y-73152000D01*
X87142000Y-66548000D02*
X86360000Y-66548000D01*
X86360000Y-66548000D02*
X85598000Y-67310000D01*
X85598000Y-67310000D02*
X83312000Y-67310000D01*
D39*
X93726000Y-67640200D02*
X91516200Y-67640200D01*
X91516200Y-67640200D02*
X91440000Y-67564000D01*
D37*
X96012000Y-61388000D02*
X94568000Y-61388000D01*
X94568000Y-61388000D02*
X94488000Y-61468000D01*
D36*
X99415600Y-55143400D02*
X101828600Y-55143400D01*
X101828600Y-55143400D02*
X101854000Y-55118000D01*
D38*
X93472000Y-50368200D02*
X91871800Y-50368200D01*
X91871800Y-50368200D02*
X91440000Y-50800000D01*
D37*
X95504000Y-44370000D02*
X94314000Y-44370000D01*
X94314000Y-44370000D02*
X94234000Y-44450000D01*
D36*
X87396000Y-33020000D02*
X87376000Y-33020000D01*
X87376000Y-33020000D02*
X86106000Y-31750000D01*
X99415600Y-37363400D02*
X102133400Y-37363400D01*
X102133400Y-37363400D02*
X102870000Y-38100000D01*
D39*
X93726000Y-32588200D02*
X91871800Y-32588200D01*
X91871800Y-32588200D02*
X91694000Y-32766000D01*
D38*
X91440000Y-26162000D02*
X91520000Y-26082000D01*
D36*
X92964000Y-26082000D02*
X91520000Y-26082000D01*
X91520000Y-26082000D02*
X91440000Y-26162000D01*
X92964000Y-26082000D02*
X94996000Y-26082000D01*
X85768000Y-104648000D02*
X85598000Y-104648000D01*
X85598000Y-104648000D02*
X85852000Y-104140000D01*
X85852000Y-104140000D02*
X85852000Y-102870000D01*
D39*
X107594400Y-99796600D02*
X109245400Y-99796600D01*
X109220000Y-98806000D02*
X109474000Y-99060000D01*
X109474000Y-99060000D02*
X109474000Y-99568000D01*
X109220000Y-98806000D02*
X107594400Y-98806000D01*
X109245400Y-99796600D02*
X109474000Y-99568000D01*
D36*
X101516000Y-105156000D02*
X101092000Y-105156000D01*
X101092000Y-105156000D02*
X100330000Y-104394000D01*
X111252000Y-97456000D02*
X111332000Y-97456000D01*
X111332000Y-97456000D02*
X112522000Y-96266000D01*
X118110000Y-97456000D02*
X116760000Y-97456000D01*
X116760000Y-97456000D02*
X116332000Y-97028000D01*
X116756000Y-104648000D02*
X114808000Y-104648000D01*
X124460000Y-97456000D02*
X124380000Y-97456000D01*
X124380000Y-97456000D02*
X123444000Y-96520000D01*
X131234000Y-104902000D02*
X129286000Y-104902000D01*
X134366000Y-97456000D02*
X137080000Y-97456000D01*
X137080000Y-97456000D02*
X137160000Y-97536000D01*
X150114000Y-86106000D02*
X151384000Y-86106000D01*
X151972000Y-85518000D02*
X153924000Y-85518000D01*
X151384000Y-86106000D02*
X151972000Y-85518000D01*
X149860000Y-71628000D02*
X153590000Y-71628000D01*
X153590000Y-71628000D02*
X153924000Y-71294000D01*
X149606000Y-55372000D02*
X153844000Y-55372000D01*
X153844000Y-55372000D02*
X153924000Y-55292000D01*
X149733000Y-39878000D02*
X151638000Y-39878000D01*
X152226000Y-39290000D02*
X153924000Y-39290000D01*
X151638000Y-39878000D02*
X152226000Y-39290000D01*
D39*
X89896000Y-35052000D02*
X90912000Y-34036000D01*
X93726000Y-33223200D02*
X93268800Y-33223200D01*
X93268800Y-33223200D02*
X92456000Y-34036000D01*
X92456000Y-34036000D02*
X90912000Y-34036000D01*
X90912000Y-34036000D02*
X89896000Y-33020000D01*
D38*
X89388000Y-51816000D02*
X89408000Y-51816000D01*
X89408000Y-51816000D02*
X89916000Y-52324000D01*
X89916000Y-52324000D02*
X91694000Y-52324000D01*
X91694000Y-52324000D02*
X93014800Y-51003200D01*
X93014800Y-51003200D02*
X93472000Y-51003200D01*
X89388000Y-49784000D02*
X89388000Y-51816000D01*
X89642000Y-68580000D02*
X89916000Y-68580000D01*
X89916000Y-68580000D02*
X90424000Y-69088000D01*
X90424000Y-69088000D02*
X92913200Y-69088000D01*
X92913200Y-69088000D02*
X93726000Y-68275200D01*
X89642000Y-66548000D02*
X89642000Y-68580000D01*
D37*
X89642000Y-83566000D02*
X89642000Y-85852000D01*
D39*
X93472000Y-85801200D02*
X93268800Y-85801200D01*
X93268800Y-85801200D02*
X92456000Y-86614000D01*
X92456000Y-86614000D02*
X90404000Y-86614000D01*
X90404000Y-86614000D02*
X89642000Y-85852000D01*
D37*
X88580002Y-21401998D02*
X88646000Y-21336000D01*
X109220000Y-91694000D02*
X112776000Y-91694000D01*
X106680000Y-94234000D02*
X109220000Y-91694000D01*
X98298000Y-94234000D02*
X106680000Y-94234000D01*
X97282000Y-95250000D02*
X98298000Y-94234000D01*
X97282000Y-96794000D02*
X97282000Y-95250000D01*
X50292000Y-32766000D02*
X48514000Y-30988000D01*
X54102000Y-32766000D02*
X50292000Y-32766000D01*
X55372000Y-31496000D02*
X54102000Y-32766000D01*
X55372000Y-27432000D02*
X55372000Y-31496000D01*
X57150000Y-25654000D02*
X55372000Y-27432000D01*
X84328000Y-25654000D02*
X57150000Y-25654000D01*
X88580002Y-21401998D02*
X84328000Y-25654000D01*
X114300000Y-26670000D02*
X109031998Y-21401998D01*
X114300000Y-90170000D02*
X112776000Y-91694000D01*
X114300000Y-26670000D02*
X114300000Y-90170000D01*
X108966000Y-21336000D02*
X109031998Y-21401998D01*
X88646000Y-21336000D02*
X108966000Y-21336000D01*
X48514000Y-30988000D02*
X47244000Y-30988000D01*
D40*
X47244000Y-30988000D02*
X47053500Y-31178500D01*
X47053500Y-31178500D02*
X39814500Y-31178500D01*
D36*
X159512000Y-37592000D02*
X157480000Y-37592000D01*
X157480000Y-37592000D02*
X157226000Y-37338000D01*
X149733000Y-37338000D02*
X157226000Y-37338000D01*
X157226000Y-38782000D02*
X157226000Y-37338000D01*
X157226000Y-37338000D02*
X157226000Y-35386000D01*
X157226000Y-35386000D02*
X160608000Y-35386000D01*
X162306000Y-37084000D02*
X165100000Y-37084000D01*
X160608000Y-35386000D02*
X162306000Y-37084000D01*
X153924000Y-32686000D02*
X157226000Y-32686000D01*
X165100000Y-53086000D02*
X160274000Y-53086000D01*
X160274000Y-53086000D02*
X159512000Y-52324000D01*
X157226000Y-52832000D02*
X159004000Y-52832000D01*
X159004000Y-52832000D02*
X159512000Y-52324000D01*
X149606000Y-52832000D02*
X157226000Y-52832000D01*
X157226000Y-52832000D02*
X157226000Y-52578000D01*
X157226000Y-50372000D02*
X157226000Y-52578000D01*
X157226000Y-52578000D02*
X157226000Y-55292000D01*
X153924000Y-47672000D02*
X157226000Y-47672000D01*
X159766000Y-69342000D02*
X164846000Y-69342000D01*
X164846000Y-69342000D02*
X165100000Y-69088000D01*
X149860000Y-69088000D02*
X157226000Y-69088000D01*
X157226000Y-69088000D02*
X157480000Y-69342000D01*
X157480000Y-69342000D02*
X159766000Y-69342000D01*
X157480000Y-66628000D02*
X157480000Y-69342000D01*
X157480000Y-69342000D02*
X157480000Y-71294000D01*
X153924000Y-63928000D02*
X157480000Y-63928000D01*
X159766000Y-83312000D02*
X161290000Y-83312000D01*
X163068000Y-85090000D02*
X165100000Y-85090000D01*
X161290000Y-83312000D02*
X163068000Y-85090000D01*
X159766000Y-83312000D02*
X157734000Y-83312000D01*
X157734000Y-83312000D02*
X157480000Y-83566000D01*
X157480000Y-83566000D02*
X150114000Y-83566000D01*
X157480000Y-81360000D02*
X157480000Y-83566000D01*
X157480000Y-83566000D02*
X157480000Y-85010000D01*
X153924000Y-78660000D02*
X157480000Y-78660000D01*
X153924000Y-41990000D02*
X157226000Y-41990000D01*
X153924000Y-57992000D02*
X157226000Y-57992000D01*
X153924000Y-73994000D02*
X157480000Y-73994000D01*
X153924000Y-88218000D02*
X157480000Y-88218000D01*
X66628000Y-33782000D02*
X66628000Y-39798000D01*
X66628000Y-39798000D02*
X66040000Y-40386000D01*
X82804000Y-112014000D02*
X82804000Y-111760000D01*
X80518000Y-114300000D02*
X80772000Y-114554000D01*
X80772000Y-114554000D02*
X82804000Y-114554000D01*
D38*
X66040000Y-40386000D02*
X64770000Y-41656000D01*
X64770000Y-41656000D02*
X64770000Y-49276000D01*
X64770000Y-49276000D02*
X66040000Y-50546000D01*
D37*
X95838000Y-88138000D02*
X95838000Y-90678000D01*
X95838000Y-90678000D02*
X97108000Y-91948000D01*
X97108000Y-91948000D02*
X97536000Y-91948000D01*
X87142000Y-85852000D02*
X85598000Y-85852000D01*
D36*
X95838000Y-70612000D02*
X95838000Y-73406000D01*
X95838000Y-73406000D02*
X96092000Y-73660000D01*
X96092000Y-73660000D02*
X97790000Y-73660000D01*
X87142000Y-68580000D02*
X86614000Y-68580000D01*
X86614000Y-68580000D02*
X86360000Y-68834000D01*
X86360000Y-68834000D02*
X85090000Y-68834000D01*
X95584000Y-55626000D02*
X96092000Y-56134000D01*
X96092000Y-56134000D02*
X97790000Y-56134000D01*
D37*
X86888000Y-51816000D02*
X85344000Y-51816000D01*
X95584000Y-53340000D02*
X95584000Y-55626000D01*
X95584000Y-55626000D02*
X95838000Y-55880000D01*
X92710000Y-44370000D02*
X92536000Y-44370000D01*
X92536000Y-44370000D02*
X91186000Y-45720000D01*
X95584000Y-38608000D02*
X95758000Y-38608000D01*
X95758000Y-38608000D02*
X96520000Y-39370000D01*
X96520000Y-39370000D02*
X97536000Y-39370000D01*
X95584000Y-35814000D02*
X95584000Y-38608000D01*
X87396000Y-35052000D02*
X86868000Y-35052000D01*
X86868000Y-35052000D02*
X85344000Y-33528000D01*
D36*
X116586000Y-110918000D02*
X115650000Y-110918000D01*
X113792000Y-112776000D02*
X113792000Y-117094000D01*
X115650000Y-110918000D02*
X113792000Y-112776000D01*
X101346000Y-110918000D02*
X99394000Y-110918000D01*
X98044000Y-112268000D02*
X98044000Y-117094000D01*
X99394000Y-110918000D02*
X98044000Y-112268000D01*
X131064000Y-111172000D02*
X128952000Y-111172000D01*
X83646000Y-110918000D02*
X85598000Y-110918000D01*
X82804000Y-111760000D02*
X83646000Y-110918000D01*
X82804000Y-116078000D02*
X82804000Y-114554000D01*
X82804000Y-114554000D02*
X82804000Y-111760000D01*
X83820000Y-117094000D02*
X82804000Y-116078000D01*
X120396000Y-117094000D02*
X113792000Y-117094000D01*
X113792000Y-117094000D02*
X98044000Y-117094000D01*
X98044000Y-117094000D02*
X83820000Y-117094000D01*
X121666000Y-115824000D02*
X120396000Y-117094000D01*
X121666000Y-110236000D02*
X121666000Y-115824000D01*
X122428000Y-109474000D02*
X121666000Y-110236000D01*
X127254000Y-109474000D02*
X122428000Y-109474000D01*
X128952000Y-111172000D02*
X127254000Y-109474000D01*
X99415600Y-25374600D02*
X101828600Y-25374600D01*
X101828600Y-25374600D02*
X101854000Y-25400000D01*
D37*
X83058000Y-34798000D02*
X83898000Y-34798000D01*
X83898000Y-34798000D02*
X86184000Y-37084000D01*
X89534000Y-37084000D02*
X91614000Y-37084000D01*
X91614000Y-37084000D02*
X92884000Y-35814000D01*
D36*
X99415600Y-43154600D02*
X101828600Y-43154600D01*
X101828600Y-43154600D02*
X101854000Y-43180000D01*
D37*
X86184000Y-54102000D02*
X84582000Y-54102000D01*
X84582000Y-54102000D02*
X83058000Y-52578000D01*
X89534000Y-54102000D02*
X92122000Y-54102000D01*
X92122000Y-54102000D02*
X92884000Y-53340000D01*
D36*
X99669600Y-60680600D02*
X102082600Y-60680600D01*
X102082600Y-60680600D02*
X102108000Y-60706000D01*
D37*
X83058000Y-70358000D02*
X84582000Y-70358000D01*
X84582000Y-70358000D02*
X84836000Y-70612000D01*
X84836000Y-70612000D02*
X86438000Y-70612000D01*
X89788000Y-70612000D02*
X93138000Y-70612000D01*
D36*
X99669600Y-78714600D02*
X102590600Y-78714600D01*
X102590600Y-78714600D02*
X102616000Y-78740000D01*
D37*
X83312000Y-87122000D02*
X85676000Y-87122000D01*
X85676000Y-87122000D02*
X86692000Y-88138000D01*
X90042000Y-88138000D02*
X93138000Y-88138000D01*
D36*
X88392000Y-110314000D02*
X88392000Y-108966000D01*
X88392000Y-108966000D02*
X87376000Y-107950000D01*
X85598000Y-100330000D02*
X84836000Y-100330000D01*
X84836000Y-100330000D02*
X83820000Y-101346000D01*
X83820000Y-101346000D02*
X83820000Y-107188000D01*
X83820000Y-107188000D02*
X84582000Y-107950000D01*
X84582000Y-107950000D02*
X87376000Y-107950000D01*
X87376000Y-107950000D02*
X87884000Y-107950000D01*
X87884000Y-107950000D02*
X87968000Y-107866000D01*
X87968000Y-107866000D02*
X87968000Y-105598000D01*
X85598000Y-113618000D02*
X88346000Y-113618000D01*
X88346000Y-113618000D02*
X88392000Y-113664000D01*
D37*
X101854000Y-108966000D02*
X103716000Y-108966000D01*
D36*
X103716000Y-106106000D02*
X103716000Y-108966000D01*
X103716000Y-108966000D02*
X103716000Y-110398000D01*
X103716000Y-110398000D02*
X103886000Y-110568000D01*
X101346000Y-113618000D02*
X103586000Y-113618000D01*
X103586000Y-113618000D02*
X103886000Y-113918000D01*
D37*
X118956000Y-108712000D02*
X117348000Y-108712000D01*
D36*
X118956000Y-105598000D02*
X118956000Y-108712000D01*
X118956000Y-108712000D02*
X118956000Y-110398000D01*
X118956000Y-110398000D02*
X119126000Y-110568000D01*
X116586000Y-113618000D02*
X118826000Y-113618000D01*
X118826000Y-113618000D02*
X119126000Y-113918000D01*
D37*
X131826000Y-109220000D02*
X133434000Y-109220000D01*
D36*
X133434000Y-105852000D02*
X133434000Y-109220000D01*
X133434000Y-109220000D02*
X133434000Y-110398000D01*
X133434000Y-110398000D02*
X133858000Y-110822000D01*
X131064000Y-113872000D02*
X133558000Y-113872000D01*
X133558000Y-113872000D02*
X133858000Y-114172000D01*
X50038000Y-25400000D02*
X50926000Y-25400000D01*
X50926000Y-25400000D02*
X52578000Y-27052000D01*
D37*
X76200000Y-98806000D02*
X76200000Y-100584000D01*
X76200000Y-100584000D02*
X75438000Y-101346000D01*
X75438000Y-101346000D02*
X28194000Y-101346000D01*
X28194000Y-101346000D02*
X26162000Y-99314000D01*
X26162000Y-99314000D02*
X26162000Y-33528000D01*
X26162000Y-33528000D02*
X30988000Y-28702000D01*
X30988000Y-28702000D02*
X40132000Y-28702000D01*
X40132000Y-28702000D02*
X43434000Y-25400000D01*
X43434000Y-25400000D02*
X50038000Y-25400000D01*
D36*
X99415600Y-29997400D02*
X98069400Y-29997400D01*
X98069400Y-29997400D02*
X97282000Y-29210000D01*
X97282000Y-29210000D02*
X97282000Y-24638000D01*
X97282000Y-24638000D02*
X96520000Y-23876000D01*
X96520000Y-23876000D02*
X90678000Y-23876000D01*
X90678000Y-23876000D02*
X89838000Y-24716000D01*
X89838000Y-24716000D02*
X89838000Y-26416000D01*
X89838000Y-44450000D02*
X89838000Y-43766000D01*
X89838000Y-43766000D02*
X91186000Y-42418000D01*
X91186000Y-42418000D02*
X96774000Y-42418000D01*
X96774000Y-42418000D02*
X97282000Y-42926000D01*
X97282000Y-42926000D02*
X97282000Y-46990000D01*
X97282000Y-46990000D02*
X98069400Y-47777400D01*
X98069400Y-47777400D02*
X99415600Y-47777400D01*
X90092000Y-60276000D02*
X90678000Y-59690000D01*
X99669600Y-65303400D02*
X98577400Y-65303400D01*
X97536000Y-64262000D02*
X98577400Y-65303400D01*
X97536000Y-59944000D02*
X97536000Y-64262000D01*
X90092000Y-60276000D02*
X90092000Y-61468000D01*
X97282000Y-59690000D02*
X97536000Y-59944000D01*
X90678000Y-59690000D02*
X97282000Y-59690000D01*
X90092000Y-77978000D02*
X90092000Y-77548000D01*
X90092000Y-77548000D02*
X90678000Y-76962000D01*
X90678000Y-76962000D02*
X96774000Y-76962000D01*
X96774000Y-76962000D02*
X97536000Y-77724000D01*
X97536000Y-77724000D02*
X97536000Y-82804000D01*
X97536000Y-82804000D02*
X98069400Y-83337400D01*
X98069400Y-83337400D02*
X99669600Y-83337400D01*
X95250000Y-111974000D02*
X95250000Y-110236000D01*
X108712000Y-102696000D02*
X99996000Y-102696000D01*
X99996000Y-102696000D02*
X98298000Y-104394000D01*
X108712000Y-102696000D02*
X111252000Y-100156000D01*
X98298000Y-107188000D02*
X98298000Y-104394000D01*
X95250000Y-110236000D02*
X98298000Y-107188000D01*
X111252000Y-100156000D02*
X114554000Y-100156000D01*
X118110000Y-100156000D02*
X121412000Y-100156000D01*
X118110000Y-100156000D02*
X118110000Y-101346000D01*
X112308000Y-111974000D02*
X110490000Y-111974000D01*
X113284000Y-110998000D02*
X112308000Y-111974000D01*
X113284000Y-103632000D02*
X113284000Y-110998000D01*
X114300000Y-102616000D02*
X113284000Y-103632000D01*
X116840000Y-102616000D02*
X114300000Y-102616000D01*
X118110000Y-101346000D02*
X116840000Y-102616000D01*
D37*
X75120500Y-127444500D02*
X85915500Y-127444500D01*
X85915500Y-127444500D02*
X87884000Y-125476000D01*
D36*
X134366000Y-100156000D02*
X140542000Y-100156000D01*
X143764000Y-114300000D02*
X141732000Y-116332000D01*
X141732000Y-116332000D02*
X126492000Y-116332000D01*
X126492000Y-116332000D02*
X124968000Y-114808000D01*
X124968000Y-114808000D02*
X124968000Y-111974000D01*
X143764000Y-103378000D02*
X143764000Y-114300000D01*
X140542000Y-100156000D02*
X143764000Y-103378000D01*
X131064000Y-100156000D02*
X134366000Y-100156000D01*
X127762000Y-100156000D02*
X127762000Y-100838000D01*
X127762000Y-100838000D02*
X129032000Y-102108000D01*
X129032000Y-102108000D02*
X139700000Y-102108000D01*
X139700000Y-102108000D02*
X142240000Y-104648000D01*
X142240000Y-104648000D02*
X142240000Y-109688000D01*
X142240000Y-109688000D02*
X139954000Y-111974000D01*
X124460000Y-100156000D02*
X127762000Y-100156000D01*
D37*
X79248000Y-100076000D02*
X76962000Y-102362000D01*
X76962000Y-102362000D02*
X75946000Y-102362000D01*
X69215000Y-102489000D02*
X69342000Y-102362000D01*
X69342000Y-102362000D02*
X75946000Y-102362000D01*
X68072000Y-125476000D02*
X68072000Y-103632000D01*
X79248000Y-33294000D02*
X79248000Y-100076000D01*
X79248000Y-33294000D02*
X82062000Y-30480000D01*
X79248000Y-100076000D02*
X79248000Y-100076000D01*
X68072000Y-103632000D02*
X69215000Y-102489000D01*
X69215000Y-102489000D02*
X69280002Y-102423998D01*
D38*
X75120500Y-124904500D02*
X75120500Y-125031500D01*
X75120500Y-125031500D02*
X73914000Y-126238000D01*
X73914000Y-126238000D02*
X69088000Y-126238000D01*
D37*
X69088000Y-126238000D02*
X68834000Y-126238000D01*
X68834000Y-126238000D02*
X68072000Y-125476000D01*
X80010000Y-99568000D02*
X80010000Y-100584000D01*
X77470000Y-103124000D02*
X78740000Y-101854000D01*
X78740000Y-101854000D02*
X79756000Y-100838000D01*
X79756000Y-100838000D02*
X80010000Y-100584000D01*
X77216000Y-103124000D02*
X70104000Y-103124000D01*
X68834000Y-124460000D02*
X68834000Y-104394000D01*
X68834000Y-104394000D02*
X70104000Y-103124000D01*
X69342000Y-124968000D02*
X72517000Y-124968000D01*
X69342000Y-124968000D02*
X68834000Y-124460000D01*
X77216000Y-103124000D02*
X77470000Y-103124000D01*
X80010000Y-49804000D02*
X80010000Y-99568000D01*
X80010000Y-99568000D02*
X80010000Y-100330000D01*
X80010000Y-49804000D02*
X81808000Y-48006000D01*
X72580500Y-124904500D02*
X72517000Y-124968000D01*
X77724000Y-103886000D02*
X77978000Y-103886000D01*
X69596000Y-104902000D02*
X70612000Y-103886000D01*
X69596000Y-121920000D02*
X69596000Y-104902000D01*
D38*
X69596000Y-122682000D02*
X69596000Y-121920000D01*
D39*
X70612000Y-123698000D02*
X69596000Y-122682000D01*
X74168000Y-123698000D02*
X70612000Y-123698000D01*
X75120500Y-122745500D02*
X74168000Y-123698000D01*
D37*
X70612000Y-103886000D02*
X77724000Y-103886000D01*
X80772000Y-101092000D02*
X80772000Y-100584000D01*
X77978000Y-103886000D02*
X80772000Y-101092000D01*
X75120500Y-122364500D02*
X75120500Y-122745500D01*
X80772000Y-100838000D02*
X80772000Y-100584000D01*
X80772000Y-100584000D02*
X80772000Y-66822000D01*
X80772000Y-66822000D02*
X82062000Y-65532000D01*
X78486000Y-104648000D02*
X81534000Y-101600000D01*
X82062000Y-83038000D02*
X81534000Y-83566000D01*
X81534000Y-101346000D02*
X81534000Y-83566000D01*
X71374000Y-104648000D02*
X78232000Y-104648000D01*
X70612000Y-121666000D02*
X70612000Y-105410000D01*
X70612000Y-105410000D02*
X71374000Y-104648000D01*
X71310500Y-122364500D02*
X72580500Y-122364500D01*
X71310500Y-122364500D02*
X70612000Y-121666000D01*
X78486000Y-104648000D02*
X78232000Y-104648000D01*
X81534000Y-101600000D02*
X81534000Y-101346000D01*
X82062000Y-82804000D02*
X82062000Y-83038000D01*
D38*
X79248000Y-118364000D02*
X79248000Y-106426000D01*
X79248000Y-106426000D02*
X82804000Y-102870000D01*
X82804000Y-102870000D02*
X82804000Y-99314000D01*
X82804000Y-99314000D02*
X83820000Y-98298000D01*
X83820000Y-98298000D02*
X93726000Y-98298000D01*
X105156000Y-99314000D02*
X105410000Y-99568000D01*
X105410000Y-99568000D02*
X105410000Y-101346000D01*
X98298000Y-102870000D02*
X99568000Y-101600000D01*
X99568000Y-101600000D02*
X105156000Y-101600000D01*
X105156000Y-101600000D02*
X105410000Y-101346000D01*
X95758000Y-102870000D02*
X98298000Y-102870000D01*
X93726000Y-98298000D02*
X94996000Y-99568000D01*
X94996000Y-99568000D02*
X94996000Y-102108000D01*
X94996000Y-102108000D02*
X95758000Y-102870000D01*
X75120500Y-119824500D02*
X77787500Y-119824500D01*
X77787500Y-119824500D02*
X79248000Y-118364000D01*
X96012000Y-85166200D02*
X97205800Y-85166200D01*
X97205800Y-85166200D02*
X98044000Y-84328000D01*
X98044000Y-84328000D02*
X105664000Y-84328000D01*
X105664000Y-84328000D02*
X106172000Y-83820000D01*
X96266000Y-67640200D02*
X97205800Y-67640200D01*
X97205800Y-67640200D02*
X98552000Y-66294000D01*
X98552000Y-66294000D02*
X106426000Y-66294000D01*
X106426000Y-66294000D02*
X106680000Y-66040000D01*
X96012000Y-50368200D02*
X96951800Y-50368200D01*
X96951800Y-50368200D02*
X97282000Y-50038000D01*
X97282000Y-50038000D02*
X97282000Y-49530000D01*
X97282000Y-49530000D02*
X98044000Y-48768000D01*
X98044000Y-48768000D02*
X105918000Y-48768000D01*
X105918000Y-48768000D02*
X106172000Y-48514000D01*
X96266000Y-32588200D02*
X97205800Y-32588200D01*
X97205800Y-32588200D02*
X97536000Y-32258000D01*
X97536000Y-32258000D02*
X97536000Y-31750000D01*
X97536000Y-31750000D02*
X98044000Y-31242000D01*
X98044000Y-31242000D02*
X104902000Y-31242000D01*
X104902000Y-31242000D02*
X105664000Y-30480000D01*
D37*
X92710000Y-61388000D02*
X92710000Y-61468000D01*
X92710000Y-61468000D02*
X91440000Y-62738000D01*
D39*
X103225600Y-99314000D02*
X105156000Y-99314000D01*
X97790000Y-49784000D02*
X98044000Y-49530000D01*
D38*
X97790000Y-50546000D02*
X97790000Y-49784000D01*
X97332800Y-51003200D02*
X97790000Y-50546000D01*
X96012000Y-51003200D02*
X97332800Y-51003200D01*
D39*
X105664000Y-49530000D02*
X106172000Y-50038000D01*
X103124000Y-49530000D02*
X105664000Y-49530000D01*
X98044000Y-49530000D02*
X103124000Y-49530000D01*
D38*
X83566000Y-97536000D02*
X93726000Y-97536000D01*
X78486000Y-118110000D02*
X78486000Y-105918000D01*
X78486000Y-105918000D02*
X82296000Y-102108000D01*
X82296000Y-102108000D02*
X82296000Y-98806000D01*
X82296000Y-98806000D02*
X83566000Y-97536000D01*
D39*
X103225600Y-99796600D02*
X102641400Y-99796600D01*
X102641400Y-99796600D02*
X101854000Y-100584000D01*
X96012000Y-102108000D02*
X98044000Y-102108000D01*
X98044000Y-102108000D02*
X99060000Y-101092000D01*
X99060000Y-101092000D02*
X101346000Y-101092000D01*
X101346000Y-101092000D02*
X101854000Y-100584000D01*
D38*
X93726000Y-97536000D02*
X95504000Y-99314000D01*
X95504000Y-99314000D02*
X95504000Y-101600000D01*
X95504000Y-101600000D02*
X96012000Y-102108000D01*
X72580500Y-119824500D02*
X72580500Y-119697500D01*
X72580500Y-119697500D02*
X73660000Y-118618000D01*
X73660000Y-118618000D02*
X77978000Y-118618000D01*
X77978000Y-118618000D02*
X78486000Y-118110000D01*
X103632000Y-74168000D02*
X107696000Y-74168000D01*
X96012000Y-85801200D02*
X97332800Y-85801200D01*
X97332800Y-85801200D02*
X98298000Y-84836000D01*
X98298000Y-84836000D02*
X105664000Y-84836000D01*
X105664000Y-84836000D02*
X106172000Y-85344000D01*
X96266000Y-68275200D02*
X97586800Y-68275200D01*
X97586800Y-68275200D02*
X99060000Y-66802000D01*
X99060000Y-66802000D02*
X105918000Y-66802000D01*
X105918000Y-66802000D02*
X106680000Y-67564000D01*
X98298000Y-31750000D02*
X105156000Y-31750000D01*
X105156000Y-31750000D02*
X105664000Y-32258000D01*
X96266000Y-33223200D02*
X97586800Y-33223200D01*
X97586800Y-33223200D02*
X98044000Y-32766000D01*
X98044000Y-32766000D02*
X98044000Y-32004000D01*
X98044000Y-32004000D02*
X98298000Y-31750000D01*
D36*
X92710000Y-78914000D02*
X92122000Y-79502000D01*
X92122000Y-79502000D02*
X91186000Y-79502000D01*
D39*
X69850000Y-55118000D02*
X69850000Y-52070000D01*
X69850000Y-52070000D02*
X71120000Y-50800000D01*
X71120000Y-50800000D02*
X71120000Y-50546000D01*
D38*
X71120000Y-40386000D02*
X69850000Y-41656000D01*
X69850000Y-41656000D02*
X69850000Y-49276000D01*
X69850000Y-49276000D02*
X71120000Y-50546000D01*
D39*
X72390000Y-54864000D02*
X72390000Y-51562000D01*
X72390000Y-51562000D02*
X73406000Y-50546000D01*
X73406000Y-50546000D02*
X73660000Y-50546000D01*
D38*
X73660000Y-40386000D02*
X72390000Y-41656000D01*
X72390000Y-41656000D02*
X72390000Y-49276000D01*
X72390000Y-49276000D02*
X73660000Y-50546000D01*
D37*
X35306000Y-99060000D02*
X35560000Y-98806000D01*
D36*
X149733000Y-34798000D02*
X149733000Y-31369000D01*
X162814000Y-29718000D02*
X165100000Y-32004000D01*
X151384000Y-29718000D02*
X162814000Y-29718000D01*
X149733000Y-31369000D02*
X151384000Y-29718000D01*
X149733000Y-34798000D02*
X151384000Y-34798000D01*
X151972000Y-35386000D02*
X153924000Y-35386000D01*
X151384000Y-34798000D02*
X151972000Y-35386000D01*
X165100000Y-48006000D02*
X162052000Y-48006000D01*
X149606000Y-46482000D02*
X149606000Y-50292000D01*
X150876000Y-45212000D02*
X149606000Y-46482000D01*
X159258000Y-45212000D02*
X150876000Y-45212000D01*
X162052000Y-48006000D02*
X159258000Y-45212000D01*
X149606000Y-50292000D02*
X153844000Y-50292000D01*
X153844000Y-50292000D02*
X153924000Y-50372000D01*
X165100000Y-64008000D02*
X164084000Y-64008000D01*
X149860000Y-62992000D02*
X149860000Y-66548000D01*
X151130000Y-61722000D02*
X149860000Y-62992000D01*
X161798000Y-61722000D02*
X151130000Y-61722000D01*
X164084000Y-64008000D02*
X161798000Y-61722000D01*
X149860000Y-66548000D02*
X153844000Y-66548000D01*
X153844000Y-66548000D02*
X153924000Y-66628000D01*
X138938000Y-29892000D02*
X142668000Y-29892000D01*
X142668000Y-29892000D02*
X143002000Y-30226000D01*
X138938000Y-29892000D02*
X135832000Y-29892000D01*
X135832000Y-29892000D02*
X134482000Y-31242000D01*
X126085600Y-32613600D02*
X126644400Y-32613600D01*
X126644400Y-32613600D02*
X128016000Y-31242000D01*
X134482000Y-31242000D02*
X135992000Y-32752000D01*
X128016000Y-31242000D02*
X134482000Y-31242000D01*
X123545600Y-32613600D02*
X126085600Y-32613600D01*
X138938000Y-32592000D02*
X140890000Y-32592000D01*
X144526000Y-37592000D02*
X143002000Y-37592000D01*
X145288000Y-36830000D02*
X144526000Y-37592000D01*
X145288000Y-33020000D02*
X145288000Y-36830000D01*
X144526000Y-32258000D02*
X145288000Y-33020000D01*
X141224000Y-32258000D02*
X144526000Y-32258000D01*
X140890000Y-32592000D02*
X141224000Y-32258000D01*
X143002000Y-37592000D02*
X139018000Y-37592000D01*
X139018000Y-37592000D02*
X138938000Y-37672000D01*
X138938000Y-37672000D02*
X136312000Y-37672000D01*
X136312000Y-37672000D02*
X135992000Y-37352000D01*
X123545600Y-35153600D02*
X122072400Y-35153600D01*
X135992000Y-39268000D02*
X135992000Y-37352000D01*
X134874000Y-40386000D02*
X135992000Y-39268000D01*
X122428000Y-40386000D02*
X134874000Y-40386000D01*
X120904000Y-38862000D02*
X122428000Y-40386000D01*
X120904000Y-36322000D02*
X120904000Y-38862000D01*
X122072400Y-35153600D02*
X120904000Y-36322000D01*
X126085600Y-35153600D02*
X123545600Y-35153600D01*
X143002000Y-34036000D02*
X142240000Y-34036000D01*
X142240000Y-34036000D02*
X141304000Y-34972000D01*
X141304000Y-34972000D02*
X138938000Y-34972000D01*
X135992000Y-35052000D02*
X138858000Y-35052000D01*
X138858000Y-35052000D02*
X138938000Y-34972000D01*
X129692000Y-35052000D02*
X135992000Y-35052000D01*
X123545600Y-37693600D02*
X126085600Y-37693600D01*
X126085600Y-37693600D02*
X128168400Y-37693600D01*
X128168400Y-37693600D02*
X129692000Y-36170000D01*
X129692000Y-36170000D02*
X129692000Y-35052000D01*
X142748000Y-42672000D02*
X139272000Y-42672000D01*
X139272000Y-42672000D02*
X139192000Y-42592000D01*
X136246000Y-45452000D02*
X136246000Y-44094000D01*
X137748000Y-42592000D02*
X139192000Y-42592000D01*
X136246000Y-44094000D02*
X137748000Y-42592000D01*
X123799600Y-44907200D02*
X126339600Y-44907200D01*
X126339600Y-44907200D02*
X127304800Y-43942000D01*
X127304800Y-43942000D02*
X134736000Y-43942000D01*
X134736000Y-43942000D02*
X136246000Y-45452000D01*
X139192000Y-45292000D02*
X141144000Y-45292000D01*
X144526000Y-50546000D02*
X143002000Y-50546000D01*
X145288000Y-49784000D02*
X144526000Y-50546000D01*
X145288000Y-45466000D02*
X145288000Y-49784000D01*
X144526000Y-44704000D02*
X145288000Y-45466000D01*
X141732000Y-44704000D02*
X144526000Y-44704000D01*
X141144000Y-45292000D02*
X141732000Y-44704000D01*
X139192000Y-50372000D02*
X136566000Y-50372000D01*
X136566000Y-50372000D02*
X136246000Y-50052000D01*
X123799600Y-47447200D02*
X122224800Y-47447200D01*
X136246000Y-52222000D02*
X136246000Y-50052000D01*
X135382000Y-53086000D02*
X136246000Y-52222000D01*
X122174000Y-53086000D02*
X135382000Y-53086000D01*
X121158000Y-52070000D02*
X122174000Y-53086000D01*
X121158000Y-48514000D02*
X121158000Y-52070000D01*
X122224800Y-47447200D02*
X121158000Y-48514000D01*
X126339600Y-47447200D02*
X123799600Y-47447200D01*
X139192000Y-50372000D02*
X142828000Y-50372000D01*
X142828000Y-50372000D02*
X143002000Y-50546000D01*
X139192000Y-47672000D02*
X142320000Y-47672000D01*
X142320000Y-47672000D02*
X143002000Y-46990000D01*
X139192000Y-47672000D02*
X136326000Y-47672000D01*
X136326000Y-47672000D02*
X136246000Y-47752000D01*
X136246000Y-47752000D02*
X129946000Y-47752000D01*
X123799600Y-49987200D02*
X126339600Y-49987200D01*
X126339600Y-49987200D02*
X126390400Y-50038000D01*
X126390400Y-50038000D02*
X127660000Y-50038000D01*
X127660000Y-50038000D02*
X129946000Y-47752000D01*
D37*
X134831000Y-69027000D02*
X136337000Y-69027000D01*
X136337000Y-69027000D02*
X136398000Y-69088000D01*
X126301500Y-64782700D02*
X128841500Y-64782700D01*
X128841500Y-64782700D02*
X131013200Y-62611000D01*
X131013200Y-62611000D02*
X132508000Y-62611000D01*
X126301500Y-67322700D02*
X128841500Y-67322700D01*
X128841500Y-67322700D02*
X131521200Y-64643000D01*
X131521200Y-64643000D02*
X137414000Y-64643000D01*
X135271500Y-66459100D02*
X137414000Y-66459100D01*
X137414000Y-66459100D02*
X137414000Y-66548000D01*
X135208000Y-62611000D02*
X136525000Y-62611000D01*
X136718000Y-70927000D02*
X134831000Y-70927000D01*
X137414000Y-70231000D02*
X136718000Y-70927000D01*
X137414000Y-63500000D02*
X137414000Y-64643000D01*
X137414000Y-64643000D02*
X137414000Y-66548000D01*
X137414000Y-66548000D02*
X137414000Y-70231000D01*
X136525000Y-62611000D02*
X137414000Y-63500000D01*
X126301500Y-69862700D02*
X128841500Y-69862700D01*
X128841500Y-69862700D02*
X128955800Y-69977000D01*
X128955800Y-69977000D02*
X132631000Y-69977000D01*
X132631000Y-69977000D02*
X132571500Y-69917500D01*
X132571500Y-69917500D02*
X132571500Y-66459100D01*
X134958000Y-82489000D02*
X136591000Y-82489000D01*
X136591000Y-82489000D02*
X136652000Y-82550000D01*
X126238000Y-77470000D02*
X128778000Y-77470000D01*
X128778000Y-77470000D02*
X129921000Y-76327000D01*
X129921000Y-76327000D02*
X132635000Y-76327000D01*
X135335000Y-80264000D02*
X137668000Y-80264000D01*
X126238000Y-80010000D02*
X128778000Y-80010000D01*
X128778000Y-80010000D02*
X130429000Y-78359000D01*
X130429000Y-78359000D02*
X137668000Y-78359000D01*
X135335000Y-76327000D02*
X136779000Y-76327000D01*
X136972000Y-84389000D02*
X134958000Y-84389000D01*
X137668000Y-83693000D02*
X136972000Y-84389000D01*
X137668000Y-77216000D02*
X137668000Y-78359000D01*
X137668000Y-78359000D02*
X137668000Y-80264000D01*
X137668000Y-80264000D02*
X137668000Y-83693000D01*
X136779000Y-76327000D02*
X137668000Y-77216000D01*
X126238000Y-82550000D02*
X128778000Y-82550000D01*
X128778000Y-82550000D02*
X129667000Y-83439000D01*
X129667000Y-83439000D02*
X132758000Y-83439000D01*
X132635000Y-80264000D02*
X132635000Y-83316000D01*
X132635000Y-83316000D02*
X132758000Y-83439000D01*
D38*
X68580000Y-40386000D02*
X67310000Y-41656000D01*
X67310000Y-41656000D02*
X67310000Y-49276000D01*
X67310000Y-49276000D02*
X68580000Y-50546000D01*
X63500000Y-40386000D02*
X62230000Y-41656000D01*
X62230000Y-41656000D02*
X62230000Y-49276000D01*
X62230000Y-49276000D02*
X63500000Y-50546000D01*
X60960000Y-40386000D02*
X59690000Y-41656000D01*
X59690000Y-41656000D02*
X59690000Y-49276000D01*
X59690000Y-49276000D02*
X60960000Y-50546000D01*
X58420000Y-40386000D02*
X57150000Y-41656000D01*
X57150000Y-41656000D02*
X57150000Y-49276000D01*
X57150000Y-49276000D02*
X58420000Y-50546000D01*
X55880000Y-40386000D02*
X54610000Y-41656000D01*
X54610000Y-41656000D02*
X54610000Y-49276000D01*
X54610000Y-49276000D02*
X55880000Y-50546000D01*
X53340000Y-40386000D02*
X52070000Y-41656000D01*
X52070000Y-41656000D02*
X52070000Y-49276000D01*
X52070000Y-49276000D02*
X53340000Y-50546000D01*
X50800000Y-40386000D02*
X49530000Y-41656000D01*
X49530000Y-41656000D02*
X49530000Y-49276000D01*
X49530000Y-49276000D02*
X50800000Y-50546000D01*
X48260000Y-40386000D02*
X46990000Y-41656000D01*
X46990000Y-41656000D02*
X46990000Y-49276000D01*
X46990000Y-49276000D02*
X48260000Y-50546000D01*
X43180000Y-40386000D02*
X41910000Y-41656000D01*
X41910000Y-41656000D02*
X41910000Y-49276000D01*
X41910000Y-49276000D02*
X43180000Y-50546000D01*
X40640000Y-40386000D02*
X39370000Y-41656000D01*
X39370000Y-41656000D02*
X39370000Y-49276000D01*
X39370000Y-49276000D02*
X40640000Y-50546000D01*
X38100000Y-40386000D02*
X36830000Y-41656000D01*
X36830000Y-41656000D02*
X36830000Y-49276000D01*
X36830000Y-49276000D02*
X38100000Y-50546000D01*
X35560000Y-40386000D02*
X34290000Y-41656000D01*
X34290000Y-41656000D02*
X34290000Y-49276000D01*
X34290000Y-49276000D02*
X35560000Y-50546000D01*
X33020000Y-40386000D02*
X31750000Y-41656000D01*
X31750000Y-41656000D02*
X31750000Y-49276000D01*
X31750000Y-49276000D02*
X33020000Y-50546000D01*
X30480000Y-40386000D02*
X29210000Y-41656000D01*
X29210000Y-41656000D02*
X29210000Y-49276000D01*
X29210000Y-49276000D02*
X30480000Y-50546000D01*
D36*
X68580000Y-88646000D02*
X68580000Y-93472000D01*
X68580000Y-93472000D02*
X69088000Y-93980000D01*
X69088000Y-93980000D02*
X76962000Y-93980000D01*
X76962000Y-93980000D02*
X77978000Y-92964000D01*
X77978000Y-92964000D02*
X77978000Y-32512000D01*
X77978000Y-32512000D02*
X74930000Y-29464000D01*
X74930000Y-29464000D02*
X72136000Y-29464000D01*
X72136000Y-29464000D02*
X71660000Y-29940000D01*
X71660000Y-29940000D02*
X71660000Y-31496000D01*
D37*
X71120000Y-88646000D02*
X71120000Y-92122000D01*
X71120000Y-92122000D02*
X71040000Y-92202000D01*
D39*
X29210000Y-84074000D02*
X26924000Y-81788000D01*
X26924000Y-81788000D02*
X26924000Y-55880000D01*
X26924000Y-55880000D02*
X27178000Y-55626000D01*
X28194000Y-37338000D02*
X53848000Y-37338000D01*
X53848000Y-37338000D02*
X57960000Y-33226000D01*
X57960000Y-33226000D02*
X57960000Y-28956000D01*
X67310000Y-84074000D02*
X29210000Y-84074000D01*
D38*
X68580000Y-86106000D02*
X67310000Y-87376000D01*
X67310000Y-87376000D02*
X67310000Y-94996000D01*
X67310000Y-94996000D02*
X68580000Y-96266000D01*
X66040000Y-86106000D02*
X64770000Y-87376000D01*
X64770000Y-87376000D02*
X64770000Y-94996000D01*
X64770000Y-94996000D02*
X66040000Y-96266000D01*
X63500000Y-86106000D02*
X62230000Y-87376000D01*
X62230000Y-87376000D02*
X62230000Y-94996000D01*
X62230000Y-94996000D02*
X63500000Y-96266000D01*
X58420000Y-86106000D02*
X57150000Y-87376000D01*
X57150000Y-87376000D02*
X57150000Y-94996000D01*
X57150000Y-94996000D02*
X58420000Y-96266000D01*
X55880000Y-86106000D02*
X54610000Y-87376000D01*
X54610000Y-87376000D02*
X54610000Y-94996000D01*
X54610000Y-94996000D02*
X55880000Y-96266000D01*
X53340000Y-86106000D02*
X52070000Y-87376000D01*
X52070000Y-87376000D02*
X52070000Y-94996000D01*
X52070000Y-94996000D02*
X53340000Y-96266000D01*
X50800000Y-86106000D02*
X49530000Y-87376000D01*
X49530000Y-87376000D02*
X49530000Y-94996000D01*
X49530000Y-94996000D02*
X50800000Y-96266000D01*
X48260000Y-86106000D02*
X46990000Y-87376000D01*
X46990000Y-87376000D02*
X46990000Y-94996000D01*
X46990000Y-94996000D02*
X48260000Y-96266000D01*
X45720000Y-86106000D02*
X44450000Y-87376000D01*
X44450000Y-87376000D02*
X44450000Y-94996000D01*
X44450000Y-94996000D02*
X45720000Y-96266000D01*
X43180000Y-86106000D02*
X41910000Y-87376000D01*
X41910000Y-87376000D02*
X41910000Y-94996000D01*
X41910000Y-94996000D02*
X43180000Y-96266000D01*
X40640000Y-86106000D02*
X39370000Y-87376000D01*
X39370000Y-87376000D02*
X39370000Y-94996000D01*
X39370000Y-94996000D02*
X40640000Y-96266000D01*
X38100000Y-86106000D02*
X36830000Y-87376000D01*
X36830000Y-87376000D02*
X36830000Y-94996000D01*
X36830000Y-94996000D02*
X38100000Y-96266000D01*
X35560000Y-86106000D02*
X34290000Y-87376000D01*
X34290000Y-87376000D02*
X34290000Y-94996000D01*
X34290000Y-94996000D02*
X35560000Y-96266000D01*
X33020000Y-86106000D02*
X31750000Y-87376000D01*
X31750000Y-87376000D02*
X31750000Y-94996000D01*
X31750000Y-94996000D02*
X33020000Y-96266000D01*
D36*
X99415600Y-32740600D02*
X101828600Y-32740600D01*
X101828600Y-32740600D02*
X101854000Y-32766000D01*
D37*
X83058000Y-37338000D02*
X84152000Y-37338000D01*
X84152000Y-37338000D02*
X86184000Y-39370000D01*
D36*
X99415600Y-50520600D02*
X99441000Y-50546000D01*
X99441000Y-50546000D02*
X101854000Y-50546000D01*
D37*
X86184000Y-56642000D02*
X84582000Y-56642000D01*
X84582000Y-56642000D02*
X83058000Y-55118000D01*
D36*
X99669600Y-68300600D02*
X99695000Y-68326000D01*
X99695000Y-68326000D02*
X102108000Y-68326000D01*
D37*
X83058000Y-72898000D02*
X85930000Y-72898000D01*
X85930000Y-72898000D02*
X86438000Y-73406000D01*
D36*
X99669600Y-86080600D02*
X102387400Y-86080600D01*
X102387400Y-86080600D02*
X102616000Y-85852000D01*
D37*
X83312000Y-89662000D02*
X85676000Y-89662000D01*
X85676000Y-89662000D02*
X86692000Y-90678000D01*
D40*
X99415600Y-35052000D02*
X105816400Y-35052000D01*
X105816400Y-35052000D02*
X107634400Y-33234000D01*
X107634400Y-33234000D02*
X112014000Y-33234000D01*
X99415600Y-52832000D02*
X105816400Y-52832000D01*
X105816400Y-52832000D02*
X109942000Y-52832000D01*
X109942000Y-52832000D02*
X112014000Y-50760000D01*
D39*
X93726000Y-31292800D02*
X92506800Y-31292800D01*
X92506800Y-31292800D02*
X90932000Y-29718000D01*
X90932000Y-29718000D02*
X89488000Y-29718000D01*
D36*
X89488000Y-29718000D02*
X89488000Y-29544000D01*
X89488000Y-29544000D02*
X88138000Y-28194000D01*
X88138000Y-28194000D02*
X88138000Y-24130000D01*
X88138000Y-24130000D02*
X89916000Y-22352000D01*
X89916000Y-22352000D02*
X104394000Y-22352000D01*
X104394000Y-22352000D02*
X105816400Y-23774400D01*
X105816400Y-23774400D02*
X105816400Y-27686000D01*
D40*
X99415600Y-27686000D02*
X105816400Y-27686000D01*
X112014000Y-28234000D02*
X106364400Y-28234000D01*
X106364400Y-28234000D02*
X105816400Y-27686000D01*
D36*
X88138000Y-45974000D02*
X88138000Y-43180000D01*
X88138000Y-43180000D02*
X90170000Y-41148000D01*
X90170000Y-41148000D02*
X103886000Y-41148000D01*
X103886000Y-41148000D02*
X105816400Y-43078400D01*
X105816400Y-43078400D02*
X105816400Y-45466000D01*
D38*
X89488000Y-47244000D02*
X90170000Y-47244000D01*
X90170000Y-47244000D02*
X91998800Y-49072800D01*
X91998800Y-49072800D02*
X93472000Y-49072800D01*
D36*
X89488000Y-47244000D02*
X89408000Y-47244000D01*
X89408000Y-47244000D02*
X88138000Y-45974000D01*
D40*
X99415600Y-45466000D02*
X105816400Y-45466000D01*
X105816400Y-45466000D02*
X111720000Y-45466000D01*
X111720000Y-45466000D02*
X112014000Y-45760000D01*
X99669600Y-70612000D02*
X106070400Y-70612000D01*
X106070400Y-70612000D02*
X110958000Y-70612000D01*
X110958000Y-70612000D02*
X112014000Y-69556000D01*
X106070400Y-88392000D02*
X111212000Y-88392000D01*
X111212000Y-88392000D02*
X112014000Y-87590000D01*
X106070400Y-88392000D02*
X99669600Y-88392000D01*
D38*
X93726000Y-66344800D02*
X92506800Y-66344800D01*
X92506800Y-66344800D02*
X91186000Y-65024000D01*
X91186000Y-65024000D02*
X90504000Y-65024000D01*
X90504000Y-65024000D02*
X89742000Y-64262000D01*
X89742000Y-64262000D02*
X89742000Y-63754000D01*
D40*
X106070400Y-62992000D02*
X110450000Y-62992000D01*
X110450000Y-62992000D02*
X112014000Y-64556000D01*
X99669600Y-62992000D02*
X106070400Y-62992000D01*
D36*
X89742000Y-63834000D02*
X88392000Y-62484000D01*
X88392000Y-62484000D02*
X88392000Y-59182000D01*
X88392000Y-59182000D02*
X89408000Y-58166000D01*
X89408000Y-58166000D02*
X104140000Y-58166000D01*
X104140000Y-58166000D02*
X106070400Y-60096400D01*
X106070400Y-60096400D02*
X106070400Y-62992000D01*
D39*
X93472000Y-83870800D02*
X92252800Y-83870800D01*
X92252800Y-83870800D02*
X91440000Y-83058000D01*
X91440000Y-83058000D02*
X91440000Y-82550000D01*
X91440000Y-82550000D02*
X89916000Y-81026000D01*
X89916000Y-81026000D02*
X89742000Y-81026000D01*
D40*
X106070400Y-81026000D02*
X110450000Y-81026000D01*
X110450000Y-81026000D02*
X112014000Y-82590000D01*
X99669600Y-81026000D02*
X106070400Y-81026000D01*
D36*
X89742000Y-81026000D02*
X89742000Y-80852000D01*
X89742000Y-80852000D02*
X88392000Y-79502000D01*
X88392000Y-79502000D02*
X88392000Y-77216000D01*
X88392000Y-77216000D02*
X90170000Y-75438000D01*
X90170000Y-75438000D02*
X103378000Y-75438000D01*
X103378000Y-75438000D02*
X106070400Y-78130400D01*
X106070400Y-78130400D02*
X106070400Y-81026000D01*
X87968000Y-103698000D02*
X93538000Y-103698000D01*
X95250000Y-105410000D02*
X95250000Y-106974000D01*
X93538000Y-103698000D02*
X95250000Y-105410000D01*
X110490000Y-106974000D02*
X107722000Y-104206000D01*
X107722000Y-104206000D02*
X103716000Y-104206000D01*
X118956000Y-103698000D02*
X123510000Y-103698000D01*
X124968000Y-105156000D02*
X124968000Y-106974000D01*
X123510000Y-103698000D02*
X124968000Y-105156000D01*
X133434000Y-103952000D02*
X138750000Y-103952000D01*
X139954000Y-105156000D02*
X139954000Y-106974000D01*
X138750000Y-103952000D02*
X139954000Y-105156000D01*
D38*
X96266000Y-31927800D02*
X95427800Y-31927800D01*
X95427800Y-31927800D02*
X94996000Y-31496000D01*
X94996000Y-31496000D02*
X94996000Y-30734000D01*
X94996000Y-30734000D02*
X94488000Y-30226000D01*
X94488000Y-30226000D02*
X93218000Y-30226000D01*
X93218000Y-30226000D02*
X92964000Y-29972000D01*
X92964000Y-29972000D02*
X92964000Y-28782000D01*
X96012000Y-49707800D02*
X95173800Y-49707800D01*
X95173800Y-49707800D02*
X94742000Y-49276000D01*
X94742000Y-49276000D02*
X94742000Y-48768000D01*
X94742000Y-48768000D02*
X93044000Y-47070000D01*
X93044000Y-47070000D02*
X92710000Y-47070000D01*
X96266000Y-31292800D02*
X96266000Y-30052000D01*
X96266000Y-30052000D02*
X94996000Y-28782000D01*
X96012000Y-49072800D02*
X95808800Y-49072800D01*
X95808800Y-49072800D02*
X95504000Y-48768000D01*
X95504000Y-48768000D02*
X95504000Y-47070000D01*
X96266000Y-66979800D02*
X95427800Y-66979800D01*
X95427800Y-66979800D02*
X94996000Y-66548000D01*
X94996000Y-66548000D02*
X94996000Y-65532000D01*
X94996000Y-65532000D02*
X93552000Y-64088000D01*
X93552000Y-64088000D02*
X92710000Y-64088000D01*
X96012000Y-84505800D02*
X94919800Y-84505800D01*
X94919800Y-84505800D02*
X94742000Y-84328000D01*
X94742000Y-84328000D02*
X94742000Y-83312000D01*
X94742000Y-83312000D02*
X93044000Y-81614000D01*
X93044000Y-81614000D02*
X92964000Y-81614000D01*
X96266000Y-66344800D02*
X96266000Y-64342000D01*
X96266000Y-64342000D02*
X96012000Y-64088000D01*
X96012000Y-83870800D02*
X96012000Y-81868000D01*
X96012000Y-81868000D02*
X95758000Y-81614000D01*
D39*
X107594400Y-98298000D02*
X109220000Y-98298000D01*
X114554000Y-95504000D02*
X114554000Y-97456000D01*
X114046000Y-94996000D02*
X114554000Y-95504000D01*
X110236000Y-94996000D02*
X114046000Y-94996000D01*
X109474000Y-95758000D02*
X110236000Y-94996000D01*
X109474000Y-98044000D02*
X109474000Y-95758000D01*
X109220000Y-98298000D02*
X109474000Y-98044000D01*
X115824000Y-96012000D02*
X121158000Y-96012000D01*
X108686600Y-97815400D02*
X108966000Y-97536000D01*
X108966000Y-97536000D02*
X108966000Y-95504000D01*
X108966000Y-95504000D02*
X109982000Y-94488000D01*
X109982000Y-94488000D02*
X114300000Y-94488000D01*
X114300000Y-94488000D02*
X115824000Y-96012000D01*
X107594400Y-97815400D02*
X108686600Y-97815400D01*
X121412000Y-96266000D02*
X121412000Y-97456000D01*
X121158000Y-96012000D02*
X121412000Y-96266000D01*
X121412000Y-96774000D02*
X121412000Y-97456000D01*
X106934000Y-96012000D02*
X107950000Y-94996000D01*
X103225600Y-97815400D02*
X105130600Y-97815400D01*
X131064000Y-96266000D02*
X131064000Y-97456000D01*
X107950000Y-94996000D02*
X109474000Y-93472000D01*
X109474000Y-93472000D02*
X114808000Y-93472000D01*
X114808000Y-93472000D02*
X116332000Y-94996000D01*
X116332000Y-94996000D02*
X129794000Y-94996000D01*
X129794000Y-94996000D02*
X131064000Y-96266000D01*
X105130600Y-97815400D02*
X106934000Y-96012000D01*
X107188000Y-96520000D02*
X108458000Y-95250000D01*
X103225600Y-98298000D02*
X105664000Y-98298000D01*
X127762000Y-96266000D02*
X127762000Y-97456000D01*
X108458000Y-95250000D02*
X109728000Y-93980000D01*
X109728000Y-93980000D02*
X114554000Y-93980000D01*
X114554000Y-93980000D02*
X116078000Y-95504000D01*
X116078000Y-95504000D02*
X127000000Y-95504000D01*
X127000000Y-95504000D02*
X127762000Y-96266000D01*
X106426000Y-97282000D02*
X107188000Y-96520000D01*
X106426000Y-97536000D02*
X106426000Y-97282000D01*
X105664000Y-98298000D02*
X106426000Y-97536000D01*
D37*
X89534000Y-39370000D02*
X92122000Y-39370000D01*
X92122000Y-39370000D02*
X92884000Y-38608000D01*
X89534000Y-56642000D02*
X91868000Y-56642000D01*
X91868000Y-56642000D02*
X92884000Y-55626000D01*
X89788000Y-73406000D02*
X93138000Y-73406000D01*
X90042000Y-90678000D02*
X93138000Y-90678000D01*
D40*
X47244000Y-28088000D02*
X49170000Y-28088000D01*
X49170000Y-28088000D02*
X51484000Y-30402000D01*
X51484000Y-30402000D02*
X52578000Y-30402000D01*
X47244000Y-28088000D02*
X47428000Y-28272000D01*
D36*
X47244000Y-28088000D02*
X47428000Y-28272000D01*
X150114000Y-81026000D02*
X150114000Y-77470000D01*
X162560000Y-80010000D02*
X165100000Y-80010000D01*
X159004000Y-76454000D02*
X162560000Y-80010000D01*
X151130000Y-76454000D02*
X159004000Y-76454000D01*
X150114000Y-77470000D02*
X151130000Y-76454000D01*
X150114000Y-81026000D02*
X153590000Y-81026000D01*
X153590000Y-81026000D02*
X153924000Y-81360000D01*
D37*
X99568000Y-99294000D02*
X97282000Y-99294000D01*
D39*
X103225600Y-98806000D02*
X101346000Y-98806000D01*
X101346000Y-98806000D02*
X100858000Y-99294000D01*
X100858000Y-99294000D02*
X99568000Y-99294000D01*
D36*
X83058000Y-27432000D02*
X84328000Y-27432000D01*
X84328000Y-27432000D02*
X85344000Y-26416000D01*
X85344000Y-26416000D02*
X86488000Y-26416000D01*
X86488000Y-44450000D02*
X83820000Y-44450000D01*
X83820000Y-44450000D02*
X83058000Y-45212000D01*
X83058000Y-62484000D02*
X83312000Y-62484000D01*
X83312000Y-62484000D02*
X84328000Y-61468000D01*
X84328000Y-61468000D02*
X86742000Y-61468000D01*
X83058000Y-79248000D02*
X84328000Y-77978000D01*
X84328000Y-77978000D02*
X86742000Y-77978000D01*
X114856000Y-128841500D02*
X114856000Y-134414000D01*
X114856000Y-134414000D02*
X115316000Y-134874000D01*
X116840000Y-122872500D02*
X116840000Y-126857500D01*
X116840000Y-126857500D02*
X114856000Y-128841500D01*
X120856000Y-128841500D02*
X120856000Y-134414000D01*
X120856000Y-134414000D02*
X120396000Y-134874000D01*
X119380000Y-122872500D02*
X119380000Y-127365500D01*
X119380000Y-127365500D02*
X120856000Y-128841500D01*
X89583000Y-128714500D02*
X89583000Y-134541000D01*
X89583000Y-134541000D02*
X89916000Y-134874000D01*
X91440000Y-122872500D02*
X91440000Y-126857500D01*
X91440000Y-126857500D02*
X89583000Y-128714500D01*
X95583000Y-128714500D02*
X95583000Y-134287000D01*
X95583000Y-134287000D02*
X94996000Y-134874000D01*
X93980000Y-122872500D02*
X93980000Y-127111500D01*
X93980000Y-127111500D02*
X95583000Y-128714500D01*
X102029000Y-128714500D02*
X102029000Y-134541000D01*
X102029000Y-134541000D02*
X102362000Y-134874000D01*
X103886000Y-122872500D02*
X103886000Y-126857500D01*
X103886000Y-126857500D02*
X102029000Y-128714500D01*
X108029000Y-128714500D02*
X108029000Y-134287000D01*
X108029000Y-134287000D02*
X107442000Y-134874000D01*
X106426000Y-122872500D02*
X106426000Y-127111500D01*
X106426000Y-127111500D02*
X108029000Y-128714500D01*
X130350000Y-128841500D02*
X130350000Y-134414000D01*
X130350000Y-134414000D02*
X130810000Y-134874000D01*
X132334000Y-122745500D02*
X132334000Y-126857500D01*
X132334000Y-126857500D02*
X130350000Y-128841500D01*
X136350000Y-128841500D02*
X136350000Y-134414000D01*
X136350000Y-134414000D02*
X135890000Y-134874000D01*
X134874000Y-122745500D02*
X134874000Y-127365500D01*
X134874000Y-127365500D02*
X136350000Y-128841500D01*
X84562000Y-30480000D02*
X85090000Y-30480000D01*
X85090000Y-30480000D02*
X85852000Y-29718000D01*
X85852000Y-29718000D02*
X86788000Y-29718000D01*
D39*
X93726000Y-31927800D02*
X92125800Y-31927800D01*
X92125800Y-31927800D02*
X91440000Y-31242000D01*
X91440000Y-31242000D02*
X87376000Y-31242000D01*
X87376000Y-31242000D02*
X86788000Y-30654000D01*
X86788000Y-30654000D02*
X86788000Y-29718000D01*
D36*
X86788000Y-47244000D02*
X85070000Y-47244000D01*
X85070000Y-47244000D02*
X84308000Y-48006000D01*
D38*
X86788000Y-47244000D02*
X86788000Y-47926000D01*
X86788000Y-47926000D02*
X87376000Y-48514000D01*
X87376000Y-48514000D02*
X90424000Y-48514000D01*
X90424000Y-48514000D02*
X91617800Y-49707800D01*
X91617800Y-49707800D02*
X93472000Y-49707800D01*
X93726000Y-66979800D02*
X92379800Y-66979800D01*
X92379800Y-66979800D02*
X90932000Y-65532000D01*
X90932000Y-65532000D02*
X88392000Y-65532000D01*
X88392000Y-65532000D02*
X87042000Y-64182000D01*
X87042000Y-64182000D02*
X87042000Y-63754000D01*
D36*
X87042000Y-64262000D02*
X85832000Y-64262000D01*
X85832000Y-64262000D02*
X84562000Y-65532000D01*
D39*
X93472000Y-84505800D02*
X92125800Y-84505800D01*
X92125800Y-84505800D02*
X90932000Y-83312000D01*
X90932000Y-83312000D02*
X90932000Y-82804000D01*
X90932000Y-82804000D02*
X90424000Y-82296000D01*
X90424000Y-82296000D02*
X88312000Y-82296000D01*
X88312000Y-82296000D02*
X87042000Y-81026000D01*
D36*
X84562000Y-82804000D02*
X84562000Y-82316000D01*
X84562000Y-82316000D02*
X85852000Y-81026000D01*
X85852000Y-81026000D02*
X87042000Y-81026000D01*
X149987000Y-121158000D02*
X149987000Y-126873000D01*
X149987000Y-126873000D02*
X150495000Y-127381000D01*
X152527000Y-121158000D02*
X152527000Y-127349000D01*
X152527000Y-127349000D02*
X152495000Y-127381000D01*
M02*
