M48
;DRILL file {KiCad 4.0.7} date 11/06/17 02:09:40
;FORMAT={-:-/ absolute / inch / decimal}
FMAT,2
INCH,TZ
T1C0.016
T2C0.030
T3C0.039
T4C0.047
%
G90
G05
M72
T1
X1.07Y-2.19
X1.11Y-1.47
X1.85Y-2.18
X2.43Y-1.33
X2.63Y-1.14
X2.65Y-3.31
X2.75Y-2.17
X2.85Y-2.16
X3.17Y-4.5
X3.26Y-4.41
X3.27Y-1.95
X3.28Y-2.65
X3.29Y-3.33
X3.35Y-2.71
X3.36Y-1.32
X3.36Y-2.04
X3.37Y-3.38
X3.38Y-4.05
X3.39Y-1.25
X3.46Y-4.94
X3.59Y-1.8
X3.59Y-3.13
X3.6Y-1.03
X3.6Y-2.
X3.6Y-2.47
X3.6Y-2.66
X3.6Y-3.36
X3.61Y-1.29
X3.71Y-1.75
X3.71Y-3.11
X3.72Y-2.42
X3.84Y-1.55
X3.84Y-3.62
X3.85Y-2.21
X3.85Y-2.9
X3.95Y-4.11
X3.99Y-3.81
X4.01Y-1.
X4.01Y-1.29
X4.01Y-1.7
X4.01Y-1.99
X4.01Y-2.17
X4.01Y-3.63
X4.01Y-3.96
X4.01Y-4.29
X4.02Y-2.39
X4.02Y-2.69
X4.03Y-2.88
X4.04Y-3.1
X4.04Y-3.38
X4.05Y-1.5
X4.08Y-2.92
X4.14Y-3.91
X4.16Y-1.2
X4.16Y-1.27
X4.18Y-1.91
X4.18Y-1.97
X4.18Y-3.3
X4.18Y-3.36
X4.2Y-2.6
X4.2Y-2.66
X4.24Y-2.92
X4.31Y-3.92
X4.43Y-3.79
X4.52Y-4.12
X4.58Y-3.82
X4.62Y-4.28
X4.86Y-3.8
X5.09Y-4.13
X5.19Y-4.3
X5.37Y-2.72
X5.38Y-3.25
X5.4Y-3.84
T2
X2.8213Y-1.24
X2.9Y-1.24
X5.925Y-5.015
X6.0037Y-5.015
T3
X1.1Y-1.59
X1.1Y-1.69
X1.1Y-1.99
X1.1Y-2.09
X1.1Y-3.39
X1.1Y-3.49
X1.1Y-3.79
X1.1Y-3.89
X1.2Y-1.59
X1.2Y-1.69
X1.2Y-1.99
X1.2Y-2.09
X1.2Y-3.39
X1.2Y-3.49
X1.2Y-3.79
X1.2Y-3.89
X1.3Y-1.59
X1.3Y-1.69
X1.3Y-1.99
X1.3Y-2.09
X1.3Y-3.39
X1.3Y-3.49
X1.3Y-3.79
X1.3Y-3.89
X1.3675Y-1.2275
X1.4Y-1.59
X1.4Y-1.69
X1.4Y-1.99
X1.4Y-2.09
X1.4Y-3.39
X1.4Y-3.49
X1.4Y-3.79
X1.4Y-3.89
X1.5Y-1.59
X1.5Y-1.69
X1.5Y-1.99
X1.5Y-2.09
X1.5Y-3.39
X1.5Y-3.49
X1.5Y-3.79
X1.5Y-3.89
X1.5675Y-1.2275
X1.6Y-1.59
X1.6Y-1.69
X1.6Y-1.99
X1.6Y-2.09
X1.6Y-3.39
X1.6Y-3.49
X1.6Y-3.79
X1.6Y-3.89
X1.7Y-1.59
X1.7Y-1.69
X1.7Y-1.99
X1.7Y-2.09
X1.7Y-3.39
X1.7Y-3.49
X1.7Y-3.79
X1.7Y-3.89
X1.8Y-1.59
X1.8Y-1.69
X1.8Y-1.99
X1.8Y-2.09
X1.8Y-3.39
X1.8Y-3.49
X1.8Y-3.79
X1.8Y-3.89
X1.9Y-1.59
X1.9Y-1.69
X1.9Y-1.99
X1.9Y-2.09
X1.9Y-3.39
X1.9Y-3.49
X1.9Y-3.79
X1.9Y-3.89
X2.Y-1.59
X2.Y-1.69
X2.Y-1.99
X2.Y-2.09
X2.Y-3.39
X2.Y-3.49
X2.Y-3.79
X2.Y-3.89
X2.1Y-1.59
X2.1Y-1.69
X2.1Y-1.99
X2.1Y-2.09
X2.1Y-3.39
X2.1Y-3.49
X2.1Y-3.79
X2.1Y-3.89
X2.2Y-1.59
X2.2Y-1.69
X2.2Y-1.99
X2.2Y-2.09
X2.2Y-3.39
X2.2Y-3.49
X2.2Y-3.79
X2.2Y-3.89
X2.3Y-1.59
X2.3Y-1.69
X2.3Y-1.99
X2.3Y-2.09
X2.3Y-3.39
X2.3Y-3.49
X2.3Y-3.79
X2.3Y-3.89
X2.4Y-1.59
X2.4Y-1.69
X2.4Y-1.99
X2.4Y-2.09
X2.4Y-3.39
X2.4Y-3.49
X2.4Y-3.79
X2.4Y-3.89
X2.5Y-1.59
X2.5Y-1.69
X2.5Y-1.99
X2.5Y-2.09
X2.5Y-3.39
X2.5Y-3.49
X2.5Y-3.79
X2.5Y-3.89
X2.6Y-1.59
X2.6Y-1.69
X2.6Y-1.99
X2.6Y-2.09
X2.6Y-3.39
X2.6Y-3.49
X2.6Y-3.79
X2.6Y-3.89
X2.7Y-1.59
X2.7Y-1.69
X2.7Y-1.99
X2.7Y-2.09
X2.7Y-3.39
X2.7Y-3.49
X2.7Y-3.79
X2.7Y-3.89
X2.8Y-1.59
X2.8Y-1.69
X2.8Y-1.99
X2.8Y-2.09
X2.8Y-3.39
X2.8Y-3.49
X2.8Y-3.79
X2.8Y-3.89
X2.8575Y-4.2175
X2.8575Y-4.3175
X2.8575Y-4.4175
X2.8575Y-4.5175
X2.8575Y-4.6175
X2.8575Y-4.7175
X2.8575Y-4.8175
X2.8575Y-4.9175
X2.8575Y-5.0175
X2.8575Y-5.1175
X2.9Y-1.59
X2.9Y-1.69
X2.9Y-1.99
X2.9Y-2.09
X2.9Y-3.39
X2.9Y-3.49
X2.9Y-3.79
X2.9Y-3.89
X2.9575Y-4.2175
X2.9575Y-4.3175
X2.9575Y-4.4175
X2.9575Y-4.5175
X2.9575Y-4.6175
X2.9575Y-4.7175
X2.9575Y-4.8175
X2.9575Y-4.9175
X2.9575Y-5.0175
X2.9575Y-5.1175
X3.Y-1.59
X3.Y-1.69
X3.Y-1.99
X3.Y-2.09
X3.Y-3.39
X3.Y-3.49
X3.Y-3.79
X3.Y-3.89
X3.27Y-1.08
X3.27Y-1.37
X3.27Y-1.47
X3.27Y-1.78
X3.27Y-2.07
X3.27Y-2.17
X3.27Y-2.46
X3.27Y-2.77
X3.27Y-2.87
X3.27Y-3.12
X3.28Y-3.43
X3.28Y-3.53
X3.37Y-3.95
X3.47Y-3.95
X3.54Y-5.31
X3.57Y-3.95
X3.6Y-4.8375
X3.67Y-3.95
X3.7Y-4.8375
X3.74Y-5.31
X4.03Y-5.31
X4.09Y-4.8375
X4.19Y-4.8375
X4.23Y-5.31
X4.54Y-5.31
X4.6Y-4.8375
X4.7Y-4.8375
X4.74Y-5.31
X4.864Y-1.284
X4.864Y-1.384
X4.864Y-1.484
X4.874Y-1.768
X4.874Y-1.868
X4.874Y-1.968
X4.964Y-1.284
X4.964Y-1.384
X4.964Y-1.484
X4.97Y-3.05
X4.97Y-3.15
X4.97Y-3.25
X4.9725Y-2.5505
X4.9725Y-2.6505
X4.9725Y-2.7505
X4.974Y-1.768
X4.974Y-1.868
X4.974Y-1.968
X5.07Y-3.05
X5.07Y-3.15
X5.07Y-3.25
X5.0725Y-2.5505
X5.0725Y-2.6505
X5.0725Y-2.7505
X5.15Y-5.31
X5.21Y-4.8325
X5.31Y-4.8325
X5.35Y-5.31
X5.89Y-1.98
X5.89Y-2.08
X5.89Y-2.18
X5.895Y-1.37
X5.895Y-1.47
X5.895Y-1.57
X5.9Y-2.62
X5.9Y-2.72
X5.9Y-2.82
X5.905Y-4.77
X5.91Y-3.19
X5.91Y-3.29
X5.91Y-3.39
X6.005Y-4.77
X6.5Y-1.26
X6.5Y-1.46
X6.5Y-1.66
X6.5Y-1.89
X6.5Y-2.09
X6.5Y-2.29
X6.5Y-2.52
X6.5Y-2.72
X6.5Y-2.92
X6.5Y-3.15
X6.5Y-3.35
X6.5Y-3.55
T4
X3.75Y-4.2116
X3.75Y-4.4084
X4.35Y-4.2116
X4.35Y-4.4084
X4.41Y-1.1116
X4.41Y-1.3084
X4.41Y-1.8016
X4.41Y-1.9984
X4.41Y-2.5416
X4.41Y-2.7384
X4.41Y-3.2516
X4.41Y-3.4484
X4.92Y-4.2116
X4.92Y-4.4084
X5.51Y-4.2116
X5.51Y-4.4084
T3
X1.8403Y-1.1058G85X1.8797Y-1.1058
G05
X1.8403Y-1.22G85X1.8797Y-1.22
G05
X1.8403Y-1.3342G85X1.8797Y-1.3342
G05
T0
M30
