G04 #@! TF.FileFunction,Soldermask,Bot*
%FSLAX46Y46*%
G04 Gerber Fmt 4.6, Leading zero omitted, Abs format (unit mm)*
G04 Created by KiCad (PCBNEW 4.0.7) date 11/06/17 02:09:46*
%MOMM*%
%LPD*%
G01*
G04 APERTURE LIST*
%ADD10C,0.100000*%
%ADD11R,1.700000X1.700000*%
%ADD12O,1.700000X1.700000*%
%ADD13R,1.200000X1.700000*%
%ADD14O,1.200000X1.700000*%
%ADD15C,1.800000*%
%ADD16O,3.000000X2.000000*%
%ADD17C,1.750000*%
%ADD18C,2.000000*%
G04 APERTURE END LIST*
D10*
D11*
X75120500Y-129984500D03*
D12*
X72580500Y-129984500D03*
X75120500Y-127444500D03*
X72580500Y-127444500D03*
X75120500Y-124904500D03*
X72580500Y-124904500D03*
X75120500Y-122364500D03*
X72580500Y-122364500D03*
X75120500Y-119824500D03*
X72580500Y-119824500D03*
X75120500Y-117284500D03*
X72580500Y-117284500D03*
X75120500Y-114744500D03*
X72580500Y-114744500D03*
X75120500Y-112204500D03*
X72580500Y-112204500D03*
X75120500Y-109664500D03*
X72580500Y-109664500D03*
X75120500Y-107124500D03*
X72580500Y-107124500D03*
D11*
X149733000Y-34798000D03*
D12*
X149733000Y-37338000D03*
X149733000Y-39878000D03*
D11*
X149606000Y-50292000D03*
D12*
X149606000Y-52832000D03*
X149606000Y-55372000D03*
D11*
X149860000Y-66548000D03*
D12*
X149860000Y-69088000D03*
X149860000Y-71628000D03*
D11*
X150114000Y-81026000D03*
D12*
X150114000Y-83566000D03*
X150114000Y-86106000D03*
D11*
X123545600Y-32613600D03*
D12*
X126085600Y-32613600D03*
X123545600Y-35153600D03*
X126085600Y-35153600D03*
X123545600Y-37693600D03*
X126085600Y-37693600D03*
D11*
X123799600Y-44907200D03*
D12*
X126339600Y-44907200D03*
X123799600Y-47447200D03*
X126339600Y-47447200D03*
X123799600Y-49987200D03*
X126339600Y-49987200D03*
D11*
X126301500Y-64782700D03*
D12*
X128841500Y-64782700D03*
X126301500Y-67322700D03*
X128841500Y-67322700D03*
X126301500Y-69862700D03*
X128841500Y-69862700D03*
D11*
X126238000Y-77470000D03*
D12*
X128778000Y-77470000D03*
X126238000Y-80010000D03*
X128778000Y-80010000D03*
X126238000Y-82550000D03*
X128778000Y-82550000D03*
D11*
X76200000Y-40386000D03*
D12*
X73660000Y-40386000D03*
X71120000Y-40386000D03*
X68580000Y-40386000D03*
X66040000Y-40386000D03*
X63500000Y-40386000D03*
X60960000Y-40386000D03*
X58420000Y-40386000D03*
X55880000Y-40386000D03*
X53340000Y-40386000D03*
X50800000Y-40386000D03*
X48260000Y-40386000D03*
X45720000Y-40386000D03*
X43180000Y-40386000D03*
X40640000Y-40386000D03*
X38100000Y-40386000D03*
X35560000Y-40386000D03*
X33020000Y-40386000D03*
X30480000Y-40386000D03*
X27940000Y-40386000D03*
D11*
X76200000Y-42926000D03*
D12*
X73660000Y-42926000D03*
X71120000Y-42926000D03*
X68580000Y-42926000D03*
X66040000Y-42926000D03*
X63500000Y-42926000D03*
X60960000Y-42926000D03*
X58420000Y-42926000D03*
X55880000Y-42926000D03*
X53340000Y-42926000D03*
X50800000Y-42926000D03*
X48260000Y-42926000D03*
X45720000Y-42926000D03*
X43180000Y-42926000D03*
X40640000Y-42926000D03*
X38100000Y-42926000D03*
X35560000Y-42926000D03*
X33020000Y-42926000D03*
X30480000Y-42926000D03*
X27940000Y-42926000D03*
D11*
X76200000Y-50546000D03*
D12*
X76200000Y-53086000D03*
X73660000Y-50546000D03*
X73660000Y-53086000D03*
X71120000Y-50546000D03*
X71120000Y-53086000D03*
X68580000Y-50546000D03*
X68580000Y-53086000D03*
X66040000Y-50546000D03*
X66040000Y-53086000D03*
X63500000Y-50546000D03*
X63500000Y-53086000D03*
X60960000Y-50546000D03*
X60960000Y-53086000D03*
X58420000Y-50546000D03*
X58420000Y-53086000D03*
X55880000Y-50546000D03*
X55880000Y-53086000D03*
X53340000Y-50546000D03*
X53340000Y-53086000D03*
X50800000Y-50546000D03*
X50800000Y-53086000D03*
X48260000Y-50546000D03*
X48260000Y-53086000D03*
X45720000Y-50546000D03*
X45720000Y-53086000D03*
X43180000Y-50546000D03*
X43180000Y-53086000D03*
X40640000Y-50546000D03*
X40640000Y-53086000D03*
X38100000Y-50546000D03*
X38100000Y-53086000D03*
X35560000Y-50546000D03*
X35560000Y-53086000D03*
X33020000Y-50546000D03*
X33020000Y-53086000D03*
X30480000Y-50546000D03*
X30480000Y-53086000D03*
X27940000Y-50546000D03*
X27940000Y-53086000D03*
D11*
X76200000Y-96266000D03*
D12*
X73660000Y-96266000D03*
X71120000Y-96266000D03*
X68580000Y-96266000D03*
X66040000Y-96266000D03*
X63500000Y-96266000D03*
X60960000Y-96266000D03*
X58420000Y-96266000D03*
X55880000Y-96266000D03*
X53340000Y-96266000D03*
X50800000Y-96266000D03*
X48260000Y-96266000D03*
X45720000Y-96266000D03*
X43180000Y-96266000D03*
X40640000Y-96266000D03*
X38100000Y-96266000D03*
X35560000Y-96266000D03*
X33020000Y-96266000D03*
X30480000Y-96266000D03*
X27940000Y-96266000D03*
D11*
X76200000Y-98806000D03*
D12*
X73660000Y-98806000D03*
X71120000Y-98806000D03*
X68580000Y-98806000D03*
X66040000Y-98806000D03*
X63500000Y-98806000D03*
X60960000Y-98806000D03*
X58420000Y-98806000D03*
X55880000Y-98806000D03*
X53340000Y-98806000D03*
X50800000Y-98806000D03*
X48260000Y-98806000D03*
X45720000Y-98806000D03*
X43180000Y-98806000D03*
X40640000Y-98806000D03*
X38100000Y-98806000D03*
X35560000Y-98806000D03*
X33020000Y-98806000D03*
X30480000Y-98806000D03*
X27940000Y-98806000D03*
D11*
X76200000Y-86106000D03*
D12*
X76200000Y-88646000D03*
X73660000Y-86106000D03*
X73660000Y-88646000D03*
X71120000Y-86106000D03*
X71120000Y-88646000D03*
X68580000Y-86106000D03*
X68580000Y-88646000D03*
X66040000Y-86106000D03*
X66040000Y-88646000D03*
X63500000Y-86106000D03*
X63500000Y-88646000D03*
X60960000Y-86106000D03*
X60960000Y-88646000D03*
X58420000Y-86106000D03*
X58420000Y-88646000D03*
X55880000Y-86106000D03*
X55880000Y-88646000D03*
X53340000Y-86106000D03*
X53340000Y-88646000D03*
X50800000Y-86106000D03*
X50800000Y-88646000D03*
X48260000Y-86106000D03*
X48260000Y-88646000D03*
X45720000Y-86106000D03*
X45720000Y-88646000D03*
X43180000Y-86106000D03*
X43180000Y-88646000D03*
X40640000Y-86106000D03*
X40640000Y-88646000D03*
X38100000Y-86106000D03*
X38100000Y-88646000D03*
X35560000Y-86106000D03*
X35560000Y-88646000D03*
X33020000Y-86106000D03*
X33020000Y-88646000D03*
X30480000Y-86106000D03*
X30480000Y-88646000D03*
X27940000Y-86106000D03*
X27940000Y-88646000D03*
D13*
X73660000Y-31496000D03*
D14*
X71660000Y-31496000D03*
D11*
X83058000Y-37338000D03*
D12*
X83058000Y-34798000D03*
D11*
X83058000Y-55118000D03*
D12*
X83058000Y-52578000D03*
D11*
X83058000Y-72898000D03*
D12*
X83058000Y-70358000D03*
D11*
X83312000Y-89662000D03*
D12*
X83312000Y-87122000D03*
D11*
X85598000Y-100330000D03*
D12*
X88138000Y-100330000D03*
X90678000Y-100330000D03*
X93218000Y-100330000D03*
D15*
X112014000Y-33234000D03*
X112014000Y-28234000D03*
X112014000Y-50760000D03*
X112014000Y-45760000D03*
X112014000Y-69556000D03*
X112014000Y-64556000D03*
X112014000Y-87590000D03*
X112014000Y-82590000D03*
X95250000Y-106974000D03*
X95250000Y-111974000D03*
X110490000Y-106974000D03*
X110490000Y-111974000D03*
X124968000Y-106974000D03*
X124968000Y-111974000D03*
X139954000Y-106974000D03*
X139954000Y-111974000D03*
D11*
X116840000Y-122872500D03*
D12*
X119380000Y-122872500D03*
D11*
X91440000Y-122872500D03*
D12*
X93980000Y-122872500D03*
D11*
X103886000Y-122872500D03*
D12*
X106426000Y-122872500D03*
D11*
X132334000Y-122745500D03*
D12*
X134874000Y-122745500D03*
D11*
X83058000Y-27432000D03*
X83058000Y-45212000D03*
X83058000Y-62484000D03*
X83058000Y-79248000D03*
D16*
X47244000Y-33888000D03*
X47244000Y-30988000D03*
X47244000Y-28088000D03*
D13*
X150495000Y-127381000D03*
D14*
X152495000Y-127381000D03*
D11*
X149987000Y-121158000D03*
D12*
X152527000Y-121158000D03*
D17*
X34734500Y-31178500D03*
X39814500Y-31178500D03*
X115316000Y-134874000D03*
X120396000Y-134874000D03*
X89916000Y-134874000D03*
X94996000Y-134874000D03*
X102362000Y-134874000D03*
X107442000Y-134874000D03*
X130810000Y-134874000D03*
X135890000Y-134874000D03*
D18*
X165100000Y-32004000D03*
X165100000Y-37084000D03*
X165100000Y-42164000D03*
X165100000Y-48006000D03*
X165100000Y-53086000D03*
X165100000Y-58166000D03*
X165100000Y-64008000D03*
X165100000Y-69088000D03*
X165100000Y-74168000D03*
X165100000Y-80010000D03*
X165100000Y-85090000D03*
X165100000Y-90170000D03*
M02*
