G04 #@! TF.FileFunction,Soldermask,Top*
%FSLAX46Y46*%
G04 Gerber Fmt 4.6, Leading zero omitted, Abs format (unit mm)*
G04 Created by KiCad (PCBNEW 4.0.7-e2-6376~60~ubuntu17.10.1) date Wed Nov  8 13:38:44 2017*
%MOMM*%
%LPD*%
G01*
G04 APERTURE LIST*
%ADD10C,0.100000*%
%ADD11R,1.300000X0.700000*%
%ADD12R,0.700000X1.300000*%
%ADD13C,1.524000*%
%ADD14R,1.422400X0.279400*%
%ADD15R,1.700000X1.700000*%
%ADD16O,1.700000X1.700000*%
%ADD17R,1.500000X1.250000*%
%ADD18R,1.625600X0.889000*%
%ADD19R,1.625600X3.175000*%
%ADD20R,1.500000X1.300000*%
%ADD21R,1.350000X1.200000*%
%ADD22R,0.508000X1.320800*%
%ADD23R,1.800000X1.800000*%
%ADD24R,1.250000X1.500000*%
%ADD25R,1.300000X1.500000*%
%ADD26R,1.200000X1.350000*%
%ADD27R,1.200000X1.700000*%
%ADD28O,1.200000X1.700000*%
%ADD29R,2.000000X3.800000*%
%ADD30R,2.000000X1.500000*%
%ADD31R,1.400000X1.000000*%
%ADD32C,1.800000*%
%ADD33C,1.750000*%
%ADD34C,2.000000*%
%ADD35O,3.000000X2.000000*%
%ADD36C,3.200000*%
G04 APERTURE END LIST*
D10*
D11*
X102682000Y-104694000D03*
X102682000Y-106594000D03*
D12*
X86150000Y-63200000D03*
X84250000Y-63200000D03*
X85550000Y-22800000D03*
X83650000Y-22800000D03*
X99950000Y-31000000D03*
X98050000Y-31000000D03*
D13*
X74422000Y-136652000D03*
X71882000Y-136652000D03*
X74422000Y-134112000D03*
X71882000Y-134112000D03*
X74422000Y-131572000D03*
X71882000Y-131572000D03*
X74422000Y-129032000D03*
X71882000Y-129032000D03*
X74422000Y-126492000D03*
X71882000Y-126492000D03*
X74422000Y-123952000D03*
X71882000Y-123952000D03*
X74422000Y-121412000D03*
X71882000Y-121412000D03*
X74422000Y-118872000D03*
X71882000Y-118872000D03*
X74422000Y-116332000D03*
X71882000Y-116332000D03*
X74422000Y-113792000D03*
X71882000Y-113792000D03*
D14*
X112994400Y-107396600D03*
X112994400Y-106914000D03*
X112994400Y-106406000D03*
X112994400Y-105898000D03*
X112994400Y-105415400D03*
X108625600Y-105415400D03*
X108625600Y-105898000D03*
X108625600Y-106406000D03*
X108625600Y-106914000D03*
X108625600Y-107396600D03*
D15*
X75600000Y-50946000D03*
D16*
X75600000Y-53486000D03*
X73060000Y-50946000D03*
X73060000Y-53486000D03*
X70520000Y-50946000D03*
X70520000Y-53486000D03*
X67980000Y-50946000D03*
X67980000Y-53486000D03*
X65440000Y-50946000D03*
X65440000Y-53486000D03*
X62900000Y-50946000D03*
X62900000Y-53486000D03*
X60360000Y-50946000D03*
X60360000Y-53486000D03*
X57820000Y-50946000D03*
X57820000Y-53486000D03*
X55280000Y-50946000D03*
X55280000Y-53486000D03*
X52740000Y-50946000D03*
X52740000Y-53486000D03*
X50200000Y-50946000D03*
X50200000Y-53486000D03*
X47660000Y-50946000D03*
X47660000Y-53486000D03*
X45120000Y-50946000D03*
X45120000Y-53486000D03*
X42580000Y-50946000D03*
X42580000Y-53486000D03*
X40040000Y-50946000D03*
X40040000Y-53486000D03*
X37500000Y-50946000D03*
X37500000Y-53486000D03*
X34960000Y-50946000D03*
X34960000Y-53486000D03*
X32420000Y-50946000D03*
X32420000Y-53486000D03*
X29880000Y-50946000D03*
X29880000Y-53486000D03*
X27340000Y-50946000D03*
X27340000Y-53486000D03*
D17*
X99825000Y-49025000D03*
X97325000Y-49025000D03*
D18*
X103324600Y-31313600D03*
X103324600Y-33625000D03*
X103324600Y-35936400D03*
D19*
X109725400Y-33625000D03*
D20*
X97025000Y-87225000D03*
X99725000Y-87225000D03*
D17*
X99825000Y-89225000D03*
X97325000Y-89225000D03*
D21*
X100325000Y-82425000D03*
X96975000Y-82425000D03*
D15*
X87725000Y-86225000D03*
D20*
X93725000Y-85825000D03*
X91025000Y-85825000D03*
D21*
X91175000Y-96025000D03*
X94525000Y-96025000D03*
D15*
X87525000Y-92565000D03*
D16*
X87525000Y-90025000D03*
D21*
X91175000Y-93625000D03*
X94525000Y-93625000D03*
D22*
X93455400Y-88285000D03*
X92820400Y-88285000D03*
X92160000Y-88285000D03*
X91525000Y-88285000D03*
X91525000Y-90825000D03*
X92160000Y-90825000D03*
X92820400Y-90825000D03*
X93455400Y-90825000D03*
D20*
X97225000Y-93625000D03*
X99925000Y-93625000D03*
X97225000Y-96025000D03*
X99925000Y-96025000D03*
X99925000Y-84625000D03*
X97225000Y-84625000D03*
X97125000Y-26025000D03*
X99825000Y-26025000D03*
D15*
X75600000Y-43326000D03*
D16*
X73060000Y-43326000D03*
X70520000Y-43326000D03*
X67980000Y-43326000D03*
X65440000Y-43326000D03*
X62900000Y-43326000D03*
X60360000Y-43326000D03*
X57820000Y-43326000D03*
X55280000Y-43326000D03*
X52740000Y-43326000D03*
X50200000Y-43326000D03*
X47660000Y-43326000D03*
X45120000Y-43326000D03*
X42580000Y-43326000D03*
X40040000Y-43326000D03*
X37500000Y-43326000D03*
X34960000Y-43326000D03*
X32420000Y-43326000D03*
X29880000Y-43326000D03*
X27340000Y-43326000D03*
D23*
X59102000Y-23324000D03*
X64902000Y-23324000D03*
X107902000Y-134324000D03*
X113702000Y-134324000D03*
D17*
X99825000Y-28425000D03*
X97325000Y-28425000D03*
X99775000Y-69225000D03*
X97275000Y-69225000D03*
D24*
X104968000Y-106894000D03*
X104968000Y-104394000D03*
D25*
X160426000Y-41986000D03*
X160426000Y-39286000D03*
X160426000Y-56972000D03*
X160426000Y-54272000D03*
X160680000Y-73228000D03*
X160680000Y-70528000D03*
X160680000Y-87960000D03*
X160680000Y-85260000D03*
X160426000Y-48590000D03*
X160426000Y-45890000D03*
X160426000Y-64592000D03*
X160426000Y-61892000D03*
X160680000Y-80594000D03*
X160680000Y-77894000D03*
X160680000Y-94818000D03*
X160680000Y-92118000D03*
D21*
X90825000Y-33225000D03*
X94175000Y-33225000D03*
X90575000Y-53425000D03*
X93925000Y-53425000D03*
X90775000Y-73625000D03*
X94125000Y-73625000D03*
D26*
X93792000Y-117914000D03*
X93792000Y-121264000D03*
X109286000Y-118168000D03*
X109286000Y-121518000D03*
X124526000Y-118168000D03*
X124526000Y-121518000D03*
X139258000Y-118422000D03*
X139258000Y-121772000D03*
X56402000Y-28224000D03*
X56402000Y-24874000D03*
D21*
X100125000Y-21425000D03*
X96775000Y-21425000D03*
X100425000Y-42625000D03*
X97075000Y-42625000D03*
X100325000Y-62425000D03*
X96975000Y-62425000D03*
D15*
X152933000Y-41398000D03*
D16*
X152933000Y-43938000D03*
X152933000Y-46478000D03*
D15*
X152806000Y-56892000D03*
D16*
X152806000Y-59432000D03*
X152806000Y-61972000D03*
D15*
X153060000Y-73148000D03*
D16*
X153060000Y-75688000D03*
X153060000Y-78228000D03*
D15*
X153314000Y-87626000D03*
D16*
X153314000Y-90166000D03*
X153314000Y-92706000D03*
D15*
X126745600Y-39213600D03*
D16*
X129285600Y-39213600D03*
X126745600Y-41753600D03*
X129285600Y-41753600D03*
X126745600Y-44293600D03*
X129285600Y-44293600D03*
D15*
X126999600Y-51507200D03*
D16*
X129539600Y-51507200D03*
X126999600Y-54047200D03*
X129539600Y-54047200D03*
X126999600Y-56587200D03*
X129539600Y-56587200D03*
D15*
X129501500Y-71382700D03*
D16*
X132041500Y-71382700D03*
X129501500Y-73922700D03*
X132041500Y-73922700D03*
X129501500Y-76462700D03*
X132041500Y-76462700D03*
D15*
X129438000Y-84070000D03*
D16*
X131978000Y-84070000D03*
X129438000Y-86610000D03*
X131978000Y-86610000D03*
X129438000Y-89150000D03*
X131978000Y-89150000D03*
D15*
X75600000Y-40786000D03*
D16*
X73060000Y-40786000D03*
X70520000Y-40786000D03*
X67980000Y-40786000D03*
X65440000Y-40786000D03*
X62900000Y-40786000D03*
X60360000Y-40786000D03*
X57820000Y-40786000D03*
X55280000Y-40786000D03*
X52740000Y-40786000D03*
X50200000Y-40786000D03*
X47660000Y-40786000D03*
X45120000Y-40786000D03*
X42580000Y-40786000D03*
X40040000Y-40786000D03*
X37500000Y-40786000D03*
X34960000Y-40786000D03*
X32420000Y-40786000D03*
X29880000Y-40786000D03*
X27340000Y-40786000D03*
D15*
X75600000Y-96666000D03*
D16*
X73060000Y-96666000D03*
X70520000Y-96666000D03*
X67980000Y-96666000D03*
X65440000Y-96666000D03*
X62900000Y-96666000D03*
X60360000Y-96666000D03*
X57820000Y-96666000D03*
X55280000Y-96666000D03*
X52740000Y-96666000D03*
X50200000Y-96666000D03*
X47660000Y-96666000D03*
X45120000Y-96666000D03*
X42580000Y-96666000D03*
X40040000Y-96666000D03*
X37500000Y-96666000D03*
X34960000Y-96666000D03*
X32420000Y-96666000D03*
X29880000Y-96666000D03*
X27340000Y-96666000D03*
D15*
X75600000Y-99206000D03*
D16*
X73060000Y-99206000D03*
X70520000Y-99206000D03*
X67980000Y-99206000D03*
X65440000Y-99206000D03*
X62900000Y-99206000D03*
X60360000Y-99206000D03*
X57820000Y-99206000D03*
X55280000Y-99206000D03*
X52740000Y-99206000D03*
X50200000Y-99206000D03*
X47660000Y-99206000D03*
X45120000Y-99206000D03*
X42580000Y-99206000D03*
X40040000Y-99206000D03*
X37500000Y-99206000D03*
X34960000Y-99206000D03*
X32420000Y-99206000D03*
X29880000Y-99206000D03*
X27340000Y-99206000D03*
D15*
X75600000Y-86506000D03*
D16*
X75600000Y-89046000D03*
X73060000Y-86506000D03*
X73060000Y-89046000D03*
X70520000Y-86506000D03*
X70520000Y-89046000D03*
X67980000Y-86506000D03*
X67980000Y-89046000D03*
X65440000Y-86506000D03*
X65440000Y-89046000D03*
X62900000Y-86506000D03*
X62900000Y-89046000D03*
X60360000Y-86506000D03*
X60360000Y-89046000D03*
X57820000Y-86506000D03*
X57820000Y-89046000D03*
X55280000Y-86506000D03*
X55280000Y-89046000D03*
X52740000Y-86506000D03*
X52740000Y-89046000D03*
X50200000Y-86506000D03*
X50200000Y-89046000D03*
X47660000Y-86506000D03*
X47660000Y-89046000D03*
X45120000Y-86506000D03*
X45120000Y-89046000D03*
X42580000Y-86506000D03*
X42580000Y-89046000D03*
X40040000Y-86506000D03*
X40040000Y-89046000D03*
X37500000Y-86506000D03*
X37500000Y-89046000D03*
X34960000Y-86506000D03*
X34960000Y-89046000D03*
X32420000Y-86506000D03*
X32420000Y-89046000D03*
X29880000Y-86506000D03*
X29880000Y-89046000D03*
X27340000Y-86506000D03*
X27340000Y-89046000D03*
D27*
X71402000Y-26524000D03*
D28*
X69402000Y-26524000D03*
D15*
X87725000Y-32165000D03*
D16*
X87725000Y-29625000D03*
D15*
X87725000Y-53225000D03*
D16*
X87725000Y-50685000D03*
D15*
X87525000Y-72825000D03*
D16*
X87525000Y-70285000D03*
D15*
X90998000Y-107930000D03*
D16*
X93538000Y-107930000D03*
X96078000Y-107930000D03*
X98618000Y-107930000D03*
D29*
X132892000Y-41652000D03*
D30*
X139192000Y-41652000D03*
X139192000Y-39352000D03*
X139192000Y-43952000D03*
D29*
X133146000Y-54352000D03*
D30*
X139446000Y-54352000D03*
X139446000Y-52052000D03*
X139446000Y-56652000D03*
D31*
X135831000Y-76577000D03*
X138031000Y-75627000D03*
X138031000Y-77527000D03*
X135958000Y-90039000D03*
X138158000Y-89089000D03*
X138158000Y-90989000D03*
D18*
X103724600Y-51313600D03*
X103724600Y-53625000D03*
X103724600Y-55936400D03*
D19*
X110125400Y-53625000D03*
D18*
X103324600Y-22113600D03*
X103324600Y-24425000D03*
X103324600Y-26736400D03*
D19*
X109725400Y-24425000D03*
D18*
X103540600Y-42313600D03*
X103540600Y-44625000D03*
X103540600Y-46936400D03*
D19*
X109941400Y-44625000D03*
D18*
X103724600Y-71313600D03*
X103724600Y-73625000D03*
X103724600Y-75936400D03*
D19*
X110125400Y-73625000D03*
D18*
X103524600Y-91313600D03*
X103524600Y-93625000D03*
X103524600Y-95936400D03*
D19*
X109925400Y-93625000D03*
D18*
X103524600Y-62113600D03*
X103524600Y-64425000D03*
X103524600Y-66736400D03*
D19*
X109925400Y-64425000D03*
D18*
X103524600Y-82113600D03*
X103524600Y-84425000D03*
X103524600Y-86736400D03*
D19*
X109925400Y-84425000D03*
D31*
X91168000Y-112248000D03*
X93368000Y-111298000D03*
X93368000Y-113198000D03*
X106916000Y-112756000D03*
X109116000Y-111806000D03*
X109116000Y-113706000D03*
X122156000Y-112248000D03*
X124356000Y-111298000D03*
X124356000Y-113198000D03*
X136634000Y-112502000D03*
X138834000Y-111552000D03*
X138834000Y-113452000D03*
D25*
X157124000Y-39286000D03*
X157124000Y-41986000D03*
X157124000Y-54272000D03*
X157124000Y-56972000D03*
X157124000Y-70528000D03*
X157124000Y-73228000D03*
X157124000Y-85260000D03*
X157124000Y-87960000D03*
X157124000Y-45890000D03*
X157124000Y-48590000D03*
X157124000Y-61892000D03*
X157124000Y-64592000D03*
X157124000Y-77894000D03*
X157124000Y-80594000D03*
X157124000Y-92118000D03*
X157124000Y-94818000D03*
X142138000Y-44272000D03*
X142138000Y-41572000D03*
X142138000Y-36492000D03*
X142138000Y-39192000D03*
X142392000Y-56972000D03*
X142392000Y-54272000D03*
X142392000Y-49192000D03*
X142392000Y-51892000D03*
D20*
X138408000Y-69211000D03*
X135708000Y-69211000D03*
X135771500Y-73059100D03*
X138471500Y-73059100D03*
X138535000Y-82927000D03*
X135835000Y-82927000D03*
X135835000Y-86864000D03*
X138535000Y-86864000D03*
X71450000Y-83884000D03*
X74150000Y-83884000D03*
X97375000Y-33425000D03*
X100075000Y-33425000D03*
X97225000Y-53425000D03*
X99925000Y-53425000D03*
D32*
X115925000Y-31925000D03*
X115925000Y-26925000D03*
X116139000Y-51785000D03*
X116139000Y-46785000D03*
D20*
X93725000Y-25625000D03*
X91025000Y-25625000D03*
X93925000Y-45625000D03*
X91225000Y-45625000D03*
X97025000Y-23625000D03*
X99725000Y-23625000D03*
X97175000Y-44625000D03*
X99875000Y-44625000D03*
X97225000Y-46825000D03*
X99925000Y-46825000D03*
X97225000Y-73425000D03*
X99925000Y-73425000D03*
D32*
X115925000Y-71825000D03*
X115925000Y-66825000D03*
X115925000Y-91825000D03*
X115925000Y-86825000D03*
D20*
X93875000Y-65825000D03*
X91175000Y-65825000D03*
X99925000Y-64625000D03*
X97225000Y-64625000D03*
X97225000Y-67225000D03*
X99925000Y-67225000D03*
D25*
X90998000Y-121218000D03*
X90998000Y-118518000D03*
X106746000Y-121218000D03*
X106746000Y-118518000D03*
X121986000Y-121218000D03*
X121986000Y-118518000D03*
X136464000Y-121472000D03*
X136464000Y-118772000D03*
D32*
X100650000Y-114574000D03*
X100650000Y-119574000D03*
X115890000Y-114574000D03*
X115890000Y-119574000D03*
X130368000Y-114574000D03*
X130368000Y-119574000D03*
X145354000Y-114574000D03*
X145354000Y-119574000D03*
D25*
X116652000Y-105056000D03*
X116652000Y-107756000D03*
X123510000Y-105056000D03*
X123510000Y-107756000D03*
X139766000Y-105056000D03*
X139766000Y-107756000D03*
X129860000Y-105056000D03*
X129860000Y-107756000D03*
X119954000Y-107756000D03*
X119954000Y-105056000D03*
X126812000Y-107756000D03*
X126812000Y-105056000D03*
X136464000Y-107756000D03*
X136464000Y-105056000D03*
X133162000Y-107756000D03*
X133162000Y-105056000D03*
D13*
X162712000Y-44192000D03*
X162712000Y-58924000D03*
X162966000Y-75942000D03*
X162966000Y-89912000D03*
X146202000Y-44192000D03*
X146202000Y-57146000D03*
X146202000Y-40636000D03*
X146202000Y-36826000D03*
X146202000Y-53590000D03*
X145948000Y-49272000D03*
D22*
X93655400Y-27885000D03*
X93020400Y-27885000D03*
X92360000Y-27885000D03*
X91725000Y-27885000D03*
X91725000Y-30425000D03*
X92360000Y-30425000D03*
X93020400Y-30425000D03*
X93655400Y-30425000D03*
X93325000Y-48025000D03*
X92690000Y-48025000D03*
X92029600Y-48025000D03*
X91394600Y-48025000D03*
X91394600Y-50565000D03*
X92029600Y-50565000D03*
X92690000Y-50565000D03*
X93325000Y-50565000D03*
X93490200Y-68355000D03*
X92855200Y-68355000D03*
X92194800Y-68355000D03*
X91559800Y-68355000D03*
X91559800Y-70895000D03*
X92194800Y-70895000D03*
X92855200Y-70895000D03*
X93490200Y-70895000D03*
D21*
X90825000Y-35825000D03*
X94175000Y-35825000D03*
X90575000Y-56025000D03*
X93925000Y-56025000D03*
X90575000Y-75625000D03*
X93925000Y-75625000D03*
D20*
X97375000Y-36025000D03*
X100075000Y-36025000D03*
X97225000Y-56025000D03*
X99925000Y-56025000D03*
X97225000Y-75625000D03*
X99925000Y-75625000D03*
D15*
X95002000Y-128924000D03*
D16*
X97542000Y-128924000D03*
D15*
X123902000Y-128924000D03*
D16*
X126442000Y-128924000D03*
D15*
X109402000Y-128924000D03*
D16*
X111942000Y-128924000D03*
D15*
X137402000Y-128924000D03*
D16*
X139942000Y-128924000D03*
D15*
X87925000Y-26225000D03*
X87925000Y-46225000D03*
X87725000Y-66225000D03*
X130800000Y-29200000D03*
D16*
X128260000Y-29200000D03*
D20*
X63552000Y-27924000D03*
X60852000Y-27924000D03*
D33*
X37862000Y-23924000D03*
X42942000Y-23924000D03*
X93862000Y-142524000D03*
X98942000Y-142524000D03*
X122462000Y-142524000D03*
X127542000Y-142524000D03*
X108262000Y-142524000D03*
X113342000Y-142524000D03*
X136262000Y-142524000D03*
X141342000Y-142524000D03*
D34*
X168300000Y-38604000D03*
X168300000Y-43684000D03*
X168300000Y-48764000D03*
X168300000Y-54606000D03*
X168300000Y-59686000D03*
X168300000Y-64766000D03*
X168300000Y-70608000D03*
X168300000Y-75688000D03*
X168300000Y-80768000D03*
X168300000Y-86610000D03*
X168300000Y-91690000D03*
X168300000Y-96770000D03*
D21*
X82300000Y-140000000D03*
X78950000Y-140000000D03*
X82300000Y-143200000D03*
X78950000Y-143200000D03*
D27*
X130505000Y-24419000D03*
D28*
X128505000Y-24419000D03*
D23*
X135902000Y-134324000D03*
X141702000Y-134324000D03*
X122102000Y-134324000D03*
X127902000Y-134324000D03*
X93502000Y-134324000D03*
X99302000Y-134324000D03*
D35*
X50202000Y-28024000D03*
X50202000Y-25124000D03*
X50202000Y-22224000D03*
D36*
X29200000Y-108000000D03*
X29200000Y-142400000D03*
X74000000Y-142600000D03*
X74000000Y-107800000D03*
D15*
X138240000Y-26200000D03*
D16*
X140780000Y-26200000D03*
X143320000Y-26200000D03*
X145860000Y-26200000D03*
X148400000Y-26200000D03*
D12*
X86150000Y-43000000D03*
X84250000Y-43000000D03*
X99550000Y-71225000D03*
X97650000Y-71225000D03*
X99525000Y-51025000D03*
X97625000Y-51025000D03*
X99750000Y-91600000D03*
X97850000Y-91600000D03*
X88350000Y-83200000D03*
X86450000Y-83200000D03*
M02*
