M48
;DRILL file {KiCad 4.0.7-e2-6376~60~ubuntu17.10.1} date Wed Nov  8 13:38:49 2017
;FORMAT={2:4/ absolute / inch / suppress leading zeros}
FMAT,2
INCH,TZ
T1C0.016
T2C0.024
T3C0.030
T4C0.030
T5C0.031
T6C0.039
T7C0.047
T8C0.126
%
G90
G05
M72
T1
X10764Y-17057
X10764Y-17913
X26850Y-36614
X27165Y-44252
X27165Y-47795
X27480Y-45748
X27483Y-44800
X27795Y-36614
X28268Y-21969
X28740Y-52362
X29764Y-18976
X29764Y-32992
X29833Y-14252
X29833Y-15039
X30630Y-32992
X30630Y-35669
X31102Y-54488
X32835Y-47402
X32835Y-47874
X32874Y-21969
X33071Y-56378
X34537Y-13868
X34567Y-23780
X34567Y-31890
X34616Y-37254
X34724Y-29665
X34774Y-22057
X34961Y-44016
X34970Y-22756
X35078Y-35866
X35118Y-56378
X35157Y-35561
X35205Y-28397
X35305Y-38307
X35325Y-16388
X35325Y-20482
X35384Y-12372
X35581Y-28061
X35620Y-19882
X35650Y-35636
X35699Y-36230
X35797Y-8435
X35797Y-11919
X35984Y-22785
X36191Y-21506
X36270Y-37254
X36348Y-11476
X36427Y-20404
X36427Y-36230
X36467Y-29350
X36585Y-12451
X36850Y-33071
X36929Y-32362
X37185Y-22785
X37368Y-28037
X37372Y-9616
X37451Y-17175
X37549Y-25187
X37559Y-23622
X37608Y-29154
X37608Y-29852
X38317Y-13711
X38661Y-47795
X38789Y-17648
X38789Y-21112
X38789Y-25443
X38789Y-28750
X38789Y-29695
X38789Y-32293
X38789Y-33396
X38789Y-35522
X38848Y-22057
X38848Y-38730
X38868Y-13081
X38868Y-14183
X38868Y-16545
X39321Y-22677
X39341Y-11663
X39341Y-30285
X39390Y-40384
X39390Y-41604
X39439Y-14892
X39722Y-29341
X39734Y-35128
X39803Y-27254
X39813Y-13711
X39813Y-19301
X39813Y-21506
X39813Y-37333
X40207Y-9616
X40207Y-39242
X40217Y-38179
X40285Y-34656
X40285Y-35522
X40600Y-17096
X41146Y-24094
X41230Y-16073
X41309Y-32844
X41388Y-31742
X41398Y-15079
X41467Y-8278
X41594Y-30965
X41654Y-18504
X41693Y-22982
X41781Y-10482
X41781Y-14183
X41781Y-29852
X41860Y-22057
X41860Y-26230
X41860Y-34104
X41860Y-37805
X42008Y-42047
X42283Y-45276
X42933Y-15079
X43150Y-19291
X43150Y-42913
X43209Y-41073
X43307Y-22992
X43543Y-30945
X43543Y-42913
X43622Y-27244
X43622Y-42047
X44646Y-48031
X44852Y-17569
X44852Y-28986
X44931Y-9852
X44931Y-21112
X44931Y-25364
X45010Y-36860
X45246Y-33238
X46171Y-46053
X46693Y-42884
X47313Y-46083
X48346Y-45039
X50551Y-47559
X53465Y-26584
X53465Y-32017
X53858Y-45591
X54961Y-29813
X55040Y-35088
X56457Y-47559
T2
X31417Y-44646
X32283Y-44646
X32835Y-44747
X33386Y-44724
X44931Y-13238
T3
X27324Y-10443
X28111Y-10443
X50593Y-9614
X51380Y-9614
T4
X28300Y-44800
X28300Y-45800
X28300Y-46800
X28300Y-47800
X28300Y-48800
X28300Y-49800
X28300Y-50800
X28300Y-51800
X28300Y-52800
X28300Y-53800
X29300Y-44800
X29300Y-45800
X29300Y-46800
X29300Y-47800
X29300Y-48800
X29300Y-49800
X29300Y-50800
X29300Y-51800
X29300Y-52800
X29300Y-53800
T6
X10764Y-16057
X10764Y-17057
X10764Y-20057
X10764Y-21057
X10764Y-34057
X10764Y-35057
X10764Y-38057
X10764Y-39057
X11764Y-16057
X11764Y-17057
X11764Y-20057
X11764Y-21057
X11764Y-34057
X11764Y-35057
X11764Y-38057
X11764Y-39057
X12764Y-16057
X12764Y-17057
X12764Y-20057
X12764Y-21057
X12764Y-34057
X12764Y-35057
X12764Y-38057
X12764Y-39057
X13764Y-16057
X13764Y-17057
X13764Y-20057
X13764Y-21057
X13764Y-34057
X13764Y-35057
X13764Y-38057
X13764Y-39057
X14764Y-16057
X14764Y-17057
X14764Y-20057
X14764Y-21057
X14764Y-34057
X14764Y-35057
X14764Y-38057
X14764Y-39057
X14906Y-9419
X15764Y-16057
X15764Y-17057
X15764Y-20057
X15764Y-21057
X15764Y-34057
X15764Y-35057
X15764Y-38057
X15764Y-39057
X16764Y-16057
X16764Y-17057
X16764Y-20057
X16764Y-21057
X16764Y-34057
X16764Y-35057
X16764Y-38057
X16764Y-39057
X16906Y-9419
X17764Y-16057
X17764Y-17057
X17764Y-20057
X17764Y-21057
X17764Y-34057
X17764Y-35057
X17764Y-38057
X17764Y-39057
X18764Y-16057
X18764Y-17057
X18764Y-20057
X18764Y-21057
X18764Y-34057
X18764Y-35057
X18764Y-38057
X18764Y-39057
X19764Y-16057
X19764Y-17057
X19764Y-20057
X19764Y-21057
X19764Y-34057
X19764Y-35057
X19764Y-38057
X19764Y-39057
X20764Y-16057
X20764Y-17057
X20764Y-20057
X20764Y-21057
X20764Y-34057
X20764Y-35057
X20764Y-38057
X20764Y-39057
X21764Y-16057
X21764Y-17057
X21764Y-20057
X21764Y-21057
X21764Y-34057
X21764Y-35057
X21764Y-38057
X21764Y-39057
X22764Y-16057
X22764Y-17057
X22764Y-20057
X22764Y-21057
X22764Y-34057
X22764Y-35057
X22764Y-38057
X22764Y-39057
X23764Y-16057
X23764Y-17057
X23764Y-20057
X23764Y-21057
X23764Y-34057
X23764Y-35057
X23764Y-38057
X23764Y-39057
X24764Y-16057
X24764Y-17057
X24764Y-20057
X24764Y-21057
X24764Y-34057
X24764Y-35057
X24764Y-38057
X24764Y-39057
X25764Y-16057
X25764Y-17057
X25764Y-20057
X25764Y-21057
X25764Y-34057
X25764Y-35057
X25764Y-38057
X25764Y-39057
X26764Y-16057
X26764Y-17057
X26764Y-20057
X26764Y-21057
X26764Y-34057
X26764Y-35057
X26764Y-38057
X26764Y-39057
X27764Y-16057
X27764Y-17057
X27764Y-20057
X27764Y-21057
X27764Y-34057
X27764Y-35057
X27764Y-38057
X27764Y-39057
X28764Y-16057
X28764Y-17057
X28764Y-20057
X28764Y-21057
X28764Y-34057
X28764Y-35057
X28764Y-38057
X28764Y-39057
X29764Y-16057
X29764Y-17057
X29764Y-20057
X29764Y-21057
X29764Y-34057
X29764Y-35057
X29764Y-38057
X29764Y-39057
X34459Y-27671
X34459Y-28671
X34459Y-35443
X34459Y-36443
X34537Y-11663
X34537Y-12663
X34537Y-19955
X34537Y-20955
X34537Y-26073
X34537Y-33947
X34616Y-10325
X34616Y-18199
X35826Y-42492
X36826Y-42492
X36954Y-56112
X37402Y-50757
X37826Y-42492
X38402Y-50757
X38826Y-42492
X38954Y-56112
X42623Y-56112
X43072Y-50757
X44072Y-50757
X44623Y-56112
X48213Y-56112
X48780Y-50757
X49780Y-50757
X49900Y-15438
X49900Y-16438
X49900Y-17438
X50000Y-20278
X50000Y-21278
X50000Y-22278
X50213Y-56112
X50496Y-11496
X50900Y-15438
X50900Y-16438
X50900Y-17438
X50960Y-33098
X50960Y-34098
X50960Y-35098
X50985Y-28103
X50985Y-29103
X50985Y-30103
X51000Y-20278
X51000Y-21278
X51000Y-22278
X51496Y-11496
X51960Y-33098
X51960Y-34098
X51960Y-35098
X51985Y-28103
X51985Y-29103
X51985Y-30103
X53646Y-56112
X54095Y-50757
X54425Y-10315
X55095Y-50757
X55425Y-10315
X55646Y-56112
X56425Y-10315
X57425Y-10315
X58425Y-10315
X60160Y-22398
X60160Y-23398
X60160Y-24398
X60210Y-16298
X60210Y-17298
X60210Y-18298
X60260Y-28798
X60260Y-29798
X60260Y-30798
X60360Y-34498
X60360Y-35498
X60360Y-36498
X66260Y-15198
X66260Y-17198
X66260Y-19198
X66260Y-21498
X66260Y-23498
X66260Y-25498
X66260Y-27798
X66260Y-29798
X66260Y-31798
X66260Y-34098
X66260Y-36098
X66260Y-38098
T7
X39626Y-45108
X39626Y-47076
X45626Y-45108
X45626Y-47076
X45640Y-10600
X45640Y-12569
X45640Y-26309
X45640Y-28278
X45640Y-34183
X45640Y-36152
X45724Y-18419
X45724Y-20388
X51326Y-45108
X51326Y-47076
X57226Y-45108
X57226Y-47076
T8
X11496Y-42520
X11496Y-56063
X29134Y-42441
X29134Y-56142
T5
X19568Y-8750G85X19961Y-8750
G05
X19568Y-9891G85X19961Y-9891
G05
X19568Y-11033G85X19961Y-11033
G05
T0
M30
